<?xml version="1.0" encoding="utf-8"?>
<!-- Generator: Adobe Illustrator 18.1.1, SVG Export Plug-In . SVG Version: 6.00 Build 0)  -->
<svg version="1.1" id="Layer_1" xmlns="http://www.w3.org/2000/svg" xmlns:xlink="http://www.w3.org/1999/xlink" x="0px" y="0px"
	 viewBox="0 0 28.3 28.3" enable-background="new 0 0 28.3 28.3" xml:space="preserve">
<rect x="0" y="0" fill="none" width="24.8" height="28.3"/>
<g>
	<path fill="#75471C" d="M18.4,0.9c-0.2,0.1-0.3,0.1-0.5,0c-0.1-0.1-0.3-0.1-0.3-0.2c-0.2,0.1-0.4,0-0.5-0.1c-0.1,0-0.2,0-0.3,0
		c0,0-0.1,0-0.3,0c0,0.1,0,0.1,0.1,0.1c0,0,0.1,0,0.1,0.1c0.6,0.2,1.2,0.3,1.8,0.5s1.1,0.3,1.6,0.6c0.2,0.2,0.4,0.3,0.8,0.4
		c0.1,0.1,0.1,0.2,0.3,0.2c0.1,0.1,0.2,0.1,0.4,0.2c0.1,0.1,0.2,0.1,0.4,0.2c0.1,0.1,0.2,0.1,0.3,0.2c0,0.1,0,0.1,0,0.1c0,0,0,0,0,0
		c0,0,0,0-0.1,0c0,0,0,0-0.1,0C22,3,22.1,3.1,22.2,3.2c0.1,0.1,0.1,0.1,0.2,0.2c0,0,0,0,0,0.1c0,0,0,0.1,0,0.1
		c0.2,0.2,0.3,0.4,0.5,0.6c0.1,0.2,0.2,0.5,0.3,0.8c0-0.3,0.1-0.6,0-0.8c0-0.3,0-0.6,0.1-0.9c0,0.1,0,0.2,0,0.3c0,0.1,0,0.2,0,0.4
		c0,0.1,0,0.2,0,0.3c0,0.1,0.1,0.2,0.1,0.3c-0.1,0.2-0.1,0.3-0.1,0.5c0,0.2,0,0.4,0,0.5c0,0.2,0.1,0.3,0.1,0.5c0,0.2,0,0.3,0,0.5
		c0,0.1,0,0.1-0.1,0.2c0,0.1,0,0.2,0,0.3c0,0.1,0,0.1,0.1,0.1c0,0,0.1,0.1,0.1,0.1c0,0.2,0,0.4-0.1,0.5c0,0.1,0,0.3,0,0.5
		c-0.1,0.1-0.2,0.2-0.2,0.4c0-0.1,0-0.1-0.1-0.1c0,0.3-0.1,0.6-0.1,0.8c0,0.2,0,0.5,0,0.8C23,9.9,23,9.7,23,9.5c0-0.2,0-0.4,0-0.6
		c-0.3,0.7-0.6,1.3-1,1.8c-0.4,0.5-0.9,1-1.5,1.4c0.2-0.2,0.4-0.4,0.6-0.6c0.2-0.2,0.4-0.4,0.6-0.6c0.1-0.2,0.2-0.4,0.3-0.5
		c0.1-0.1,0.2-0.3,0.3-0.4c-0.5,0.5-1,1-1.6,1.6c-0.6,0.5-1.2,1-1.9,1.4c0.4,0.1,0.8,0.2,1.2,0.3c0.3,0.1,0.7,0.2,1,0.3
		c0,0,0-0.1,0-0.1c-0.1,0-0.1,0-0.1-0.1c0,0,0,0,0,0c0,0,0.1,0.1,0.1,0.1c0,0,0.1,0,0.1,0.1c0,0,0.1,0,0.1-0.1
		c0.3,0.3,0.7,0.5,1,0.8c0.3,0.3,0.6,0.5,0.9,0.8c0.3,0.3,0.6,0.6,0.8,0.9c0.2,0.3,0.5,0.7,0.6,1.1c0,0,0,0,0-0.1
		c0-0.1,0-0.1,0.1-0.1c0,0,0.1,0,0.1,0.1c0,0.1,0,0.1,0,0.2c0,0.1,0,0.1,0,0.2c0,0.1,0,0.1,0,0.1c0.1,0.1,0.1,0.2,0.2,0.4
		c0,0.1,0,0.3,0,0.4c0,0.2,0,0.3,0,0.5c0,0.2,0,0.3,0.1,0.5C25,19.4,25,19.5,25,19.7c0,0.2,0,0.3,0,0.5c0,0.2,0,0.4-0.1,0.6
		c-0.1,0.2-0.2,0.4-0.2,0.6c-0.1,0.3-0.1,0.7-0.1,1.1c0,0.4,0,0.8-0.1,1.1c-0.1,0.4-0.1,0.9-0.1,1.3s-0.1,0.9-0.1,1.3
		c0-0.3,0-0.7,0-1c0-0.4,0-0.7,0.1-1.1s0.1-0.7,0.1-1.1c0-0.4,0.1-0.7,0.1-1c-0.1,0-0.1,0.1-0.2,0.1c-0.1,0.1-0.1,0.1-0.2,0.2
		c0,0.1-0.1,0.2-0.2,0.3c-0.1,0.1-0.1,0.2-0.2,0.3v0.2c-0.1,0.2-0.3,0.4-0.5,0.5S23,24,22.9,24.2c0.1,0,0.1-0.1,0.2-0.1
		c0.1-0.1,0.1-0.1,0.2-0.2c0.1-0.1,0.1-0.2,0.2-0.3c0.1-0.1,0.1-0.2,0.2-0.2c0,0.1,0.1,0.1,0.1,0.2c0,0.1,0,0.1-0.1,0.2
		c0,0.1-0.1,0.1-0.1,0.2c0,0.1-0.1,0.1-0.1,0.2c-0.1,0.2-0.3,0.4-0.4,0.5c-0.1,0.1-0.3,0.3-0.5,0.5c-0.3,0.2-0.6,0.3-0.9,0.5
		c-0.3,0.2-0.6,0.3-0.9,0.5c-0.1,0.1-0.2,0.2-0.3,0.3c-0.1,0.1-0.2,0.1-0.3,0.2c-0.1,0-0.1,0-0.1-0.1c-0.6,0.4-1.1,0.7-1.7,1
		c-0.6,0.3-1.3,0.5-2.1,0.5c-0.3,0-0.6,0.1-0.9,0.2c-0.3,0.1-0.6,0.1-0.9,0.2c-0.3,0-0.6,0.1-0.9,0.1c-0.3,0-0.6,0-0.9-0.1
		c-0.3,0-0.6-0.1-0.9-0.1c-0.3,0-0.6-0.1-0.9-0.1c-0.1,0-0.2-0.1-0.4-0.1s-0.3,0-0.4,0c-0.1,0-0.3,0-0.4,0c-0.1,0-0.2-0.1-0.3-0.2
		c0.6,0,1.1,0.1,1.6,0.2c0.5,0.1,0.9,0.1,1.4,0.2c0.5,0,0.9,0.1,1.4,0.1c0.5,0,1-0.1,1.5-0.2c-0.8,0-1.5-0.1-2.2-0.1
		c-0.6,0-1.2-0.1-1.9-0.2c0.1,0.1,0.2,0.1,0.4,0.1c0.2,0,0.3,0,0.5,0.1c0.2,0,0.3,0,0.5,0.1c0.2,0,0.3,0.1,0.4,0.1
		c-0.5,0-1,0-1.5-0.2c-0.5-0.1-1.1-0.3-1.7-0.4c-0.4,0-0.7-0.1-1-0.3c-0.3-0.1-0.7-0.3-1.1-0.4c-0.4-0.1-0.7-0.2-1-0.3
		c-0.3-0.1-0.6-0.2-0.9-0.3c-0.2-0.1-0.3-0.1-0.5-0.2s-0.3-0.2-0.3-0.3c0.3,0,0.5,0.1,0.6,0.2c0.2,0.1,0.3,0.2,0.5,0.3
		c-0.2-0.1-0.3-0.3-0.5-0.4c-0.2-0.1-0.4-0.3-0.5-0.5c-0.2-0.2-0.3-0.3-0.5-0.5c-0.1-0.2-0.2-0.4-0.3-0.7C4,24.4,4,24.6,4,24.8
		c0,0.2,0,0.4,0,0.6c0,0.2,0,0.4,0,0.6c0,0.2,0,0.4,0,0.5C4,26.3,4,26.1,4,25.9c0-0.2,0-0.4,0-0.7c0,0,0-0.1,0-0.2
		c0-0.1,0-0.2,0-0.2c0-0.1,0-0.3,0-0.4c0-0.1,0-0.3,0-0.4c0-0.1-0.1-0.1-0.2-0.2c-0.1,0-0.1-0.1-0.2-0.2c-0.1-0.1-0.1-0.2-0.2-0.4
		c-0.1-0.1-0.1-0.3-0.1-0.5c0-0.1,0-0.2,0-0.3c0-0.1,0-0.2,0-0.3c0-0.1,0-0.3,0-0.4c0-0.1,0-0.3,0.1-0.4c0-0.1,0-0.1-0.1,0
		s-0.1,0.1-0.1,0c0-0.1,0-0.1,0-0.2c0,0,0.1-0.1,0.1-0.1c0,0,0.1-0.1,0.1-0.1c0,0,0-0.1,0-0.2c0.3,0,0.4-0.2,0.5-0.3
		C4,20.4,4,20.2,4.1,20c0,0,0.1,0.1,0.1,0.1c0,0,0,0,0.1,0c0.1-0.1,0.3-0.3,0.5-0.5c0.2-0.2,0.4-0.3,0.6-0.4c0.1,0,0.1,0,0.2,0
		c0.1,0,0.2,0,0.2,0c0.2,0,0.4-0.1,0.6-0.2c0.2-0.1,0.4-0.1,0.7-0.1c0.1,0,0.2,0,0.3,0c0.1,0,0.2,0,0.3,0c0.2,0,0.4,0.1,0.6,0.1
		c0.2,0,0.4,0.1,0.6,0.2c0.1,0.1,0.2,0.1,0.3,0.2c0.1,0.1,0.2,0.2,0.3,0.2c0.2,0.1,0.3,0.2,0.5,0.3c0.1,0.1,0.3,0.2,0.4,0.3
		c0,0.1,0.1,0.2,0.1,0.4c0.1,0.1,0.1,0.3,0.1,0.5c0.2,0.3,0.3,0.6,0.4,1c0.1,0.4,0.1,0.8-0.1,1.2c0,0.2-0.1,0.3-0.1,0.5
		c-0.1,0.1-0.1,0.3-0.2,0.5c0,0.2-0.1,0.3-0.1,0.5c0,0.2,0,0.4,0,0.6c0.3,0.1,0.6,0.1,0.9,0.1s0.6,0,0.9-0.1c0.3,0,0.6-0.1,0.9-0.1
		c0.3-0.1,0.6-0.1,0.8-0.2c0,0,0-0.1,0-0.1c0-0.1,0-0.1,0-0.1c0.2,0,0.3,0,0.4,0c0.1,0,0.2-0.1,0.3-0.1c0.1-0.1,0.2-0.1,0.3-0.2
		c0.1-0.1,0.2-0.1,0.3-0.2c0-0.1,0-0.2-0.1-0.2c0,0-0.1,0-0.1-0.1c0.3,0,0.5-0.1,0.6-0.2c0.1-0.2,0.2-0.3,0.3-0.5h0.1
		c0.2-0.2,0.4-0.5,0.5-0.8c0.1-0.3,0.2-0.7,0.3-1c0.1-0.3,0.1-0.6,0.2-1c0.1-0.3,0.1-0.7,0-1.1c0,0,0-0.1,0-0.1c0,0-0.1-0.1-0.1-0.2
		c0-0.1-0.1-0.2-0.1-0.3s0-0.2-0.1-0.2c0-0.2,0-0.4-0.1-0.6c-0.1-0.2-0.2-0.5-0.2-0.6c-0.1-0.3-0.2-0.6-0.3-0.9
		c-0.1-0.3-0.3-0.5-0.5-0.7c-0.3-0.1-0.6-0.3-0.8-0.5c-0.2-0.2-0.5-0.3-0.7-0.5c-0.2,0-0.4,0-0.7-0.1c-0.3-0.1-0.5-0.1-0.8-0.1
		c-0.3,0-0.5,0-0.8,0.1c-0.3,0.1-0.5,0.2-0.6,0.4c-0.1-0.1-0.1-0.3,0-0.5c-0.1,0-0.2,0.1-0.3,0.1c-0.1,0-0.2,0-0.3,0
		c-0.1,0-0.1,0.1-0.1,0.1c0,0.1,0,0.1,0,0.1c0,0-0.1,0-0.1,0c0,0-0.1,0-0.1-0.1c0,0.1,0,0.2,0,0.3c0,0.1,0,0.2,0,0.2
		c-0.1-0.1-0.1-0.2-0.1-0.4c0-0.1,0-0.2,0-0.3c0,0-0.1,0.1-0.1,0.2c0,0.1,0,0.2,0,0.3c0,0.1,0,0.2,0,0.3c0,0.1,0,0.2-0.1,0.2v-0.8
		c-0.1-0.1-0.1-0.2-0.2-0.2c-0.1,0-0.1-0.1-0.1-0.3c0,0,0.1,0,0.1,0c0.1,0,0.1,0,0.2,0c0-0.1,0-0.2,0-0.3c0-0.1,0-0.2,0-0.2
		c0,0,0,0,0-0.1c0-0.1,0-0.1,0-0.2c0,0,0,0,0-0.1c0,0,0,0,0,0v0.1v-1c0,0-0.1-0.1-0.1,0c0,0-0.1,0-0.1-0.1c-0.1,0-0.2,0-0.3,0.1
		c0,0.1-0.1,0.2-0.1,0.3c0,0.1,0,0.2,0,0.4c0,0.1,0.1,0.3,0.1,0.4c0,0,0,0,0,0c0,0,0,0,0-0.1c0-0.1,0-0.2-0.1-0.3
		c0-0.1-0.1-0.2-0.1-0.3c0-0.1,0-0.2,0-0.3c0-0.1,0-0.2,0.1-0.4h0.2C9.9,12.1,10,12,10,11.9c0-0.1,0.1-0.2,0.1-0.3c0,0,0,0,0.1,0
		c0,0,0.1,0.1,0.1,0.1c0-0.1,0-0.2-0.1-0.3c0-0.1,0-0.1,0-0.2c0.1,0,0.1,0,0.1,0.1c0,0.1,0,0.1,0.1,0.2c0,0.1,0,0.2,0,0.2
		c0,0.1,0,0.1,0.1,0.2c0,0,0.1-0.1,0-0.1c0,0,0-0.1,0.1,0c0-0.4,0-0.8,0-1.3c0-0.5,0-1-0.1-1.4c0-0.1,0-0.1,0-0.1c0,0,0.1,0,0.1,0
		c0-0.2,0-0.4,0-0.6c0-0.2,0-0.4,0-0.6c-0.2,0.1-0.3,0.2-0.4,0.3C10.1,8.1,10,8.2,9.9,8.3C9.8,8.5,9.6,8.6,9.5,8.7
		C9.4,8.8,9.2,8.8,9,8.9c0,0,0,0.1,0,0.1c0,0.1,0,0.1,0,0.1c-0.4,0-0.8,0-1.2,0C7.4,9.1,7,9.1,6.6,9C6.5,8.9,6.4,8.9,6.3,8.8
		C6.2,8.8,6,8.7,5.9,8.7c-0.1,0-0.3-0.1-0.4-0.2C5.4,8.5,5.3,8.4,5.3,8.3c0,0-0.1,0.1-0.1,0.1c0,0.1,0,0.1,0,0.2c0,0.1,0,0.1,0,0.2
		c0,0.1,0,0.1-0.1,0.1c-0.1,0-0.1-0.1-0.1-0.1c0-0.1,0-0.1,0-0.2c0-0.1,0-0.1,0-0.2c0-0.1,0-0.1,0-0.2C5,8.2,4.9,8.3,4.9,8.5
		c0,0.1,0,0.3,0,0.4C5,9,5,9.2,5,9.3C5,9.5,5,9.6,5,9.7c0-0.2-0.1-0.4-0.1-0.6c0-0.2,0-0.5,0-0.7c0-0.2,0-0.5,0-0.7
		c0-0.2,0-0.4-0.1-0.6c0-0.1-0.1-0.2-0.1-0.3c0-0.1-0.1-0.1-0.1-0.2c0-0.1-0.1-0.1-0.1-0.2c0-0.1-0.1-0.2-0.1-0.3
		c-0.1-0.2-0.1-0.4,0-0.6c0-0.2,0.1-0.5,0.1-0.6c0-0.1,0.1-0.3,0.2-0.4c0.1-0.1,0.2-0.3,0.3-0.5C4.8,3.6,4.8,3.3,4.8,3
		c0-0.4,0-0.7,0-1.1c0.1,0,0.1,0,0.2-0.1c0.1,0,0.1,0,0.1,0C5.2,2,5.2,2.2,5.2,2.4c0,0.3,0,0.5,0,0.7C5.2,3,5.3,2.9,5.4,2.8
		c0.1-0.1,0.3-0.2,0.4-0.4C6,2.3,6.1,2.2,6.3,2.1s0.3-0.2,0.4-0.4c0.1-0.1,0.2-0.2,0.3-0.3s0.2-0.2,0.3-0.3C7.3,1,7.5,0.9,7.6,0.8
		c0.1-0.1,0.3-0.1,0.5-0.1h0.3c0.2,0,0.3-0.1,0.4-0.2c0.1-0.1,0.3-0.2,0.5-0.2c0.2,0,0.3-0.1,0.5-0.1c0.2-0.1,0.3-0.1,0.5-0.1
		c0,0,0.1,0.1,0.1,0.1s0.1,0.1,0.1,0.1c0,0,0.1,0,0.1,0c0,0,0-0.1,0-0.1c0,0,0-0.1,0-0.1c0,0,0-0.1,0.1-0.1c0.1,0,0.1,0,0.1,0.1
		c0,0.1,0,0.1,0,0.2c0.5,0,0.9,0,1.4,0c0.5,0,0.9,0,1.4,0c0.2,0,0.3,0,0.5,0c0.1,0,0.3,0,0.4,0.1c0.1,0,0.2,0,0.4,0
		c0.1,0,0.3,0.1,0.4,0.1c0.1,0,0.3,0.1,0.5,0.1c0.2,0,0.3,0,0.5,0c0.1,0,0.1,0,0.1,0c0,0,0,0.1,0,0.1c0.3,0,0.6,0,0.9,0
		c0.3,0,0.6,0.2,0.8,0.4c0.1-0.1,0.2-0.1,0.2,0C18.2,0.9,18.3,0.9,18.4,0.9z M3.8,23.8c-0.1-0.4-0.2-0.8-0.4-1.1
		c0,0.2,0,0.4,0.1,0.6C3.6,23.5,3.7,23.7,3.8,23.8z M3.6,21.2c0,0.1,0,0.1,0.1,0.1c0.1,0,0.1,0,0.1-0.1C3.7,21.1,3.7,21.1,3.6,21.2
		C3.6,21.2,3.6,21.2,3.6,21.2z M4,18.4c0,0,0.1,0.1,0.1,0.1c0,0.1,0,0.2,0,0.2c0,0.1,0,0.2,0,0.3c0,0.1,0,0.2,0,0.2
		c0-0.1-0.1-0.3-0.1-0.4C4.1,18.7,4.1,18.5,4,18.4z M4.2,21.3c0,0,0,0.1,0,0.1c0,0,0,0.1,0,0.1c0,0,0.1,0,0.1,0c0.1,0,0.1,0,0.2,0
		c-0.1-0.1-0.1-0.2,0-0.2c0.2,0,0.4,0,0.5,0c0.2,0,0.3,0,0.5,0c-0.2-0.1-0.5-0.1-0.7-0.1C4.6,21.3,4.4,21.3,4.2,21.3z M4.3,22.7
		c0-0.1,0-0.2,0-0.3c0-0.1,0.1-0.1,0.2-0.1c0,0,0,0,0,0.1s0,0.1,0.1,0.1c0.9,0.1,1.7,0.1,2.6,0.2c0.9,0.1,1.7,0.1,2.6,0.1
		c-0.2-0.1-0.4-0.2-0.7-0.2c-0.3,0-0.6,0-0.9-0.1c-0.6-0.1-1.2-0.1-1.7-0.2C6,22.1,5.4,22,5,22c-0.1,0-0.3,0-0.4,0
		c-0.1,0-0.2,0-0.3-0.1c0,0,0-0.1,0.1,0c0.1,0,0.2,0,0.2-0.1c-0.1,0-0.1-0.1-0.2-0.1c-0.1,0-0.2,0-0.2,0c0,0.2,0,0.4,0,0.6
		C4.1,22.5,4.2,22.6,4.3,22.7z M4.6,23.8c0,0,0-0.1-0.1-0.1c0,0-0.1-0.1-0.1-0.2c0,0-0.1,0-0.1,0c-0.1,0-0.1,0-0.1,0
		c0,0.1,0.1,0.1,0.1,0.2c0,0.1,0.1,0.2,0.1,0.3c0,0,0.1-0.1,0.1-0.1C4.5,23.8,4.5,23.8,4.6,23.8z M8.3,20.9c-0.7-0.1-1.3-0.1-2-0.2
		c-0.6-0.1-1.2-0.1-1.8-0.2H4.5c0,0.1-0.1,0.2-0.1,0.3S4.3,20.9,4.2,21c0.1,0,0.1,0,0.2,0c0,0,0.1,0,0.2,0c0.1,0,0.1-0.1,0-0.1
		c0,0-0.1-0.1,0-0.1c0.1,0,0.3,0,0.5,0c0.2,0,0.4,0,0.6,0c0.2,0,0.4,0,0.6,0c0.2,0,0.4,0,0.5-0.1c0,0,0,0,0.1,0c0,0,0,0.1,0.1,0.1
		c0.4,0,0.8-0.1,1.1-0.1c0.3,0,0.7,0,1.1,0.1c-0.1-0.1-0.2-0.1-0.3-0.1C8.6,20.8,8.5,20.9,8.3,20.9z M4.7,6.7
		C4.7,6.3,4.7,5.9,4.7,5.5c0-0.4,0-0.8,0.1-1.1C4.6,4.7,4.5,5.1,4.4,5.5C4.4,5.9,4.5,6.3,4.7,6.7z M4.6,24.2L4.6,24.2
		c0.2,0,0.2,0,0.2-0.1C4.7,24,4.6,24,4.4,24c0,0,0,0,0.1,0.1C4.5,24.1,4.6,24.1,4.6,24.2z M9.5,23.2c-0.4-0.1-0.7-0.1-1.2-0.2
		c-0.4,0-0.8-0.1-1.2-0.1c-0.4,0-0.8-0.1-1.2-0.1c-0.4,0-0.8-0.1-1.2-0.1H4.6c0,0.1,0,0.2,0,0.3c0,0.1,0,0.1,0.1,0.1
		c0.7,0.1,1.5,0.1,2.3,0.2c0.8,0.1,1.6,0.1,2.4,0.2c0,0,0.1,0,0.1,0c0.1,0,0.1,0,0.2,0c0,0,0.1,0,0.1,0c0,0,0-0.1,0-0.1
		c0-0.1,0-0.1-0.1-0.1C9.6,23.2,9.6,23.2,9.5,23.2z M4.9,24.5c0-0.1,0-0.1,0-0.2c0-0.1-0.1-0.1-0.1-0.1c0,0,0.1,0.1,0.1,0.1
		S4.9,24.5,4.9,24.5z M4.8,21.6L4.8,21.6c0.9,0,1.8,0.1,2.6,0.2c0.8,0.1,1.6,0.1,2.4,0.1c-0.9-0.2-1.7-0.3-2.5-0.3
		C6.5,21.6,5.7,21.6,4.8,21.6z M9.7,24c0-0.1,0-0.1,0-0.2c0,0,0.1-0.1,0.1-0.1c-0.1,0-0.1,0-0.2,0s-0.2,0-0.3,0c-0.1,0-0.2,0-0.2,0
		c-0.1,0-0.1,0-0.2,0c-0.3,0-0.6,0-0.8-0.1c-0.3-0.1-0.6-0.1-0.9-0.1c-0.5,0-0.9,0-1.3,0c-0.4,0-0.7,0-1.1,0
		c0.7,0.1,1.5,0.2,2.3,0.3C8,23.8,8.8,23.9,9.7,24z M4.9,4.7C4.9,4.7,5,4.6,5,4.5c0-0.1,0-0.2,0-0.2C5,4.3,5,4.4,5,4.4
		C4.9,4.5,4.9,4.6,4.9,4.7z M4.9,21.8L4.9,21.8C5.7,22,6.5,22,7.3,22.2c0.9,0.1,1.7,0.2,2.6,0.2v-0.3c-0.9-0.1-1.8-0.2-2.6-0.2
		S5.6,21.8,4.9,21.8z M8.3,23.9c-0.3,0-0.5-0.1-0.9-0.1c-0.3,0-0.6-0.1-0.9-0.1s-0.6-0.1-0.9-0.1c-0.3,0-0.5,0-0.8,0
		c0,0,0,0.1,0.1,0.2c0,0.1,0.1,0.1,0.1,0.2c0.7,0.1,1.5,0.2,2.3,0.3s1.6,0.2,2.3,0.2c0-0.1-0.1-0.1-0.2-0.2S9.2,24,9.1,24
		c-0.1,0-0.2,0-0.4,0C8.6,24,8.5,23.9,8.3,23.9z M5,3.8C5.1,3.6,5.1,3.3,5.1,3C5.1,2.7,5,2.4,5,2.1c0,0.3,0,0.6,0,0.9
		C4.9,3.2,4.9,3.5,5,3.8z M5,8c0,0,0-0.1,0-0.1c0,0,0-0.1-0.1-0.1C5,7.8,4.9,7.9,5,8C4.9,8,4.9,8,5,8z M5.1,24.2
		c0.8,0.1,1.5,0.2,2.2,0.4c0.7,0.1,1.4,0.2,2.1,0.3c0,0,0-0.1,0-0.1c0,0,0-0.1,0-0.2c-0.3-0.1-0.7-0.1-1-0.2c-0.3-0.1-0.7-0.1-1-0.1
		c-0.4,0-0.7-0.1-1.1-0.1c-0.4,0-0.8-0.1-1.2-0.1C5.1,24.1,5.1,24.1,5.1,24.2C5.2,24.1,5.2,24.1,5.1,24.2z M5.2,4.1c0,0,0-0.1,0-0.1
		c0-0.1,0-0.1,0-0.1c0,0,0,0,0,0c0,0,0,0-0.1,0c0,0,0,0.1,0,0.1C5.2,4,5.2,4.1,5.2,4.1z M9.6,5.3c-0.1,0-0.2,0-0.3,0
		c-0.1,0-0.1,0-0.2-0.1c-0.3,0.1-0.6,0.1-1,0.1c-0.3,0-0.7,0-1,0c-0.3,0-0.7,0-1-0.1c-0.3,0-0.6,0-0.9,0c0,0.2,0,0.3-0.1,0.5
		c0,0.2,0,0.3-0.1,0.5c0.4,0,0.8-0.1,1.2,0c0.4,0,0.7,0,1.1,0c0.4,0,0.7,0,1.1,0C8.9,6,9.3,6,9.7,5.9c-0.1,0-0.1,0-0.1,0
		c0,0,0-0.1,0-0.1c0.1,0,0.3,0,0.4,0c0.1,0,0.2,0.1,0.4,0.1c0-0.1,0-0.2,0-0.2c0,0,0-0.1,0-0.2C9.9,5.6,9.5,5.6,9,5.6
		c-0.4,0-0.9,0-1.3,0c-0.1,0-0.3-0.1-0.5-0.1c-0.2,0-0.4,0-0.6,0s-0.4,0-0.7,0c-0.2,0-0.4,0-0.6,0c0-0.1,0.1-0.1,0.1-0.2
		c0.1,0,0.1,0,0.2,0s0.2,0,0.3,0c0.1,0,0.2,0,0.3,0c0.6,0,1.2,0.1,1.7,0c0.5,0,1.1,0,1.6-0.1c0.1,0,0.2,0,0.4,0c0.2,0,0.2,0,0.3-0.1
		c-0.1-0.1-0.2-0.1-0.3,0c-0.1,0-0.2,0.1-0.3,0.2C9.7,5.4,9.7,5.4,9.6,5.3C9.7,5.3,9.7,5.3,9.6,5.3z M5.2,3.6
		c0.2-0.2,0.4-0.4,0.7-0.7c0.2-0.2,0.4-0.5,0.6-0.8c-0.1,0-0.1,0-0.2,0.1c0,0.1-0.1,0.1-0.2,0.1c0,0,0,0.1,0,0.1c0,0,0,0.1,0,0.1
		c-0.1,0-0.2,0-0.3,0.1C5.7,2.7,5.7,2.8,5.6,2.9C5.5,3,5.5,3.1,5.4,3.3C5.3,3.4,5.3,3.5,5.2,3.6z M8.1,6.4c-0.4,0-0.7-0.1-1,0
		c-0.3,0-0.7,0-1,0.1c-0.2,0-0.3,0-0.5,0c-0.1,0-0.3,0-0.4,0.1c0,0.1,0.1,0.1,0.2,0.1c0.1,0,0.2,0,0.3,0c0.7,0,1.4,0,2.2,0
		c0.7,0,1.4,0,2.1-0.1V6.5C9.7,6.4,9.4,6.4,9,6.4C8.7,6.4,8.4,6.4,8.1,6.4z M8.8,20.2c-0.4,0-0.8-0.1-1.2-0.1
		C7.3,20,7,19.9,6.6,19.9c-0.3,0-0.5,0-0.8,0c-0.3,0-0.4,0.1-0.5,0.3c0.4,0,0.7,0,1,0s0.7,0,1,0.1c0.3,0,0.6,0.1,0.9,0.1
		c0.3,0,0.6,0,0.9,0C9,20.2,9,20.1,9,20.1C9,20.1,8.9,20.2,8.8,20.2z M9.2,20.5c-0.7-0.1-1.4-0.2-2-0.2c-0.6,0-1.3,0-1.9,0.1
		c0.7,0.1,1.4,0.2,2.1,0.3c0.7,0.1,1.4,0.1,2,0c-0.1,0-0.2,0-0.2-0.1C9.3,20.5,9.3,20.5,9.2,20.5z M5.4,24.4c0,0.1,0,0.1,0.1,0.2
		c0.1,0,0.1,0.1,0.2,0.1c0.1,0,0.2,0.1,0.3,0.1c0.1,0,0.2,0,0.3,0c0.2,0,0.4,0.1,0.6,0.1c0.2,0,0.5,0.1,0.7,0.1
		C7.8,25,8,25,8.2,25.1c0.2,0,0.4,0.1,0.6,0.1c-0.2-0.1-0.5-0.2-0.8-0.3c-0.3-0.1-0.6-0.2-0.9-0.2c-0.3-0.1-0.6-0.1-0.9-0.1
		C5.9,24.4,5.7,24.4,5.4,24.4z M8.5,4.7C8.4,4.7,8.4,4.7,8.5,4.7c-0.1,0-0.1,0-0.1,0H5.9c-0.1,0-0.1,0-0.2,0c-0.1,0-0.2,0.1-0.2,0.1
		C6.2,5,7,5,7.7,5.1c0.7,0,1.4,0,2.2,0C9.9,5,10,5,10,4.9c0,0,0.1-0.1,0.1-0.1C9.9,4.7,9.6,4.7,9.3,4.7C9,4.7,8.7,4.7,8.5,4.7z
		 M5.4,7.3c0.1,0,0.1,0.1,0.2,0.2c0,0.1,0.1,0.2,0.2,0.2c0.5-0.1,1.1-0.1,1.6,0c0.6,0.1,1.1,0.1,1.7,0c0.1,0,0.1,0,0.2,0
		c0.1,0,0.2,0,0.3,0c0.1,0,0.2,0,0.2-0.1c0.1,0,0.1-0.1,0.1-0.2c-0.9,0-1.7,0-2.5-0.1C6.7,7.3,6,7.2,5.4,7.3z M9.2,6.9
		c-0.5,0-1,0-1.6,0S6.6,6.8,6,6.8c-0.1,0-0.2,0-0.3,0C5.6,6.9,5.6,6.9,5.5,7c0.4,0,0.7,0,1.1,0C7,7,7.4,7,7.8,7c0.4,0,0.7,0,1.1,0
		c0.4,0,0.7,0,1-0.1c0,0-0.1-0.1-0.2,0C9.7,7,9.6,7,9.5,7C9.4,7,9.3,7,9.2,6.9C9.2,7,9.2,6.9,9.2,6.9z M5.5,21.2
		c0.3,0,0.6,0.1,0.8,0.1c0.2,0,0.5,0,0.8,0.1c0.5,0,0.9,0,1.4,0c0.5,0,0.9,0,1.3-0.1c-0.7-0.1-1.4-0.2-2.2-0.2
		C6.9,21.1,6.2,21.1,5.5,21.2z M8.5,4.6c0.1,0,0.2,0,0.4,0c0.2,0,0.4,0,0.6,0c0.2,0,0.4,0,0.6,0c0.2,0,0.3-0.1,0.3-0.1
		c0-0.1,0-0.1-0.1-0.2c-0.1,0-0.2,0-0.3-0.1c-0.1,0-0.2,0-0.3,0c-0.1,0-0.2,0-0.2,0c-0.2,0-0.5,0-0.8,0c-0.3,0-0.7,0-1,0
		c-0.3,0-0.7,0-1,0c-0.3,0-0.6,0-0.7,0c0,0.1,0,0.1-0.1,0.1c0,0,0,0.1,0,0.2c0.2,0,0.5,0,0.6,0c0.2,0,0.4,0,0.6,0c0.2,0,0.4,0,0.7,0
		C7.9,4.6,8.1,4.6,8.5,4.6z M6,25.1c0.6,0,1.2,0.1,1.7,0.2c0.5,0.1,1.1,0.1,1.7,0.1c-0.2,0-0.3-0.1-0.3-0.1c-0.1,0-0.2-0.1-0.3-0.1
		c-0.4-0.1-0.9-0.1-1.4-0.2c-0.5-0.1-1.1-0.1-1.6-0.2c0.1,0,0.1,0.1,0.2,0.1C5.9,25,6,25.1,6,25.1z M5.9,6.3c0.1,0,0.3,0,0.4,0
		c0.1,0,0.2,0,0.3-0.1c-0.1,0-0.3,0-0.4,0C6.1,6.2,6,6.2,5.9,6.3z M6,7.9H5.9c0,0.1,0,0.1,0.1,0.1C6,7.9,6,7.9,6,7.9z M6.4,3.8
		c-0.1,0-0.2,0.1-0.3,0.1C6,3.8,6,3.9,5.9,4C6.2,4,6.5,4.1,6.9,4.1c0.4,0,0.7,0,1.1,0c0.4,0,0.8,0,1.2,0c0.4,0,0.8,0,1.1,0V3.8
		c-0.6,0-1.2,0-1.9,0C7.7,3.7,7.1,3.7,6.4,3.8z M9.8,3.5c-0.3,0-0.6,0-0.9,0C8.6,3.4,8.3,3.4,8,3.3c-0.3,0-0.6,0-0.9,0
		c-0.3,0-0.5,0.1-0.8,0.1c0,0-0.1,0-0.2,0C6.1,3.4,6,3.5,6,3.6c0.3,0.1,0.6,0.1,1,0c0.4-0.1,0.7-0.1,1.1-0.1c0.1,0,0.1,0,0.1,0.1
		c0,0,0,0.1,0.1,0.1c0.1,0,0.3,0,0.5,0c0.2,0,0.3,0,0.5,0c0.2,0,0.3,0,0.5,0c0.2,0,0.3,0,0.3-0.1V3.4c-0.1,0-0.1,0-0.2,0
		C9.9,3.4,9.9,3.5,9.8,3.5z M7,8.3c0.2,0,0.5,0,0.7,0.1c0.2,0,0.4,0,0.5,0c0,0,0,0,0.1,0c0,0,0,0,0.1,0c0,0,0,0,0,0s0,0,0.1,0
		c0,0,0.1,0,0.1-0.1c0.1,0,0.1-0.1,0.2-0.1H6.1c0.1,0.1,0.2,0.2,0.3,0.2C6.6,8.3,6.8,8.3,7,8.3z M6.3,19.7c0.5,0.1,0.9,0.1,1.3,0.2
		C7.9,20,8.4,20,8.8,20c-0.1-0.1-0.3-0.2-0.5-0.3c-0.2-0.1-0.4-0.1-0.7-0.1c-0.2,0-0.5,0-0.7,0C6.7,19.6,6.4,19.6,6.3,19.7z
		 M7.5,26.1c0.3,0.1,0.5,0,0.8,0C8.6,26,8.9,25.9,9.2,26c-0.4,0-0.7,0-1.1-0.1c-0.4,0-0.8-0.1-1.1-0.2c0.1,0,0.3,0,0.4,0
		c0.1,0,0.3,0,0.4-0.1c0,0,0,0.1,0.1,0.1c0.4,0.1,0.7,0.1,1.1,0.1c0.4,0,0.7,0.1,1.1,0.1c-0.1-0.1-0.2-0.2-0.3-0.2
		c-0.1,0-0.3-0.1-0.4-0.1c-0.5,0-1-0.1-1.5-0.1c-0.5-0.1-1-0.1-1.5-0.2c0.1,0.2,0.3,0.3,0.5,0.5C7,26,7.2,26.1,7.5,26.1z M6.4,2.9
		c0,0.1,0,0.1-0.1,0.1c0,0,0,0.1,0,0.1c0.5,0,1,0,1.5,0s1,0,1.6,0c0,0,0,0,0-0.1s0-0.1,0.1,0c0.1,0,0.1,0,0.2,0c0,0,0.1,0,0.2,0
		C9.9,3.1,9.9,3,9.8,3C9.7,3,9.6,3,9.6,2.9C9.5,3,9.5,3,9.5,3c0,0-0.1,0-0.2,0c0,0,0-0.1-0.1-0.1c0,0-0.1-0.1-0.1-0.1
		c-0.4,0-0.8,0-1.2,0C7.4,2.9,7,2.9,6.4,2.9z M6.6,21.4C6.5,21.4,6.5,21.4,6.6,21.4c-0.1,0-0.2,0-0.2,0.1c0.2,0,0.3,0,0.4,0
		C6.8,21.4,6.7,21.4,6.6,21.4z M6.4,2.2C6.5,2.1,6.6,2,6.7,2c0.1-0.1,0.2-0.1,0.1-0.2c0,0.1-0.1,0.1-0.2,0.2C6.5,2,6.4,2.1,6.4,2.2z
		 M6.6,8.4c0.1,0,0.2,0.1,0.3,0.1c0.1,0,0.3,0,0.4,0c0.1,0,0.3,0,0.4,0c0.1,0,0.2,0,0.3,0c-0.2,0-0.5-0.1-0.7-0.1
		C7,8.4,6.7,8.4,6.6,8.4z M8.4,2.7c-0.1,0-0.3,0-0.5,0c-0.2,0-0.3,0-0.5,0c-0.2,0-0.3,0-0.5,0c-0.1,0-0.3,0.1-0.3,0.2
		c0.4,0,0.8,0,1.1-0.1c0.3,0,0.7,0,1.1,0c0-0.1-0.1-0.1-0.2-0.1C8.5,2.6,8.4,2.6,8.4,2.7z M6.9,26.7c0-0.1,0-0.1-0.1-0.1
		c-0.1,0-0.1,0-0.1,0c0.1,0,0.1,0,0.1,0.1C6.8,26.7,6.8,26.7,6.9,26.7z M6.8,22.8c0.4,0.1,0.8,0.1,1.2,0.1c0.4,0,0.8,0,1.1,0.1
		c0.1,0,0.3,0,0.4,0.1c0.1,0,0.2,0,0.3-0.1c-0.5,0-1-0.1-1.5-0.2C7.9,22.7,7.4,22.7,6.8,22.8z M7.3,6.2c-0.1,0-0.1,0-0.2,0
		c-0.1,0-0.1,0-0.2,0c0.1,0,0.1,0,0.2,0C7.2,6.3,7.3,6.3,7.3,6.2z M7,21.4c0.5,0,0.9,0.1,1.3,0.1c0.4,0,0.7,0.1,1,0.1
		c0.1,0,0.2,0,0.4,0c0.1,0,0.3,0,0.4-0.1c-0.2,0-0.4-0.1-0.7-0.1c-0.2,0-0.5,0-0.8,0c-0.3,0-0.5,0-0.8,0C7.4,21.4,7.2,21.4,7,21.4z
		 M7,1.4c0.2-0.1,0.3-0.2,0.5-0.3C7.8,1,7.9,1,8.1,0.9c-0.2,0-0.5,0.1-0.6,0.2C7.2,1.2,7.1,1.3,7,1.4z M7.3,2.4c0.4,0,0.8,0,1.2,0
		c0.4,0,0.7,0,1,0c-0.1,0-0.1-0.1-0.1-0.1c0-0.1-0.1-0.1-0.1-0.1c-0.1,0-0.3,0.1-0.5,0c-0.2,0-0.4,0-0.5,0c-0.2,0-0.4,0-0.5,0
		C7.5,2.2,7.4,2.3,7.3,2.4z M7.3,26.3c0.1,0.1,0.1,0.1,0.3,0.1c0.1,0,0.2,0,0.3,0v-0.1c-0.1,0-0.1-0.1-0.2-0.1
		C7.5,26.3,7.4,26.3,7.3,26.3z M10.3,6c-0.2,0.1-0.4,0.1-0.7,0.1c-0.2,0-0.5,0-0.7,0s-0.4,0-0.6,0c-0.2,0-0.4,0-0.6,0
		c0.4,0,0.9,0.1,1.3,0.1c0.5,0,0.9,0,1.3,0c0,0,0-0.1,0-0.2C10.4,6.1,10.3,6,10.3,6z M7.9,7.8c0.1,0,0.2,0,0.3,0.1c0,0,0-0.1,0-0.1
		c0,0-0.1,0-0.1,0C8,7.8,7.9,7.8,7.9,7.8C7.9,7.8,7.9,7.8,7.9,7.8z M7.9,26.3c0.1,0.1,0.3,0.1,0.5,0.2s0.4,0.1,0.6,0.1
		c0.2,0,0.4,0,0.6,0c0.2,0,0.4,0,0.5,0c0-0.1,0-0.1,0-0.2c0-0.1,0-0.1-0.1-0.2c-0.4,0-0.8-0.1-1.1-0.1C8.6,26.1,8.3,26.2,7.9,26.3z
		 M8,1.8c0.1,0,0.2-0.1,0.3-0.1c0.1-0.1,0.2-0.1,0.3-0.2c-0.1,0-0.3,0-0.4,0.1C8.1,1.6,8.1,1.7,8,1.8z M8.1,26.7
		C8.4,26.8,8.7,26.9,9,27c0.4,0,0.7,0.1,1.1,0.2c-0.3-0.1-0.6-0.2-1-0.3c-0.4-0.1-0.7-0.2-1-0.3C8,26.6,8,26.7,8.1,26.7
		C8.1,26.6,8.1,26.7,8.1,26.7z M9,1.8c-0.2,0-0.4,0-0.5,0c-0.2,0-0.3,0-0.4,0.1C8.3,2,8.5,2,8.8,2C9,2,9.2,2,9.4,1.9
		C9.5,2,9.7,2,10,2c0.2,0,0.4,0,0.6,0c0,0-0.1,0-0.1-0.1V1.8H9z M9,19.4c-0.1-0.1-0.3-0.1-0.5-0.2c-0.2-0.1-0.3-0.1-0.5-0.1
		c0.1,0,0.3,0.1,0.4,0.2C8.7,19.4,8.9,19.4,9,19.4z M8.5,7.8c-0.1,0-0.1,0-0.2,0c0,0-0.1,0-0.1,0c0,0,0,0,0,0
		C8.3,7.9,8.3,7.9,8.5,7.8C8.4,7.9,8.5,7.9,8.5,7.8c0.1,0.1,0.1,0.1,0.1,0.1c0,0,0.1,0,0.2,0c0.1,0,0.1,0,0.1,0c0,0,0,0-0.1,0
		c0,0-0.1,0-0.2,0C8.5,7.8,8.5,7.8,8.5,7.8z M9.2,1.6c0,0-0.1-0.1-0.2-0.1c-0.1,0-0.1,0-0.2,0.1c-0.1,0-0.1,0.1-0.2,0.1
		c-0.1,0-0.1,0.1-0.1,0.1c0.4,0,0.8,0,1.1,0c0.3,0,0.7,0,1-0.1c-0.2,0-0.4,0-0.6,0C9.6,1.6,9.4,1.6,9.2,1.6z M8.6,1.4
		C9,1.3,9.3,1.2,9.6,1.1C10,1.1,10.3,1,10.6,0.9c-0.4,0-0.8,0-1.1,0.1C9.1,1.1,8.8,1.2,8.6,1.4z M9,8.3c0.1,0,0.1,0,0.2,0
		c0.1,0,0.1-0.1,0.1-0.1c-0.1,0-0.2,0-0.2,0C9,8.2,9,8.2,9,8.3z M9.6,20c0-0.1-0.1-0.2-0.2-0.3c-0.1-0.1-0.2-0.1-0.3-0.1
		c0.1,0,0.1,0.1,0.2,0.2C9.4,20,9.5,20,9.6,20z M9.2,21c0,0,0.1,0.1,0.1,0s0.1,0,0.1,0c0,0,0.1,0,0.1,0c0,0,0.1,0,0.2,0l-0.2-0.2
		c0,0.1,0,0.1-0.1,0.1C9.3,20.9,9.2,20.9,9.2,21z M10.1,26.1c-0.1,0-0.2,0-0.4,0c-0.2,0-0.3,0-0.4,0c0.1,0,0.3,0,0.4,0
		C9.8,26.1,10,26.1,10.1,26.1z M9.3,26.7c0.1,0.1,0.3,0.1,0.5,0.2c0.2,0.1,0.4,0.1,0.6,0.1c0,0,0-0.1,0-0.1c0,0,0-0.1,0-0.1
		c-0.2,0-0.4,0-0.6,0C9.6,26.7,9.4,26.7,9.3,26.7z M9.6,20.1c0.1,0.2,0.3,0.3,0.5,0.4c0.2,0.1,0.3,0.2,0.4,0.3
		c-0.1-0.2-0.2-0.4-0.3-0.6c-0.2-0.2-0.3-0.3-0.5-0.4c0.1,0,0.1,0.1,0,0.1C9.6,20,9.6,20,9.6,20.1z M9.6,2.2c0,0.1,0.1,0.1,0.2,0.1
		c0.1,0,0.2,0,0.3,0c0.1,0,0.2,0,0.3,0c0.1,0,0.2,0,0.3-0.1c-0.2,0-0.3,0-0.5,0C10,2.2,9.8,2.2,9.6,2.2z M9.8,0.5
		c0.1,0,0.2-0.1,0.3-0.1c0.1,0,0.2,0,0.3-0.1c-0.1,0-0.3,0-0.4,0C9.9,0.4,9.8,0.4,9.8,0.5z M9.9,25.2C9.9,25.2,9.9,25.2,9.9,25.2
		c0.1,0,0.1,0,0.1,0.1v-0.2c0,0.1,0,0.2,0.1,0.2c0.1,0,0.1,0.1,0.2,0.1c0-0.1,0-0.2,0-0.4c0-0.1,0-0.3,0-0.4
		c-0.1,0.1-0.2,0.2-0.3,0.3C10,25,9.9,25.1,9.9,25.2z M10,24.6c0.1-0.1,0.1-0.2,0.2-0.4c0.1-0.2,0.1-0.3,0-0.5
		c0,0.2-0.1,0.3-0.2,0.5C10,24.3,10,24.5,10,24.6z M10.1,7.1c0.1-0.1,0.1-0.2,0.1-0.3c0-0.1,0-0.2,0.1-0.3c0,0-0.1,0-0.1,0
		c0,0,0,0-0.1,0c-0.1,0.1-0.1,0.2-0.1,0.3C10.1,6.9,10.1,7,10.1,7.1z M10.1,12.2L10.1,12.2c0.1,0,0.1,0,0.1-0.1c0-0.1,0-0.2-0.1-0.2
		c0,0.1,0,0.1,0,0.2C10.1,12.1,10.1,12.1,10.1,12.2z M10.1,1.1C10.2,1.1,10.2,1.1,10.1,1.1C10.2,1.2,10.2,1.2,10.1,1.1l0.4,0.1
		c0,0,0-0.1,0-0.1c0,0,0-0.1-0.1-0.1c0,0-0.1,0-0.2,0C10.2,1,10.2,1.1,10.1,1.1z M10.1,1.4c0.1,0,0.1,0,0.2,0c0.1,0,0.1,0,0.2,0
		c0,0-0.1,0-0.2,0C10.3,1.3,10.2,1.3,10.1,1.4z M10.1,26.1C10.2,26.1,10.2,26.2,10.1,26.1c0.1,0.1,0.1,0.1,0.2,0.1V26
		C10.3,26,10.2,26,10.1,26.1C10.2,26.1,10.2,26.1,10.1,26.1z M10.4,17.9c0,0.1,0,0.3,0,0.5c0,0.2-0.1,0.4-0.1,0.6
		c0-0.1-0.1-0.1-0.1-0.3c0-0.1,0-0.2,0-0.3c0-0.1,0-0.2,0-0.3C10.4,18,10.4,18,10.4,17.9z M10.5,17.2c0,0,0,0,0,0.1
		c0,0.1,0,0.1,0,0.2c0,0.1,0,0.1-0.1,0.2c0,0.1-0.1,0.1-0.1,0.1c0-0.2,0-0.3,0.1-0.4C10.4,17.5,10.5,17.4,10.5,17.2z M10.5,17.1
		c-0.1-0.2-0.1-0.3,0-0.5c0-0.2,0.1-0.4,0.1-0.5c0,0.2,0,0.4,0,0.5C10.5,16.8,10.5,17,10.5,17.1z M10.6,22.6c0,0.2-0.1,0.4-0.1,0.6
		c-0.1,0.2,0,0.4,0.1,0.6c0.1-0.2,0.1-0.3,0.2-0.6c0-0.2,0.1-0.4,0.1-0.7c0-0.2,0-0.4-0.1-0.6c0-0.2-0.1-0.4-0.2-0.5
		c0,0.1,0,0.2,0,0.3c0,0.1,0,0.2,0.1,0.3c0,0.1,0.1,0.2,0.1,0.3C10.6,22.4,10.6,22.5,10.6,22.6z M10.5,26.4v0.3c0.1,0,0.2,0,0.3,0
		c0.1,0,0.2,0,0.3,0.1c0.2,0,0.4,0,0.5,0s0.3,0,0.4,0.1c-0.2,0-0.5,0-0.7-0.1c-0.2,0-0.5-0.1-0.9-0.1c0,0.1,0,0.1,0,0.2
		c0,0,0,0.1,0,0.1c0.2,0,0.4,0.1,0.6,0.1c0.2,0,0.5,0.1,0.7,0.1c0.2,0,0.5,0,0.8,0c0.3,0,0.5-0.1,0.7-0.2c-0.2-0.1-0.4-0.1-0.6-0.1
		c-0.2,0-0.4,0-0.6,0c0.2,0,0.4-0.1,0.6,0c0.2,0,0.4,0,0.6,0.1c0.2,0,0.4,0,0.6,0c0.2,0,0.4,0,0.6-0.1c-0.7-0.1-1.3-0.2-2-0.3
		C11.8,26.5,11.1,26.4,10.5,26.4z M10.5,2.7c0,0,0,0.1,0.1,0.2c0,0.1,0.1,0.1,0.1,0.1c0,0,0-0.1,0-0.1c0-0.1,0-0.1,0-0.2
		C10.6,2.6,10.6,2.6,10.5,2.7C10.5,2.6,10.5,2.6,10.5,2.7z M10.5,26.2c0.4,0.1,0.9,0.2,1.3,0.2c0.5,0,0.9,0.1,1.4,0.1
		c0.1,0,0.2,0,0.3,0c0.1,0,0.2,0,0.2-0.1c-0.6-0.1-1.1-0.2-1.7-0.2c-0.5,0-1-0.1-1.6-0.2V26.2z M10.5,15.5c0.1,0.1,0.1,0.2,0,0.3
		c0,0.1,0,0.2,0,0.4c0-0.1,0-0.2,0-0.3C10.5,15.7,10.5,15.6,10.5,15.5z M14.6,1C14,1,13.3,1,12.8,1c-0.6,0-1.2,0-1.8,0
		c0,0,0,0-0.1,0c0,0,0,0-0.1,0c0,0,0,0.1-0.1,0.1c-0.1,0-0.1,0-0.1,0.1c0.3,0.1,0.5,0.1,0.8,0c0.3,0,0.6,0,0.9,0
		c0.6,0,1.2,0.1,1.7,0.1c0.6,0,1.1,0,1.7,0C15.6,1.1,15.5,1,15.3,1C15.1,1,14.9,1,14.6,1z M11.9,1.8c-0.1,0.1-0.1,0.1-0.3,0.1
		c-0.1,0-0.2,0-0.4,0c-0.1,0-0.2,0-0.4,0c-0.1,0-0.2,0-0.3,0C10.8,2,10.9,2,11,2c0.1,0,0.3,0,0.4,0c0.1,0,0.3,0,0.5,0
		c0.2,0,0.3,0,0.5,0c0.1,0,0.1,0,0.1-0.1c0-0.1,0.1-0.1,0.1,0c0.4,0.1,0.7,0.1,1,0.1c0.3,0,0.7,0,1.2,0c0.1,0,0.1,0,0.1,0.1
		c0,0.1,0,0.1,0.1,0c0.8,0,1.5,0,2.3,0c0.7,0,1.5,0,2.4,0c-0.1,0-0.1,0-0.2-0.1c-0.1,0-0.1-0.1-0.2-0.1c-0.4,0-0.9,0-1.4-0.1
		c-0.5,0-1,0-1.6-0.1c-0.5,0-1.1,0-1.6-0.1c-0.5,0-1,0-1.5-0.1c-0.1,0-0.1,0-0.2,0.1c-0.1,0-0.2,0.1-0.3,0.1c-0.1,0-0.2,0-0.3,0
		c-0.1,0-0.2,0-0.2-0.1c0.3-0.1,0.7-0.2,1.1-0.2c0.4,0,0.9,0,1.3,0c0.7,0,1.4,0.1,2.1,0.1c0.7,0,1.3,0.1,2,0.1
		c-0.2-0.1-0.3-0.1-0.6-0.1c-0.2,0-0.4,0-0.6,0c-0.3,0-0.5,0-0.8,0c-0.3,0-0.5-0.1-0.8-0.1c-0.7,0-1.4,0-2,0c-0.6,0-1.3,0-2,0V1.8z
		 M11.4,12.1c0.2,0,0.4,0,0.6,0c0.2,0,0.4-0.1,0.5-0.1c0.1,0,0.1,0,0.1-0.1c0-0.1,0-0.1,0.1,0c0,0,0.1,0,0.1,0c0,0,0,0,0.1,0
		c0-0.1,0-0.1,0.1-0.1c0.1,0,0.1,0,0.2,0c0.1,0,0.1,0,0.2,0c0.1,0,0.1-0.1,0.1-0.1c0,0,0.1,0,0.2,0c0.1,0,0.2,0,0.2,0
		c0.1-0.1,0.2-0.1,0.3-0.2c0.1-0.1,0.2-0.1,0.4-0.1c0.2-0.2,0.4-0.4,0.5-0.7c0.1-0.2,0.3-0.5,0.4-0.8c0,0-0.1,0-0.2,0.1
		c-0.1,0-0.1,0-0.2-0.1V9.7c0.1,0,0.1,0,0.2,0c0.1,0,0.2,0,0.3,0C15.7,9.3,15.8,9,16,8.7c0.1-0.3,0.2-0.7,0.3-1.1
		c0-1.1-0.1-2.1-0.4-2.9c-0.3-0.8-0.8-1.4-1.6-1.8c0,0,0,0-0.1,0c0,0-0.1,0-0.1,0c0,0,0-0.1-0.1-0.1c0,0,0-0.1,0-0.1
		c-0.2-0.1-0.4-0.1-0.7-0.2c-0.3-0.1-0.5-0.1-0.8-0.1c-0.3,0-0.5,0-0.7,0.1c-0.2,0.1-0.4,0.2-0.6,0.4c0,0,0.1,0,0.1,0s0.1,0,0.1,0.1
		c-0.1,0-0.1,0-0.3,0c-0.1,0-0.2,0-0.3-0.1c0-0.1,0-0.1,0-0.2c0,0,0.1-0.1,0.1-0.1c0,0,0.1,0,0.2-0.1c0.1,0,0.1-0.1,0.1-0.1
		c-0.1,0-0.2,0-0.3,0.1c-0.1,0-0.2,0.1-0.3,0.1c0,0.1,0,0.2,0,0.3c0,0.1,0,0.2,0,0.3c0.3,0.3,0.5,0.7,0.7,1.2c0.1,0.5,0.1,1-0.1,1.5
		c0,0.1-0.1,0.3-0.1,0.4C11,6.3,11,6.5,10.9,6.6c-0.1,0.1-0.1,0.3-0.1,0.4c0,0.1,0,0.3,0,0.4c0.1-0.2,0.3-0.3,0.3-0.6
		c0.1-0.2,0.1-0.4,0.2-0.7c0-0.2,0.1-0.5,0.1-0.7c0-0.2,0.1-0.5,0.2-0.6c-0.1,0.2-0.1,0.3-0.1,0.5c0,0.2,0,0.4-0.1,0.5
		c0,0.2,0,0.4-0.1,0.5c0,0.2-0.1,0.4-0.1,0.5c0,0.2-0.1,0.3-0.2,0.4c-0.1,0.1-0.2,0.2-0.2,0.4c-0.1,0.3-0.1,0.5,0,0.8
		c0.1,0.3,0.1,0.6,0,0.8c0,0.2,0,0.3,0,0.5c0,0.2,0,0.3,0,0.5c0,0.3,0,0.6,0,0.9c0,0.3,0,0.6,0,0.9c0.1,0,0.2,0,0.3,0
		C11.2,12.1,11.3,12.1,11.4,12.1C11.4,12.1,11.4,12.1,11.4,12.1C11.3,12.1,11.3,12,11.4,12.1c0-0.1,0-0.1,0.1-0.1
		c0,0,0.1-0.1,0.1-0.1c0,0.1,0.1,0.1,0.2,0.1c0.1,0,0.1,0,0.2,0c0.1,0,0.1,0,0.2,0c0.1,0,0.2,0,0.3,0c0,0.1-0.1,0.1-0.2,0.1
		c-0.1,0-0.2,0-0.3,0c-0.1,0-0.2,0-0.3,0C11.6,12,11.5,12,11.4,12.1z M10.7,0.9c0,0,0.1,0,0.1,0c0,0,0.1,0,0.1-0.1
		C10.9,0.7,10.8,0.8,10.7,0.9z M17.2,1.3c-0.1,0-0.3,0-0.5,0c-0.2,0-0.3,0-0.5,0c-0.6,0-1.1,0-1.7,0c-0.6,0-1.2,0-1.7,0h-1.4
		c-0.1,0-0.2,0.1-0.4,0.1c-0.1,0-0.3,0.1-0.4,0.1c0.3,0,0.7,0,1,0s0.7,0.1,1.1,0.1c0.9,0,1.8,0,2.7,0.1c0.9,0.1,1.7,0.1,2.6,0
		c-0.2,0-0.3,0-0.5-0.1C17.5,1.4,17.3,1.3,17.2,1.3z M10.7,1.6c0.2,0,0.4,0,0.5,0c0.2,0,0.3,0,0.5-0.1c-0.1,0-0.2,0-0.3,0
		c-0.1,0-0.2,0-0.3,0c-0.1,0-0.2,0-0.3,0C10.8,1.6,10.8,1.6,10.7,1.6z M10.7,3.3c0,0.1,0.1,0.2,0.2,0.3C11,3.8,11,3.9,11.1,3.9
		C11,3.8,11,3.7,10.9,3.6C10.9,3.5,10.8,3.4,10.7,3.3z M10.9,13.1c0.1,0,0.3,0.1,0.4,0c0.1,0,0.3,0,0.4-0.1c0.1,0,0.2-0.1,0.2-0.2
		c0.1-0.1,0.1-0.1,0.1-0.2c-0.2,0.1-0.4,0.1-0.6,0.1c-0.2,0-0.4,0-0.6-0.1c0,0.1,0,0.2,0,0.3C10.8,12.9,10.9,13,10.9,13.1z M11.4,26
		C11.5,26.1,11.5,26.1,11.4,26C11.5,26,11.5,26,11.4,26c-0.1,0-0.2,0-0.3-0.1c-0.1,0-0.1,0-0.2-0.1c0,0,0,0-0.1,0c-0.1,0-0.1,0,0,0
		c0.1,0,0.2,0,0.3,0C11.2,26,11.3,26,11.4,26z M12.8,13.6v0.1c-0.3,0-0.6-0.1-0.9-0.1c-0.3,0-0.7,0-1,0.1c0,0,0,0.1,0,0.1
		c0,0,0,0.1,0,0.2c0.6,0,1.1,0,1.7,0.1c0.6,0.1,1.2,0.1,1.8,0.2c1.1,0.1,2.1,0.1,3.2,0c1.1-0.1,2.1-0.2,3.1-0.3
		c-0.1,0-0.2-0.1-0.3-0.1c-0.1,0-0.2,0-0.4,0c-0.1,0-0.2,0-0.4,0c-0.1,0-0.2,0-0.3-0.1c-0.3,0-0.7,0-1.2,0c-0.4,0-0.9,0-1.3,0
		c-0.6,0-1.2,0-1.8,0c-0.6,0-1.1,0-1.6,0c0,0,0-0.1-0.1-0.1c-0.1,0-0.1,0-0.2,0c-0.1,0-0.2,0-0.2,0C13,13.7,12.9,13.7,12.8,13.6
		c0.1,0,0.2,0,0.3,0c0.1,0,0.3,0,0.3-0.1c-0.1,0-0.2,0-0.3,0C13,13.5,12.9,13.5,12.8,13.6z M17,13.3c-0.1,0-0.3,0-0.4-0.1
		c-0.1,0-0.3-0.1-0.4-0.1c-0.2,0-0.3,0-0.5,0c-0.2,0-0.3,0-0.5,0c-0.4,0-0.8,0-1.1,0c-0.3,0-0.7,0-1,0c-0.3,0-0.7,0-1,0
		c-0.3,0-0.7,0-1.1,0c0.4,0.1,0.8,0.1,1.3,0.1c0.5,0,1,0,1.5,0c0.5,0,1,0,1.5,0c0.5,0,0.9,0,1.3,0.1c0.1-0.1,0.3-0.1,0.5-0.1
		c0.2,0,0.4,0,0.5,0c0-0.1-0.1-0.2-0.2-0.2c-0.1,0-0.1,0-0.2,0c-0.1,0-0.1,0-0.2,0.1C17.1,13.3,17.1,13.3,17,13.3z M11.2,13.5
		c-0.1,0-0.1,0-0.2,0c-0.1,0-0.1,0-0.1,0c0.1,0,0.1,0,0.2,0C11.1,13.6,11.2,13.6,11.2,13.5z M11,6c0.1-0.2,0.2-0.4,0.2-0.7
		c0-0.3,0-0.5-0.1-0.6c0,0.3,0,0.5-0.1,0.7C11,5.6,11,5.9,11,6z M11.2,0.6c0.2,0,0.3-0.1,0.5-0.1c0.2,0,0.3,0,0.5-0.1
		c-0.1,0-0.2,0-0.3,0c-0.1,0-0.2,0-0.3,0c-0.1,0-0.2,0-0.3,0.1C11.2,0.5,11.2,0.5,11.2,0.6z M12.3,26C12,26,11.8,26,11.6,26
		c0.6,0.1,1.3,0.1,2.1,0.2c0.8,0.1,1.5,0.2,2.3,0.3c0-0.1,0.1-0.1,0.2-0.1c0.1,0,0.1,0,0.2-0.1c-0.7-0.1-1.4-0.1-2-0.1
		S12.9,26.1,12.3,26z M15.8,27.4c-0.6,0.1-1.3,0.1-2,0.2c-0.7,0-1.4,0.1-2,0.2c0.7,0.1,1.3,0.1,1.9,0.2c0.6,0.1,1.2,0.1,1.9,0
		c0.3,0,0.6-0.1,0.8-0.3c0.3-0.2,0.5-0.3,0.7-0.4c0.1,0,0.3-0.1,0.4-0.1c0.1,0,0.2-0.1,0.3-0.1c0,0,0.1,0,0.2-0.1
		c0.1,0,0.1-0.1,0.2-0.1c0.1,0,0.1-0.1,0.2-0.1s0-0.1,0-0.1c-0.4,0.2-0.9,0.3-1.3,0.4C16.7,27.2,16.2,27.3,15.8,27.4z M12.3,12.6
		c0,0.1,0,0.1-0.1,0.2c0,0-0.1,0.1-0.1,0.1c0,0-0.1,0.1-0.1,0.1c0,0-0.1,0.1-0.1,0.1c0.9,0,1.7,0,2.5,0c0.8,0,1.7,0,2.5-0.1
		c-0.1-0.1-0.2-0.1-0.3-0.1C16.5,13,16.4,13,16.3,13c-0.2,0-0.4,0-0.6-0.1c-0.1-0.1-0.3-0.1-0.5-0.1c-0.4,0-0.8,0-1.3,0
		c-0.5,0-0.9,0-1.4,0.1c0-0.1,0-0.1-0.1-0.1c0,0-0.1,0-0.1-0.1c0,0,0-0.1,0.1,0c0,0,0.1,0,0.1-0.1h-0.1c0,0-0.1,0-0.1,0
		C12.4,12.6,12.3,12.6,12.3,12.6z M12.6,25.9c0.6,0.1,1.2,0.2,1.8,0.2c0.6,0,1.2,0.1,1.8,0C15.7,26.1,15,26,14.4,26
		C13.8,25.9,13.2,25.9,12.6,25.9z M12.9,0.5c0.1,0,0.2,0,0.3,0c0.1,0,0.2,0,0.3,0c-0.1,0-0.2,0-0.3-0.1C13,0.4,12.9,0.5,12.9,0.5z
		 M15,12.5c-0.1,0-0.3,0-0.4,0c-0.1,0-0.3,0-0.4-0.1c-0.1,0-0.3,0-0.4,0c-0.1,0-0.3,0.1-0.4,0.1h1c0.3,0,0.6,0.1,0.9,0.1
		c0.3,0,0.5,0,0.7-0.2c-0.1-0.1-0.3-0.1-0.5-0.1C15.3,12.5,15.1,12.5,15,12.5z M16.6,13.5c-0.6,0-1.2,0-1.8,0c-0.5,0-1,0-1.4,0.1
		c1.1,0,2.1,0,3.1,0.1c1,0.1,2.1,0.1,3.3,0.1c-0.6-0.1-1.1-0.2-1.7-0.3C17.6,13.5,17.1,13.5,16.6,13.5z M13.7,0.6c0.1,0,0.2,0,0.3,0
		c0.1,0,0.2,0,0.3-0.1c-0.1,0-0.2,0-0.3,0c-0.1,0-0.2,0-0.3,0V0.6z M15.3,26.7c-0.2-0.1-0.4-0.2-0.7-0.1s-0.6,0-0.9-0.1
		c0.3,0.1,0.5,0.2,0.8,0.2C14.8,26.7,15.1,26.7,15.3,26.7z M14.5,11.9C14.4,11.9,14.4,11.9,14.5,11.9c0,0.2-0.1,0.2-0.1,0.2
		c-0.1,0-0.2,0-0.3,0.1c0,0.1-0.1,0.1-0.2,0.2c0.5,0,1,0,1.5,0c0.5,0,1,0,1.4,0.1c0.1-0.1,0.1-0.1,0.2-0.2c0-0.1,0.1-0.1,0.2-0.1
		c-0.4,0-0.9-0.1-1.4-0.1C15.3,11.9,14.9,11.9,14.5,11.9z M17.8,25.8c-0.6,0-1.1,0-1.7-0.1c-0.6-0.1-1.1-0.1-1.7,0
		c-0.1,0-0.1,0-0.3,0c-0.1,0-0.2,0-0.2,0.1c0.4,0,0.9,0,1.3,0.1c0.4,0.1,0.9,0.1,1.3,0.1c0.4,0,0.8,0,1.2,0c0.4,0,0.7-0.2,1-0.4
		c-0.1,0-0.3,0-0.5,0c-0.2,0-0.4,0-0.6,0c-0.2,0-0.4,0-0.6,0s-0.4,0-0.5,0c0.3,0,0.6,0,0.9,0c0.3,0,0.5,0,0.7,0.1
		c0,0.1-0.1,0.1-0.2,0.1C18,25.8,17.9,25.8,17.8,25.8z M14.7,2.7c0.1,0,0.3,0,0.5,0c0.2,0,0.4,0,0.6,0c0.3,0,0.7,0,1.1,0
		c0.4,0,0.8,0,1.2,0s0.8,0,1.1,0c0.4,0,0.7,0,1-0.1c-0.1-0.2-0.3-0.2-0.5-0.2c-0.2,0-0.4,0-0.6,0c-0.8,0-1.6,0-2.4,0
		c-0.8,0-1.6,0-2.5,0h-0.1c0.1,0,0.2,0.1,0.3,0.2C14.5,2.6,14.6,2.6,14.7,2.7z M15.6,25.5c-0.1,0-0.3,0-0.5,0c-0.2,0-0.4,0-0.6,0
		c0.2,0,0.4,0.1,0.6,0.1C15.4,25.5,15.5,25.5,15.6,25.5z M15.3,11.4c0,0-0.1-0.1-0.1-0.1c0,0.1,0,0.1-0.1,0.1c-0.1,0-0.1,0,0,0.1
		c0.2,0,0.5,0,0.6,0c0.2,0,0.4,0.1,0.6,0.1c0.1,0,0.1,0,0.2,0c0.1,0,0.1,0,0.2,0.1c-0.3,0-0.5,0-0.8,0c-0.3,0-0.6,0-0.8,0
		c-0.1,0-0.1,0-0.2,0c-0.1,0-0.1,0-0.2,0.1c0.5,0.1,0.9,0.1,1.4,0.1c0.5,0,1,0,1.5,0c0,0,0,0.1,0,0.1c0,0.1,0,0.1,0,0.1
		c0.2,0,0.3,0,0.5,0c0.2,0,0.3,0,0.5-0.1c-0.1-0.1-0.2-0.2-0.4-0.2c-0.2,0-0.4,0-0.6-0.1c-0.2,0-0.4,0-0.6,0c-0.2,0-0.3,0-0.4-0.1
		c0.2,0,0.5,0,0.7,0c0.2,0,0.4,0,0.6,0c0.2,0,0.4,0,0.5,0c0.2,0,0.3,0,0.5,0c-0.3,0-0.6-0.1-0.9-0.1c-0.3,0-0.6-0.1-0.9-0.1
		c-0.3,0-0.6,0-0.9-0.1C15.9,11.4,15.6,11.4,15.3,11.4z M15.7,3.5L15.7,3.5C15.7,3.5,15.6,3.4,15.7,3.5c0-0.1-0.1-0.1-0.1-0.1
		c0,0,0-0.1,0.1-0.1c0.1,0,0.1,0,0.2,0c0,0,0-0.1-0.1-0.1c0,0,0-0.1,0-0.1c0.2,0,0.5,0.1,0.8,0c0.3,0,0.6,0,0.9,0c0.3,0,0.6,0,0.9,0
		c0.3,0,0.6,0,0.9,0C19.4,3,19.6,3,19.9,2.9c0.2,0,0.5,0,0.8,0c-0.1-0.1-0.2-0.2-0.3-0.1c-0.1,0-0.3,0.1-0.4,0.1c-0.4,0-0.8,0-1.2,0
		c-0.4,0-0.9,0-1.3-0.1s-0.9,0-1.3,0c-0.4,0-0.9,0.1-1.3,0.1c0.1,0.1,0.3,0.2,0.4,0.3C15.4,3.3,15.5,3.4,15.7,3.5z M18.3,25.4
		c-0.2-0.1-0.4-0.1-0.6-0.1c-0.2,0-0.4,0-0.6,0c-0.1,0-0.3,0-0.5-0.1c-0.2,0-0.4-0.1-0.5-0.1c-0.2,0-0.4,0-0.5,0
		c-0.2,0-0.3,0.1-0.5,0.1c0.6,0.1,1.2,0.1,1.9,0.1c0.7,0,1.3,0,1.9-0.1c-0.1,0-0.2,0-0.3,0C18.5,25.3,18.4,25.3,18.3,25.4z
		 M19.1,11.4c-0.2,0-0.3-0.1-0.5-0.1c-0.2-0.1-0.4-0.1-0.6-0.1c-0.2,0-0.4,0-0.6,0c-0.2,0-0.4,0-0.7,0c-0.2,0-0.4,0-0.6,0
		c-0.2,0-0.4,0-0.6-0.1c0,0-0.1,0-0.1,0c-0.1,0-0.1,0.1-0.1,0.1c0.6,0,1.2,0.1,1.8,0.2C17.7,11.4,18.4,11.4,19.1,11.4z M15.3,27.2
		c0.1,0,0.2,0,0.3,0c0.1,0,0.1,0,0.2-0.1c-0.1,0-0.1,0-0.2,0S15.3,27.2,15.3,27.2z M21.1,14.2C21,14.2,21,14.2,21.1,14.2
		C21,14.2,21,14.2,21.1,14.2c-1.1,0.1-2,0.1-2.9,0.2c-0.9,0-1.9,0.1-2.8,0.2c0.6,0.1,1.2,0.1,1.7,0.1c0.5,0,1,0,1.5,0
		c0.5,0,1,0,1.5,0c0.5,0,1.1,0,1.7,0c-0.2-0.1-0.3-0.1-0.4-0.2C21.3,14.3,21.2,14.2,21.1,14.2z M18.9,10.9c-0.1,0-0.1,0-0.2,0
		c0,0-0.1-0.1-0.2-0.1c-0.1,0-0.1,0-0.2,0c0,0-0.1,0-0.2,0c-0.4,0-0.7,0-1.1-0.1c-0.4-0.1-0.8-0.1-1.1,0c-0.1,0-0.2,0-0.3,0
		c-0.1,0-0.2,0-0.2,0.2c0.5,0.1,1,0.1,1.4,0.2c0.4,0.1,0.9,0.1,1.4,0.2c0.4,0.1,0.8,0.1,1.2,0.1c0.4,0,0.6-0.1,0.8-0.3
		c-0.2,0-0.4,0-0.7,0C19.3,10.9,19.1,10.9,18.9,10.9z M15.5,24.9c0,0,0.1,0,0.1,0c0.1,0,0.1,0,0.1-0.1c0,0-0.1,0-0.1,0
		C15.6,24.9,15.6,24.9,15.5,24.9z M20.9,3.5c-0.8-0.1-1.7-0.1-2.6-0.1c-0.9,0-1.8,0-2.6,0c0.1,0.1,0.2,0.2,0.2,0.3
		c0,0.1,0.1,0.2,0.2,0.2c0.1,0,0.2,0,0.4,0c0.1,0,0.3,0,0.4,0c0.5,0,0.9,0.1,1.4,0.1c0.5,0,0.9,0,1.3,0c0.2,0,0.4,0,0.5,0
		c0.2,0,0.4,0,0.6,0c0.2,0,0.4,0,0.6,0c0.2,0,0.4,0,0.6-0.1c-0.3-0.1-0.5-0.1-0.9-0.1c-0.3,0-0.6,0-1,0c-0.6,0-1.2-0.1-1.7-0.1
		s-1.1,0-1.7,0c-0.1,0-0.1,0-0.2,0.1c-0.1,0-0.2,0-0.2,0c-0.1,0-0.1,0-0.2,0c-0.1,0-0.1-0.1-0.1-0.2c0.6,0,1.1,0,1.5,0
		c0.5,0,0.9,0,1.4,0c0.4,0,0.9,0,1.3,0c0.4,0,0.9,0,1.4,0c-0.1-0.2-0.2-0.2-0.3-0.2C21.2,3.5,21,3.5,20.9,3.5z M19.9,10.5
		c0,0-0.1-0.1-0.1-0.1c-0.1,0-0.1-0.1-0.1-0.1c-0.4,0-0.8,0-1.2,0c-0.5,0-0.9,0-1.4,0c-0.2,0-0.4,0-0.5,0c-0.1,0-0.3,0-0.5,0
		c-0.1,0-0.1,0-0.2,0c-0.1,0-0.1,0.1-0.1,0.2c0.5,0,0.9,0.1,1.3,0.1c0.4,0,0.7,0.1,1.1,0.1c0.4,0,0.7,0.1,1.1,0.1c0.4,0,0.8,0,1.3,0
		c0,0,0.1-0.1,0.1-0.1c0.1,0,0.1-0.1,0.1-0.1c-0.2,0-0.3,0-0.4,0C20.2,10.5,20.1,10.5,19.9,10.5z M16.1,14.9
		c0.2,0.1,0.4,0.1,0.6,0.1c0.2,0,0.4,0,0.6,0c0.2,0,0.4,0,0.6,0c0.2,0,0.4,0,0.6,0c0.6,0,1.2,0,1.8,0c0.6,0,1.2,0,1.7-0.1
		c-0.6-0.1-1.2-0.1-1.7-0.1c-0.6,0-1.1,0-1.7,0c-0.5,0-1,0-1.5,0c-0.6,0-1-0.1-1.4-0.1c0.1,0.1,0.1,0.1,0.2,0.2
		C16,14.9,16.1,14.9,16.1,14.9z M19.1,24.9c-0.3,0-0.6,0-0.9,0c-0.3,0-0.6,0-0.9,0c-0.3,0-0.6,0-0.8,0c-0.3,0-0.5,0.1-0.6,0.2
		c0.7,0.1,1.3,0.1,1.9,0.1c0.6,0,1.2,0,1.9,0.1c0.1-0.1,0.3-0.1,0.4-0.1c0.1,0,0.2-0.1,0.3-0.3c-0.2,0-0.4,0-0.6,0
		C19.5,24.9,19.3,24.9,19.1,24.9z M16,9.7c0.4,0,0.8,0,1.1,0.1c0.4,0,0.8,0.1,1.2,0.1c0.4,0,0.8,0.1,1.2,0.1c0.4,0,0.8,0,1.2,0
		c0.1,0,0.1-0.1,0.3-0.1c0.1,0,0.2,0,0.2,0.1c0,0.1,0,0.2-0.1,0.2c-0.1,0-0.2,0-0.2,0c-0.3,0-0.5,0-0.9,0c-0.3,0-0.6,0-1-0.1
		c-0.3,0-0.7,0-1-0.1c-0.4,0-0.7,0-1-0.1c-0.1,0-0.2,0-0.3,0c-0.1,0-0.2,0-0.3,0s-0.2,0-0.3,0C16,9.9,16,9.9,15.9,10
		c0.8,0.1,1.6,0.2,2.4,0.2c0.8,0,1.7,0.1,2.7,0.1c0.1-0.1,0.2-0.2,0.3-0.3c0.1-0.1,0.2-0.2,0.2-0.4c-0.4,0-0.8,0-1.2-0.1
		c-0.4,0-0.8-0.1-1.3-0.1c-0.4,0-0.9-0.1-1.3-0.1c-0.5,0-0.9,0-1.4,0c-0.1-0.1-0.1-0.1-0.2-0.1c0,0.1,0,0.2-0.1,0.3
		C16.1,9.5,16,9.6,16,9.7z M16,24.6c0.2,0,0.3,0,0.5-0.1c0.2-0.1,0.2-0.2,0.2-0.3c-0.2,0-0.3,0-0.4,0.1S16.1,24.5,16,24.6z
		 M22.2,4.2c-0.6,0-1.1,0-1.6,0c-0.5,0-1,0-1.5,0c-0.5,0-0.9,0-1.4,0c-0.5,0-1,0-1.5,0c0,0.1,0,0.2,0.1,0.2c0.1,0,0.1,0.1,0.2,0.1
		c0.1,0,0.2,0,0.3,0c0.1,0,0.2,0,0.2,0.1c0.5-0.1,1-0.1,1.5,0c0.5,0,1.1,0.1,1.6,0.1c0.2,0,0.3,0,0.5,0c0.2,0,0.3,0,0.5,0.1
		c0.1-0.1,0.3-0.1,0.6-0.1c0.3,0,0.5,0,0.7,0C22.3,4.4,22.3,4.3,22.2,4.2z M16.3,27.9c0.4,0,0.8-0.1,1.2-0.2c0.4-0.1,0.7-0.2,1-0.4
		c0.1-0.1,0.3-0.1,0.4-0.2c0.1-0.1,0.2-0.2,0.3-0.3c-0.3,0.1-0.6,0.2-0.8,0.2c-0.2,0.1-0.5,0.2-0.7,0.3s-0.4,0.2-0.7,0.3
		C16.8,27.7,16.5,27.8,16.3,27.9z M21.6,4.8c-0.4,0-0.9,0-1.3-0.1c-0.5,0-0.9-0.1-1.4-0.1c-0.5,0-0.9-0.1-1.4-0.1
		c-0.4,0-0.9,0-1.2,0c0,0.1,0,0.1,0,0.2c0,0.1,0,0.2,0,0.2C16.9,5,17.4,5,17.9,5c0.5,0,1.1,0,1.6,0c0.5,0,1.1,0,1.6,0.1
		c0.5,0,1,0,1.5,0c0-0.1-0.1-0.2-0.1-0.2c-0.1,0-0.1-0.1-0.2-0.1s-0.2,0-0.3,0C21.8,4.8,21.7,4.8,21.6,4.8z M21.5,15.1
		c-0.9-0.1-1.7-0.1-2.6,0c-0.9,0-1.8,0-2.6,0c0,0.1,0.1,0.2,0.3,0.3c0.1,0.1,0.2,0.1,0.3,0.2c0.3-0.1,0.6-0.1,0.9-0.1
		c0.3,0,0.6,0,0.9,0c0.4,0,0.8,0,1.2,0c0.4,0,0.8,0,1.2,0c0.4,0,0.7,0,1,0c0.3,0,0.6,0,0.9,0c0-0.1-0.1-0.3-0.2-0.3
		c-0.1-0.1-0.2-0.1-0.3-0.1c-0.1,0-0.3,0-0.4,0C21.8,15.1,21.7,15.1,21.5,15.1z M16.3,26.2c0.1,0,0.1,0,0.1,0.1c0.1,0,0.2,0,0.3-0.1
		c0.1,0,0.2-0.1,0.2-0.1c-0.1,0-0.3,0-0.4,0C16.5,26.2,16.4,26.2,16.3,26.2z M21.5,8.8c-0.5,0-1-0.1-1.5-0.1c-0.6,0-1.2-0.1-1.8-0.1
		c-0.2,0-0.4-0.1-0.7-0.1c-0.2,0-0.5,0-0.7,0c-0.1,0-0.2,0-0.3,0.1c-0.1,0-0.2,0.1-0.1,0.3c0.8,0,1.6,0.1,2.4,0.1
		C19.5,9,20.3,9,21.2,9c0.1,0,0.2,0,0.3,0.1c0.1,0,0.2,0,0.3,0c0.1,0,0.2,0,0.3,0c0.1,0,0.1-0.1,0.2-0.2c-0.1,0-0.2,0-0.4,0
		C21.7,8.9,21.6,8.9,21.5,8.8z M21,3.1C20.6,3,20.2,3,19.7,3c-0.5,0.1-0.9,0.1-1.4,0.1c-0.4,0-0.8,0-1.1,0c-0.3,0-0.6,0.1-0.9,0.1
		c0.5,0,0.9,0,1.3,0.1c0.4,0,0.8,0,1.2,0c0.4,0,0.8,0,1.2,0c0.4,0,0.8,0,1.3-0.1c-0.1,0-0.1-0.1-0.2-0.1C21.1,3.1,21,3.1,21,3.1z
		 M18.5,5.1c-0.3,0-0.5,0-0.7,0c-0.2,0-0.4,0-0.6,0.1c-0.1,0.1-0.3,0.2-0.6,0.2c0,0.1,0,0.2,0,0.3c0,0.1,0,0.2,0,0.3
		c0.5,0,1.1,0,1.6,0c0.6,0,1.1,0,1.7,0c0.5,0,1.1,0,1.6,0c0.5,0,1,0,1.4-0.1c0,0,0,0,0-0.1c0-0.1,0-0.1,0-0.2c-0.5,0-0.9,0-1.4,0
		c-0.5,0-1,0-1.5,0c-0.4,0-0.9,0-1.3-0.1c-0.5,0-0.9,0-1.3,0c-0.1,0-0.1,0.1-0.2,0.1c-0.1,0-0.2,0-0.2-0.1c0.1-0.1,0.2-0.1,0.4-0.1
		c0.1,0,0.3,0,0.4,0c0.7,0,1.4,0,2.2,0c0.7,0,1.5,0,2.3,0c0.1,0,0.1,0,0.2,0c0.1,0,0.1,0,0.2,0c0.1,0,0.1,0,0.1,0c0,0,0-0.1,0-0.1
		c-0.2,0-0.5,0-0.9,0c-0.3,0-0.7-0.1-1-0.1c-0.4,0-0.8-0.1-1.2-0.1C19.2,5.1,18.8,5.1,18.5,5.1z M17,6.5c-0.1,0-0.1,0-0.2,0
		c-0.1,0-0.2,0.1-0.2,0.1c0.1,0.1,0.3,0.1,0.5,0.1c0.2,0,0.3,0,0.5,0c0.2,0,0.3,0,0.5,0c0.1,0,0.3,0,0.4,0c0.3,0,0.6-0.1,1-0.1
		c0.4,0,0.7,0,1.1,0c0.4,0,0.8,0,1.2,0c0.4,0,0.7,0,1.1,0c0,0.1-0.1,0.2-0.2,0.2c-0.1,0-0.2,0-0.3,0c-0.3,0-0.5,0-0.8-0.1
		c-0.3,0-0.5-0.1-0.7-0.1c-0.7,0-1.4,0-2,0c-0.6,0-1.3,0.1-2.1,0.1c0,0,0,0.1,0,0.2c0,0.1,0,0.1,0,0.2c0-0.1,0.1-0.1,0.1-0.1
		c0.1,0,0.1,0,0.1,0c0.3,0,0.7-0.1,1.1-0.1c0.4,0,0.8,0,1.2,0.1c0.5,0,1,0,1.5,0s1,0,1.4,0c0.1,0,0.1,0,0.2,0c0.1,0,0.2,0,0.2,0.1
		c0,0.1-0.1,0.1-0.2,0.1c-0.1,0-0.2,0-0.2,0c-0.1,0-0.2,0-0.3,0c-0.1,0-0.2,0-0.2,0c-0.8,0-1.6,0-2.4,0c-0.8,0-1.6,0-2.3,0.1
		c-0.1,0-0.1,0-0.2,0c-0.1,0-0.1,0-0.1,0c0,0.1,0,0.2,0,0.3c0,0.1,0,0.2,0,0.4c1-0.1,2,0,2.9,0c0.9,0.1,1.9,0.2,2.9,0.2
		c0-0.1,0.1-0.1,0.1-0.2c0,0,0.1-0.1,0.1-0.2c-0.5,0-0.9,0-1.3,0c-0.4,0-0.9,0-1.3-0.1c-0.4,0-0.9,0-1.3,0c-0.4,0-0.9,0-1.4,0
		c0,0-0.1,0-0.2,0c-0.1,0-0.1,0-0.2,0c0,0-0.1,0-0.1-0.1c0,0-0.1-0.1-0.1-0.2c1,0,1.9,0,2.9,0.1c1,0.1,1.9,0.1,2.9,0
		c0-0.1,0.1-0.3,0.1-0.6c0-0.2,0.1-0.5,0.1-0.7c-0.6,0-1.1,0-1.6,0c-0.5,0-1,0-1.5-0.1c-0.5,0-0.9,0-1.4,0C17.9,6.4,17.5,6.4,17,6.5
		z M16.5,8.3c0.8,0.1,1.6,0.1,2.4,0.2c0.8,0.1,1.7,0.1,2.4,0.1c0.1,0,0.2,0,0.3,0c0.1,0,0.2,0,0.3,0c0.1,0,0.2,0,0.3,0
		c0.1,0,0.1-0.1,0.1-0.2c-0.5,0-0.9-0.1-1.4-0.1c-0.5-0.1-1-0.1-1.5-0.2c-0.5,0-1-0.1-1.5-0.1C17.4,8.1,16.9,8.2,16.5,8.3z
		 M16.6,24.2c0.2,0,0.3,0,0.4,0s0.2-0.1,0.2-0.2c-0.2,0-0.3,0-0.4,0C16.7,24,16.6,24,16.6,24.2z M18.1,6c-0.2,0-0.4,0-0.6,0
		c-0.2,0-0.4,0-0.5,0c-0.1,0-0.1,0-0.3,0.1c-0.1,0-0.1,0.1-0.1,0.3C17,6.4,17.5,6.3,18,6.3c0.5,0,1,0,1.5,0c0.5,0,1,0,1.5,0
		c0.5,0,0.9,0,1.3,0c0.1,0,0.2,0,0.3,0c0.1,0,0.2,0,0.2-0.1c-0.7,0-1.5-0.1-2.3-0.1C19.6,6,18.8,6,18.1,6z M20.3,9.2
		c-0.1,0-0.3,0-0.4,0c-0.1,0-0.3-0.1-0.4-0.1h-2c-0.1,0-0.3,0-0.4,0c-0.1,0-0.2,0-0.3,0.1c0.7,0.1,1.4,0.1,2.2,0.2
		c0.8,0.1,1.5,0.1,2.2,0.1c0,0,0.1,0,0.2,0c0.1,0,0.2,0,0.3,0c0.1,0,0.2,0,0.2,0c0.1,0,0.1-0.1,0.1-0.1c-0.3-0.1-0.5-0.1-0.8-0.1
		C20.8,9.2,20.6,9.2,20.3,9.2z M17.1,24.3c0,0.1-0.1,0.1-0.2,0.2c-0.1,0-0.1,0.1-0.2,0.2c0.3,0,0.6,0,1,0c0.3,0,0.6,0.1,1,0.1
		c0.3,0,0.6,0,0.9,0s0.6,0,0.9-0.1c0.1,0,0.2,0,0.3,0c0.1,0,0.2-0.1,0.2-0.1c-0.7,0-1.4-0.1-2-0.1C18.4,24.4,17.8,24.3,17.1,24.3z
		 M17,16h0.2c0-0.1,0-0.2-0.1-0.2c-0.1,0-0.2-0.1-0.2-0.1c0,0.1,0,0.1,0.1,0.2C16.9,15.9,17,15.9,17,16z M16.9,23.4
		c0.1,0.1,0.2,0,0.2-0.1C17,23.2,17,23.3,16.9,23.4C16.9,23.4,16.9,23.4,16.9,23.4z M17,23.7c0.1,0,0.1,0,0.2,0c0,0,0.1,0,0.2,0
		c0,0,0.1-0.1,0.1-0.1s0-0.1,0-0.1c0,0,0,0-0.1,0c0,0-0.1,0-0.1,0C17.1,23.6,17,23.6,17,23.7C17,23.6,17,23.7,17,23.7z M22.2,15.9
		c-0.1,0-0.2,0-0.3-0.1c-0.1,0-0.2-0.1-0.3-0.1c-0.4,0-0.7,0-1.1,0c-0.4,0-0.8,0-1.2,0c-0.3-0.1-0.7-0.1-1.1-0.1
		c-0.4,0-0.8,0-1.1,0.1c0.2,0.2,0.4,0.3,0.8,0.3c0.3,0,0.6,0,0.9,0c0.6,0,1.1,0.1,1.7,0.1c0.6,0,1.2,0,1.8,0
		C22.3,16,22.3,16,22.2,15.9C22.2,16,22.2,15.9,22.2,15.9z M17.2,22.9C17.2,22.9,17.1,22.9,17.2,22.9c-0.1,0.1-0.1,0.1-0.1,0.2
		c0.1,0,0.2,0,0.2-0.1c0.1-0.1,0.1-0.1,0-0.1c0,0,0,0-0.1,0C17.2,22.9,17.2,22.9,17.2,22.9z M17.2,16.2
		C17.2,16.2,17.2,16.2,17.2,16.2c0.1,0.1,0.1,0.1,0.1,0.1C17.3,16.2,17.3,16.2,17.2,16.2C17.2,16.2,17.2,16.2,17.2,16.2z M17.2,23.4
		c0,0,0,0.1,0.1,0.1s0.1,0,0.1,0c0,0,0.1,0,0.1-0.1c0,0,0-0.1,0-0.1c-0.1,0-0.1,0.1-0.2,0C17.3,23.3,17.2,23.3,17.2,23.4z
		 M17.4,23.9c-0.1,0-0.1,0.1-0.1,0.1c0,0.1,0,0.1,0,0.1c0.5,0.1,1,0.1,1.5,0.1c0.5,0,1,0,1.5,0c0.1,0,0.2,0,0.4,0c0.1,0,0.2,0,0.4,0
		c0.1,0,0.2,0,0.3,0c0.1,0,0.2-0.1,0.3-0.2c-0.7-0.1-1.5-0.1-2.2-0.1C18.7,24,18,24,17.4,23.9z M17.4,16.8c0.1,0,0.1,0,0.1-0.1
		c0-0.1-0.1-0.2-0.1-0.2h-0.1c0,0.1,0,0.1,0.1,0.2C17.4,16.7,17.4,16.8,17.4,16.8z M17.3,22.7h0.3c0-0.1,0-0.1,0.1-0.2
		c0,0,0.1-0.1,0.1-0.2c-0.1,0-0.2,0-0.3,0.1C17.4,22.5,17.4,22.6,17.3,22.7z M17.5,16.3c0,0,0.1,0,0.2,0c0.1,0,0.1,0,0.2-0.1
		c-0.1,0-0.1-0.1-0.2-0.1c0,0-0.1,0-0.2,0C17.4,16.2,17.4,16.2,17.5,16.3C17.4,16.2,17.5,16.3,17.5,16.3z M17.6,17.3
		c0-0.1,0-0.3-0.1-0.3c0,0.1,0,0.1,0,0.2C17.6,17.2,17.6,17.2,17.6,17.3z M17.5,23.1h0.2c0-0.1,0.1-0.1,0.1-0.2c0,0,0-0.1,0-0.2
		c-0.1,0-0.2,0-0.3,0.1C17.5,22.9,17.5,23,17.5,23.1z M19.5,23.7c-0.2,0-0.4,0-0.8-0.1c-0.3,0-0.6-0.1-0.9-0.1c-0.1,0-0.1,0-0.2,0
		c-0.1,0-0.2,0.1-0.2,0.2c0.8,0.1,1.6,0.1,2.3,0.1s1.4,0,2.1,0c0,0,0.1,0,0.2-0.1c0.1,0,0.1-0.1,0.1-0.1c-0.5,0-0.9,0-1.4,0
		C20.3,23.7,19.9,23.7,19.5,23.7z M23.8,16.7c-0.1,0-0.2,0-0.3,0c-0.1,0-0.2,0-0.4,0c-0.1,0-0.2,0-0.3,0c-0.1,0-0.2,0-0.2-0.1
		c-0.1,0-0.3,0-0.5,0c-0.2,0-0.4,0-0.5,0c-0.7,0-1.3,0-1.9-0.1c-0.6,0-1.4,0-2.1,0c0,0,0,0.1,0,0.1s0,0.1,0,0.1c0.1,0,0.1,0,0.2,0
		s0.2,0,0.3,0c0,0,0,0,0,0c0,0,0,0-0.1,0c0,0,0,0,0,0c0,0,0,0,0.1,0c0.5,0,1,0,1.4,0c0.5,0,0.9,0,1.4,0c0.5,0,0.9,0,1.4,0
		c0.5,0,1,0,1.6,0c0-0.1,0-0.1-0.1-0.1C23.9,16.8,23.8,16.8,23.8,16.7z M17.8,22c0,0-0.1,0-0.2,0c0,0-0.1,0-0.1,0c0,0,0.1,0.1,0.1,0
		C17.8,22.1,17.8,22.1,17.8,22z M17.6,21.8c0.1,0,0.2,0,0.3,0c0.1,0,0.1-0.1,0.1-0.2c-0.1,0-0.2,0-0.3,0
		C17.6,21.6,17.6,21.7,17.6,21.8z M17.8,23.2c-0.1,0-0.1,0-0.1,0.1h-0.1c0.2,0.1,0.4,0.1,0.6,0.1c0.2,0,0.4,0,0.6,0
		c0.5,0,1.1,0,1.6,0.1c0.6,0.1,1.1,0.1,1.6,0c0.1,0,0.1,0,0.2,0c0.1,0,0.2-0.1,0.2-0.2c-0.8,0-1.6,0-2.4,0
		C19.4,23.4,18.6,23.3,17.8,23.2z M24.1,17.2c-0.8-0.1-1.6-0.2-2.6-0.2c-0.9,0-1.8,0-2.7,0c-0.2,0-0.4,0-0.6,0c-0.2,0-0.4,0-0.6,0.1
		c0,0.1,0,0.1,0.1,0.2c0,0,0.1,0,0.1,0c0.1,0,0.1,0,0.2,0c0.1,0,0.1,0,0.2,0c0.1,0,0.2,0,0.3,0c0.1,0,0.2,0.1,0.3,0.1
		c0.4,0,0.8,0,1.2,0c0.4,0,0.9-0.1,1.3-0.1c0.5,0,1,0.1,1.5,0.1c0.5,0,1,0.1,1.4,0.1c0-0.1,0-0.1-0.1-0.2
		C24.1,17.3,24.1,17.3,24.1,17.2z M17.7,22.7h0.2c0-0.1,0-0.2,0.1-0.2c0,0,0-0.1,0-0.2c-0.1,0-0.2,0-0.2,0.1
		C17.7,22.5,17.7,22.6,17.7,22.7z M17.7,21.4c0.1,0,0.1,0,0.2,0c0.1,0,0.1,0,0.1-0.2c0,0-0.1-0.1-0.1-0.1c-0.1,0-0.1-0.1,0-0.1
		c0,0,0.1,0,0.1,0s0.1,0,0.1,0c0,0,0-0.1,0-0.1c0,0,0-0.1,0.1-0.1c0,0,0-0.1,0.1-0.1c0,0,0-0.1,0-0.2c-0.2,0-0.3,0-0.3,0
		c-0.1,0-0.1,0.1-0.1,0.2c0,0.1,0,0.2,0,0.3S17.8,21.3,17.7,21.4z M22.7,17.5c-0.8,0-1.6,0.1-2.4,0.1c-0.8,0-1.6,0-2.5-0.1
		c-0.1,0-0.1,0,0,0.1c0,0.1,0,0.1,0,0.2c0.5,0.1,1.1,0.1,1.6,0c0.6,0,1.2,0,1.7,0c0.5,0,1.1,0.1,1.6,0.1c0.6,0,1.1,0,1.6-0.1
		c-0.1-0.1-0.2-0.1-0.4-0.1c-0.1,0-0.3,0-0.4,0c-0.1,0-0.3,0-0.4,0C23,17.6,22.8,17.6,22.7,17.5z M17.8,12.7c0.1,0,0.1,0,0.1,0
		c0,0,0,0,0-0.1C18,12.6,17.9,12.6,17.8,12.7C17.8,12.7,17.8,12.7,17.8,12.7z M19.5,16.2c-0.3-0.1-0.5-0.1-0.8-0.1
		c-0.3,0-0.5,0-0.8,0h-0.1c0.1,0.1,0.2,0.2,0.3,0.2c0.1,0,0.3,0,0.4,0c0.2,0,0.3,0,0.5-0.1C19.2,16.2,19.3,16.2,19.5,16.2z M21.1,23
		c-0.3,0-0.6,0-0.9,0c-0.3-0.1-0.6-0.1-1,0c-0.1,0-0.1,0-0.1-0.1c0,0,0-0.1-0.1-0.1c-0.2,0.1-0.3,0.1-0.5,0c-0.1,0-0.3,0-0.6,0
		c0,0-0.1,0.1-0.1,0.2c0,0.1,0,0.1,0,0.2c0.8,0,1.6,0.1,2.4,0.1c0.8,0.1,1.5,0.1,2.2,0c0.1,0,0.1,0,0.2,0c0.1,0,0.1,0,0.2-0.1
		c-0.3,0-0.6,0-0.9,0C21.6,23.1,21.3,23,21.1,23z M19.2,18c-0.2,0-0.4,0-0.7,0c-0.3,0-0.5,0-0.7,0.1c1.1,0,2.2,0.1,3.4,0.1
		c1.2,0,2.2,0.1,3.2,0.2c0-0.1,0-0.2,0-0.2c0,0,0-0.1-0.1-0.2c-0.8,0-1.7,0-2.6-0.1C21,18,20.1,18,19.2,18z M18.1,18.6
		c0,0,0-0.1,0-0.1c0,0-0.1-0.1-0.1-0.1c0,0.1,0,0.1,0,0.1C18,18.6,18,18.6,18.1,18.6z M18,19.3c0,0.1,0,0.2,0,0.3c0,0.1,0,0.1,0,0.2
		c0.1,0,0.2,0,0.3,0c0.1,0,0.1,0,0.2,0v-0.1c0,0,0-0.1-0.1-0.1c0,0-0.1,0-0.2,0c-0.1,0-0.1-0.1-0.1-0.2h0.3c0-0.1,0-0.1,0-0.1
		c0,0,0,0-0.1,0c0,0-0.1,0-0.1,0C18.1,19.4,18,19.4,18,19.3z M17.9,22.2c0.1,0,0.1,0,0.1-0.1c0-0.1,0-0.1-0.1-0.1L17.9,22.2
		C17.9,22.1,17.9,22.1,17.9,22.2z M18.1,22.3c0,0-0.1,0.1-0.1,0.1c0,0.1,0,0.1,0,0.2s-0.1,0.1-0.1,0.2c0.9,0,1.7,0.1,2.5,0.2
		c0.8,0.1,1.7,0.1,2.6,0.2c0-0.1,0.1-0.2,0.2-0.2c0.1,0,0.1-0.1,0.1-0.1c-0.4-0.1-0.8-0.1-1.3-0.1c-0.4,0-0.9-0.1-1.4-0.1
		c-0.5,0-0.9,0-1.4-0.1C18.9,22.4,18.5,22.3,18.1,22.3z M18,19.2h0.3c0-0.1-0.1-0.2-0.1-0.3c0-0.1,0-0.1-0.1-0.2H18
		c0,0.1,0,0.2,0,0.2C18,19,18,19.1,18,19.2z M18.1,21.8c0,0,0-0.1,0-0.1c0,0,0-0.1,0-0.1C18.1,21.7,18.1,21.7,18.1,21.8
		C18,21.8,18.1,21.8,18.1,21.8z M23.7,18.5c-0.5,0-1-0.1-1.5-0.1c-0.5,0-0.9,0-1.3-0.1c-0.4,0-0.9,0-1.3,0s-0.9,0-1.4,0.1
		c0,0.1,0.1,0.1,0.1,0.1c0,0,0,0.1,0,0.1c0.5,0,1,0.1,1.4,0.1c0.4,0,0.9,0,1.3,0c0.4,0,0.9,0,1.3,0c0.5,0,1,0,1.5,0c0,0,0,0,0-0.1
		c0,0,0-0.1,0-0.1c0,0.1,0,0.1,0.1,0.1c0.1,0,0.1,0.1,0.2,0.1c0.1,0,0.2,0,0.3,0c0.1,0,0.1,0,0.2-0.1c-0.1-0.1-0.2-0.2-0.4-0.2
		C24,18.5,23.8,18.5,23.7,18.5z M18.3,21.9c-0.1,0-0.1,0-0.1,0c0,0,0,0.1,0,0.1c0.4,0.1,0.8,0.1,1.2,0.2c0.4,0,0.8,0.1,1.3,0.1
		c0.4,0,0.8,0,1.2,0.1c0.4,0,0.7,0,1,0c0.1,0,0.3,0,0.4,0c0.1,0,0.2,0,0.3-0.1c-1-0.1-1.9-0.1-2.7-0.2C20,22,19.1,21.9,18.3,21.9z
		 M20.3,11.6c-0.1,0.1-0.3,0.2-0.5,0.3c-0.2,0.1-0.4,0.2-0.6,0.3c-0.1,0-0.1,0.1-0.2,0.1c-0.1,0.1-0.2,0.1-0.3,0.1
		c0,0.1-0.1,0.2-0.2,0.3c-0.1,0-0.2,0.1-0.3,0.1c0.2,0.1,0.3,0.1,0.5,0c0.2-0.1,0.3-0.2,0.3-0.3c0.2-0.1,0.3-0.1,0.5-0.2
		c0.1-0.1,0.3-0.2,0.4-0.2c0-0.1,0.1-0.1,0.1-0.2c0.1-0.1,0.1-0.1,0.2-0.1c0.1-0.1,0.1-0.2,0.3-0.3c0.1-0.1,0.2-0.2,0.3-0.3
		c-0.1,0-0.2,0.1-0.3,0.2C20.5,11.5,20.4,11.6,20.3,11.6z M18.3,21.6L18.3,21.6v0.1c0.2,0.1,0.3,0.1,0.5,0.1c0.2,0,0.3,0,0.5,0
		c0.7,0,1.4,0.1,2.2,0.2c0.7,0.1,1.5,0.1,2.2,0.1c0-0.1,0-0.1,0.1-0.2c0,0,0-0.1,0-0.2c-0.9,0-1.8,0-2.7,0
		C20.1,21.6,19.2,21.6,18.3,21.6z M18.3,26.4c0.1,0,0.3-0.1,0.4-0.1c0.1,0,0.3-0.1,0.4-0.1c0.1,0,0.3-0.1,0.4-0.1
		c0.1,0,0.2-0.1,0.2-0.1c-0.2,0.1-0.5,0.1-0.7,0.2C18.7,26.2,18.5,26.3,18.3,26.4z M18.6,21.2C18.6,21.2,18.6,21.2,18.6,21.2
		c-0.1,0-0.2,0-0.2,0s-0.1,0-0.1,0.1c0,0,0,0.1,0,0.1c0.8,0.1,1.6,0.1,2.4,0.1c0.8,0,1.6,0,2.4,0c0,0,0.1,0,0.2,0c0.1,0,0.2,0,0.2,0
		c0.1,0,0.1,0,0.2-0.1s0.1-0.1,0.1-0.2c-0.4,0-0.8,0-1.2,0c-0.4,0-0.9,0-1.3,0c-0.5,0-0.9,0-1.4,0C19.5,21.2,19.1,21.2,18.6,21.2z
		 M23.5,19c-0.8-0.1-1.6-0.1-2.5-0.1c-0.9,0-1.8,0-2.6,0c0,0,0,0.1,0,0.1c0,0.1,0.1,0.2,0.1,0.2c0.8,0,1.6,0,2.5,0
		c0.8,0,1.6,0,2.3,0c0.1,0,0.2,0,0.4,0c0.2,0,0.2,0,0.3-0.1c0-0.1,0-0.1-0.1-0.1C23.6,19,23.5,19,23.5,19z M20.6,19.3
		c-0.4,0-0.8,0-1.1,0c-0.4,0-0.7,0-1,0.1c0.2,0.1,0.4,0.1,0.6,0.1s0.5,0,0.7,0c0.2,0,0.5,0,0.7,0c0.2,0,0.5,0,0.7,0
		c0.2,0,0.4-0.1,0.7-0.1c0.2,0,0.4,0,0.7,0c0.2,0,0.4,0,0.7,0c0.2,0,0.5-0.1,0.7-0.1c-0.6-0.1-1.1-0.1-1.7-0.1
		C21.6,19.4,21.1,19.4,20.6,19.3z M23.2,19.7c-0.7,0-1.3,0-2-0.1c-0.7,0-1.4,0-2.1,0c-0.1,0-0.2,0-0.3,0c-0.1,0-0.2,0-0.3,0.1
		c0.1,0.1,0.2,0.1,0.4,0.1c0.1,0,0.3,0,0.4,0c0.3,0,0.7,0,1.1,0c0.4,0,0.8,0,1.2,0c0.4,0,0.8,0,1.1,0c0.4,0,0.7,0,1-0.1
		c0.1,0,0.1,0,0.2,0c0.1,0,0.1,0,0.1-0.1c-0.1-0.1-0.2-0.1-0.3-0.1C23.4,19.7,23.3,19.7,23.2,19.7z M22.6,20.6c-0.4,0-0.7-0.1-1-0.1
		c-0.3,0-0.6,0-1,0c-0.3,0-0.6,0-1,0c-0.3,0-0.7,0-1.1,0c-0.1,0-0.1,0.1-0.1,0.1c0,0.1,0,0.1,0,0.2c0.9,0,1.8,0,2.8,0.1
		S23,21,23.8,21c0-0.1,0-0.1,0-0.2c0-0.1,0-0.1,0.1-0.1c-0.2,0-0.4,0-0.6,0S22.8,20.6,22.6,20.6z M21.5,20.1
		c-0.2,0.1-0.5,0.1-0.8,0.1s-0.5,0-0.8,0c-0.3,0-0.5,0-0.8,0c-0.2,0-0.5,0.1-0.7,0.1c0.7,0,1.4,0.1,2.1,0.1c0.7,0,1.4,0,2.1,0
		c0.2,0,0.4,0,0.6,0c0.2,0,0.4,0,0.6-0.1c-0.2-0.1-0.4-0.1-0.6-0.1c-0.2,0-0.4,0-0.6,0c-0.2,0-0.4,0-0.6,0
		C21.9,20.2,21.7,20.2,21.5,20.1z M18.5,26.6c0,0.1,0,0.1,0,0.2c0,0.1,0,0.1,0,0.1c0.1,0,0.3,0,0.4-0.1c0.1-0.1,0.3-0.1,0.4-0.2
		s0.3-0.2,0.4-0.3c0.1-0.1,0.2-0.2,0.3-0.2c-0.2,0.1-0.5,0.2-0.7,0.3C19,26.4,18.8,26.5,18.5,26.6z M18.7,21c0.6,0,1.1,0.1,1.8,0.1
		c0.6,0,1.2,0,1.8,0c-0.2,0-0.5,0-0.8-0.1c-0.3,0-0.6,0-0.9-0.1s-0.6,0-0.9,0C19.2,21,19,21,18.7,21z M19.4,11.4
		C19.4,11.4,19.4,11.4,19.4,11.4c-0.2,0-0.2,0-0.2,0H19.4z M19.8,25.9c0,0,0.1-0.1,0.1-0.1c0,0,0.1,0,0.1-0.1
		C19.9,25.8,19.9,25.8,19.8,25.9C19.7,25.8,19.7,25.9,19.8,25.9z M22.8,16.4c-0.2,0-0.5-0.1-0.7-0.1c-0.3,0-0.4,0-0.6-0.1
		c-0.1,0.1-0.3,0.1-0.5,0.1c-0.2,0-0.4,0-0.5,0.1c0.5,0,1.1,0,1.6,0c0.5,0,1.1,0,1.7,0c0-0.1-0.1-0.1-0.2-0.1c-0.1,0-0.1,0-0.2,0
		c-0.1,0-0.2,0-0.3,0S22.9,16.4,22.8,16.4z M20.5,25.8c0.1,0,0.3-0.1,0.5-0.2c0.2-0.1,0.4-0.2,0.5-0.3c0.2-0.1,0.3-0.2,0.5-0.4
		c0.2-0.1,0.3-0.3,0.4-0.4c-0.3,0.2-0.6,0.4-0.9,0.6C21.1,25.3,20.8,25.6,20.5,25.8z M20.9,15.7c0.1,0,0.1,0,0.2,0
		c0.1,0,0.2,0,0.3,0s0.2,0,0.3,0c0.1,0,0.1,0,0.2,0c-0.1,0-0.2-0.1-0.4-0.1C21.3,15.6,21.1,15.6,20.9,15.7z M23.5,20.1
		c-0.2-0.1-0.5-0.1-0.8-0.1c-0.3,0-0.6,0-1,0c0.3,0,0.6,0,0.9,0C22.9,20.1,23.2,20.1,23.5,20.1z M22.4,15.7h-0.3
		c0.1,0,0.3,0.1,0.5,0.1c0.2,0,0.4,0,0.6,0c-0.1-0.1-0.2-0.1-0.4-0.1C22.6,15.7,22.5,15.7,22.4,15.7z M22.2,25.1
		c0.2-0.1,0.4-0.2,0.6-0.3c0.2-0.1,0.3-0.3,0.4-0.5c-0.2,0.1-0.4,0.3-0.5,0.4C22.4,24.8,22.3,24.9,22.2,25.1z M22.5,15.9
		c0.1,0,0.3,0.1,0.4,0.1c0.1,0,0.3,0,0.4,0v0.1c0,0,0.1,0,0.1,0c0,0,0.1,0,0.1-0.1c0,0-0.1-0.1-0.2-0.1c-0.1,0-0.2-0.1-0.3-0.1
		c-0.1,0-0.2,0-0.3,0S22.5,15.9,22.5,15.9z M22.8,8.7c0,0,0-0.1,0.1-0.1c0-0.1,0.1-0.1,0.1-0.1c0,0-0.1,0.1-0.1,0.1
		C22.8,8.6,22.8,8.7,22.8,8.7z M23.1,9.6v1.9c0,0.1,0,0.1-0.1,0.1c0,0,0,0,0,0c0,0,0,0,0,0c0,0.2,0,0.5,0,0.7c0,0.2,0,0.5,0,0.7
		c-0.1-0.2-0.1-0.4-0.1-0.6c0-0.2,0-0.4,0-0.7c0,0,0,0,0-0.1c0,0,0,0,0,0c0-0.2,0.1-0.4,0.1-0.6c0-0.2,0-0.4,0-0.7c0,0,0,0,0.1,0.1
		c0,0,0,0,0.1,0c0-0.1,0-0.1-0.1-0.1c-0.1,0-0.1-0.1,0-0.2c0.1,0,0.1,0,0.1,0.1c0,0,0,0.1,0,0.1c0-0.1,0-0.2,0-0.3
		C23.1,9.8,23.1,9.7,23.1,9.6z M23.1,13.1c0,0.2,0,0.4,0,0.6c0,0.2,0,0.4-0.1,0.6c0.1-0.2,0.1-0.4,0.1-0.6
		C23,13.5,23,13.3,23.1,13.1z M23.2,1.5c0.1,0,0.1,0.1,0.1,0.1s0,0.1,0.1,0.1c-0.1,0.2-0.1,0.4-0.1,0.6c0,0.2,0,0.4-0.1,0.7
		c0-0.1,0-0.2,0-0.3c0-0.1,0-0.3,0-0.4c0-0.1,0-0.3,0-0.4S23.1,1.6,23.2,1.5z M23.2,9v0.3c0,0,0,0,0-0.1C23.2,9.1,23.2,9.1,23.2,9z
		 M23.8,21.9c0-0.1,0-0.1,0.1-0.1c0,0,0.1,0,0.1-0.1h-0.1C23.9,21.7,23.9,21.8,23.8,21.9C23.8,21.9,23.8,21.9,23.8,21.9z M23.9,21.5
		c0.1,0,0.2,0,0.2-0.1c0,0,0-0.1,0.1-0.1h-0.3V21.5z M24,21h0.3c0-0.1,0-0.1,0-0.2c0,0,0.1-0.1,0.1-0.2c-0.1,0-0.3,0-0.4,0
		C24,20.7,23.9,20.8,24,21z M24,19.2c0.1,0,0.2,0,0.3,0c0.1,0,0.2,0,0.3,0c0-0.1,0-0.1-0.1-0.1c-0.1,0-0.1,0-0.2,0
		c-0.1,0-0.1,0-0.2,0C24,19.1,24,19.1,24,19.2z M24,19.3c0,0.1,0,0.1,0.1,0.1c0.1,0,0.1,0,0.1,0c0,0,0,0.1,0,0.1c0,0,0,0.1,0,0.1
		c-0.1,0-0.1,0-0.2,0c0,0-0.1,0-0.2,0v0.2c0.2,0,0.3,0,0.3,0c0.1,0.1,0.1,0.1,0,0.2h0.3c-0.1-0.2-0.1-0.3-0.1-0.4c0-0.1,0-0.2,0-0.4
		H24z M24.4,20.3H24c0,0.1,0.1,0.1,0.2,0.1C24.3,20.4,24.4,20.4,24.4,20.3z"/>
</g>
</svg>
