<?xml version="1.0" encoding="utf-8"?>
<!-- Generator: Adobe Illustrator 18.1.1, SVG Export Plug-In . SVG Version: 6.00 Build 0)  -->
<svg version="1.1" id="Layer_1" xmlns="http://www.w3.org/2000/svg" xmlns:xlink="http://www.w3.org/1999/xlink" x="0px" y="0px"
	 viewBox="0 0 85 85" enable-background="new 0 0 85 85" xml:space="preserve">
<path fill="#7D4816" d="M16,41.3c-1.5,0.4-2.8,1.1-2.2,1.2c1.6-0.6,3.2-1,4.9-1.3C19,40.8,17.5,40.9,16,41.3z"/>
<path fill="#7D4816" d="M2.9,47.2l10.5,2.1c-0.3-0.3-1-0.6-2.9-1c-1.9-0.5-4.1-1-6.3-1.4c-0.2-0.1,0.1-0.3,0.3-0.5L5.2,46l1-0.9
	c0.6-0.6,1-1,1-1.2C6.4,44.4,5.7,45,5,45.5C4.3,46.1,3.3,46.8,2.9,47.2z"/>
<path fill="#7D4816" d="M16.3,48.6l-2.5-0.5c-0.3,0.5,0.1,0.8,1.1,1.1l1.3,0.2L16.3,48.6z"/>
<path fill="#7D4816" d="M23,51.1l0.6,0.1c0.2,0,0.5,0.1,0.3,0.3c0.2-0.1,0.4-0.3,0.5-0.4c0-0.1-0.2-0.2-0.4-0.2
	c-0.5-0.1-0.9-0.2-2.1-0.4c-2.1-0.3-4.4-0.6-5.9-1l-1.3-0.2l-0.1,0.4l5.7,1.1L23,51.1z"/>
<path fill="#7D4816" d="M19.1,75.9c0.9,0.9,0.9,1.6,0.8,2.3C20.2,76.9,20.1,75.9,19.1,75.9z"/>
<path fill="#7D4816" d="M23.4,74.8c-1.8,0.8-2.9,2.2-3.5,3.3l0,0c0.4-0.7,1.2-1.4,3.2-1.7c2.2-3.6,4-5.5,5.9-7.8l2.3-2.6
	c-0.9,0.7-1.7,1.4-3,2.8C26.7,70.5,25.2,72.1,23.4,74.8z"/>
<path fill="#7D4816" d="M21.3,75.7l0.6-0.7c0.5-0.6,1.3-1.4,2-2.4c0.8-1.3,1.4-2.2,1.3-2.5l-1,1.2c-1,1.2-1.8,2.5-2.7,3.8
	C21.4,75.4,21.2,75.9,21.3,75.7z"/>
<path fill="#7D4816" d="M34.4,62.7l3.1-3.3C37.7,58.1,33.1,63,34.4,62.7z"/>
<path fill="#7D4816" d="M45.9,61.9l0.3-0.3l-1-0.7c-1-0.6-2.1-1.4-3.3-2.4c-0.9-0.7-3-2.5-4-3.2c-0.6,0.8-1,1.4-1,1.9L38,56
	C41,58.5,43.2,60.1,45.9,61.9z"/>
<path fill="#7D4816" d="M55.1,68l-7.1-4.7C47.5,64,54.4,68.5,55.1,68z"/>
<path fill="#7D4816" d="M65.8,77.5l-1-0.7l-2-1.4l-0.3,0.3c1.3,0.9,2.6,1.8,3.8,2.8l0.3-0.3L65.8,77.5z"/>
<path fill="#7D4816" d="M73.1,80.5c-1.8-1.6-3.6-3.4-5.3-5.1c0.2,0.4,0.6,1,1,1.6c0.1,0.1,0.3,0.2,0.5,0.4
	C70.7,78.4,71.9,79.4,73.1,80.5z"/>
<path fill="#7D4816" d="M70.2,81.1l-1.9-1.8c-0.3-0.3-0.6-0.6-0.9-1c-0.6-0.4-1.2-0.7-1.6-0.9l0.9,0.7C68,79.2,69.1,80.2,70.2,81.1z
	"/>
<path fill="#7D4816" d="M59.9,68.1l-0.4,0.2c0.7,1.2,1.6,2.3,2.4,3.5c0.4,0.2,0.7,0.5,1.1,0.7C61.9,71.1,60.8,69.7,59.9,68.1z"/>
<path fill="#7D4816" d="M58.8,58.3l-0.5,0.1c0.2,1.4,0.6,2.7,1.1,4.1l0.5-0.1C59.4,61,59,59.7,58.8,58.3z"/>
<path fill="#7D4816" d="M65.9,38.8l-0.3-0.3l-1,0.8c-4.5,3.6-7.9,8.5-8.5,13.8c0.8-1.6,1.5-4.4,3.2-7.2
	C60.9,43.1,63.4,40.4,65.9,38.8z"/>
<path fill="#7D4816" d="M61.8,44.4c-1.6,1.9-2.4,4.2-2.2,4.8c1.3-3.2,3.7-6.1,6.7-8.4C65.6,40.9,63.4,42.4,61.8,44.4z"/>
<path fill="#7D4816" d="M75.4,34.6l0.1,0.4l-1.3,0.2L74.2,35c-0.9,0.3-1.9,0.7-3,1.3c-2.9,1.4-5.7,3.8-6.4,4.7
	c1.1-0.2,3-1.8,5.2-3.2c2.1-1.4,4.5-2.5,5.6-2.4l1.1-0.5C76.8,34.5,76.2,34.5,75.4,34.6z"/>
<path fill="#7D4816" d="M72.3,35c0.1,0.1,0.3,0.1,0.8-0.1C72.9,35,72.6,35,72.3,35z"/>
<path fill="#7D4816" d="M64.5,33l0.1,0.4l5.1-0.6l2.6-0.3c1.8-0.4,6.6-0.6,6.1-1.4c-2,0.4-4.1,0.8-6.2,1c-2.1,0.3-4.2,0.5-6.3,0.7
	L64.5,33z"/>
<path fill="#7D4816" d="M72.2,32.1l-0.1-0.4c-2.1,0.3-4.2,0.5-6.3,0.7l0.1,0.4C67.9,32.6,70.1,32.4,72.2,32.1z"/>
<path fill="#7D4816" d="M69.9,33.7c2.2-0.1,2.3-0.6,2.4-1.2l-2.6,0.3L69.9,33.7z"/>
<path fill="#7D4816" d="M58.1,33.6c-2.6,0.3-5.2,0.6-7.8,1L49,34.8l0.1,0.4c3.4-0.6,6.8-1,10.3-1.4l-0.1-0.4L58.1,33.6z"/>
<path fill="#7D4816" d="M58.1,33.6L58,33.2l-3.9,0.5c-1.3,0.2-2.6,0.3-3.9,0.6l0.1,0.4C52.9,34.2,55.5,33.9,58.1,33.6z"/>
<path fill="#7D4816" d="M47.1,37.3l0.1,0.4c0.4-0.1,0.8-0.2,1.2-0.3c1.2-0.2,2.5-0.4,3.7-0.6l1.2-0.2l-0.1-0.4
	C51.3,36.6,49.2,36.9,47.1,37.3z"/>
<path fill="#7D4816" d="M39.4,28.6l-0.6-1c-0.1,0.5,0.9,2.6,2,4.6c0.6,1,1.1,2,1.6,2.8c0.5,0.8,0.7,0.8,0.8,0.8
	c-0.1-0.3-1-2.2-1.7-3.4L39.4,28.6z"/>
<polygon fill="#7D4816" points="38.3,26.6 38.9,27.6 39.4,28.6 39.8,28.4 37,23.5 36.6,23.7 "/>
<path fill="#7D4816" d="M35.4,21.6c-0.4-0.8-0.9-1.7-1.3-2.7c-0.9-1.8-1.7-4.5-2.9-9.1L29.9,5l-0.1,0.9l0,0.4l0,0.1l-0.1,0.5
	c0.2,0.5,0.5,1.8,0.8,1.5l1.3,5c0.4,1.4,0.8,2.9,1.1,3.7c0.7,2,1.3,3.3,2.1,4.6c0.8,1.4,1.3,2.3,1.9,3.1c0.6,0.8,1.1,1.4,1.4,1.8
	l-1.7-2.9L35.4,21.6z"/>
<path fill="#7D4816" d="M29.5,23.3l0-6.3L29,16.1C29,18.9,28.8,22.9,29.5,23.3z"/>
<path fill="#7D4816" d="M8.8,42.9l1.3-0.7l0.9-0.4c0.6-0.3,1.2-0.5,1.9-0.8c5.6-2.1,16.3-3.4,14.7-0.5c-2.6,0-5.1,0.2-7.7,0.6
	l-1.3,0.2c-1.7,0.3-3.3,0.7-4.9,1.3C12.4,43,11,43.7,10,44.3c-0.5,0.3-1.1,0.7-1.6,1c-0.2,0.2-0.5,0.4-0.7,0.5l-0.3,0.3l-0.2,0.1
	l0.3,0.1l5.2,1c-0.1-0.2-0.3-0.4-0.7-0.6c-0.3-0.1-0.6-0.2-1.1-0.3l-2.3-0.5c-0.2,0-0.2-0.1,0-0.2l0.3-0.3c0.2-0.2,0.4-0.3,0.7-0.5
	c0.5-0.3,0.9-0.6,1.5-0.9c1.1-0.6,3-1.4,4.6-1.9c3.4-1,7-1.4,10.7-1.5c4.4-0.3,2.7-2.9-1.6-2.6c-2.7,0.1-5.4,0.5-8.1,1.1
	c-1.3,0.3-2.7,0.7-4,1.2c-0.6,0.3-1.3,0.5-1.9,0.8l-1,0.5l-1.4,0.8L8.8,42.9z"/>
<path fill="#7D4816" d="M19.6,39.7c2.9-0.6,5.9-0.8,6.7-0.2c0.7,1.1-7.2,0.2-6.3,1.5c2.5-0.4,5.1-0.6,7.7-0.6
	c1.6-2.8-9.1-1.5-14.7,0.5C13.9,41.3,16.6,40.2,19.6,39.7z"/>
<path fill="#7D4816" d="M75.4,34.6c0.8-0.2,1.3-0.1,1.3,0.2c1.3-0.5,3.1-1.2,4.8-1.9c-2,0.5-4.1,1-6.2,1.3L75.4,34.6z"/>
<path fill="#7D4816" d="M23.9,72.5c-0.7,1-1.5,1.8-2,2.4l-0.6,0.7c-0.1,0.2,0.1-0.2,0.2-0.7c-0.4,0.6-0.7,1.2-1,1.8l-0.1,0.1
	c0.8-1.9,1.3-4,1.6-6.1c0.8-4,1.3-9.1,2.1-13.3c0.4-2.2,0.9-4.1,1.6-6.1c0.1-0.5,0.5-1.1,0.3-1.4l-1.6-0.3c-1.2-0.3-2.1-0.5-3-0.7
	l-3.8-0.7l-5-1l-5.2-1l-0.3-0.1l0.2-0.1l0.3-0.3c0.2-0.2,0.5-0.4,0.7-0.5c0.5-0.3,1-0.7,1.6-1c1.1-0.6,2.4-1.3,3.8-1.8
	c-0.6-0.1,0.7-0.9,2.2-1.2c1.5-0.4,3-0.5,2.7-0.1l1.3-0.2c-0.9-1.3,7-0.4,6.3-1.5c-0.8-0.6-3.7-0.4-6.7,0.2c-3,0.5-5.7,1.5-6.7,1.2
	c-0.6,0.3-1.3,0.5-1.9,0.8l-0.9,0.4l-1.3,0.7c-0.6,0.3-1.1,0.7-1.6,1c0,0.2-0.5,0.6-1,1.2l-1,0.9l-0.6,0.5c-0.2,0.2-0.5,0.4-0.3,0.5
	c2.2,0.4,4.4,0.9,6.3,1.4c1.8,0.5,2.5,0.7,2.9,1l1.3,0.2l0.1-0.4c-1-0.3-1.4-0.6-1.1-1.1l2.5,0.5l-0.2,0.8c1.5,0.4,3.8,0.7,5.9,1
	c1.2,0.2,1.6,0.3,2.1,0.4c0.2,0.1,0.4,0.1,0.4,0.2c-0.1,0.2-0.3,0.3-0.5,0.4l-0.3,1.1c-0.5,1.8-0.9,3.6-1.2,5.4
	c-0.6,1.5-0.3,5.6-1.4,5.3c0.2,0.6,0.2,1.1,0.2,1.7c0,0.3-0.1,0.6-0.2,0.8l-0.3,1.3l-0.9,3.5l-0.5,2.2l-0.8,2.8l0.5,0.2
	c1,0.1,1.2,1,0.8,2.3v0c0.6-1.2,1.8-2.5,3.5-3.3c1.8-2.7,3.3-4.3,4.9-6c1.3-1.4,2.2-2.1,3-2.8l0.8-0.8l2.4-2.5
	c-1.3,0.3,3.2-4.6,3.1-3.3l0.7-0.8l1.5,1.2c1,0.7,1.9,1.4,2.9,2.1l5,3.5c4.7,2.4,5.7,3.4,10.2,6.6c0.7-0.5,7.4,4.1,6.9,4.8l1,0.7
	c0.4,0.2,1,0.5,1.6,0.9c-0.8-0.8-1.6-1.6-2.4-2.5c-0.8-0.9-1.5-1.8-2.2-2.7l0,0c-2.2-1.5-4.5-3.1-6.7-4.6l-1-0.6
	c-0.6,0.5-7.5-4-7.1-4.7l-2-1.4C43.2,60.1,41,58.5,38,56l-1.1,1.2l-0.9,1c1.2-0.1-3.1,4.5-3.2,3.5c-2.6,2.8-5.5,5.9-7.5,8.3
	C25.3,70.3,24.8,71.2,23.9,72.5z M19.7,74.2c0.5-2.1,1.1-4.5,1.8-5.9c0.7-0.2,0.5,1.4-0.2,3.7l-0.4,2.6
	C20.6,74.8,20.3,74.7,19.7,74.2z"/>
<path fill="#7D4816" d="M66.2,75.5l1.9,1.4c0.2-0.1,0.4-0.2,0.8,0c-0.4-0.6-0.9-1.2-1-1.6c-2.5-1.2-2-2.5-4.3-5.3
	c-1.7-2.4-3.1-5-4.2-7.7c-0.5-1.4-0.9-2.7-1.1-4.1c-0.1-1.2-0.4-3.1-0.2-4.8c0.1-1.7,0.6-3.1,1.3-3.4l0.3-1
	c-0.2-0.6,0.6-2.9,2.2-4.8c1.6-2,3.7-3.5,4.5-3.6l0.9-0.7c2.5-1.8,5.3-3.4,8.3-4.7c-1.1-0.1-3.5,1-5.6,2.4c-2.2,1.3-4.1,2.9-5.2,3.2
	c0.7-0.9,3.5-3.2,6.4-4.7c1.1-0.5,2.1-1,3-1.3l0-0.1c-0.4,0.1-0.7,0.1-1,0.1c-0.5,0.1-0.8,0.2-0.8,0.1c-0.1,0-0.1,0-0.2,0
	c-3.5,1.6-3.4,3-6.2,3.8c-2.5,1.6-5,4.2-6.6,7c-1.7,2.8-2.4,5.6-3.2,7.2c-0.1,1.1-0.1,2.3-0.1,3.4c0.3,4.1,1.8,8.1,3.9,11.7
	c0.9,1.5,1.9,3,3,4.4C64.6,73.7,65.9,74.7,66.2,75.5z"/>
<path fill="#7D4816" d="M68.3,79c1.3,0.9,2.8,2,4.1,3.3l0.9-0.7c-1-0.9-2-1.8-2.8-2.7c-0.8-0.8-1.7-1.5-2.4-1.9l-1.9-1.4
	c-0.7-0.5-1.5-1-2.2-1.5C65.5,75.8,67.9,77.9,68.3,79z"/>
<path fill="#7D4816" d="M83.6,31.5L83.4,31c-1.7,0.5-3.6,1.3-4.1,1l-2.4,0.9c0.2,0,0.1,0.1,0,0.3c0.2-0.1,0.4-0.1,0.7-0.2
	c1.7-0.3,3.4-0.7,5-1.2L83.6,31.5z"/>
<path fill="#7D4816" d="M30.7,22.6c0-2.2,0-4.6,0.1-6.3l0-1.2l0-0.5l0-0.2l0.1,0.4c0.2,1.1,0.5,2.1,0.7,3l0.2,0.5
	c0.3,0.8,0.6,1.5,1,2.3c-0.4-2.4,2.6,3.4,1.5,2.9l0.5,1c2.2,4,4.5,7.7,6.5,11.9l0.6,1.2c0.1,0.2,0.1,0.6,0.4,0.6l0.9-0.3l1.8-0.5
	c1-0.2,2.1-0.5,3.1-0.7c2.1-0.4,4.2-0.7,6.3-1c4.2-1.2,7.6-0.4,14.1-1.4c2.4,0.1,3.5-0.1,4.8-0.4c0.6-0.3,1.3-0.6,1.9-0.9
	c1.2-0.5,2.4-1,3.6-1.4l1.2-0.4l1.2-0.4c-0.8,0.1-1.5,0.2-1.9,0.1l-1.2,0.3c0.5,0.9-4.3,1-6.1,1.4c0,0.5-0.1,1.1-2.4,1.2l-0.2-0.8
	l-5.1,0.6l-5.1,0.5c-3.5,0.3-6.9,0.8-10.3,1.4c-1,0.1-2.6,0.5-4,0.9c-1.2,0.3-1.8,0.5-1.5-0.1c-0.3,0.1-0.3-0.1-0.4-0.2
	c-0.2,0-0.3,0-0.8-0.8c-0.5-0.8-1.1-1.8-1.6-2.8c-1.1-2-2.1-4.1-2-4.6l-0.6-1c-0.3-0.3-0.9-1-1.4-1.8c-0.6-0.8-1.1-1.7-1.9-3.1
	c-0.8-1.4-1.5-2.6-2.1-4.6c-0.3-0.8-0.7-2.3-1.1-3.7l-1.3-5c-0.3,0.3-0.6-0.9-0.8-1.5c-0.2-0.1-0.2-0.6-0.3-0.6c0,0,0-0.2,0,0v0.6
	l0,1.1l0.3,4.3c0.2,2.6,0.3,4-0.2,4.6l0,6.3l0,3.5l0,5.4c0.2,2.6-0.8,2.4-0.4,5.4l1.7-1.2l0-2.2L30.7,22.6z M40.8,32.9
	c1.1,3.4-2.3-3.3-3.1-4.7C36.4,24.8,40,31.4,40.8,32.9z"/>
<polygon fill="#7D4816" points="83.4,31 83.6,31.5 83.6,31.5 83.6,31.5 83.4,31 "/>
<path fill="#7D4816" d="M73.4,81.6l-0.9,0.7l0,0l-0.1,0.1h0l1.2-0.9c0,0,0,0,0,0L73.4,81.6C73.3,81.6,73.3,81.6,73.4,81.6z"/>
<polygon fill="#7D4816" points="19.8,78.2 19.8,78.2 19.8,78.1 "/>
<path fill="#7D4816" d="M70.5,78.8c0.8,0.9,1.8,1.8,2.8,2.7l0.1-0.1C72.6,80.8,71.6,79.8,70.5,78.8z"/>
<path fill="#7D4816" d="M72.4,82.3l0.9-0.7c0,0,0,0,0,0L72.4,82.3L72.4,82.3z"/>
<path fill="#7D4816" d="M72.3,82.4l0.1-0.1c-1.3-1.3-2.8-2.4-4.1-3.3c0.1,0.2,0.1,0.3,0,0.4l1.9,1.8c0.3,0.2,0.6,0.5,0.8,0.7
	C71.4,81.8,71.8,82,72.3,82.4z"/>
<polygon fill="#7D4816" points="62.8,73.2 62.8,73.2 62.8,73.2 "/>
<path fill="#7D4816" d="M76.9,32.9c-0.4,0.1-0.8,0.3-1.1,0.5c0.3-0.1,0.8-0.2,1.2-0.3C77,33,77.1,32.9,76.9,32.9z"/>
<path fill="#7D4816" d="M77.7,33c0.6,0.5,3.4-0.3,5.2-0.8l-0.2-0.4C81,32.3,79.4,32.7,77.7,33z"/>
<path fill="#7D4816" d="M21.3,72c0.6-2.3,0.9-3.9,0.2-3.7c-0.7,1.4-1.2,3.8-1.8,5.9c0.6,0.5,0.9,0.7,1.2,0.4L21.3,72z"/>
<path fill="#7D4816" d="M40.8,32.9c-0.8-1.5-4.4-8.1-3.1-4.7C38.5,29.6,41.9,36.3,40.8,32.9z"/>
<path fill="#7D4816" d="M31.2,20.7l0-3.4v-0.9l0-0.4c0-0.2,0.1,0.2,0.1,0.2c0.1,0.5,0.3,1.1,0.5,1.6c-0.2-0.9-0.5-1.9-0.7-3
	l-0.1-0.4l0,0.2l0,0.5l0,1.2c-0.1,1.8-0.1,4.1-0.1,6.3l0.2,11.7c0.1-0.8,0-2.1,0.4-2.2l-0.1-7.6L31.2,20.7z"/>
<polygon fill="#7D4816" points="83.1,30.4 83.2,30.6 83.2,30.6 83.6,31.5 83.6,31.5 83.6,31.5 83.8,31.9 83.8,31.9 83.9,32.2 
	83.9,32.2 83.9,32.3 84,32.3 83,30.3 83,30.3 83.1,30.4 "/>
<path fill="#7D4816" d="M73.5,33.9c-1.3,0.3-2.4,0.4-4.8,0.4c-0.2,0.3-1,0.6-2.5,0.7l0.1,0.4l2.6-0.3c1-0.1,1.7-0.1,2.3-0.1
	c0.2-0.1,0.5-0.3,0.8-0.4C72.5,34.4,73,34.2,73.5,33.9z"/>
<path fill="#7D4816" d="M75.6,35.1l-0.1-0.4c-0.3,0.1-0.8,0.2-1.2,0.3l0.1,0.3L75.6,35.1z"/>
<path fill="#7D4816" d="M76.9,33.1c-0.4,0.1-0.8,0.2-1.2,0.3c-1.2,0.5-2.4,1-3.5,1.6c0,0.1,0,0.1,0.1,0.1c0.2,0,0.6,0,0.8-0.1
	C74.4,34.6,76.5,33.6,76.9,33.1z"/>
<path fill="#7D4816" d="M75.3,34.3c2.1-0.3,4.2-0.8,6.2-1.3c0.8-0.3,1.6-0.6,2.3-0.8l-0.1-0.3l-0.9,0.3c-1.9,0.5-4.6,1.3-5.2,0.8
	c-0.3,0.1-0.5,0.1-0.7,0.2c-0.4,0.5-2.5,1.5-3.8,1.8c0.3,0,0.6,0,1-0.1l0,0.1c0.5-0.1,0.9-0.3,1.2-0.3L75.3,34.3z"/>
<path fill="#7D4816" d="M83.2,30.6l-0.1-0.3c-0.6,0.2-1.2,0.3-1.7,0.4l-1.2,0.4L79,31.6l0.2,0.4C80.6,31.5,81.9,31.1,83.2,30.6z"/>
<path fill="#7D4816" d="M72.1,35c0.1,0,0.2,0,0.2,0c0,0-0.1,0-0.1-0.1C72.2,35,72.2,35,72.1,35z"/>
<path fill="#7D4816" d="M11,44.3c-0.6,0.3-1,0.6-1.5,0.9c-0.2,0.2-0.5,0.3-0.7,0.5L8.5,46c-0.1,0.1-0.2,0.2,0,0.2l2.3,0.5l0.4-0.4
	l-1.6-0.3c0.1-0.4,1.1-1,1.7-1.4c0.2-0.1,1.1-0.5,1.8-0.8c0.7-0.3,1.5-0.6,2.2-0.8c2.7-0.8,5.6-1.3,8.5-1.5c0.8-0.1,1.7-0.1,2.5-0.1
	l0-0.4c-3.7,0.1-7.3,0.6-10.7,1.5C14,42.8,12.1,43.7,11,44.3z"/>
<path fill="#7D4816" d="M11.9,46.9c0.4,0.2,0.6,0.3,0.7,0.6l5,1l0.1-0.4l0.1-0.5l-6.6-1.3l-0.4,0.4C11.3,46.7,11.6,46.7,11.9,46.9z"
	/>
<path fill="#7D4816" d="M21.5,49.1c0.6,0,1.2,0.1,2.2,0.3l2.9,0.6c-0.5,1.5-0.9,2.9-0.3,3l1-3.2c0.1-0.2,0-0.2-0.2-0.2l-0.5-0.1
	l-1-0.2l-2-0.3l-5.7-1l-0.1,0.4L21.5,49.1z"/>
<path fill="#7D4816" d="M23.7,52.6l-0.5-0.1c-0.5,1.8-0.8,3.6-1.2,5.4l0.5,0.1C22.8,56.2,23.2,54.4,23.7,52.6z"/>
<path fill="#7D4816" d="M24.1,61.4l0.5,0c0.3-2.1,0.7-4.3,1.2-6.4C24.5,55.1,24.6,59.5,24.1,61.4z"/>
<path fill="#7D4816" d="M22.5,58L22,58l-0.7,4.3l-0.2,1.1C22.2,63.6,21.9,59.5,22.5,58z"/>
<path fill="#7D4816" d="M23.3,66.4L22.7,70c-0.1,0.7-0.3,1.4-0.4,2l0.8-1.5l0.2-1.1l0.1-0.4l0.4-2.5l0.8-5.1l-0.5,0L23.3,66.4z"/>
<path fill="#7D4816" d="M19.4,72.9l0.5-2.2l0.9-3.5l0.3-1.3c0.1-0.3,0.1-0.6,0.2-0.8c0-0.6,0-1.1-0.2-1.7l0.2-1.1l-0.5,0
	c-0.3,2-0.4,2.8-1.1,6.9c-0.4,2.2-0.8,4.4-1.9,7.5l0.6,0.3l0.7-1l-0.5-0.2L19.4,72.9z"/>
<path fill="#7D4816" d="M21.5,74.7l0.1-0.1c0.4-0.8,0.8-1.5,1.3-2.2c0.6-1.6,0-0.7-0.3,0.1l0.2-0.5c0.2-0.5,0.3-1,0.5-1.6L22.3,72
	C22.1,73,21.7,74,21.5,74.7z"/>
<path fill="#7D4816" d="M26,68.4l1.8-2l4.6-5l0.8-0.8l-0.4-0.3l-3.2,3.4l-1.6,1.7c-2,2.2-2.1,2.4-3,3.5l-0.2,0.3l-0.2,0.2
	c-0.3,0.2-0.5,0.9-0.8,1.8l0.7-0.9L26,68.4z"/>
<path fill="#7D4816" d="M39.8,59.8l-1.5-1.2l-0.7,0.8l-3.1,3.3L32,65.2l0.4,0.2l3.6-3.8l1.7-1.8l0.4-0.5l0.2,0.1l2.9,2.1l1,0.7
	l0.3-0.3C41.7,61.2,40.7,60.5,39.8,59.8z"/>
<path fill="#7D4816" d="M20.5,76.8c0.3-0.6,0.6-1.2,1-1.8c0.8-1.3,1.7-2.6,2.7-3.8l1-1.2c2-2.4,4.9-5.5,7.5-8.3l-0.4-0.3l-4.6,5
	l-1.8,2l-1.5,1.8l-0.7,0.9l-0.9,1.3c-0.5,0.7-0.9,1.4-1.3,2.2L20.5,76.8z"/>
<path fill="#7D4816" d="M36,58.2l-3.2,3.5C32.9,62.7,37.2,58.1,36,58.2z"/>
<path fill="#7D4816" d="M42.7,61.9l-0.3,0.3c1.7,1.2,3.4,2.3,5,3.5l0.3-0.3L42.7,61.9z"/>
<polygon fill="#7D4816" points="47.9,63.3 55.1,68 56.1,68.6 56.4,68.3 53.3,66.3 52.3,65.6 46.2,61.6 45.9,61.9 "/>
<path fill="#7D4816" d="M57.9,72c-4.6-3.2-5.5-4.2-10.2-6.6l-0.3,0.3l4.1,2.7l1,0.7l6.1,4l0.3-0.3L57.9,72z"/>
<polygon fill="#7D4816" points="58.9,72.7 58.6,73.1 62.6,75.8 62.9,75.4 "/>
<path fill="#7D4816" d="M62.9,75.4l2,1.4c0.4-0.7-6.3-5.3-6.9-4.8l1,0.7L62.9,75.4z"/>
<path fill="#7D4816" d="M71,81.8l-0.7-0.7c-1.1-1-2.2-2-3.5-2.9l-0.3,0.3l0.9,0.7c1.2,1,2.4,2,3.5,3l0.3-0.2L71,81.8z"/>
<path fill="#7D4816" d="M70.2,81.1l0.7,0.7c0,0,0.1,0,0.1,0C70.8,81.6,70.5,81.4,70.2,81.1z"/>
<path fill="#7D4816" d="M63.6,70.1c2.3,2.7,1.8,4.1,4.3,5.3c1.7,1.8,3.5,3.5,5.3,5.1c0.2,0.2,0.5,0.4,0.7,0.7l0.3-0.3
	c-1.8-1.6-3.6-3.3-5.2-5c-1.6-1.7-3-3.4-4.4-5.2L64,69.9L63.6,70.1z"/>
<polygon fill="#7D4816" points="70.9,82.3 71.5,82.9 71.9,82.7 71.2,82.1 "/>
<path fill="#7D4816" d="M73.3,81.6C73.3,81.6,73.3,81.6,73.3,81.6l-0.9,0.7c0,0,0,0,0,0L73.3,81.6z"/>
<path fill="#7D4816" d="M72.4,82.3l-0.1,0.1c0,0,0,0,0,0L72.4,82.3C72.4,82.3,72.4,82.3,72.4,82.3z"/>
<path fill="#7D4816" d="M73.3,81.6C73.3,81.6,73.3,81.6,73.3,81.6l0.1-0.1l0,0L73.3,81.6z"/>
<path fill="#7D4816" d="M68.3,79c-0.3-0.2-0.6-0.4-0.9-0.6c0.3,0.3,0.6,0.7,0.9,1C68.4,79.3,68.4,79.1,68.3,79z"/>
<path fill="#7D4816" d="M64,74c-0.4-0.3-0.8-0.5-1.2-0.8l0,0c0.7,0.9,1.5,1.8,2.2,2.7c0.8,0.8,1.6,1.6,2.4,2.5
	c0.3,0.2,0.6,0.4,0.9,0.6C67.9,77.9,65.5,75.8,64,74z"/>
<path fill="#7D4816" d="M59.9,62.3l-0.5,0.1c1,2.7,2.5,5.2,4.2,7.7l0.4-0.2C62.3,67.5,60.9,64.9,59.9,62.3z"/>
<path fill="#7D4816" d="M58.8,58.3c0.2,1.4,0.6,2.7,1.1,4c1,2.6,2.4,5.2,4.1,7.6l0.7,0.9l0.4-0.3c-3-4.1-5.4-8.6-5.9-13.3l-0.5,0.1
	L58.8,58.3z"/>
<path fill="#7D4816" d="M66.4,40.8c-3,2.4-5.4,5.2-6.7,8.4l-0.3,1c-0.8,2.3-1,4.7-0.7,7.1l0.5-0.1c-0.1-1.3-0.1-2.7,0-4
	c0.2-1.6,0.7-3.3,1.5-4.8c0.7-1.5,1.7-3,2.9-4.3c1.2-1.4,2.6-2.6,4.1-3.7l-0.3-0.3L66.4,40.8z"/>
<path fill="#7D4816" d="M72.1,35c-0.3,0-0.6,0-0.9,0c-2,1-3.9,2.2-5.7,3.5l0.3,0.3C68.7,38.1,68.6,36.7,72.1,35z"/>
<path fill="#7D4816" d="M72.3,35L72,34.6c-0.3,0.1-0.5,0.3-0.8,0.4c0.3,0,0.6,0,0.9,0C72.2,35,72.2,35,72.3,35z"/>
<path fill="#7D4816" d="M76.9,32.9l2.4-0.9L79,31.6c-1.2,0.5-2.4,0.9-3.6,1.4c-0.7,0.3-1.3,0.6-1.9,0.9c0.6-0.1,1.3-0.3,2.2-0.5
	C76.1,33.2,76.5,33,76.9,32.9z"/>
<path fill="#7D4816" d="M73.5,33.9c-0.5,0.3-1,0.5-1.5,0.7l0.3,0.3c1.1-0.6,2.3-1.1,3.5-1.6C74.9,33.6,74.1,33.8,73.5,33.9z"/>
<rect x="83.7" y="31.5" fill="#7D4816" width="0" height="0.4"/>
<polygon fill="#7D4816" points="83.4,31 83.6,31.5 83.2,30.6 83.2,30.6 83.4,31 "/>
<path fill="#7D4816" d="M83.4,31l-0.2-0.4c-1.3,0.4-2.7,0.9-3.9,1.4C79.8,32.3,81.7,31.6,83.4,31z"/>
<polygon fill="#7D4816" points="82.7,31.8 82.9,32.2 83.8,31.9 83.6,31.5 "/>
<polygon fill="#7D4816" points="83.6,31.5 83.6,31.5 83.6,31.5 "/>
<path fill="#7D4816" d="M54.7,36.1c3.8-0.5,7.6-0.8,11.5-1.2c1.5-0.1,2.2-0.3,2.5-0.7c-6.6,1-10,0.2-14.1,1.4L54.7,36.1z"/>
<polygon fill="#7D4816" points="59.4,33.5 64.5,33 65.8,32.9 65.7,32.4 58,33.2 58.1,33.6 "/>
<polygon fill="#7D4816" points="59.4,33.5 59.4,33.9 64.6,33.4 64.5,33 "/>
<path fill="#7D4816" d="M54.7,36.1l-1.3,0.2l0.1,0.4c3.4-0.4,6.8-0.8,10.2-1l2.6-0.3l-0.1-0.4C62.3,35.3,58.5,35.6,54.7,36.1z"/>
<path fill="#7D4816" d="M48.3,36.7c-1,0.2-2.1,0.5-3.1,0.7l-1.8,0.5l-0.9,0.3c-0.3,0-0.3-0.4-0.4-0.6c-0.1,0.2-0.1,0.5,0.1,1
	c0.3,0.1,0.9-0.1,1.6-0.3c1.6-0.4,2.6-0.7,3.6-0.9c2-0.4,4.1-0.8,6.3-1.1l1.3-0.2l-0.1-0.4C52.4,36,50.3,36.3,48.3,36.7z"/>
<path fill="#7D4816" d="M46.4,35.4l-1.3,0.3l-0.6,0.1l-0.3,0.1l-0.6,0.2c-0.2,0.5,0.3,0.4,1.5,0.1c1.4-0.4,3-0.8,4-0.9L49,34.8
	C48.1,35,47.3,35.2,46.4,35.4z"/>
<path fill="#7D4816" d="M43.6,38.3c-0.6,0.1-1.3,0.4-1.6,0.3c-0.1-0.5-0.2-0.8-0.1-1l-0.6-1.2c-0.2,0.1-0.6-0.1-0.9-0.9L40,35.5
	l0.6,1.2l0.7,1.6c0.1,1.3,1.3,0.5,2.2,0.3c1-0.3,2-0.6,2.5-0.6l1.2-0.3l-0.1-0.4C46.2,37.5,45.1,37.8,43.6,38.3z"/>
<path fill="#7D4816" d="M41.6,32.5c0.7,1.2,1.6,3.1,1.7,3.4c0.1,0.1,0.1,0.3,0.4,0.2l0.6-0.2l0-0.4c-0.2,0-0.5,0.3-0.6,0l-0.5-1.1
	L42,32.3l-2.2-3.9l-0.4,0.2L41.6,32.5z"/>
<path fill="#7D4816" d="M35.7,26.6c-0.4,0.4,0.4,1.8,1.2,3.1c0.9,1.6,1.8,3.2,2.7,4.9l0.5,1l0.4-0.2C39,32.4,37.3,29.5,35.7,26.6z"
	/>
<path fill="#7D4816" d="M32.9,20.6c0.5,1,1,1.9,1.5,2.9C35.5,24,32.5,18.2,32.9,20.6z"/>
<path fill="#7D4816" d="M34.4,23.4c-0.5-1-1-1.9-1.5-2.9c-0.4-0.8-0.7-1.5-1-2.3l-0.2-0.5c-0.2-0.5-0.3-1-0.5-1.6
	c0-0.1-0.1-0.4-0.1-0.2l0,0.4v0.9l0,3.4l0.4,1l0-1.7l0-1.7c0-0.3,0.1,0.1,0.1,0.2l0.1,0.5l0.3,1l0,0.1c0.3,0.7,0.6,1.4,1,2l1.4,2.6
	l0.4-0.2L34.4,23.4z"/>
<path fill="#7D4816" d="M29.6,12.4L29.3,8l0-1.1V6.3c0-0.2,0,0,0,0c0,0,0.1,0.6,0.3,0.6l0.1-0.5l0-0.1l0-0.4L29.9,5l1.3,4.8l-0.4-3
	l-1.6-6.2l-0.1,1.9l-0.1,0.8C29.1,3.7,29,4.5,29,4.3l-0.1,0c0,0,0-0.1,0,0.4l0,2.3l0.1,9l0.4,0.9C29.9,16.3,29.8,14.9,29.6,12.4z"/>
<polygon fill="#7D4816" points="31.2,24.5 31.7,24.5 31.7,22.2 31.7,21.6 31.2,20.7 "/>
<path fill="#7D4816" d="M29.5,26.7l0-3.5c-0.6-0.4-0.4-4.4-0.5-7.2l-0.4-0.9l0.1,12.7h0.4C29.1,27.2,29.1,26.6,29.5,26.7z"/>
<polygon fill="#7D4816" points="31.3,32.1 31.8,32.1 31.7,28.8 31.7,24.5 31.2,24.5 "/>
<path fill="#7D4816" d="M29.1,27.9c0.1,1.7-0.2,4.1,0.5,4.3l0-5.4C29.1,26.6,29.1,27.2,29.1,27.9z"/>
<path fill="#7D4816" d="M29.5,32.2c-0.6-0.2-0.4-2.6-0.5-4.3h-0.4l0,4.3l0.1,5.4l0.4,0C28.8,34.6,29.7,34.8,29.5,32.2z"/>
<path fill="#7D4816" d="M30.9,36.4h0.4l0-4.3c-0.4,0-0.3,1.3-0.4,2.2L30.9,36.4z"/>
<path fill="#7D4816" d="M44.5,35.8l0.6-0.1l1.3-0.3c0.9-0.2,1.7-0.3,2.6-0.5l1.3-0.2l-0.1-0.4c-1.7,0.3-3.5,0.6-5.2,1.1l-0.6,0.1
	l-0.2,0.1l0,0.4L44.5,35.8z"/>
<path fill="#7D4816" d="M24,51.5c0.2-0.2-0.1-0.3-0.3-0.3L23,51.1l-2.6-0.4l-5.7-1.1l-1.3-0.2L2.9,47.2c0.3-0.5,1.4-1.2,2-1.7
	c0.7-0.5,1.4-1.1,2.3-1.7c0.5-0.3,1-0.7,1.6-1l-0.4-0.3C7.2,43.3,6,44.1,5,44.9c-1,0.8-2.3,1.8-3.2,2.6l4.2,0.9l9.8,1.9l7,1.2
	c0.6,0.1,0.5,0.1,0.3,1l0.5,0.1L24,51.5z"/>
<path fill="#7D4816" d="M34.1,18.9c0.4,0.9,0.9,1.8,1.3,2.7l1.2,2.1l0.4-0.2l-0.6-1.1l-0.9-1.6c-0.6-1-1.1-2.4-1.7-3.5
	c-0.3-0.7-0.6-1.8-0.9-2.7l-0.4-1.4l-0.2-0.7L32,11.4l-1.2-4.6l0.4,3C32.5,14.4,33.2,17.1,34.1,18.9z"/>
<path fill="#7D4816" d="M26.5,50l-2.9-0.6c-1-0.2-1.6-0.3-2.2-0.3c0.9,0.2,1.8,0.5,3,0.7l1.6,0.3c0.2,0.3-0.3,1-0.3,1.4
	c-0.7,2-1.1,3.9-1.6,6.1c-0.8,4.2-1.3,9.2-2.1,13.3c-0.4,2-0.9,4.1-1.6,6.1l0.1-0.1l1-2.2l-0.1,0.1c0.3-0.8,0.6-1.8,0.8-2.7
	c0.2-0.6,0.3-1.3,0.4-2l0.6-3.7l0.7-4.9c0.6-1.9,0.5-6.4,1.7-6.4l0.5-2.1C25.7,52.9,26,51.5,26.5,50z"/>
<path fill="#7D4816" d="M62.8,73.2c-0.3-0.4-0.6-0.9-0.9-1.3c-1.9-1.2-4.1-2.5-5.5-3.6l-0.3,0.3C58.3,70.1,60.6,71.6,62.8,73.2z"/>
<path fill="#7D4816" d="M62.8,73.2l0.4-0.3c-0.1-0.1-0.2-0.2-0.2-0.3c-0.4-0.3-0.7-0.5-1.1-0.7C62.2,72.3,62.5,72.7,62.8,73.2
	L62.8,73.2z"/>
<path fill="#7D4816" d="M66.2,75.5c-0.3-0.8-1.6-1.8-3.2-2.9c0.1,0.1,0.1,0.2,0.2,0.3c0.2,0.3,0.4,0.7,0.8,1.1
	C64.7,74.5,65.5,75,66.2,75.5z"/>
<path fill="#7D4816" d="M63.2,72.9l-0.4,0.3c0.4,0.3,0.8,0.5,1.2,0.8C63.7,73.6,63.4,73.3,63.2,72.9z"/>
<path fill="#7D4816" d="M73.8,81.2l-0.3,0.3c0,0,0,0,0,0l-1.2,0.9h0L72,82.6h0l0,0l0,0l2-1.5C73.9,81.2,73.9,81.2,73.8,81.2
	L73.8,81.2L73.8,81.2z"/>
<path fill="#7D4816" d="M73.5,81.5l0.3-0.3c-0.2-0.2-0.4-0.5-0.7-0.7c-1.2-1.1-2.4-2.2-3.7-3.2C69.2,77.2,69,77,68.9,77
	c0.4,0.6,1,1.2,1.6,1.9C71.6,79.8,72.6,80.8,73.5,81.5z"/>
<path fill="#7D4816" d="M71.1,81.8c0.1,0.1,0.1,0.1,0.2,0.2l0.7,0.6l0.4-0.3C71.8,82,71.4,81.8,71.1,81.8z"/>
<path fill="#7D4816" d="M70.5,78.8c-0.6-0.7-1.2-1.3-1.6-1.9c-0.4-0.2-0.6-0.1-0.8,0C68.8,77.3,69.7,78.1,70.5,78.8z"/>
<path fill="#7D4816" d="M71,81.8l0.2,0.2l0.1-0.1c-0.1-0.1-0.1-0.1-0.2-0.2C71,81.8,71,81.8,71,81.8z"/>
<path fill="#7D4816" d="M73.8,81.2L73.8,81.2c-0.2-0.3-0.4-0.5-0.7-0.7C73.4,80.8,73.6,81,73.8,81.2z"/>
<polygon fill="#7D4816" points="71.3,82 71.2,82.1 71.9,82.7 71.9,82.6 "/>
<rect x="73.4" y="81.4" transform="matrix(-0.8031 0.5959 -0.5959 -0.8031 181.2798 102.8149)" fill="#7D4816" width="0.4" height="0"/>
<path fill="#7D4816" d="M71.9,82.6L71.9,82.6l0.4-0.3c0,0,0,0,0,0L71.9,82.6z"/>
<path fill="#7D4816" d="M58.7,57.3c-0.3-2.4-0.1-4.8,0.7-7.1c-0.7,0.3-1.2,1.7-1.3,3.4c-0.1,1.7,0.2,3.6,0.2,4.8l0.5-0.1L58.7,57.3z
	"/>
<path fill="#7D4816" d="M81.6,33c-1.8,0.7-3.5,1.4-4.8,1.9l-1.1,0.5c-3,1.4-5.8,2.9-8.3,4.7l0.3,0.3c1.6-1.1,3.2-2.2,5-3.1
	c3.6-1.9,7.5-3.4,11.5-4.7l-0.2-0.3l-2.1,0.6C81.7,33,81.7,33,81.6,33z"/>
<path fill="#7D4816" d="M81.5,30.8l1.6-0.5l-0.1-0.3c-1.1,0.3-2.2,0.6-3.3,0.9C80,31,80.7,30.9,81.5,30.8z"/>
<rect x="83.2" y="31.3" transform="matrix(0.4408 0.8976 -0.8976 0.4408 74.7849 -57.4727)" fill="#7D4816" width="0.5" height="0"/>
<path fill="#7D4816" d="M83.1,30.4L83,30.3l-1.6,0.5C81.9,30.7,82.5,30.6,83.1,30.4z"/>
<path fill="#7D4816" d="M81.6,33c0.1,0,0.2,0,0.2-0.1l2.1-0.6l0-0.1C83.2,32.4,82.4,32.7,81.6,33z"/>
<rect x="83" y="30.5" transform="matrix(0.3668 0.9303 -0.9303 0.3668 81.0384 -58.0612)" fill="#7D4816" width="0.3" height="0"/>
<rect x="83.9" y="31.9" fill="#7D4816" width="0" height="0.3"/>
<rect x="83.5" y="31.7" transform="matrix(-0.3926 -0.9197 0.9197 -0.3926 87.4067 121.187)" fill="#7D4816" width="0.4" height="0"/>
<rect x="83.3" y="30.6" fill="#7D4816" width="0" height="0.4"/>
<path fill="#7D4816" d="M41.4,36.3c-1.9-4.2-4.2-7.9-6.5-11.9l-0.4,0.2l0.5,1l0.6,1c1.6,2.9,3.4,5.9,4.8,8.8
	C40.8,36.2,41.2,36.4,41.4,36.3z"/>
</svg>
