<?xml version="1.0"?>
<svg xmlns="http://www.w3.org/2000/svg" xmlns:xlink="http://www.w3.org/1999/xlink" xmlns:svgjs="http://svgjs.com/svgjs" version="1.1" width="512" height="512" x="0" y="0" viewBox="0 0 300 300" style="enable-background:new 0 0 512 512" xml:space="preserve" class=""><g><g xmlns="http://www.w3.org/2000/svg"><circle cx="116" cy="190" fill="#9bb3c4" r="86" data-original="#e5efef" style="" class=""/><g><path d="m228.949 208h-173.898c-7.208 0-13.051-5.843-13.051-13.051v-109.898c0-7.208 5.843-13.051 13.051-13.051h173.898c7.207 0 13.051 5.843 13.051 13.051v109.898c0 7.208-5.844 13.051-13.051 13.051z" fill="#6b4f5b" data-original="#6b4f5b" style="" class=""/><path d="m228.949 212h-173.899c-9.402 0-17.05-7.648-17.05-17.051v-109.898c0-9.403 7.648-17.051 17.05-17.051h173.898c9.403 0 17.052 7.648 17.052 17.051v109.898c0 9.403-7.649 17.051-17.051 17.051zm-173.899-136c-4.99 0-9.05 4.061-9.05 9.051v109.898c0 4.99 4.061 9.051 9.051 9.051h173.898c4.99 0 9.051-4.061 9.051-9.051v-109.898c0-4.99-4.061-9.051-9.051-9.051z" fill="#4c241d" data-original="#4c241d" style="" class=""/></g><g><path d="m142 202.738v-131.543s31.04-31.57 87.946-21.047v131.544c0-.001-51.733-5.262-87.946 21.046z" fill="#ffffff" data-original="#ffffff" style=""/><path d="m142 206.738c-.621 0-1.242-.145-1.816-.436-1.34-.684-2.184-2.061-2.184-3.564v-131.543c0-1.049.412-2.057 1.148-2.805 1.328-1.35 33.193-32.951 91.525-22.176 1.896.352 3.273 2.006 3.273 3.934v131.543c0 1.131-.479 2.209-1.318 2.967s-1.973 1.104-3.084 1.014c-.504-.059-50.68-4.771-85.193 20.303-.697.505-1.521.763-2.351.763zm4-133.797v122.33c30.268-18.463 67.295-18.486 79.947-17.867v-123.884c-46.326-7.346-74.121 14.298-79.947 19.421z" fill="#4c241d" data-original="#4c241d" style="" class=""/></g><g><path d="m142 202.738v-131.543s-31.059-31.57-88-21.047v131.544c0-.001 51.764-5.262 88 21.046z" fill="#ffffff" data-original="#ffffff" style=""/><path d="m142 206.738c-.828 0-1.654-.258-2.35-.764-34.596-25.119-84.742-20.357-85.246-20.303-1.123.107-2.246-.256-3.086-1.012-.84-.76-1.318-1.838-1.318-2.969v-131.542c0-1.93 1.377-3.582 3.273-3.934 58.359-10.789 90.248 20.824 91.578 22.176.736.748 1.148 1.756 1.148 2.805v131.543c0 1.504-.844 2.881-2.184 3.564-.571.292-1.194.436-1.815.436zm-76.532-29.509c16.436 0 46.904 2.424 72.531 18.047v-122.325c-5.85-5.102-33.812-26.736-80-19.432v123.885c1.948-.095 4.477-.175 7.469-.175z" fill="#4c241d" data-original="#4c241d" style="" class=""/></g><path d="m126 48c-1.023 0-2.047-.391-2.828-1.172l-12-12c-1.562-1.562-1.562-4.094 0-5.656s4.094-1.562 5.656 0l12 12c1.562 1.562 1.562 4.094 0 5.656-.782.781-1.805 1.172-2.828 1.172z" fill="#ffce56" data-original="#ffce56" style=""/><path d="m158 48c-1.023 0-2.047-.391-2.828-1.172-1.562-1.562-1.562-4.094 0-5.656l12-12c1.562-1.562 4.094-1.562 5.656 0s1.562 4.094 0 5.656l-12 12c-.782.781-1.805 1.172-2.828 1.172z" fill="#ffce56" data-original="#ffce56" style=""/><path d="m142 48c-2.209 0-4-1.791-4-4v-16c0-2.209 1.791-4 4-4s4 1.791 4 4v16c0 2.209-1.791 4-4 4z" fill="#ffce56" data-original="#ffce56" style=""/><g fill="#4c241d"><path d="m98 152c-2.209 0-4-1.791-4-4v-56c0-2.209 1.791-4 4-4s4 1.791 4 4v56c0 2.209-1.791 4-4 4z" fill="#4c241d" data-original="#4c241d" style="" class=""/><path d="m114.005 112.02c-.166 0-.334-.01-.502-.031l-32-4c-2.191-.273-3.746-2.273-3.473-4.465.271-2.193 2.285-3.756 4.465-3.473l32 4c2.191.273 3.746 2.273 3.473 4.465-.252 2.023-1.976 3.504-3.963 3.504z" fill="#4c241d" data-original="#4c241d" style="" class=""/><path d="m122.812 257.217c-1.025 0-2.053-.393-2.834-1.178-1.559-1.564-1.555-4.098.012-5.656l14.723-14.668c1.561-1.557 4.096-1.557 5.656.012 1.559 1.564 1.555 4.098-.012 5.656l-14.723 14.668c-.779.777-1.8 1.166-2.822 1.166z" fill="#4c241d" data-original="#4c241d" style="" class=""/><path d="m137.507 257.244c-1.025 0-2.053-.393-2.834-1.178l-14.668-14.723c-1.559-1.564-1.555-4.098.012-5.656 1.562-1.557 4.098-1.557 5.656.012l14.668 14.723c1.559 1.564 1.555 4.098-.012 5.656-.779.777-1.8 1.166-2.822 1.166z" fill="#4c241d" data-original="#4c241d" style="" class=""/></g><g><path d="m182.718 185.165c-13.349 3.01-27.636 8.23-40.134 17.152v.225c1.881 6.729 9.245 25.075 34.951 33.644 0 0 10.605 0 21.209 10.605l37.116-58.326-.952-.635c-9.343-6.229-14.955-16.715-14.955-27.943 0-5.655-.912-11.273-2.7-16.638l-9.462-28.387c-2.139-6.418-8.723-10.238-15.356-8.912-7.912 1.582-12.646 9.741-10.095 17.395l11.102 33.306-2.472 3.09c-8.958 11.197-8.131 28.477-.97 40.259" fill="#ffded5" data-original="#ffded5" style="" class=""/><path d="m198.744 250.791c-1.055 0-2.074-.418-2.828-1.172-9.176-9.176-18.041-9.428-18.414-9.434-.406-.008-.846-.076-1.232-.205-27.246-9.082-35.328-28.453-37.537-36.361-.1-.35-.148-.713-.148-1.076 0-1.293.625-2.729 1.676-3.48 11.121-7.939 24.648-13.82 40.225-17.486-.389-8.5 1.709-17.268 7.363-24.334l1.111-1.391-10.414-31.24c-1.578-4.738-1.047-9.93 1.459-14.248 2.508-4.318 6.752-7.355 11.646-8.334 8.59-1.713 17.164 3.25 19.936 11.568l9.463 28.385c1.928 5.787 2.904 11.811 2.904 17.904 0 9.914 4.924 19.117 13.174 24.615l.951.633c1.812 1.207 2.326 3.641 1.158 5.479l-37.117 58.326c-.652 1.023-1.732 1.695-2.939 1.828-.146.015-.293.023-.437.023zm-20.457-18.574c2.504.176 10.777 1.297 19.619 8.441l32.533-51.123c-9.119-7.094-14.486-17.982-14.486-29.648 0-5.232-.84-10.406-2.494-15.375l-9.463-28.385c-1.5-4.498-6.148-7.18-10.775-6.254-2.646.529-4.941 2.172-6.297 4.506s-1.643 5.143-.789 7.703l11.102 33.303c.43 1.287.176 2.705-.67 3.764l-2.471 3.09c-8.256 10.316-6.51 26.086-.678 35.684 1.148 1.889.547 4.35-1.34 5.496-1.891 1.148-4.35.549-5.496-1.34-2.225-3.66-3.957-7.957-5.006-12.539-13.166 3.178-24.695 8.021-34.336 14.43 2.738 7.575 10.394 21.184 31.047 28.247z" fill="#4c241d" data-original="#4c241d" style="" class=""/></g><g><path d="m218 272-28.559-20.616 47.113-71.384 29.446 16.473z" fill="#ffffff" data-original="#ffffff" style=""/><path d="m218 276c-.834 0-1.654-.262-2.342-.756l-28.559-20.615c-1.738-1.256-2.178-3.658-.996-5.447l47.113-71.385c1.154-1.748 3.459-2.314 5.291-1.287l29.445 16.473c.959.537 1.656 1.445 1.926 2.512s.088 2.195-.504 3.123l-48 75.529c-.59.93-1.539 1.574-2.621 1.781-.249.049-.501.072-.753.072zm-23.108-25.613 22.008 15.887 43.455-68.375-22.51-12.594z" fill="#4c241d" data-original="#4c241d" style="" class=""/></g><circle cx="212" cy="250" fill="#4c241d" r="3.707" data-original="#4c241d" style="" class=""/><circle cx="68" cy="238" fill="#4c241d" r="3.707" data-original="#4c241d" style="" class=""/></g></g></svg>
