<?xml version="1.0" encoding="utf-8"?>
<!-- Generator: Adobe Illustrator 18.1.1, SVG Export Plug-In . SVG Version: 6.00 Build 0)  -->
<svg version="1.1" id="Layer_1" xmlns="http://www.w3.org/2000/svg" xmlns:xlink="http://www.w3.org/1999/xlink" x="0px" y="0px"
	 viewBox="0 0 28.3 28.3" enable-background="new 0 0 28.3 28.3" xml:space="preserve">
<g>
	<rect x="0.2" y="5.9" fill="#809778" width="22.3" height="22.3"/>
	<path d="M22.3,6.1V28H0.4V6.1H22.3 M22.7,5.7H0v22.7h22.7V5.7L22.7,5.7z"/>
</g>
<g>
	<g>
		<path fill="#FFFFFF" d="M20.8,26c0-0.1-0.1-0.2-0.2-0.2c-0.3,0-0.6,0-0.9,0c-0.2,0.1-0.4,0.2-0.6,0.4c-0.4,0.3-0.3,0.9,0.1,1.1
			c0.3,0.2,0.9,0.2,1.2,0.1c0.5-0.2,0.6-0.8,0.6-1.2C21,26.1,20.9,26.1,20.8,26z"/>
		<path fill="#FFFFFF" d="M23.9,16.9c0.1-0.8,0.4-1.6,0.6-2.4c0.3-1.5,0.7-2.9,0.4-4.4c-0.1-0.5-0.2-1-0.2-1.5c0-0.3-0.2-0.7-0.2-1
			c0-0.7-0.5-1.5-0.7-2.2c-0.3-0.9-1.1-2.4-2.2-2c-0.5,0.2-0.6,0.8-0.9,1.2c-0.4,0.5-0.6,1-0.9,1.6c-0.1-0.1-0.2-0.1-0.3-0.2
			c-0.4-0.3-0.9-0.5-1.4-0.6c-1.2-0.5-2.3-0.8-3.5-0.9c-2.4-0.3-4.9,0.2-7,1.4c-1,0.5-1.7,1.2-2.4,2.1c-0.7,0.8-1.5,1.6-1.9,2.5
			c-0.4,0.8-0.5,1.6-0.8,2.4c-0.2,0.3-0.1,0.9-0.2,1.3c-0.1,0.6,0,1.4,0,2c0,0.4,0.1,0.8,0.2,1.2c0.1,0.3,0.1,0.9,0.2,1.3
			c0.5,0.9,1.2,1.5,2,2.2c0.7,0.6,1.6,0.8,2.5,1c1.2,0.2,2.4-0.3,3.4,0.5c0.7,0.6,0.9,1.6,1.6,2.3c0.6,0.6,1.5,0.7,2.3,0.7
			c0.9,0.1,1.9-0.1,2.7-0.4c0.4-0.2,0.9-0.3,1.2-0.6c0.1-0.1,0.6-0.5,0.8-0.6c0.1,0,0.1-0.1,0.1-0.2v0c0,0,0.1,0,0.1-0.1
			c0,0,0.1-0.1,0.1-0.1c0.3,0.2,0.6,0.4,0.9,0.6c0.7,0.4,0.8,0.8,0.7,1.5c0,0.1,0.1,0.3,0.3,0.3c1.4,0,2.7-1.4,2.9-2.8
			c0.3-1.7,0-3.2-0.9-4.5c0.1,0,0.1-0.1,0.2-0.1C23.7,18,23.8,17.3,23.9,16.9z M13.1,18.4c-0.2,0.4-0.2,0.7-0.6,1
			c-0.4,0.3-0.9,0.5-1.4,0.6c-0.5,0-1,0.1-1.4-0.2c-0.5-0.3-0.8-0.9-1-1.4c-0.4-1.5,1.6-2.5,2.8-2.6C13.1,15.8,13.7,17.2,13.1,18.4z
			 M19.7,6.3C19.7,6.3,19.7,6.3,19.7,6.3C19.7,6.3,19.7,6.3,19.7,6.3L19.7,6.3z"/>
	</g>
	<g>
		<path fill="#74471D" d="M24.8,10.1c-0.1-0.5-0.2-1-0.2-1.5c0-0.3-0.2-0.7-0.2-1c0-0.7-0.5-1.5-0.7-2.2c-0.3-0.9-1.1-2.4-2.2-2
			c-0.5,0.2-0.6,0.8-0.9,1.2c-0.5,0.7-0.8,1.5-1.2,2.3c-0.7,1.6-0.7,3.4-0.7,5.1c0,0.9-0.1,1.8,0.1,2.6c0.1,0.5,0.1,1,0.4,1.4
			c0,0.3,0.1,0.6,0.1,0.8c0,0.4,0.1,0.9,0.2,1.3c0,0.1,0.2,0.2,0.3,0.2c1.1,0,2.6,0.4,3.6-0.1c0.4-0.2,0.5-0.9,0.5-1.3
			c0.1-0.8,0.4-1.6,0.6-2.4C24.8,13.1,25.1,11.7,24.8,10.1z M23.9,14.6c-0.2,0.6-0.3,1.2-0.5,1.8c-0.2,0.5,0.1,1.4-0.7,1.4
			c-0.9,0-1.8-0.1-2.6-0.1c-0.1-0.5-0.1-0.9-0.2-1.4c0-0.1,0-0.3-0.1-0.4c0-0.1,0-0.2,0-0.2c0-0.2-0.1-0.4-0.2-0.6
			c0,0-0.1-0.1-0.1-0.1c-0.1-0.5-0.2-1.1-0.1-1.4c0-0.7,0-1.3,0-2c0-1.5,0-3.1,0.7-4.5c0.3-0.6,0.5-1.2,0.8-1.8c0.2-0.3,1-2.2,1.7-1
			c0.3,0.6,0.6,1.1,0.8,1.7c0.2,0.6,0.5,1.2,0.5,1.8c0,1.1,0.4,2.3,0.5,3.4C24.4,12.4,24.1,13.6,23.9,14.6z"/>
		<path fill="#74471D" d="M23.4,17.4h-3.8c-0.4,0-0.4-0.6,0-0.6h3.8C23.8,16.8,23.8,17.4,23.4,17.4z"/>
		<path fill="#74471D" d="M23.8,14.6c-0.8,0-1.7-0.1-2.5-0.1c-0.7,0-1.3,0.1-2,0.1c0,0,0,0,0,0h-0.1c-0.4,0-0.4-0.6,0-0.6
			c0.6,0,1.2-0.1,1.8-0.1c0.9,0,1.9,0.1,2.8,0.1C24.2,14,24.2,14.6,23.8,14.6z"/>
		<path fill="#74471D" d="M24.2,13.8c-0.8,0-1.6-0.1-2.5-0.1c-0.8,0-1.6,0.1-2.5,0.1c-0.4,0-0.4-0.6,0-0.6c0.8,0,1.6-0.1,2.5-0.1
			c0.8,0,1.6,0.1,2.5,0.1C24.5,13.3,24.5,13.8,24.2,13.8z"/>
		<path fill="#74471D" d="M24.1,22.8c-0.2,1.3-1.5,2.7-2.9,2.8c-0.1,0-0.3-0.1-0.3-0.3c0.1-0.7,0-1.1-0.7-1.5
			c-0.4-0.3-0.8-0.6-1.2-0.9c-0.6-0.5-0.9-1.2-0.8-2c0-1.1,0.9-2.8,2-3.1c0.1,0,0.2,0,0.3,0.1c0,0,0,0,0,0c0.2,0.3-0.2,0.7-0.4,0.4
			c0.1,0.2,0,0.2-0.2,0.3c-0.3,0.2-0.6,0.7-0.8,0.9c-0.7,1-0.7,2.3,0.3,3c1,0.7,2,1.1,1.9,2.3c1.3-0.2,2.1-1.8,2.1-3
			c0.1-1.3-0.3-2.4-1-3.5c-0.2-0.3,0.3-0.6,0.5-0.3C24.1,19.6,24.3,21.1,24.1,22.8z"/>
		<path fill="#74471D" d="M24,22.2c-0.5-0.4-0.8-0.6-1.5-0.4c-0.5,0.2-0.8,0.5-1.2-0.1c-0.2-0.2-0.5-0.5-0.7-0.6
			c-0.5-0.2-1.3-0.2-1.7,0.3c-0.3,0.4-0.2,0.6-0.2,1c0,0.4,0.6,0.4,0.6,0v-0.1c0,0,0-0.1,0-0.1c0-0.2-0.1-0.2,0.2-0.5
			c0.9-0.7,1.2,0.4,1.9,0.8c0.2,0.1,0.6,0.3,0.8,0.2c0.6-0.2,0.9-0.6,1.6-0.1C23.8,22.8,24.2,22.4,24,22.2z"/>
		<path fill="#74471D" d="M20.8,26c0-0.1-0.1-0.2-0.2-0.2c-0.3,0-0.6,0-0.9,0c-0.2,0.1-0.4,0.2-0.6,0.4c-0.4,0.3-0.3,0.9,0.1,1.1
			c0.3,0.2,0.9,0.2,1.2,0.1c0.5-0.2,0.6-0.8,0.6-1.2C21,26.1,20.9,26.1,20.8,26z M20.2,27c-0.1,0.2-0.5,0.1-0.7,0
			c-0.3-0.1-0.1-0.3,0.1-0.4c0.1-0.1,0.2-0.2,0.4-0.2h0.4C20.4,26.6,20.3,26.8,20.2,27z"/>
		<path fill="#74471D" d="M19.7,6.3c0.2,0-0.1-0.2-0.3-0.3c-0.4-0.3-0.9-0.5-1.4-0.6c-1.2-0.5-2.3-0.8-3.5-0.9
			c-2.4-0.3-4.9,0.2-7,1.4c-1,0.5-1.7,1.2-2.4,2.1c-0.7,0.8-1.5,1.6-1.9,2.5c-0.4,0.8-0.5,1.6-0.8,2.4c-0.2,0.3-0.1,0.9-0.2,1.3
			c-0.1,0.6,0,1.4,0,2c0,0.4,0.1,0.8,0.2,1.2c0.1,0.3,0.1,0.9,0.2,1.3c0.5,0.9,1.2,1.5,2,2.2c0.7,0.6,1.6,0.8,2.5,1
			c1.2,0.2,2.4-0.3,3.4,0.5c0.7,0.6,0.9,1.6,1.6,2.3c0.6,0.6,1.5,0.7,2.3,0.7c0.9,0.1,1.9-0.1,2.7-0.4c0.4-0.2,0.9-0.3,1.2-0.6
			c0.1-0.1,0.6-0.5,0.8-0.6c0.1,0,0.1-0.1,0.1-0.2v0c0,0,0.1,0,0.1-0.1c0,0,0.1-0.1,0.1-0.1c0,0,0,0,0,0l0,0c0,0,0,0,0,0
			c0,0,0,0,0,0c0.1,0,0.2-0.1,0.2-0.3c0-0.1-0.1-0.3-0.3-0.3c-0.2,0-0.3,0.1-0.4,0.2c-0.1,0-0.2,0.1-0.2,0.2v0
			c-0.1,0-0.1,0.1-0.1,0.2c0-0.2,0-0.1-0.1,0c-0.4,0.3-0.7,0.6-1.2,0.7c-0.9,0.3-1.7,0.6-2.8,0.6c-1.1,0-2.1-0.3-2.6-1.4
			c-0.3-0.6-0.7-1.3-1.3-1.7c-0.7-0.4-1.3-0.5-2.1-0.4c-1,0.1-2-0.1-2.9-0.5c-0.9-0.4-1.8-1.3-2.3-2.1c-0.4-0.7-0.6-2-0.6-2.8
			c0-1.6,0.1-3.4,0.8-4.9C4,10,4.7,9.3,5.3,8.6c0.8-0.9,1.5-1.6,2.5-2.2c2-1.2,4.4-1.5,6.7-1.3c1.3,0.1,2.5,0.5,3.6,1
			c0.4,0.2,1,0.4,1.2,0.7c0.1,0.1,0.2,0.1,0.3,0.1C20.1,6.9,20.1,6.3,19.7,6.3z"/>
		<path fill="#74471D" d="M11.3,15.3c-1.2,0.1-3.2,1.3-3.2,2.7c0,0.8,0.3,1.5,0.8,2c0.6,0.7,1.5,0.5,2.3,0.5c0.1,0,0.1,0,0.2-0.1
			c1.3-0.4,2.3-1.3,2.5-2.7C14.1,16.1,12.9,15.3,11.3,15.3z M13.1,18.4c-0.2,0.4-0.2,0.7-0.6,1c-0.4,0.3-0.9,0.5-1.4,0.6
			c-0.5,0-1,0.1-1.4-0.2c-0.5-0.3-0.8-0.9-1-1.4c-0.4-1.5,1.6-2.5,2.8-2.6C13.1,15.8,13.7,17.2,13.1,18.4z"/>
		<path fill="#74471D" d="M7.4,12.8c-0.8-0.7-1.6-1-2.6-0.7c0,0,0,0-0.1,0c0,0,0,0,0,0c0,0,0,0,0,0c0,0,0,0,0,0c0,0,0,0,0,0
			c0,0,0,0,0,0c0,0.1-0.3,0.2-0.4,0.2C4.1,12.6,4,12.8,3.8,13c-0.2,0.4-0.2,1.1-0.1,1.5c0.4,0.9,1.7,1.1,2.6,0.7
			c0.5-0.2,0.9-0.6,1.2-1.1C7.7,13.8,7.8,13.1,7.4,12.8z M6.9,14c-0.2,0.4-0.6,0.7-1,0.8c-0.8,0.2-1.7-0.1-1.7-1
			c0-0.4,0.1-0.8,0.5-1c0.1-0.1,0.2-0.1,0.3-0.2c0,0,0.1,0,0.1,0c0.5-0.1,1.2-0.1,1.6,0.3C7,13.3,7.2,13.5,6.9,14z"/>
		<path fill="#74471D" d="M9.3,9.7C9.2,8.7,8.1,8.1,7.2,8.1c-0.1,0-0.1,0-0.2,0.1c-0.4,0-0.8,0.2-1.2,0.4C5.5,9,5.4,9.3,5.4,9.8
			c0,1,1.4,1.5,2.3,1.6C8.8,11.6,9.4,10.6,9.3,9.7z M8.7,10.2c-0.1,0.5-0.5,0.7-1,0.7c-0.6,0-1.1-0.4-1.6-0.7C5.8,10,6,9.3,6.1,9.1
			c0.2-0.3,0.7-0.4,1-0.4c0.1,0,0.1,0,0.2-0.1c0.4,0,0.9,0.3,1.2,0.6C8.8,9.5,8.8,9.9,8.7,10.2z"/>
		<path fill="#74471D" d="M13.1,6.7c-0.2-0.5-0.6-0.7-1.1-0.9c0,0-0.1,0-0.1,0C11,5.5,10,5.9,9.7,6.9C9.5,7.8,10,9.1,11,9.2
			c0.5,0.1,1.2,0,1.7-0.2c0.5-0.2,0.7-0.5,0.7-1.1C13.5,7.4,13.3,7.1,13.1,6.7z M12.6,8.5c-0.3,0.2-0.8,0.2-1.1,0.2
			c-0.9,0-1.2-0.7-1.2-1.5c0-0.8,0.9-1,1.6-0.9c0,0,0.1,0,0.1,0c0.5,0.2,0.9,0.7,0.9,1.3C12.9,7.9,12.8,8.3,12.6,8.5z"/>
		<path fill="#74471D" d="M18.3,7.1C18.3,7.1,18.3,7.1,18.3,7.1c-0.5-0.8-1.7-1-2.4-0.6c-0.6,0.4-2,1.6-1.2,2.4
			c0.7,0.6,1.8,1.2,2.7,0.7c0.7-0.4,1-1.4,0.9-2.2C18.4,7.3,18.4,7.2,18.3,7.1z M17.5,8.9c-0.3,0.7-1.2,0.4-1.7,0.1
			c-0.4-0.2-0.9-0.4-0.6-1c0.1-0.3,0.3-0.5,0.6-0.7c0.4-0.4,1.8-0.6,2,0.1c0,0,0,0,0,0C17.9,7.9,17.7,8.5,17.5,8.9z"/>
		<path fill="#74471D" d="M18.8,13.2c-0.6-0.1-1.4-0.3-1.3-1.1c0.1-0.5,0.6-0.8,1.1-0.8c0.4,0,0.4-0.6,0-0.6
			c-0.8,0.1-1.5,0.5-1.7,1.4c-0.2,1,0.8,1.5,1.7,1.6C19,13.8,19.1,13.2,18.8,13.2z"/>
		<path fill="#74471D" d="M19.3,15.5c-0.5-0.2-1.4-0.2-1.9,0.1c-0.5,0.3-1,1.1-1.1,1.7c-0.1,0.6,0.1,1.1,0.6,1.5
			c0.5,0.5,1.1,0.6,1.8,0.6c0.4,0,0.4-0.6,0-0.6c-0.7,0-1.9-0.3-1.8-1.3c0.1-1.2,1.2-1.8,2.3-1.5C19.5,16.1,19.7,15.6,19.3,15.5z"/>
		<path fill="#74471D" d="M15.1,20.2c-0.9,0.1-2,0.9-1.9,1.9c0.2,1.3,1.4,1.6,2.5,1.5c0,0,0,0,0,0c0.6,0,1-0.2,1.5-0.6
			c0.4-0.4,0.4-0.9,0.4-1.4C17.6,20.4,16,20.1,15.1,20.2z M15.7,23C15.7,23,15.6,23,15.7,23L15.7,23c-0.9,0.1-1.5,0-1.9-0.8
			c-0.4-0.6,0.7-1.4,1.3-1.4c0.6-0.1,1.8-0.1,1.9,0.8C17,22.5,16.5,23,15.7,23z"/>
		<path fill="#74471D" d="M9.3,15.5c-0.4,0.3-0.7,0.7-0.8,1.2c0,0.1,0,0.1,0.1,0.1c0.1,0,0.1-0.1,0.1-0.1c0,0,0-0.1,0-0.1
			c0.1-0.4,0.4-0.7,0.7-1C9.5,15.5,9.4,15.4,9.3,15.5z"/>
		<path fill="#74471D" d="M10.2,15.1c-0.2,0.1-0.3,0.2-0.4,0.4c-0.1,0.1-0.1,0.2-0.2,0.3c-0.1,0.1-0.2,0.2-0.2,0.3c0,0,0,0.1,0,0.1
			c0,0,0,0,0,0c0.1,0,0.2,0,0.1-0.1c0,0,0.1-0.1,0.1-0.1c0.1-0.1,0.2-0.2,0.2-0.3c0.1-0.2,0.1-0.4,0.4-0.5
			C10.4,15.3,10.3,15.1,10.2,15.1z"/>
		<path fill="#74471D" d="M11.1,14.7c-0.3,0.3-0.4,0.7-0.7,1c-0.1,0.1,0,0.2,0.1,0.1c0.3-0.3,0.5-0.7,0.7-1
			C11.3,14.8,11.2,14.6,11.1,14.7z"/>
		<path fill="#74471D" d="M11.9,14.8c-0.1,0-0.1,0.1-0.2,0.1c0,0,0,0.1-0.1,0.2c-0.1,0.2-0.2,0.3-0.4,0.4c-0.1,0.1,0,0.2,0.1,0.1
			c0.1-0.1,0.3-0.2,0.3-0.4c0-0.1,0.1-0.1,0.1-0.2c0-0.1,0.1-0.1,0.2-0.1C12.1,14.8,11.9,14.7,11.9,14.8z"/>
		<path fill="#74471D" d="M12.5,14.9c0,0.1-0.1,0.1-0.1,0.2c0,0.1-0.1,0.1-0.1,0.2c-0.1,0.1-0.2,0.2-0.2,0.4c0,0.1,0.2,0.1,0.2,0
			c0-0.1,0.1-0.2,0.2-0.3c0.1-0.1,0.1-0.2,0.2-0.3C12.7,15,12.6,14.8,12.5,14.9z"/>
		<path fill="#74471D" d="M13.1,15.1c-0.1,0.1-0.2,0.2-0.2,0.3c-0.1,0.1-0.1,0.3-0.2,0.4c-0.1,0.1,0.1,0.2,0.2,0.1
			c0.1-0.1,0.1-0.3,0.2-0.4c0.1-0.1,0.2-0.2,0.2-0.3C13.3,15.1,13.1,15,13.1,15.1z"/>
		<path fill="#74471D" d="M13.8,15.3c-0.1,0.1-0.2,0.2-0.3,0.4c-0.1,0.2-0.2,0.4-0.3,0.5c-0.1,0.1,0,0.2,0.1,0.1
			c0.2-0.2,0.3-0.6,0.6-0.9C14,15.3,13.9,15.2,13.8,15.3z"/>
		<path fill="#74471D" d="M14.2,15.8c-0.3,0.3-0.7,0.6-0.8,1c0,0.1,0.2,0.2,0.2,0c0.1-0.4,0.5-0.7,0.8-0.9
			C14.4,15.9,14.3,15.8,14.2,15.8z"/>
		<path fill="#74471D" d="M14.1,16.7c-0.2,0.3-0.3,0.6-0.4,0.9c0,0.1,0.1,0.2,0.2,0c0.1-0.3,0.2-0.6,0.4-0.8
			C14.4,16.7,14.2,16.6,14.1,16.7z"/>
		<path fill="#74471D" d="M2.9,15.1c0-0.1-0.2-0.1-0.2,0c0,0.2-0.1,0.3-0.2,0.4c-0.1,0.1-0.1,0.2-0.2,0.4c0,0.1,0.2,0.1,0.2,0
			c0-0.2,0.2-0.3,0.3-0.4C2.9,15.4,3,15.2,2.9,15.1z"/>
		<path fill="#74471D" d="M2.9,15.7c-0.1,0.2-0.1,0.4-0.2,0.5c-0.1,0.2-0.2,0.3-0.2,0.5c0,0.1,0.2,0.1,0.2,0c0-0.2,0.1-0.3,0.2-0.4
			C3,16.1,3,15.9,3.1,15.8C3.1,15.7,2.9,15.6,2.9,15.7z"/>
		<path fill="#74471D" d="M3.1,16.5c-0.1,0.2-0.2,0.4-0.3,0.6c-0.1,0.2-0.2,0.4-0.3,0.6c0,0.1,0.1,0.2,0.2,0
			c0.1-0.5,0.4-0.8,0.6-1.2C3.4,16.4,3.2,16.4,3.1,16.5z"/>
		<path fill="#74471D" d="M3.3,17.3C3,17.6,2.8,18,2.8,18.4c0,0.1,0.2,0.1,0.2,0c0-0.4,0.2-0.7,0.5-0.9C3.5,17.4,3.4,17.2,3.3,17.3z
			"/>
		<path fill="#74471D" d="M3.7,17.8c-0.3,0.3-0.4,0.7-0.5,1.1c0,0.1,0.2,0.1,0.2,0c0-0.4,0.2-0.7,0.4-1C3.9,17.8,3.7,17.7,3.7,17.8z
			"/>
		<path fill="#74471D" d="M3.9,18.4c-0.1,0.2-0.2,0.4-0.3,0.6c-0.1,0.1-0.2,0.3-0.2,0.5c0,0.1,0.2,0.1,0.2,0c0-0.1,0.1-0.3,0.2-0.4
			c0,0,0.1-0.1,0.1-0.2c0-0.1,0.1-0.2,0.2-0.4C4.1,18.4,3.9,18.3,3.9,18.4z"/>
		<path fill="#74471D" d="M4.4,19c-0.1,0.1-0.2,0.2-0.3,0.4c-0.1,0.2-0.2,0.4-0.3,0.6c0,0.1,0.1,0.2,0.2,0c0.1-0.2,0.2-0.3,0.2-0.4
			c0.1-0.2,0.1-0.3,0.2-0.4C4.6,19.1,4.5,18.9,4.4,19z"/>
		<path fill="#74471D" d="M4.9,19.4c0,0.1-0.1,0.1-0.1,0.2c0,0.1-0.1,0.1-0.2,0.2c-0.1,0.2-0.1,0.3-0.1,0.5c0,0.1,0.2,0.1,0.2,0
			c0-0.1,0-0.4,0.1-0.5C4.9,19.8,5,19.6,5,19.5C5.1,19.4,4.9,19.3,4.9,19.4z"/>
		<path fill="#74471D" d="M5.4,19.7c-0.1,0.1-0.2,0.3-0.2,0.5c0,0.1-0.1,0.2-0.1,0.3c0,0.1,0,0.1-0.1,0.2c0,0.1,0.2,0.1,0.2,0
			c0-0.1,0.1-0.2,0.1-0.2c0-0.1,0-0.1,0-0.2c0.1-0.2,0.1-0.3,0.2-0.4C5.6,19.7,5.4,19.6,5.4,19.7z"/>
		<path fill="#74471D" d="M6.1,20c-0.3,0.3-0.4,0.6-0.5,1c0,0.1,0.2,0.2,0.2,0c0.1-0.3,0.2-0.6,0.5-0.9C6.3,20,6.1,19.9,6.1,20z"/>
		<path fill="#74471D" d="M6.8,20.2c-0.1,0.1-0.2,0.2-0.3,0.4c-0.1,0.1-0.1,0.2-0.1,0.3c0,0.1-0.1,0.2-0.1,0.2c0,0,0,0,0,0v0
			c0,0.1,0.2,0.1,0.2,0c0,0,0-0.1,0.1-0.2c0-0.1,0.1-0.2,0.1-0.3c0-0.1,0.2-0.3,0.3-0.4C6.9,20.3,6.9,20.1,6.8,20.2z"/>
		<path fill="#74471D" d="M7.5,20.3c-0.1,0.2-0.3,0.3-0.4,0.5C7,21,6.9,21.1,6.9,21.3c0,0,0,0.1,0,0.1c0,0,0,0,0,0c0,0,0.1,0,0.1,0
			c0,0,0,0,0,0c0,0,0-0.1,0-0.1c0,0,0.1-0.1,0.1-0.1C7.2,21,7.3,21,7.3,20.9c0.1-0.2,0.3-0.3,0.3-0.5C7.7,20.3,7.5,20.2,7.5,20.3z"
			/>
		<path fill="#74471D" d="M7.9,20.6c-0.1,0.3-0.3,0.5-0.3,0.8c0,0.1,0.2,0.1,0.2,0c0-0.2,0.1-0.3,0.2-0.5c0-0.1,0.1-0.2,0.1-0.3
			C8.2,20.5,8,20.5,7.9,20.6z"/>
		<path fill="#74471D" d="M8.6,20.7c0,0.1-0.1,0.2-0.1,0.3c0,0.1-0.1,0.3-0.1,0.4c0,0.1,0.2,0.1,0.2,0c0-0.1,0-0.3,0.1-0.4
			c0-0.1,0.1-0.1,0.1-0.2c0-0.1,0-0.1,0-0.2C8.8,20.5,8.6,20.5,8.6,20.7z"/>
		<path fill="#74471D" d="M9.3,20.8c0,0.2-0.1,0.3-0.2,0.4c-0.1,0.2-0.1,0.4-0.2,0.5c0,0.1,0.1,0.2,0.2,0.1c0.1-0.2,0.1-0.3,0.2-0.5
			c0.1-0.2,0.2-0.3,0.2-0.5C9.5,20.7,9.3,20.7,9.3,20.8z"/>
		<path fill="#74471D" d="M10.5,20.7c-0.2,0-0.2,0.1-0.3,0.2c0,0.1,0,0.2-0.1,0.3c0,0.1-0.1,0.2-0.1,0.4c0,0-0.1,0-0.1,0.1v0.1
			c0,0.1,0.1,0.1,0.2,0c0.1-0.2,0.1-0.3,0.2-0.5c0,0,0.1-0.4,0.1-0.4C10.5,20.9,10.6,20.7,10.5,20.7z"/>
		<path fill="#74471D" d="M10.9,21c-0.1,0.2-0.2,0.3-0.3,0.4c0,0.1-0.1,0.1-0.1,0.2c0,0.1-0.1,0.1-0.1,0.2c-0.1,0.1,0,0.2,0.1,0.2
			c0.1-0.1,0.2-0.2,0.3-0.4c0.1-0.2,0.3-0.4,0.4-0.5C11.1,21,11,20.9,10.9,21z"/>
		<path fill="#74471D" d="M11.5,21.4c0-0.1-0.2-0.1-0.2,0c0,0.1-0.1,0.1-0.1,0.2c-0.1,0.1-0.1,0.1-0.1,0.2c-0.1,0.1-0.1,0.3-0.2,0.5
			c0,0.1,0.1,0.2,0.2,0c0.1-0.2,0.1-0.5,0.3-0.6C11.4,21.6,11.5,21.6,11.5,21.4z"/>
		<path fill="#74471D" d="M11.7,21.8c-0.3,0.3-0.6,0.6-0.6,1.1c0,0.1,0.2,0.1,0.2,0c0-0.4,0.3-0.7,0.6-0.9
			C11.9,21.9,11.8,21.7,11.7,21.8z"/>
		<path fill="#74471D" d="M12,22.6c-0.1,0.1-0.3,0.3-0.4,0.5c0,0.1-0.1,0.2-0.1,0.2c0,0.1-0.1,0.2-0.1,0.4c0,0.1,0.1,0.2,0.2,0.1
			c0.1-0.2,0.1-0.3,0.2-0.5c0.1-0.2,0.2-0.4,0.4-0.6C12.2,22.6,12.1,22.5,12,22.6z"/>
		<path fill="#74471D" d="M12.3,23.2c-0.2,0.2-0.3,0.5-0.4,0.8c0,0.1,0.1,0.2,0.2,0c0.1-0.2,0.2-0.5,0.3-0.7
			C12.5,23.2,12.4,23.1,12.3,23.2z"/>
		<path fill="#74471D" d="M12.7,23.6c-0.1,0.2-0.2,0.4-0.3,0.7c0,0.1,0.2,0.1,0.2,0c0-0.2,0.2-0.4,0.2-0.7
			C12.9,23.5,12.7,23.5,12.7,23.6z"/>
		<path fill="#74471D" d="M13.3,23.7c-0.1,0.1-0.2,0.2-0.3,0.3c0,0.2,0,0.3-0.1,0.5c0,0.1,0.1,0.2,0.2,0c0-0.1,0.1-0.2,0.1-0.3
			c0-0.2,0-0.3,0.2-0.4C13.5,23.8,13.4,23.7,13.3,23.7z"/>
		<path fill="#74471D" d="M13.8,24.1c-0.1,0.2-0.3,0.4-0.3,0.7c0,0.1,0.2,0.1,0.2,0c0-0.2,0.2-0.4,0.3-0.6
			C14,24.1,13.8,24,13.8,24.1z"/>
		<path fill="#74471D" d="M14.5,24.2c-0.2,0.2-0.3,0.5-0.3,0.8c0,0.1,0.2,0.1,0.2,0c0-0.2,0-0.5,0.2-0.6
			C14.7,24.3,14.6,24.1,14.5,24.2z"/>
		<path fill="#74471D" d="M15.5,24.1c-0.1,0.3-0.2,0.5-0.3,0.8c0,0.1,0.2,0.1,0.2,0c0-0.3,0.1-0.5,0.2-0.7
			C15.7,24.1,15.5,24,15.5,24.1z"/>
		<path fill="#74471D" d="M16.3,24c0-0.1-0.2-0.1-0.2,0c0,0.2-0.1,0.4-0.2,0.6c0,0,0,0,0,0.1v0.1c0,0.1,0.2,0.1,0.2,0
			C16.1,24.5,16.3,24.3,16.3,24z"/>
		<path fill="#74471D" d="M17,23.8c-0.1,0.3-0.3,0.4-0.3,0.7c0,0.1,0.2,0.1,0.2,0c0-0.2,0.2-0.4,0.3-0.7C17.2,23.8,17,23.7,17,23.8z
			"/>
		<path fill="#74471D" d="M17.5,23.8C17.5,23.7,17.5,23.7,17.5,23.8l-0.2-0.1c-0.1,0-0.1,0.2,0,0.2c0,0.2-0.1,0.3-0.2,0.4
			c-0.1,0.1,0,0.2,0.1,0.2C17.4,24.3,17.6,24,17.5,23.8z"/>
		<path fill="#74471D" d="M20.2,18.6c-0.6,0.8-0.9,1.6-0.7,2.6c0,0.1,0.2,0.1,0.2,0c-0.2-0.9,0.1-1.7,0.7-2.5
			C20.5,18.6,20.3,18.5,20.2,18.6z"/>
		<path fill="#74471D" d="M21,18.5c-0.8,0.7-0.8,1.5-0.7,2.5c0,0.1,0.2,0.1,0.2,0c-0.1-0.9-0.1-1.7,0.7-2.3
			C21.3,18.5,21.1,18.4,21,18.5z"/>
		<path fill="#74471D" d="M21.7,18.3c-0.4,0.6-0.5,1.2-0.7,1.9c-0.1,0.3-0.3,1,0,1.3c0.1,0.1,0.2,0,0.1-0.1c-0.1-0.1,0-0.4,0-0.5
			c0-0.3,0.1-0.5,0.1-0.8c0.1-0.6,0.2-1.2,0.6-1.7C21.9,18.3,21.7,18.2,21.7,18.3z"/>
		<path fill="#74471D" d="M21.9,18.5c-0.1,0.6-0.1,1.2-0.2,1.7c-0.1,0.5-0.1,1.1-0.1,1.6c0,0.1,0.2,0.1,0.2,0c0-0.6,0-1.2,0.1-1.7
			c0.1-0.5,0.1-1.1,0.2-1.6C22.1,18.4,21.9,18.4,21.9,18.5z"/>
		<path fill="#74471D" d="M22.6,19.3c0-0.3-0.2-0.6-0.3-0.8c0-0.1-0.2-0.1-0.2,0c0.1,0.2,0.2,0.4,0.2,0.7c0.1,0.3,0.1,0.7,0.1,1
			c0,0.7-0.2,1.3-0.2,1.9c0,0.1,0.2,0.1,0.2,0c0-0.6,0.2-1.3,0.2-1.9C22.6,19.9,22.6,19.6,22.6,19.3z"/>
		<path fill="#74471D" d="M23.3,20.4c-0.1-0.6-0.4-1.1-0.5-1.7c0-0.1-0.2-0.1-0.2,0c0,0.5,0.2,0.8,0.4,1.3c0.2,0.6,0.1,1.2-0.1,1.8
			c0,0.1,0.2,0.2,0.2,0C23.2,21.4,23.4,20.9,23.3,20.4z"/>
		<path fill="#74471D" d="M21.8,4.7c-0.4,0.1-0.8,0.2-1.1,0.4c-0.1,0.1,0,0.2,0.1,0.2c0.3-0.2,0.7-0.4,1-0.4
			C21.9,4.9,21.9,4.7,21.8,4.7z"/>
		<path fill="#74471D" d="M21.3,5.4c-0.5,0.1-0.9,0.4-1.4,0.7c-0.1,0.1,0,0.2,0.1,0.2c0.4-0.3,0.8-0.6,1.3-0.7
			C21.4,5.5,21.4,5.4,21.3,5.4z"/>
		<path fill="#74471D" d="M21.2,6.1c-0.4,0.1-0.7,0.3-1,0.4c-0.3,0.1-0.5,0.3-0.7,0.5c-0.1,0.1,0.1,0.2,0.2,0.1
			c0.2-0.3,0.5-0.4,0.8-0.5c0.3-0.1,0.6-0.2,0.8-0.3C21.3,6.2,21.3,6,21.2,6.1z"/>
		<path fill="#74471D" d="M21.4,6.8c-0.8,0.1-1.6,0.6-2.3,0.9c-0.1,0.1,0,0.2,0.1,0.2c0.7-0.3,1.5-0.8,2.2-0.9
			C21.5,7,21.5,6.8,21.4,6.8z"/>
		<path fill="#74471D" d="M21.1,7.5c-0.7,0-1.5,0.5-2.1,0.8c-0.1,0.1,0,0.2,0.1,0.2c0.6-0.3,1.3-0.8,2.1-0.8
			C21.2,7.7,21.2,7.5,21.1,7.5z"/>
		<path fill="#74471D" d="M20.7,8.3C20.1,8.4,19.5,8.6,19,9c-0.1,0.1,0,0.2,0.1,0.2c0.5-0.3,1.1-0.5,1.6-0.7
			C20.8,8.4,20.8,8.3,20.7,8.3z"/>
		<path fill="#74471D" d="M20.7,9c-0.3,0-0.5,0.2-0.8,0.3c-0.3,0.1-0.7,0.3-0.9,0.4c-0.1,0.1,0,0.2,0.1,0.2c0.3-0.1,0.5-0.2,0.8-0.4
			c0.3-0.1,0.6-0.3,0.9-0.3C20.8,9.1,20.8,9,20.7,9z"/>
		<path fill="#74471D" d="M20.4,10c-0.6,0-1.1,0.2-1.5,0.5c-0.1,0.1,0,0.2,0.1,0.2c0.4-0.3,0.9-0.5,1.4-0.5
			C20.6,10.2,20.6,10,20.4,10z"/>
		<path fill="#74471D" d="M20.8,10.8c-0.4,0-0.7,0.1-1,0.2c-0.1,0-0.7,0.3-0.7,0.2c-0.1-0.1-0.2,0-0.1,0.1c0.1,0.1,0.5,0,0.6-0.1
			c0.4-0.2,0.8-0.3,1.3-0.3C20.9,11,20.9,10.8,20.8,10.8z"/>
		<path fill="#74471D" d="M20.3,11.7c-0.5,0.1-1,0.2-1.5,0.3c-0.1,0-0.1,0.2,0,0.2c0.5-0.1,1-0.2,1.5-0.3
			C20.4,11.9,20.4,11.7,20.3,11.7z"/>
		<path fill="#74471D" d="M20.5,12.4c-0.3,0-0.5,0.1-0.8,0.2c-0.1,0-0.3,0-0.4,0.1c-0.1,0-0.2,0.2-0.3,0.1c-0.1-0.1-0.2,0-0.1,0.1
			c0.1,0.1,0.3,0.1,0.4,0c0.1-0.1,0.3-0.1,0.5-0.1c0.3-0.1,0.5-0.1,0.8-0.2C20.6,12.5,20.6,12.3,20.5,12.4z"/>
		<path fill="#74471D" d="M20.1,12.8c-0.2,0.1-0.4,0.1-0.6,0.2c-0.2,0.1-0.4,0.1-0.6,0.2c-0.1,0.1,0,0.2,0.1,0.2
			c0.2-0.1,0.3-0.1,0.5-0.2c0.2,0,0.4-0.1,0.6-0.2C20.3,12.9,20.2,12.8,20.1,12.8z"/>
		<path fill="#74471D" d="M20.7,14.9H20c-0.2,0-0.4,0.2-0.6,0.1c-0.1-0.1-0.2,0.1-0.1,0.2c0.2,0.1,0.3,0.1,0.5,0
			c0.2,0,0.3-0.1,0.4-0.1h0.5C20.8,15.1,20.8,14.9,20.7,14.9z"/>
		<path fill="#74471D" d="M20.8,15.6c-0.5,0-0.9,0.1-1.4,0.1c-0.1,0-0.1,0.2,0,0.2c0.5,0,0.9-0.1,1.4-0.1
			C20.9,15.7,20.9,15.6,20.8,15.6z"/>
		<path fill="#74471D" d="M20.8,15.9c-0.3,0.1-0.7,0.1-1,0.1c-0.1,0-0.1,0.2,0,0.2c0.4,0,0.7-0.1,1.1-0.1
			C20.9,16.1,20.9,15.9,20.8,15.9z"/>
		<path fill="#74471D" d="M20.7,16.4c-0.2,0-0.4,0-0.6,0.1c-0.2,0-0.3,0-0.4,0.1c-0.1,0,0,0.2,0.1,0.2c0.1-0.1,0.3,0,0.5-0.1
			c0.2,0,0.3,0,0.5,0C20.8,16.5,20.8,16.4,20.7,16.4z"/>
		<path fill="#74471D" d="M5.2,12.4c-0.3,0.2-0.5,0.5-0.6,0.8c-0.2,0.4-0.4,0.8-0.5,1.2c0,0,0,0,0,0.1v0.1c0,0.1,0.2,0.1,0.2,0
			c0.1-0.4,0.3-0.8,0.5-1.2c0.2-0.3,0.2-0.7,0.6-0.9C5.4,12.5,5.3,12.4,5.2,12.4z"/>
		<path fill="#74471D" d="M5.7,12.4c-0.3,0.3-0.5,0.6-0.7,1c-0.1,0.2-0.3,0.4-0.4,0.6c-0.1,0.1-0.2,0.3-0.3,0.5c0,0,0,0,0,0
			c0,0-0.1,0.1-0.1,0.1c-0.1,0.1,0,0.2,0.1,0.1c0.1,0,0.1,0,0.1-0.1c0.2-0.3,0.4-0.6,0.6-0.9c0.3-0.4,0.5-0.8,0.8-1.2
			C6,12.5,5.8,12.4,5.7,12.4z"/>
		<path fill="#74471D" d="M6.2,12.6c-0.3,0.3-0.5,0.6-0.7,0.9C5.3,14,5,14.3,4.8,14.8C4.8,14.9,4.9,15,5,14.9
			c0.2-0.4,0.4-0.8,0.7-1.1c0.3-0.3,0.4-0.7,0.7-1C6.5,12.7,6.3,12.5,6.2,12.6z"/>
		<path fill="#74471D" d="M6.4,13.2C6.2,13.5,6.1,13.7,6,14c-0.1,0.3-0.3,0.6-0.4,0.9c0,0.1,0.1,0.2,0.2,0c0.1-0.3,0.3-0.6,0.4-0.8
			c0.1-0.3,0.3-0.6,0.5-0.8C6.6,13.2,6.5,13.1,6.4,13.2z"/>
		<path fill="#74471D" d="M6.9,13.2c-0.3,0.5-0.5,1-0.7,1.5c0,0.1,0.1,0.2,0.2,0.1c0.2-0.5,0.4-1.1,0.7-1.5
			C7.1,13.2,7,13.1,6.9,13.2z"/>
		<path fill="#74471D" d="M6.9,8.7C6.7,8.6,6.5,9,6.4,9.2C6.2,9.6,5.9,10,5.8,10.4c0,0.1,0.1,0.2,0.2,0c0.1-0.4,0.3-0.7,0.5-1
			c0.1-0.1,0.3-0.6,0.4-0.6C7,8.8,7,8.7,6.9,8.7z"/>
		<path fill="#74471D" d="M7.3,8.8C7.1,8.9,7,9.1,6.9,9.3c-0.2,0.3-0.4,0.7-0.5,1c-0.1,0.1,0.1,0.2,0.2,0.1c0.1-0.3,0.2-0.5,0.4-0.8
			C7,9.4,7.1,9.1,7.4,9C7.5,9,7.4,8.8,7.3,8.8z"/>
		<path fill="#74471D" d="M8,8.7C7.7,9,7.7,9.3,7.5,9.6c-0.2,0.4-0.4,0.8-0.7,1.1c0,0.1,0,0.2,0.1,0.1c0.1,0,0.1,0,0.1-0.1
			c0,0,0,0,0,0c0.2-0.3,0.3-0.5,0.5-0.8c0.2-0.3,0.3-0.8,0.5-1.1C8.2,8.7,8,8.6,8,8.7z"/>
		<path fill="#74471D" d="M8.3,9.1C8.1,9.4,8,9.7,7.8,10.1c-0.2,0.3-0.4,0.5-0.6,0.9c0,0.1,0,0.1,0.1,0.1h0.1c0.1,0,0.1-0.1,0.1-0.2
			c0.1-0.2,0.3-0.5,0.4-0.7c0.2-0.3,0.4-0.7,0.6-1C8.5,9.1,8.4,9,8.3,9.1z"/>
		<path fill="#74471D" d="M8.8,9.2c-0.3,0.3-0.5,0.7-0.7,1c-0.1,0.3-0.5,0.6-0.4,0.9c0,0.1,0.2,0.1,0.2,0c-0.1-0.2,0.3-0.6,0.4-0.9
			c0.2-0.3,0.3-0.6,0.6-0.9C9,9.3,8.9,9.1,8.8,9.2z"/>
		<path fill="#74471D" d="M11.6,5.9c-0.4,0.2-0.6,0.6-0.9,0.9c-0.3,0.3-0.6,0.5-0.7,0.8c0,0.1,0,0.1,0.1,0.1h0.1
			c0.1,0,0.1-0.2,0-0.2c0.2-0.3,0.4-0.5,0.7-0.7c0.3-0.3,0.5-0.6,0.8-0.8C11.8,6,11.7,5.8,11.6,5.9z"/>
		<path fill="#74471D" d="M11.9,6.4C11.3,7,10.7,7.5,10.1,8c-0.1,0.1,0,0.2,0.1,0.1c0,0,0.1,0,0.1-0.1c0,0,0.1-0.1,0-0.1
			C11,7.5,11.5,7,12,6.5C12.1,6.4,11.9,6.3,11.9,6.4z"/>
		<path fill="#74471D" d="M12.2,6.5C12,6.6,12,6.7,11.9,6.8c-0.2,0.2-0.3,0.4-0.5,0.6C11.2,7.7,11,8,10.8,8.1
			c-0.2,0.1-0.3,0.2-0.3,0.4c0,0.1,0.1,0.2,0.1,0.1l0.1-0.1c0,0,0,0,0-0.1c0.1-0.1,0.2-0.1,0.3-0.2l0.6-0.6c0.1-0.1,0.2-0.2,0.3-0.4
			c0.1-0.1,0.3-0.5,0.4-0.6C12.4,6.6,12.3,6.4,12.2,6.5z"/>
		<path fill="#74471D" d="M12.6,6.9c-0.3,0.2-0.6,0.4-0.8,0.7c-0.2,0.3-0.6,0.5-0.8,0.9c-0.1,0.1,0.1,0.2,0.2,0.1
			c0.1-0.3,0.4-0.5,0.7-0.7c0.1-0.1,0.2-0.3,0.4-0.5c0.2-0.2,0.3-0.3,0.5-0.4C12.8,7,12.7,6.8,12.6,6.9z"/>
		<path fill="#74471D" d="M12.8,7.3c-0.3,0.1-0.5,0.3-0.7,0.5c-0.3,0.3-0.4,0.6-0.7,0.9c-0.1,0.1,0,0.2,0.1,0.1
			c0.2-0.2,0.4-0.6,0.6-0.8c0.2-0.2,0.4-0.5,0.7-0.6C13,7.4,12.9,7.3,12.8,7.3z"/>
		<path fill="#74471D" d="M13.2,7.5c-0.4,0.2-0.7,0.6-1,0.9c-0.1,0.1,0.1,0.2,0.1,0.1c0.3-0.3,0.6-0.7,1-0.9
			C13.4,7.6,13.3,7.4,13.2,7.5z"/>
		<path fill="#74471D" d="M16.8,6.6c-0.3,0.3-0.6,0.7-0.9,1c-0.3,0.3-0.7,0.6-0.9,1c0,0,0,0.1,0,0.1c0,0,0,0,0,0
			c0,0.1,0.1,0.1,0.2,0c0,0,0,0,0,0c0,0,0-0.1,0-0.1C15.3,8.4,16,7.9,16,7.8c0.3-0.3,0.6-0.7,0.9-1C17,6.7,16.9,6.6,16.8,6.6z"/>
		<path fill="#74471D" d="M17.1,6.8c-0.3,0.4-0.7,0.7-1,1.1c-0.3,0.3-0.7,0.6-0.9,1c0,0.1,0.1,0.2,0.2,0c0.1-0.2,0.4-0.4,0.5-0.6
			C16,8.2,16.2,8,16.4,7.8c0.3-0.3,0.7-0.6,0.9-1C17.3,6.8,17.1,6.7,17.1,6.8z"/>
		<path fill="#74471D" d="M17.5,6.9c-0.3,0.2-0.6,0.6-0.9,0.9c-0.3,0.4-0.8,0.7-1.1,1.1l0,0l0,0c0,0,0,0,0,0
			c-0.1,0.1,0.1,0.2,0.1,0.1c0,0,0,0,0.1-0.1c0,0,0,0,0,0c0.3-0.3,0.6-0.5,0.9-0.8c0.3-0.3,0.6-0.8,1-1C17.7,7,17.6,6.9,17.5,6.9z"
			/>
		<path fill="#74471D" d="M17.6,7.5c-0.7,0.4-1.1,1.1-1.6,1.6c-0.1,0.1,0,0.2,0.1,0.1C16.7,8.7,17,8,17.7,7.7
			C17.8,7.6,17.7,7.4,17.6,7.5z"/>
		<path fill="#74471D" d="M17.6,7.9c-0.2,0.2-0.4,0.3-0.6,0.5c-0.2,0.3-0.4,0.6-0.6,0.9c-0.1,0.1,0.1,0.2,0.2,0.1
			c0.2-0.3,0.4-0.6,0.6-0.8c0.2-0.2,0.4-0.4,0.6-0.6C17.9,7.9,17.7,7.8,17.6,7.9z"/>
		<path fill="#74471D" d="M18.2,11.1c0,0.1-0.2,0.2-0.3,0.3c-0.1,0.1-0.1,0.2-0.2,0.3c-0.2,0.3-0.3,0.5-0.5,0.7c0,0,0,0.1,0,0.1
			c0,0,0,0,0,0c0,0,0.1,0.1,0.1,0c0,0,0,0,0.1,0c0,0,0-0.1,0-0.1c0.2-0.2,0.3-0.4,0.5-0.6c0.1-0.1,0.2-0.3,0.3-0.4
			c0.1-0.1,0.1-0.1,0.2-0.3C18.4,11,18.2,10.9,18.2,11.1z"/>
		<path fill="#74471D" d="M18.6,11.3c-0.2,0.2-0.3,0.5-0.5,0.7c-0.2,0.2-0.4,0.5-0.5,0.7c-0.1,0.1,0.1,0.2,0.2,0.1
			c0.1-0.3,0.3-0.5,0.6-0.7c0.2-0.2,0.3-0.4,0.5-0.6C18.8,11.3,18.7,11.2,18.6,11.3z"/>
		<path fill="#74471D" d="M18.9,11.7c-0.5,0.2-0.6,0.7-0.9,1.1c-0.1,0.1,0.1,0.2,0.2,0.1c0.1-0.2,0.2-0.3,0.3-0.5
			c0.1-0.2,0.2-0.4,0.5-0.5C19,11.9,19,11.7,18.9,11.7z"/>
		<path fill="#74471D" d="M18,15.8C18,15.8,18,15.8,18,15.8c-0.1,0.1-0.1,0.1-0.1,0.2c-0.1,0.1-0.2,0.3-0.3,0.4
			c-0.1,0.2-0.2,0.3-0.3,0.5c-0.2,0.3-0.4,0.7-0.5,1c0,0.1,0.2,0.2,0.2,0c0.1-0.5,0.4-0.8,0.6-1.2c0.2-0.3,0.5-0.5,0.6-0.9
			C18.2,15.8,18.1,15.7,18,15.8z"/>
		<path fill="#74471D" d="M18.7,16c-0.4,0.3-0.6,0.7-0.8,1.1c-0.2,0.4-0.5,0.8-0.6,1.3c0,0.1,0,0.1,0.1,0.1h0.1c0.1,0,0.1-0.1,0-0.2
			c0.1-0.4,0.3-0.8,0.5-1c0.3-0.4,0.4-0.8,0.8-1.1C18.9,16.1,18.8,15.9,18.7,16z"/>
		<path fill="#74471D" d="M19.1,16.5c-0.6,0.7-1.1,1.5-1.6,2.3c-0.1,0.1,0.1,0.2,0.1,0.1c0.1-0.1,0.2-0.2,0.3-0.3c0,0,0-0.1,0-0.1
			c0.4-0.7,0.8-1.4,1.3-1.9C19.3,16.5,19.2,16.4,19.1,16.5z"/>
		<path fill="#74471D" d="M19.2,17.3c-0.3,0.4-0.6,0.9-0.9,1.4c-0.1,0.1-0.1,0.1-0.1,0.2c0,0.1,0.1,0.1,0.2,0c0,0,0.1-0.1,0.1-0.1
			c0,0,0,0,0,0c0,0,0,0,0-0.1c0.3-0.4,0.5-0.9,0.9-1.3C19.5,17.3,19.3,17.2,19.2,17.3z"/>
		<path fill="#74471D" d="M19.4,17.7c-0.2,0.2-0.3,0.5-0.4,0.7c-0.1,0.1,0.1,0.2,0.2,0.1c0.1-0.3,0.3-0.5,0.4-0.7
			C19.7,17.7,19.5,17.6,19.4,17.7z"/>
		<path fill="#74471D" d="M14.6,20.8c-0.2,0.2-0.3,0.5-0.4,0.7c-0.1,0.3-0.3,0.6-0.4,0.9c0,0,0,0,0,0.1v0.1c0,0.1,0.2,0.1,0.2,0
			c0.1-0.3,0.2-0.6,0.4-0.8c0.1-0.3,0.2-0.6,0.4-0.8C14.8,20.8,14.7,20.7,14.6,20.8z"/>
		<path fill="#74471D" d="M15.2,20.6c-0.1,0.1-0.1,0.1-0.2,0.3c-0.1,0.3-0.3,0.5-0.4,0.7c-0.1,0.1-0.1,0.3-0.2,0.5
			c-0.1,0.1-0.1,0.5-0.2,0.6c-0.1,0.1,0,0.2,0.1,0.1c0.2-0.2,0.2-0.6,0.3-0.9c0.1-0.2,0.2-0.4,0.3-0.6c0.1-0.2,0.2-0.5,0.4-0.6
			C15.4,20.7,15.3,20.6,15.2,20.6z"/>
		<path fill="#74471D" d="M15.8,20.7c-0.3,0.2-0.4,0.6-0.6,0.9c-0.3,0.5-0.5,1-0.7,1.5c-0.1,0.1,0.1,0.2,0.1,0.1
			c0.1-0.1,0.2-0.2,0.3-0.4c0,0,0-0.1,0-0.1c0.1-0.2,0.2-0.5,0.3-0.7c0.2-0.3,0.4-0.9,0.7-1.1C16,20.8,15.9,20.6,15.8,20.7z"/>
		<path fill="#74471D" d="M16.4,20.7C16.3,20.7,16.3,20.8,16.4,20.7c-0.1,0.1-0.1,0.1-0.1,0.2c-0.1,0.4-0.4,0.7-0.6,1.1
			c-0.2,0.3-0.4,0.7-0.5,1c0,0.1,0.1,0.2,0.2,0.1c0,0,0.1-0.1,0.1-0.1c0,0,0-0.1,0-0.1c0.1-0.3,0.4-0.7,0.5-1c0.2-0.3,0.4-0.6,0.6-1
			C16.5,20.7,16.4,20.6,16.4,20.7z"/>
		<path fill="#74471D" d="M16.7,21c-0.2,0.3-0.3,0.5-0.5,0.8c-0.2,0.5-0.4,0.9-0.7,1.3c-0.1,0.1,0.1,0.2,0.2,0.1
			c0.2-0.3,0.4-0.7,0.6-1c0.2-0.4,0.3-0.7,0.5-1C16.9,21.1,16.8,20.9,16.7,21z"/>
		<path fill="#74471D" d="M16.6,21.8c-0.2,0.3-0.3,0.7-0.5,1c-0.1,0.1,0.1,0.2,0.2,0.1c0.2-0.3,0.3-0.7,0.5-1
			C16.8,21.8,16.7,21.7,16.6,21.8z"/>
	</g>
</g>
</svg>
