<?xml version="1.0" encoding="utf-8"?>
<!-- Generator: Adobe Illustrator 18.1.1, SVG Export Plug-In . SVG Version: 6.00 Build 0)  -->
<svg version="1.1" id="Layer_1" xmlns:svgjs="http://svgjs.com/svgjs"
	 xmlns="http://www.w3.org/2000/svg" xmlns:xlink="http://www.w3.org/1999/xlink" x="0px" y="0px" viewBox="0 0 425.2 425.2"
	 enable-background="new 0 0 425.2 425.2" xml:space="preserve">
<g>
	<g>
		<g>
			<circle fill="#FFFFFF" cx="212.6" cy="212.6" r="206.4"/>
		</g>
		<g>
			<path fill="#FFFFFF" d="M419,212.6C419,326.5,326.6,419,212.6,419c-42.4,0-81.9-12.8-114.6-34.7c29.4,16.1,63.2,25.3,99.1,25.3
				c113.9,0,206.4-92.3,206.4-206.4c0-71.6-36.5-134.6-91.8-171.7C375.6,66.6,419,134.5,419,212.6z"/>
		</g>
		<g>
			<circle fill="#A1A1C9" cx="212.6" cy="212.6" r="167.7"/>
		</g>
		<g>
			<path fill="#A1A1C9" d="M376.3,208.6c0,92.6-75.1,167.7-167.7,167.7c-47,0-89.5-19.3-119.9-50.5c28.9,23.7,66.9,31.1,107.2,31.1
				c92.6,0,161.2-63.7,156.1-156.1c-2.9-53.3-7.7-91.7-37.2-121.8C352.4,109.6,376.3,156.3,376.3,208.6z"/>
		</g>
		<g>
			<g>
				<ellipse fill="#FFFFFF" cx="194.2" cy="107.4" rx="22.2" ry="22.2"/>
			</g>
			<g>
				<g>
					<g>
						<path fill="#FFFFFF" d="M194.2,158.3c9.1,0,16.6,7.4,16.6,16.6v122.7c0,5.1,4.2,9.2,9.2,9.2h16c8.9,0,16.6,6.9,17,15.8
							c0.4,9.6-7.1,17.4-16.5,17.4h-27.7c-17.3,0-31.2-14-31.2-31.2v-134C177.6,165.7,185,158.3,194.2,158.3L194.2,158.3z"/>
					</g>
				</g>
			</g>
		</g>
		<g>
			<g>
				<path fill="#FFFFFF" d="M214.7,107.5c0,12.2-9.9,22.1-22.1,22.1c-7.9,0-14.8-4.2-18.7-10.3c0.1,0,0.2,0,0.3,0
					c12.2,0,22.1-9.9,22.1-22.1c0-4.3-1.2-8.4-3.4-11.8C205,85.5,214.7,95.3,214.7,107.5z"/>
			</g>
			<g>
				<g>
					<g>
						<path fill="#FFFFFF" d="M251.4,322.5c0.4,9.6-7.1,17.4-16.5,17.4h-2.2c0.3-1.3,0.4-2.7,0.4-4.2c-0.3-9-8-16-17-16h-5.1
							c-11.1,0-20.2-9.1-20.2-20.2V174.8c0-5.7-2.9-10.8-7.4-13.8c2.7-1.7,5.8-2.7,9.2-2.7c9.1,0,16.6,7.4,16.6,16.6v122.7
							c0,5.1,4.2,9.2,9.2,9.2h16C243.2,306.7,251,313.6,251.4,322.5L251.4,322.5z"/>
					</g>
				</g>
			</g>
		</g>
		<g>
			<path fill="#4C241D" d="M377,77.9c-2.2-2.7-6.1-3.1-8.8-0.8c-2.7,2.2-3.1,6.1-0.8,8.8c29.2,35.6,45.3,80.6,45.3,126.8
				c0,53.5-20.8,103.7-58.6,141.5s-88,58.6-141.5,58.6S108.9,392,71.1,354.2c-37.8-37.9-58.6-88.1-58.6-141.6S33.3,108.9,71.1,71.1
				s88-58.6,141.5-58.6c50.3,0,98.5,18.8,135.5,52.8c2.6,2.3,6.5,2.2,8.8-0.3c2.3-2.6,2.2-6.5-0.3-8.8C317.2,19.9,266.1,0,212.6,0
				C155.8,0,102.4,22.1,62.3,62.3C22.1,102.5,0,155.8,0,212.6s22.1,110.2,62.3,150.3c40.2,40.2,93.5,62.3,150.3,62.3
				s110.2-22.1,150.3-62.3c40.2-40.2,62.3-93.5,62.3-150.3C425.2,163.6,408.1,115.7,377,77.9L377,77.9z"/>
			<path fill="#4C241D" d="M212.6,38.5c-96,0-174.1,78.1-174.1,174.1s78.1,174.1,174.1,174.1s174.1-78.1,174.1-174.1
				S308.6,38.5,212.6,38.5L212.6,38.5z M212.6,373.8c-88.9,0-161.2-72.3-161.2-161.2S123.7,51.4,212.6,51.4s161.2,72.3,161.2,161.2
				S301.5,373.8,212.6,373.8z"/>
			<path fill="#4C241D" d="M194.2,136c15.8,0,28.6-12.8,28.6-28.6S210,78.9,194.2,78.9s-28.6,12.8-28.6,28.6S178.5,136,194.2,136z
				 M194.2,91.8c8.6,0,15.7,7.1,15.7,15.7s-7.1,15.7-15.7,15.7s-15.7-7.1-15.7-15.7S185.6,91.8,194.2,91.8z"/>
			<path fill="#4C241D" d="M235.4,300.3h-16c-1.5,0-2.7-1.2-2.7-2.7V174.8c0-12.7-10.3-23-23-23s-23,10.3-23,23v44.4
				c0,3.6,2.9,6.5,6.5,6.5c3.6,0,6.5-2.9,6.5-6.5v-44.4c0-5.6,4.6-10.1,10.1-10.1s10.1,4.6,10.1,10.1v122.7
				c0,8.6,7.1,15.7,15.7,15.7h16c5.6,0,10.3,4.3,10.5,9.6c0.2,2.8-0.8,5.5-2.8,7.5c-1.9,2-4.6,3.2-7.3,3.2h-27.7
				c-13.7,0-24.7-11.1-24.7-24.7v-59.6c0-3.6-2.9-6.5-6.5-6.5s-6.5,2.9-6.5,6.5v59.6c0,20.8,16.9,37.7,37.7,37.7h27.7
				c6.4,0,12.3-2.6,16.7-7.1c4.4-4.6,6.6-10.6,6.3-17C258.2,309.9,247.9,300.3,235.4,300.3L235.4,300.3z"/>
		</g>
	</g>
</g>
</svg>
