<?xml version="1.0" encoding="utf-8"?>
<!-- Generator: Adobe Illustrator 18.1.1, SVG Export Plug-In . SVG Version: 6.00 Build 0)  -->
<svg version="1.1" id="Layer_1" xmlns="http://www.w3.org/2000/svg" xmlns:xlink="http://www.w3.org/1999/xlink" x="0px" y="0px"
	 viewBox="0 0 425.2 425.2" enable-background="new 0 0 425.2 425.2" xml:space="preserve">
<g>
	<polygon fill="#FFFFFF" points="369.8,132.1 369.8,368.7 55.4,368.7 55.4,132.1 212.6,246.7 	"/>
	<polygon fill="#FFFFFF" points="387.1,56.5 212.6,183.6 38.1,56.5 212.6,56.5 	"/>
</g>
<g>
	<path fill="#F14336" d="M55.4,132.1v236.6H27c-10.7,0-19.3-8.7-19.3-19.3V97.3L55.4,132.1z"/>
	<path fill="#F14336" d="M417.6,75.8v21.5l-47.8,34.8L212.6,246.7L55.4,132.1L7.6,97.3V75.8c0-10.7,8.7-19.3,19.3-19.3h11.2
		l174.5,127.2L387.1,56.5h11.2C408.9,56.5,417.6,65.1,417.6,75.8z"/>
</g>
<path fill="#D32E2A" d="M417.6,97.3v252.1c0,10.7-8.7,19.3-19.3,19.3h-28.5V132.1L417.6,97.3z"/>
<path fill="#333333" d="M417.5,159.6L417.5,159.6c4.2,0,7.7-3.4,7.7-7.6V71.5c0-12.5-10.2-22.7-22.7-22.7H22.7
	C10.2,48.8,0,59,0,71.5v215.2c0,4.2,3.4,7.6,7.6,7.6l0,0c4.2,0,7.6-3.4,7.6-7.6V127.3c0-6.2,7.1-9.8,12.1-6.2l17.3,12.6
	c2,1.4,3.1,3.7,3.1,6.2v213.6c0,4.2-3.4,7.6-7.6,7.6H22.9c-4.2,0-7.6-3.4-7.6-7.6v-28.7c0-4.1-3.2-7.4-7.2-7.6l0,0
	c-4.4-0.2-8,3.2-8,7.6v29c0,12.5,10.2,22.7,22.7,22.7h379.8c12.5,0,22.7-10.2,22.7-22.7V188.2c0-4.2-3.4-7.6-7.6-7.6l0,0
	c-4.2,0-7.6,3.4-7.6,7.6v165.3c0,4.2-3.4,7.6-7.6,7.6H385c-4.2,0-7.6-3.4-7.6-7.6V139.9c0-2.4,1.2-4.7,3.1-6.2l17.3-12.6
	c5-3.7,12.1-0.1,12.1,6.2V152C409.9,156.1,413.3,159.5,417.5,159.6z M362.1,162v191.6c0,4.2-3.4,7.6-7.6,7.6h-284
	c-4.2,0-7.6-3.4-7.6-7.6V162c0-16.1-0.6-15.6,12-6.1l133,97c1.3,1,2.9,1.5,4.5,1.5s3.2-0.5,4.5-1.5l133-97
	C362.3,147.4,362.1,146.7,362.1,162z M217,234c-2.7,1.9-6.2,1.9-8.9,0L18.4,95.7c-2-1.4-3.1-3.7-3.1-6.1v-18c0-4.2,3.4-7.6,7.6-7.6
	h10.4c1.6,0,3.2,0.5,4.4,1.4l63,45.9c3.4,2.5,8.3,1.7,10.7-1.8l0.1-0.1c2.3-3.4,1.5-8-1.8-10.4L80.3,77.7
	c-21.8-14.2-24.8-13.6,4.4-13.6h255.7c29.3,0,26.5-1.7,4.4,13.6L217,170.9c-2.7,1.9-6.2,1.9-8.9,0l-68.9-50.2
	c-3.2-2.3-7.7-1.8-10.2,1.3l-0.1,0.1c-2.8,3.4-2.2,8.4,1.3,11l77.8,56.7c1.3,1,2.9,1.5,4.5,1.5s3.2-0.5,4.5-1.5L387.6,65.5
	c1.3-0.9,2.8-1.4,4.4-1.4h10.4c4.2,0,7.6,3.4,7.6,7.6v21.8l0,0L217,234z"/>
</svg>
