<?xml version="1.0" encoding="utf-8"?>
<!-- Generator: Adobe Illustrator 18.1.1, SVG Export Plug-In . SVG Version: 6.00 Build 0)  -->
<svg version="1.1" id="Layer_1" xmlns="http://www.w3.org/2000/svg" xmlns:xlink="http://www.w3.org/1999/xlink" x="0px" y="0px"
	 viewBox="0 0 28.3 28.3" enable-background="new 0 0 28.3 28.3" xml:space="preserve">
<g>
	<rect x="0.2" y="5.9" fill="#7E82AD" width="22.3" height="22.3"/>
	<path d="M22.3,6.1v21.9H0.4V6.1H22.3 M22.7,5.7H0v22.7h22.7V5.7L22.7,5.7z"/>
</g>
<g>
	<path fill="#FFFFFF" d="M1,15.7c0,0.8,0.2,1.6,0.5,2.4C2,19.6,3,21,4.2,22.1c1.1,1,2.6,1.3,4,1.2c0,0,0.1,0,0.1,0c0,0,0.1,0,0.1,0
		c0,0,0.1,0,0.1,0c0,0,0.1,0,0.1,0c1.4-0.3,2.8-0.9,3.7-2.1c0.1-0.2,0.2-0.3,0.3-0.5c0.4,0.9,1,1.8,1.7,2.6c1,1.1,2.4,1.6,3.9,1.7
		c0,0,0.1,0,0.1,0c0,0,0.1,0,0.1,0c0,0,0.1,0,0.1,0c0,0,0.1,0,0.1,0c1.4-0.1,2.9-0.6,3.9-1.7c1.1-1.2,1.9-2.7,2.2-4.3
		c0.2-0.8,0.3-1.6,0.2-2.5c0-0.4-0.1-0.8-0.1-1.2c-0.1-0.4-0.2-0.8-0.3-1.2c-0.1-0.4-0.2-0.8-0.3-1.3c-0.1-0.4-0.2-0.7-0.3-1.1
		c-0.1-0.3-0.3-0.7-0.5-1c-0.1-0.3-0.2-0.5-0.4-0.8c-0.1-0.1-0.2-0.1-0.2-0.1c0,0-0.1,0-0.2,0c-1.4,0.5-3,0.6-4.5,0.6
		c-0.8,0-1.6,0.1-2.4-0.1c-0.3-0.1-0.6-0.2-0.9-0.2c-0.2,0-0.5,0-0.7-0.2c0,0-0.1-0.1-0.1-0.1c-0.1,0-0.1,0-0.2,0.1
		c-0.2,0.2-0.3,0.5-0.4,0.8c-0.1,0.2-0.1,0.3-0.2,0.5c-0.1-0.2-0.2-0.4-0.3-0.6c-0.2-0.3-0.2-0.7-0.4-1.1c-0.2-0.3-0.4-0.6-0.6-1
		c-0.1-0.3-0.3-0.5-0.5-0.7c-0.1-0.1-0.2-0.1-0.2,0c0,0-0.1,0-0.2,0C9.6,8.6,8,8.8,6.5,9C5.8,9.1,4.9,9.2,4.1,9.1
		C3.8,9.1,3.5,9,3.2,9C3,9,2.7,9.1,2.5,8.9c-0.1,0-0.1-0.1-0.2,0c-0.1,0-0.1,0-0.2,0.1C2,9.2,1.9,9.5,1.8,9.8
		c-0.1,0.4-0.3,0.7-0.3,1.1c-0.1,0.4-0.1,0.8-0.2,1.1c-0.1,0.4-0.1,0.8-0.2,1.3c0,0.4-0.1,0.8-0.2,1.3C0.9,14.9,0.9,15.3,1,15.7z"/>
	<g>
		<g>
			<path fill="#74471D" d="M24.3,17.4c0.2,0.3,0.5,0.5,0.6,0.9c0,0.1-0.1,0.1-0.1,0C24.6,18,24.4,17.7,24.3,17.4
				C24.1,17.4,24.2,17.3,24.3,17.4z"/>
			<path fill="#74471D" d="M23.9,18.6c0.1,0.1,0.2,0.3,0.3,0.5c0.1,0.1,0.2,0.2,0.2,0.4c0,0.1-0.1,0.1-0.1,0c0-0.1-0.1-0.3-0.2-0.4
				C23.9,18.9,23.9,18.8,23.9,18.6C23.8,18.6,23.8,18.5,23.9,18.6z"/>
			<path fill="#74471D" d="M23.6,20c0.1,0.3,0.3,0.5,0.4,0.8c0,0.1-0.1,0.1-0.1,0c-0.1-0.3-0.3-0.5-0.4-0.8
				C23.5,19.9,23.6,19.9,23.6,20z"/>
			<path fill="#74471D" d="M23.1,21.2c0,0.2,0.2,0.4,0.2,0.6c0,0.1-0.1,0.1-0.1,0c0-0.2-0.1-0.4-0.2-0.6
				C22.9,21.2,23,21.2,23.1,21.2z"/>
			<path fill="#74471D" d="M22.1,22.1c0.1,0.3,0.2,0.5,0.3,0.8c0,0.1-0.1,0.1-0.1,0C22.3,22.7,22.2,22.4,22.1,22.1
				C22,22.1,22.1,22.1,22.1,22.1z"/>
			<path fill="#74471D" d="M21.5,23.1c0,0.3,0.2,0.5,0.2,0.8c0,0.1-0.1,0.1-0.1,0c0-0.3-0.2-0.5-0.2-0.8
				C21.4,23.1,21.5,23,21.5,23.1z"/>
			<path fill="#74471D" d="M19.9,23.6c0.1,0.2,0.2,0.5,0.2,0.7c0,0.1-0.1,0.1-0.1,0C20,24.1,20,23.9,19.9,23.6
				C19.8,23.6,19.9,23.6,19.9,23.6z"/>
			<path fill="#74471D" d="M18.4,23.8c0.1,0.3,0.2,0.5,0.4,0.8c0,0.1-0.1,0.1-0.1,0.1C18.5,24.4,18.4,24.1,18.4,23.8
				C18.3,23.8,18.4,23.7,18.4,23.8z"/>
			<path fill="#74471D" d="M16.8,23.9c0.1,0.2,0.2,0.4,0.3,0.6c0,0.1-0.1,0.1-0.1,0c0-0.2-0.2-0.4-0.3-0.6
				C16.7,23.8,16.8,23.8,16.8,23.9z"/>
			<path fill="#74471D" d="M15.6,23.1c0.1,0.3,0.2,0.6,0.3,0.9c0,0.1-0.1,0.1-0.1,0.1c-0.2-0.3-0.2-0.6-0.3-0.9
				C15.5,23.1,15.6,23,15.6,23.1z"/>
			<path fill="#74471D" d="M14.6,22.5c0-0.1,0.1-0.1,0.1,0c0,0.2-0.1,0.5,0,0.8c0,0.1-0.1,0.1-0.1,0.1
				C14.5,23.1,14.6,22.8,14.6,22.5z"/>
			<path fill="#74471D" d="M11.7,20.3c0.1,0.2,0.3,0.4,0.4,0.6c0,0.1-0.1,0.1-0.1,0c-0.1-0.2-0.3-0.4-0.4-0.6
				C11.6,20.3,11.7,20.3,11.7,20.3z"/>
			<path fill="#74471D" d="M10.7,21.1c0.1,0.2,0.2,0.4,0.3,0.6c0,0.1-0.1,0.1-0.1,0C10.9,21.5,10.7,21.3,10.7,21.1
				C10.6,21.1,10.7,21,10.7,21.1z"/>
			<path fill="#74471D" d="M9.8,21.6c0.1,0.2,0.3,0.4,0.4,0.7c0,0.1-0.1,0.1-0.1,0C10.1,22,9.9,21.9,9.8,21.6
				C9.7,21.6,9.8,21.5,9.8,21.6z"/>
			<path fill="#74471D" d="M8.8,22.2C9,22.5,9.1,22.7,9.2,23C9.2,23,9.1,23,9,23C9,22.7,8.8,22.5,8.8,22.2
				C8.7,22.2,8.8,22.2,8.8,22.2z"/>
			<path fill="#74471D" d="M7.5,22.4c0,0.1,0.1,0.2,0.2,0.3c0.1,0.1,0.1,0.2,0.2,0.3c0,0.1-0.1,0.1-0.1,0c0-0.3-0.4-0.4-0.4-0.6
				C7.4,22.3,7.5,22.3,7.5,22.4z"/>
			<path fill="#74471D" d="M6.1,22.2c0.2,0.2,0.3,0.5,0.3,0.7c0,0.1-0.1,0.1-0.1,0C6.3,22.7,6.2,22.4,6.1,22.2
				C6,22.2,6.1,22.1,6.1,22.2z"/>
			<path fill="#74471D" d="M4.8,21.6c0.1,0.3,0.3,0.5,0.3,0.7c0,0.1-0.1,0.1-0.1,0c0-0.3-0.2-0.5-0.3-0.7
				C4.7,21.6,4.8,21.6,4.8,21.6z"/>
			<path fill="#74471D" d="M3.7,20.7C3.8,21,4,21.4,4.1,21.6c0,0.1-0.1,0.1-0.1,0.1C3.9,21.4,3.7,21.1,3.7,20.7
				C3.6,20.7,3.7,20.7,3.7,20.7z"/>
			<path fill="#74471D" d="M5.1,16.8c0.2,0,0.4-0.2,0.5-0.3c0.2-0.1,0.4-0.2,0.6-0.3c0.5-0.2,1-0.3,1.6-0.4c0.5-0.1,1-0.1,1.4-0.1
				c0.5,0,0.9,0.1,1.3,0.3c0.1,0,0,0.1-0.1,0.1C10,15.9,9.5,15.9,9,15.9c-0.5,0-1,0-1.5,0.1c-0.5,0.1-0.9,0.2-1.4,0.4
				c-0.2,0.1-0.5,0.2-0.7,0.4c-0.1,0.1-0.2,0.2-0.4,0.2C5,17,5,16.8,5.1,16.8z"/>
			<path fill="#74471D" d="M4.6,17.5c0.4-0.4,1-0.5,1.5-0.6c0.3-0.1,0.5-0.3,0.8-0.3c0.3-0.1,0.7-0.2,1-0.3c0.5-0.1,1.1-0.1,1.7,0
				c0.3,0,0.6,0.1,0.9,0.2c0.1,0,0.2,0.1,0.3,0.1c0.2,0.1,0.3,0.2,0.4,0.2c0.1,0,0.1,0.1,0,0.1c-0.2,0-0.3-0.1-0.4-0.2
				c-0.2-0.1-0.6-0.2-0.8-0.3c-0.6-0.1-1.3-0.2-1.9-0.1c-0.6,0.1-1.3,0.3-1.9,0.6C5.8,17.2,5.1,17.2,4.6,17.5
				C4.6,17.7,4.5,17.6,4.6,17.5z"/>
			<path fill="#74471D" d="M15.3,19.9c0.5,0.1,0.9,0.6,1.4,0.7c0.7,0.2,1.4,0.1,2.1,0.2c0.7,0,1.3-0.1,1.9-0.2
				c0.2-0.1,0.5-0.2,0.7-0.3c0.3-0.1,0.5-0.3,0.7-0.5c0-0.1,0.1,0,0.1,0.1c-0.3,0.4-0.8,0.6-1.2,0.8c-0.3,0.1-0.6,0.1-0.9,0.2
				c-0.3,0.1-0.7,0.1-1,0.1c-0.7,0-1.5,0-2.2-0.1c-0.3,0-0.5-0.1-0.8-0.3c-0.3-0.2-0.5-0.4-0.8-0.4C15.2,20,15.2,19.9,15.3,19.9z"/>
			<path fill="#74471D" d="M15.7,20.6c0.3,0.3,0.9,0.4,1.3,0.5c0.6,0.2,1.1,0.2,1.7,0.2c0.6,0,1.1-0.1,1.7-0.2
				c0.3-0.1,0.5-0.1,0.8-0.2c0.2-0.1,0.4-0.2,0.6-0.3c0.1,0,0.1,0.1,0,0.1c-0.2,0-0.4,0.2-0.6,0.3c-0.3,0.1-0.6,0.2-0.9,0.2
				c-0.6,0.1-1.1,0.2-1.7,0.2c-0.6,0-1.1,0-1.7-0.2C16.4,21,15.9,20.9,15.7,20.6C15.5,20.6,15.6,20.5,15.7,20.6z"/>
			<path fill="#74471D" d="M16,21c0.3,0.2,0.8,0.3,1.2,0.3c0.5,0.1,1,0.2,1.5,0.2c0.4,0,0.9-0.1,1.3-0.1c0.3,0,0.5-0.1,0.8-0.1
				c0.2-0.1,0.4-0.1,0.6-0.1c0.1,0,0.1,0.1,0,0.1c-0.3,0-0.5,0.1-0.7,0.2c-0.2,0.1-0.4,0.1-0.6,0.1c-0.5,0.1-1,0.1-1.5,0.1
				c-0.4,0-0.9-0.1-1.3-0.2C16.7,21.4,16.3,21.3,16,21C15.9,21.1,15.9,21,16,21z"/>
			<path fill="#74471D" d="M22.5,15.1c0-0.1,0.1-0.2,0.1-0.3c0.1-0.2,0.1-0.3,0.2-0.5c0-0.1,0.1-0.1,0.1,0c0,0.2-0.1,0.3-0.1,0.5
				c-0.1,0.2-0.1,0.4-0.2,0.5c0,0.1-0.1,0-0.1,0L22.5,15.1C22.5,15.1,22.5,15.1,22.5,15.1z"/>
			<path fill="#74471D" d="M22.1,15c0.1-0.1,0-0.3,0.1-0.4c0-0.1,0.1-0.3,0.1-0.4c0-0.1,0.1,0,0.1,0c0,0.1-0.1,0.3-0.1,0.4
				c0,0.1,0,0.3-0.1,0.4C22.2,15.1,22.1,15,22.1,15z"/>
			<path fill="#74471D" d="M21.7,15c0.1-0.1,0-0.2,0.1-0.3c0-0.1,0-0.3,0.1-0.4c0-0.1,0.1-0.1,0.1,0c0,0.2,0,0.3-0.1,0.5
				C21.8,14.8,21.8,15,21.7,15C21.7,15.1,21.6,15.1,21.7,15z"/>
			<path fill="#74471D" d="M21.2,14.2C21.2,14.1,21.3,14.2,21.2,14.2c0,0.3,0,0.5,0,0.8c0,0.1-0.1,0.1-0.1,0
				C21.1,14.7,21.1,14.4,21.2,14.2z"/>
			<path fill="#74471D" d="M20.6,14.4c0,0.2,0,0.4,0,0.6c0,0.1-0.1,0.1-0.1,0c0-0.2,0-0.4,0-0.6C20.5,14.3,20.6,14.3,20.6,14.4z"/>
			<path fill="#74471D" d="M16.8,14.5V15c0,0.1-0.1,0.1-0.1,0v-0.5C16.6,14.4,16.8,14.4,16.8,14.5z"/>
			<path fill="#74471D" d="M16.1,14.9c0.1-0.1,0-0.2,0-0.3c0-0.1,0-0.2,0-0.3c0-0.1,0.1-0.1,0.1,0C16.3,14.5,16.4,14.8,16.1,14.9
				C16.2,15,16.1,15,16.1,14.9z"/>
			<path fill="#74471D" d="M15.7,14.1c0,0.3,0,0.6,0.1,0.9c0,0.1-0.1,0.1-0.1,0c0-0.3-0.1-0.6-0.1-0.9C15.5,14,15.7,14,15.7,14.1z"
				/>
			<path fill="#74471D" d="M14.9,14.2c0,0.3,0,0.6,0.1,0.8c0,0.1-0.1,0.1-0.1,0.1c-0.1-0.3-0.2-0.6-0.2-0.9
				C14.8,14.1,14.9,14.1,14.9,14.2z"/>
			<path fill="#74471D" d="M14.2,14.3c0,0.1,0.1,0.3,0.2,0.4c0.1,0.1,0.2,0.3,0.2,0.4c0,0.1-0.1,0.1-0.1,0c-0.1-0.3-0.3-0.6-0.4-0.9
				C14.1,14.2,14.2,14.2,14.2,14.3z"/>
			<path fill="#74471D" d="M11.3,11.5c0.2,0.2,0.3,0.4,0.3,0.7c0,0.1-0.1,0.1-0.1,0C11.5,12,11.3,11.8,11.3,11.5
				C11.1,11.5,11.2,11.4,11.3,11.5z"/>
			<path fill="#74471D" d="M10.7,11.6c0.2,0.2,0.3,0.6,0.3,0.9c0,0.1-0.1,0.1-0.1,0C10.9,12.2,10.8,11.9,10.7,11.6
				C10.6,11.6,10.7,11.5,10.7,11.6z"/>
			<path fill="#74471D" d="M10.3,11.9c0-0.1,0.1-0.1,0.1,0c0,0.3,0.1,0.6,0.1,0.8c0,0.1-0.1,0.1-0.1,0
				C10.3,12.5,10.2,12.2,10.3,11.9z"/>
			<path fill="#74471D" d="M9.9,11.9c0,0.3,0.1,0.5,0.1,0.8c0,0.1-0.1,0.1-0.1,0c0-0.3-0.1-0.5-0.1-0.8C9.8,11.8,9.9,11.8,9.9,11.9z
				"/>
			<path fill="#74471D" d="M9.3,11.9v0.6c0,0.1-0.1,0.1-0.1,0v-0.6C9.2,11.8,9.3,11.8,9.3,11.9z"/>
			<path fill="#74471D" d="M5.4,12.3c0-0.1,0.1,0,0.1,0c0,0.2,0.1,0.3,0.2,0.5c0,0.1-0.1,0.1-0.1,0.1C5.5,12.7,5.4,12.5,5.4,12.3z"
				/>
			<path fill="#74471D" d="M5.1,12.4c0.2,0.2,0.2,0.6,0.2,0.9c0,0.1-0.1,0.1-0.1,0C5.1,13,5.2,12.7,5.1,12.4C5,12.4,5,12.3,5.1,12.4
				z"/>
			<path fill="#74471D" d="M4.6,12.5v0.8c0,0.1-0.1,0.1-0.1,0v-0.8C4.5,12.4,4.6,12.4,4.6,12.5z"/>
			<path fill="#74471D" d="M3.9,12.4v1c0,0.1-0.1,0.1-0.1,0v-1C3.8,12.3,3.9,12.3,3.9,12.4z"/>
			<path fill="#74471D" d="M3.3,12.4c0,0.4,0,0.8,0,1.2c0,0.1-0.1,0.1-0.1,0c0-0.4,0-0.8,0-1.2C3.2,12.3,3.3,12.3,3.3,12.4z"/>
		</g>
		<path fill="#74471D" d="M14.1,10c0.2,0.2,0.5,0.2,0.7,0.2c0.3,0,0.6,0.2,0.9,0.2c0.8,0.2,1.6,0.1,2.4,0.1c1.5,0,3.1,0,4.5-0.6
			c0.3-0.1,0.4,0.3,0.1,0.4C21.3,11,19.5,11,17.9,11c-0.8,0-1.7,0-2.5-0.2c-0.3-0.1-0.7-0.2-1-0.2c-0.2,0-0.4-0.1-0.6-0.3
			C13.6,10.1,13.9,9.8,14.1,10z"/>
		<path fill="#74471D" d="M18.3,24.5c1.5,0,3-0.5,4-1.7c1-1.1,1.7-2.7,2-4.1c0.3-1.5,0.2-3-0.2-4.4c-0.1-0.4-0.1-0.7-0.3-1.1
			c-0.1-0.3-0.2-0.6-0.3-1c-0.1-0.3-0.3-0.7-0.4-1c-0.1-0.3-0.2-0.6-0.4-0.9c-0.2-0.2,0.1-0.5,0.3-0.3c0.2,0.2,0.3,0.5,0.4,0.8
			c0.1,0.3,0.3,0.7,0.5,1c0.1,0.4,0.1,0.7,0.3,1.1c0.2,0.4,0.2,0.8,0.3,1.3c0.1,0.4,0.2,0.8,0.3,1.2c0.1,0.4,0.1,0.8,0.1,1.2
			c0,0.8-0.1,1.7-0.2,2.5c-0.3,1.6-1.1,3.1-2.2,4.3c-1.1,1.2-2.7,1.6-4.2,1.7C18,25,18,24.5,18.3,24.5z"/>
		<path fill="#74471D" d="M18.5,24.5c-1.5,0-3-0.5-4-1.7c-1-1.1-1.7-2.7-2-4.1c-0.3-1.5-0.2-3,0.2-4.4c0.1-0.4,0.1-0.7,0.3-1.1
			c0.1-0.3,0.2-0.6,0.3-1c0.1-0.3,0.3-0.7,0.4-1c0.1-0.3,0.2-0.6,0.4-0.9c0.2-0.2-0.1-0.5-0.3-0.3c-0.2,0.2-0.3,0.5-0.4,0.8
			c-0.1,0.3-0.3,0.7-0.5,1c-0.1,0.4-0.1,0.7-0.3,1.1c-0.2,0.4-0.2,0.8-0.3,1.3c-0.1,0.4-0.2,0.8-0.3,1.2c-0.1,0.4-0.1,0.8-0.1,1.2
			c0,0.8,0.1,1.7,0.2,2.5c0.3,1.6,1.1,3.1,2.2,4.3c1.1,1.2,2.7,1.6,4.2,1.7C18.8,25,18.8,24.5,18.5,24.5z"/>
		<path fill="#74471D" d="M19.3,15.4C19.3,15.4,19.3,15.4,19.3,15.4c0,0.2,0.1,0.2,0.2,0.3c0.2,0,0.4,0,0.5-0.1
			c0.3-0.1,0.6-0.2,1-0.2c0.6,0,1.3,0,1.8,0.3c0.5,0.3,0.8-0.5,0.8-1c0.1-0.1,0.2-0.3,0-0.4c-0.8-0.5-1.6-0.6-2.5-0.4
			c-0.8,0.2-1.4,0.5-1.7,1.2C19.3,15.2,19.2,15.2,19.3,15.4z M19.9,15.1c0.6-1,2.2-1,3.2-0.5c0,0.2-0.1,0.4-0.2,0.6
			c0,0.1,0,0.1,0,0.1c0,0,0-0.1,0-0.1c-0.4-0.1-0.7-0.2-1.1-0.3c-0.4-0.1-0.8,0-1.2,0C20.5,14.9,20.2,15,19.9,15.1z"/>
		<path fill="#74471D" d="M17.6,15.1c-0.3-0.7-0.9-1-1.7-1.2c-0.9-0.2-1.7-0.1-2.5,0.4c-0.2,0.1-0.1,0.3,0,0.4
			c0.1,0.5,0.4,1.4,0.8,1c0.5-0.3,1.2-0.3,1.8-0.3c0.4,0,0.6,0.1,1,0.2c0.2,0.1,0.4,0.1,0.5,0.1c0.1,0,0.1-0.1,0.2-0.2
			c0,0,0-0.1,0-0.1C17.8,15.2,17.7,15.2,17.6,15.1z M16.4,14.9c-0.4,0-0.8-0.1-1.2,0c-0.4,0.1-0.7,0.2-1.1,0.3c0,0,0,0.1,0,0.1
			c0,0,0-0.1,0-0.1c-0.1-0.2-0.2-0.4-0.2-0.6c1-0.5,2.6-0.4,3.2,0.5C16.9,15,16.5,14.9,16.4,14.9z"/>
		<path fill="#74471D" d="M14.5,17.7c0.3,0.6,0.7,1.3,1.3,1.7c0.7,0.5,1.7,0.6,2.5,0.6c0.9,0,1.6,0,2.4-0.3c0.4-0.1,0.7-0.4,1-0.7
			c0.3-0.3,0.6-0.8,0.7-1.2c0-0.3,0.5-0.3,0.5,0c-0.1,0.7-0.7,1.5-1.3,2c-0.7,0.6-2,0.7-2.9,0.7c-1,0-2-0.1-2.9-0.5
			c-0.8-0.4-1.4-1.2-1.7-2C14,17.6,14.4,17.4,14.5,17.7z"/>
		<path fill="#74471D" d="M14.5,17.7c0.1,1.1,0.8,2,1.3,2.9c0.2,0.4,0.5,0.8,0.9,1c0.5,0.3,1.1,0.4,1.7,0.4c1.1,0,2.1-0.3,2.9-1
			c0.4-0.4,0.7-1,0.9-1.5c0.2-0.5,0.3-1.1,0.4-1.7c0-0.3,0.5-0.3,0.5,0c0,0.6-0.2,1.2-0.4,1.8c-0.1,0.6-0.5,1.1-0.9,1.6
			c-0.8,0.9-2,1.2-3.1,1.3c-1.1,0.1-2.2-0.3-2.9-1.2c-0.7-1-1.5-2.3-1.6-3.5C14,17.4,14.5,17.5,14.5,17.7z"/>
		<g>
			<path fill="#74471D" d="M2.5,8.9C2.7,9.1,3,9,3.2,9c0.3,0,0.7,0.1,1,0.1C4.9,9.2,5.8,9.1,6.5,9C8,8.8,9.6,8.6,11,7.9
				c0.3-0.1,0.4,0.3,0.2,0.4C9.7,9.1,8,9.3,6.4,9.4C5.6,9.5,4.7,9.6,3.9,9.6c-0.4,0-0.7-0.1-1.1-0.1c-0.2,0-0.5,0-0.6-0.2
				C2,9.1,2.2,8.7,2.5,8.9z"/>
			<path fill="#74471D" d="M13,11.9c0,0.1,0,0.2,0,0.3c0,0,0-0.1-0.1-0.1c-0.2-0.3-0.2-0.7-0.4-1.1c-0.1-0.3-0.3-0.6-0.4-0.9
				c-0.1-0.3-0.3-0.6-0.5-0.9c-0.2-0.3-0.3-0.6-0.5-0.9c-0.2-0.2,0.1-0.6,0.3-0.4c0.2,0.2,0.4,0.5,0.5,0.7c0.2,0.3,0.4,0.6,0.6,1
				c0.2,0.4,0.2,0.7,0.4,1.1c0.2,0.3,0.3,0.6,0.4,0.9C13.1,11.6,13,11.7,13,11.9z"/>
			<path fill="#74471D" d="M8.3,22.9c1.5-0.2,2.9-0.9,3.8-2.1c0.2-0.3,0.4-0.6,0.5-0.9c0.1,0.2,0.1,0.3,0.2,0.5
				c-0.2,0.3-0.3,0.5-0.5,0.8c-0.9,1.3-2.5,1.9-4,2.1C8,23.4,8,22.9,8.3,22.9z"/>
			<path fill="#74471D" d="M8.5,22.8c-1.5,0.1-3-0.2-4.2-1.2c-1.2-1-2-2.4-2.5-3.9c-0.5-1.4-0.6-3-0.3-4.4c0.1-0.4,0.1-0.7,0.1-1.1
				c0.1-0.3,0.1-0.6,0.2-1c0-0.3,0.2-0.7,0.3-1c0.1-0.3,0.1-0.7,0.3-1C2.6,9,2.3,8.7,2.1,9C2,9.2,1.9,9.5,1.8,9.8
				c-0.1,0.4-0.3,0.7-0.3,1.1c-0.1,0.4-0.1,0.8-0.2,1.1c-0.1,0.4-0.1,0.8-0.2,1.3c0,0.4-0.1,0.8-0.2,1.3c0,0.4,0,0.8,0,1.2
				c0,0.8,0.2,1.6,0.5,2.4C2,19.6,3,21,4.2,22.1c1.2,1,2.8,1.3,4.4,1.2C8.8,23.3,8.8,22.8,8.5,22.8z"/>
		</g>
		<path fill="#74471D" d="M8.2,12c0.4,0.7,1,0.9,1.8,1c0.9,0.1,1.7-0.1,2.4-0.6c0.2-0.1,0.1-0.3,0-0.4c-0.1-0.5-0.5-1.3-1-0.9
			c-0.4,0.4-1.2,0.5-1.7,0.5c-0.4,0-0.7,0-1-0.1c-0.2-0.1-0.4,0-0.5,0c-0.1,0-0.1,0.1-0.1,0.2c0,0,0,0.1,0,0.1
			C8,11.9,8.1,11.9,8.2,12z M9.4,12c0.4,0,0.8,0,1.2-0.1c0.4-0.1,0.7-0.3,1-0.4c0,0,0-0.1,0-0.1c0,0,0,0.1,0.1,0.1
			c0.1,0.2,0.2,0.4,0.3,0.6C11,12.7,9.5,12.8,8.7,12C8.9,12,9.3,12,9.4,12z"/>
		<path fill="#74471D" d="M6.5,11.9C6.5,11.9,6.5,11.8,6.5,11.9c0-0.2-0.1-0.2-0.2-0.2c-0.2,0-0.4,0-0.5,0.1c-0.3,0.2-0.6,0.3-1,0.3
			C4.3,12.2,3.5,12.3,3,12c-0.5-0.3-0.7,0.6-0.7,1.1c-0.1,0.1-0.1,0.3,0,0.4c0.8,0.4,1.6,0.4,2.5,0.1c0.8-0.3,1.3-0.6,1.6-1.4
			C6.5,12.1,6.5,12,6.5,11.9z M5.9,12.3c-0.5,1-2.1,1.3-3.1,0.9c0-0.2,0.1-0.5,0.1-0.7c0-0.1,0-0.1,0-0.1c0,0,0,0.1,0.1,0.1
			c0.4,0.1,0.7,0.2,1.1,0.2c0.4,0,0.8-0.1,1.2-0.1C5.3,12.5,5.7,12.4,5.9,12.3z"/>
		<path fill="#74471D" d="M4.2,20.2c0.2-0.7,0.6-1.3,1.1-1.8c0.6-0.6,1.6-0.8,2.5-0.9c0.8-0.1,1.6-0.1,2.4,0c0.5,0.1,0.7,0.3,1,0.6
			c0.3,0.3,0.7,0.7,0.8,1.1c0.1,0.3,0.5,0.2,0.5-0.1c-0.2-0.7-0.9-1.5-1.5-1.9C10.3,16.8,9,16.9,8.1,17c-1,0.1-2,0.3-2.8,0.8
			c-0.8,0.5-1.2,1.4-1.5,2.2C3.7,20.3,4.1,20.5,4.2,20.2z"/>
		<path fill="#74471D" d="M4.2,20.1c-0.1-1.1,0.5-2,0.9-3c0.2-0.4,0.4-0.8,0.8-1.1c0.4-0.3,1.1-0.5,1.6-0.6c1.1-0.2,2.1,0,3,0.7
			c0.5,0.4,0.8,0.9,1,1.4c0.2,0.5,0.5,1.1,0.5,1.6c0,0.3,0.5,0.2,0.5-0.1c-0.1-0.6-0.4-1.2-0.6-1.7c-0.2-0.6-0.6-1.1-1.1-1.5
			c-0.9-0.8-2.1-1-3.3-0.9c-1.1,0.1-2.2,0.6-2.7,1.6c-0.6,1.1-1.3,2.4-1.2,3.7C3.7,20.5,4.2,20.4,4.2,20.1z"/>
	</g>
</g>
<line fill="none" x1="22.7" y1="6.2" x2="22.7" y2="3.4"/>
</svg>
