<?xml version="1.0"?>
<svg xmlns="http://www.w3.org/2000/svg" xmlns:xlink="http://www.w3.org/1999/xlink" xmlns:svgjs="http://svgjs.com/svgjs" version="1.1" width="512" height="512" x="0" y="0" viewBox="0 0 428 428.90411" style="enable-background:new 0 0 512 512" xml:space="preserve" class=""><g><path xmlns="http://www.w3.org/2000/svg" d="m283.6875 196.753906c-11.65625-14.082031-37.519531-45.316406-53.207031-64.253906-8.320313-10.054688-12.863281-22.671875-12.863281-35.71875v-8.542969h-143.359376l13.414063 51.296875c4.492187 19.464844.375 39.925782-11.292969 56.140625l-61.6875 62.578125c-10.417968 11.199219-9.785156 28.726563 1.414063 39.148438 12.535156 11.667968 32.15625 10.960937 43.820312-1.582032l32.472657-34.910156c14.894531-16.007812 41.660156-8.382812 45.871093 13.078125l3.679688 18.738281-25.078125 11.046876c-12.042969 5.308593-17.203125 19.609374-11.316406 31.375 5.433593 10.875 18.375 15.648437 29.570312 10.914062l15.972656-6.753906 10.488282 59.621094c2.789062 14.199218 17.25 25.71875 31.394531 22.660156 16.417969-3.546875 23.808593-14.601563 20.683593-30.492188l-14.054687-77.789062 37.464844-20.613282c28.6875-15.542968 54.648437-45.5 53.617187-78.113281l-.007812-.105469c-.207032-6.523437-2.832032-12.695312-6.996094-17.722656zm0 0" fill="#ffded5" data-original="#ffd578" style=""/><g xmlns="http://www.w3.org/2000/svg" fill="#54596e"><path d="m283.6875 196.75 5.257812-4.351562c-11.65625-14.082032-37.519531-45.316407-53.203124-64.253907-7.308594-8.828125-11.296876-19.902343-11.296876-31.363281v-8.539062c0-1.804688-.722656-3.5625-1.996093-4.828126-1.273438-1.273437-3.03125-2-4.828125-2h-143.363282c-2.117187 0-4.105468.972657-5.402343 2.652344-1.292969 1.679688-1.734375 3.847656-1.195313 5.902344l13.410156 51.289062 6.601563-1.726562-6.648437 1.539062c1.074218 4.652344 1.601562 9.371094 1.601562 14.0625 0 12.996094-4.050781 25.808594-11.78125 36.550782l5.539062 3.988281-4.863281-4.792969-61.6875 62.578125-.136719.148438c-6.171874 6.628906-9.253906 15.109375-9.242187 23.503906-.007813 9.226563 3.710937 18.496094 11.003906 25.285156 7.269531 6.765625 16.5625 10.140625 25.765625 10.132813 10.117188.011718 20.265625-4.0625 27.703125-12.058594l32.476563-34.917969c4.160156-4.445312 9.253906-6.359375 14.460937-6.382812 4.492188-.003907 8.980469 1.523437 12.519531 4.285156 3.535157 2.773437 6.160157 6.667969 7.191407 11.847656l2.628906 13.378907-20.082031 8.84375c-11.207032 4.945312-17.839844 15.910156-17.828125 27.34375-.003907 4.484374 1.019531 9.058593 3.15625 13.332031 5.207031 10.40625 15.726562 16.519531 26.714843 16.507812 3.890626 0 7.847657-.765625 11.617188-2.359375h.007812l8.074219-3.414062 9.003907 51.175781.027343.132813c1.578125 7.96875 5.933594 14.984374 11.804688 20.136718 5.875 5.136719 13.429687 8.511719 21.628906 8.523438 2.019531 0 4.0625-.207032 6.082031-.640625l.019532-.003907c7.988281-1.71875 14.773437-5.15625 19.5625-10.496093 4.816406-5.316407 7.246093-12.378907 7.207031-19.847657 0-2.652343-.285157-5.367187-.828125-8.140624l-6.699219 1.316406 6.722656-1.210938-13.1875-72.960937 33.167969-18.246094-.039062.023437c14.898437-8.085937 29-19.722656 39.578124-33.78125 10.546876-14.039062 17.632813-30.652343 17.640626-48.453124 0-.703126-.007813-1.402344-.035157-2.097657l-.011719-.316406-6.816406.425781 6.828125-.226562c-.277343-8.230469-3.566406-15.808594-8.570312-21.847656l-5.261719 4.351562-5.253906 4.355469c3.316406 4.011719 5.28125 8.78125 5.433594 13.589843l.007812.203126.007812.109374 6.8125-.429687-6.828124.214844.027343 1.671875c.015625 14.078125-5.664062 27.953125-14.898437 40.25-9.214844 12.273437-21.9375 22.8125-35.175782 29.976562l-.035156.019532-37.464844 20.617187c-2.570312 1.40625-3.953124 4.3125-3.433593 7.191406l14.0625 77.785157.019531.105468c.390625 1.992188.570312 3.832032.570312 5.503906-.039062 4.75-1.324218 8.015626-3.714843 10.730469-2.410157 2.6875-6.324219 4.976563-12.285157 6.269531l.015626-.003906c-1.082032.234375-2.164063.34375-3.234376.34375-4.320312.015625-8.890624-1.863281-12.632812-5.148437-3.75-3.261719-6.5-7.828125-7.40625-12.496094l-6.699219 1.320313 6.726563-1.1875-10.492188-59.617188c-.359375-2.042969-1.640625-3.828125-3.457031-4.8125-1.828125-.992188-4.015625-1.101562-5.921875-.296875l-15.976562 6.753906h.003906c-2.074219.878907-4.203125 1.28125-6.304688 1.285157-5.972656-.007813-11.679687-3.300782-14.5-8.960938-1.175781-2.355469-1.714844-4.800781-1.71875-7.226562.007813-6.21875 3.582032-12.167969 9.683594-14.847657l25.074219-11.042969c2.925781-1.292968 4.566406-4.433593 3.953125-7.566406l-3.6875-18.742187c-1.632813-8.417969-6.203125-15.34375-12.199219-19.988281-6-4.660157-13.378906-7.152344-20.90625-7.160157-8.699219-.027343-17.710937 3.449219-24.464844 10.738281l-32.464843 34.914063c-4.777344 5.125-11.203126 7.699219-17.710938 7.707031-5.914062-.007812-11.785156-2.128906-16.460938-6.476562-4.433593-4.128906-6.648437-9.671875-6.65625-15.289063.007813-5.109375 1.839844-10.171875 5.589844-14.207031l-4.996094-4.652344 4.859376 4.792969 61.6875-62.582031.679687-.804688c9.417969-13.085937 14.359375-28.691406 14.359375-44.523437 0-5.71875-.644531-11.464844-1.953125-17.140625l-.050781-.191406-11.175782-42.738282h127.695313v1.714844c0 14.628906 5.09375 28.796875 14.433594 40.074219 15.683593 18.9375 41.546875 50.171875 53.203125 64.25z" fill="#4c241d" data-original="#54596e" style="" class=""/><path d="m134.777344 291.632812 10.382812 53.3125c.722656 3.699219 4.304688 6.113282 8.007813 5.394532s6.117187-4.304688 5.398437-8.007813l-10.386718-53.3125c-.71875-3.699219-4.304688-6.113281-8.003907-5.394531-3.703125.722656-6.117187 4.304688-5.398437 8.007812" fill="#4c241d" data-original="#54596e" style="" class=""/><path d="m206.8125 314.53125-10.566406-65.773438c-.597656-3.726562-4.097656-6.253906-7.820313-5.660156-3.722656.601563-6.257812 4.101563-5.660156 7.824219l10.566406 65.773437c.597657 3.722657 4.101563 6.253907 7.824219 5.65625 3.722656-.59375 6.253906-4.097656 5.65625-7.820312" fill="#4c241d" data-original="#54596e" style="" class=""/><path d="m224.917969 248.015625-5.316407 49.75c-.402343 3.75 2.3125 7.113281 6.0625 7.515625 3.75.398438 7.113282-2.3125 7.511719-6.0625l5.316407-49.753906c.402343-3.75-2.3125-7.113282-6.0625-7.511719-3.746094-.402344-7.109376 2.3125-7.511719 6.0625" fill="#4c241d" data-original="#54596e" style="" class=""/><path d="m260.691406 227.546875v38.253906c0 3.769531 3.058594 6.824219 6.828125 6.824219s6.828125-3.054688 6.828125-6.824219v-38.253906c0-3.773437-3.058594-6.828125-6.828125-6.828125s-6.828125 3.054688-6.828125 6.828125" fill="#4c241d" data-original="#54596e" style="" class=""/></g><path xmlns="http://www.w3.org/2000/svg" d="m229.292969 6.828125v81.917969h-170.671875v-81.917969z" fill="#ffffff" data-original="#ffffff" style="" class=""/><path xmlns="http://www.w3.org/2000/svg" d="m229.292969 6.828125h-6.832031v75.09375h-157.011719v-68.273437l163.84375.003906v-6.824219h-6.832031 6.832031v-6.828125h-170.671875c-1.792969 0-3.554688.726562-4.828125 2-1.265625 1.273438-1.996094 3.03125-1.996094 4.828125v81.917969c0 1.824218.710937 3.535156 1.996094 4.828125 1.292969 1.289062 3.003906 1.996093 4.828125 1.996093h170.671875c1.824219 0 3.535156-.707031 4.820312-1.996093 1.292969-1.292969 2.003907-3.003907 2.003907-4.828125v-81.917969c0-1.796875-.730469-3.554687-2.003907-4.828125-1.265625-1.273438-3.027343-2-4.820312-2z" fill="#4c241d" data-original="#54596e" style="" class=""/><path xmlns="http://www.w3.org/2000/svg" d="m201.980469 47.785156c0 7.542969-6.109375 13.65625-13.652344 13.65625-7.539063 0-13.652344-6.113281-13.652344-13.65625 0-7.539062 6.113281-13.652344 13.652344-13.652344 7.542969 0 13.652344 6.113282 13.652344 13.652344zm0 0" fill="#4c241d" data-original="#54596e" style="" class=""/><path xmlns="http://www.w3.org/2000/svg" d="m113.238281 13.652344h-47.792969v68.269531h47.792969z" fill="#e6e6e9" data-original="#e6e6e9" style="" class=""/></g></svg>
