<?xml version="1.0" encoding="utf-8"?>
<!-- Generator: Adobe Illustrator 18.1.1, SVG Export Plug-In . SVG Version: 6.00 Build 0)  -->
<svg version="1.1" id="Layer_1" xmlns="http://www.w3.org/2000/svg" xmlns:xlink="http://www.w3.org/1999/xlink" x="0px" y="0px"
	 viewBox="-388 -304.3 169.9 168" enable-background="new -388 -304.3 169.9 168" xml:space="preserve">
<pattern  y="425.2" width="369.6" height="364.9" patternUnits="userSpaceOnUse" id="SVGID_1" viewBox="0 -364.9 369.6 364.9" overflow="visible">
	<g>
		<polygon fill="none" points="0,-364.9 369.6,-364.9 369.6,0 0,0 		"/>
		<g>
			<g>
				<path fill="#774A25" d="M50.1-284.9c0.1,0.1,0.4,0.2,0.4,0.2s0,0.1,0,0.1s0,0.2-0.1,0.4c-0.1,0.6-0.1,1.1-0.1,1.2
					c0,0.2,0,0.2,0,0.2c0.1,0.1,0.1,0.1,0.2-0.1c0.2-0.2,0.3-0.3,0.4-0.4c0.1-0.1,0.2-0.2,0.3-0.3c0.1-0.1,0.2-0.2,0.2-0.2
					c0.1,0,0.1-0.1,0.1-0.1c0,0,0,0,0.1,0s0.1,0,0.1,0c0.1,0,0.4,0.2,0.7,0.3c0,0,0.1,0.1,0.2,0.1c0.2,0.1,0.4,0.2,0.4,0.2
					c0.1,0,0.1,0.1,0.2,0.1c0.1,0,0.1,0.1,0.1,0.1h0.1c0,0-0.1-0.2-0.1-0.3c0,0-0.1-0.1-0.1-0.2c-0.1-0.1-0.2-0.3-0.3-0.5
					c-0.1-0.2-0.2-0.4-0.2-0.4c-0.1-0.1-0.1-0.2-0.1-0.2s0.1-0.2,0.2-0.2c0.1,0,0.1-0.1,0.2-0.2c0.1-0.1,0.2-0.2,0.2-0.2
					c0.1-0.1,0.2-0.2,0.2-0.2c0.1-0.1,0.1-0.1,0.2-0.2c0.1,0,0.1-0.1,0.2-0.2c0.1-0.1,0.1-0.1,0.1-0.1l0,0c0,0,0-0.1,0-0.2
					c0,0,0,0-0.1,0c-0.1,0-0.1,0-0.1,0s-0.1,0-0.2,0.1c-0.1,0-0.2,0-0.3,0.1c-0.1,0-0.3,0-0.4,0.1c-0.2,0-0.4,0-0.5,0.1h-0.2
					l-0.2,0.1c-0.1-0.1-0.3-0.6-0.3-0.6l0,0c0,0-0.2-0.3-0.2-0.4v-0.1c0,0-0.1-0.1-0.1-0.2s-0.1-0.1-0.1-0.2
					c-0.1-0.1-0.1-0.1-0.1-0.1h-0.1c0,0,0,0.1,0,0.2c0,0.2-0.1,0.7-0.1,0.9c0,0,0,0.1,0,0.2c-0.1,0.2-0.1,0.4-0.1,0.4s-0.1,0-0.1,0
					c-0.2,0-0.5,0.1-0.6,0.1c-0.2,0-0.5,0-0.7,0c-0.1,0-0.2,0-0.2,0s0,0-0.1,0c0,0-0.1,0.1-0.1,0.1c0,0.1,0.1,0.1,0.4,0.2
					c0.1,0.1,0.2,0.1,0.3,0.2S50.1-284.9,50.1-284.9z"/>
				<path fill="#774A25" d="M49.9-285.4c0.1,0,0.2-0.1,0.3-0.1s0.2,0,0.2,0s0.1,0,0.2,0c0.1,0,0.2,0,0.2,0s0.1,0,0.1-0.1l0.1-0.1
					l0.1-0.2c0.1-0.4,0.2-0.6,0.2-1v-0.2v0.1c0.1,0.1,0.2,0.4,0.3,0.6c0.1,0.1,0.1,0.2,0.1,0.2s0.2,0.3,0.2,0.3
					c0.1,0.1,0.1,0.1,0.3,0c0.1,0,0.3-0.1,0.6-0.1c0.4,0,0.4,0,0.7-0.1l0,0c0.1,0,0.2,0,0.2,0c0,0-0.1,0.1-0.1,0.1
					c-0.1,0.1-0.4,0.4-0.6,0.5c-0.1,0.1-0.1,0.2-0.2,0.2s-0.2,0.3-0.2,0.3c-0.1,0.1-0.1,0.1-0.1,0.2s0.1,0.2,0.2,0.3
					c0.1,0.1,0.6,0.9,0.6,0.9h-0.1c-0.1-0.1-0.2-0.1-0.5-0.2c-0.3-0.1-0.6-0.2-0.7-0.3c0,0-0.1,0-0.1-0.1c-0.1-0.1-0.1-0.1-0.2,0
					c-0.1,0-0.2,0.2-0.5,0.5c-0.4,0.3-0.6,0.5-0.6,0.5s-0.1,0.1,0-0.4c0-0.2,0.1-0.5,0.1-0.6c0-0.2,0-0.4,0.1-0.4
					c0.1-0.2,0-0.2-0.1-0.3c-0.1-0.1-0.1-0.1-0.2-0.2c-0.1-0.1-0.1-0.1-0.5-0.3l-0.2-0.1L49.9-285.4z"/>
			</g>
			<g>
				<path fill="#774A25" d="M11.6-57.8C11.6-57.8,11.6-57.8,11.6-57.8l-0.1-0.1c0,0-0.1-0.1-0.1-0.2c0-0.1,0-0.1,0-0.1
					s-0.1-0.1-0.1-0.2c-0.1-0.1-0.1-0.2-0.1-0.2c0,0,0,0,0-0.1c0-0.1-0.1-0.1-0.1-0.1s0.1,0.9,0.2,1.1c0.1,0.1,0.1,0.1,0.1,0.1
					s0.1,0,0.1,0C11.5-57.7,11.6-57.8,11.6-57.8L11.6-57.8z"/>
				<path fill="#774A25" d="M14.4-57.1c-0.2,0-0.6-0.1-1.1-0.2c-0.1,0-0.3-0.1-0.4-0.1s-0.1,0-0.1,0s-0.1-0.1-0.1-0.4
					c0-0.1-0.1-0.2-0.1-0.2c0-0.1-0.1-0.2-0.1-0.2c0-0.1-0.1-0.2-0.1-0.2c-0.1-0.1-0.1-0.4-0.1-0.6c0-0.1-0.1-0.2-0.1-0.2
					s-0.1,0-0.1,0.1c-0.1,0.2-0.2,0.6-0.2,0.8c0,0.1-0.1,0.2-0.1,0.2c0,0.1-0.1,0.2-0.1,0.4l-0.1,0.2l-0.1,0.1
					c-0.2,0.1-0.3,0.1-0.4,0.2c-0.1,0-0.2,0.1-0.2,0.1c-0.2,0.1-0.7,0.3-0.9,0.3c-0.1,0-0.1,0-0.1,0.1c0,0,0,0,0,0.1
					c0,0.1,0.1,0.1,0.1,0.1c0,0,0.1,0,0.2,0c0.1,0,0.2,0,0.6,0.1c0.2,0,0.7,0.1,0.9,0.1c0.1,0,0.1,0,0.2,0.3c0,0.1,0.1,0.2,0.1,0.2
					c0.1,0.2,0.1,0.2,0.1,0.3c0,0.1,0.1,0.1,0.1,0.2c0,0.1,0.1,0.2,0.1,0.3c0,0.1,0.1,0.2,0.1,0.2c0,0,0,0.1,0,0.1
					c0,0.1,0.1,0.1,0.1,0.1c0,0,0.1-0.1,0.1-0.1c0-0.1,0-0.2,0.1-0.2c0.1-0.2,0.1-0.3,0.1-0.5c0-0.1,0.1-0.2,0.1-0.4
					c0-0.1,0.1-0.2,0.1-0.3c0-0.1,0.1-0.1,0.1-0.2c0.1,0,0.2-0.1,0.4-0.1c0.1,0,0.2-0.1,0.4-0.2c0.1-0.1,0.2-0.1,0.3-0.1
					s0.2-0.1,0.2-0.1c0.1,0,0.3-0.1,0.4-0.2C14.8-57,14.7-57,14.4-57.1z"/>
				<path fill="#774A25" d="M10.5-56.7C10.4-56.7,10.4-56.7,10.5-56.7C10.4-56.7,10.5-56.8,10.5-56.7C10.7-56.8,10.6-56.8,10.5-56.7
					z"/>
				<path fill="#774A25" d="M11.3-57L11.3-57c0.1-0.1,0.1-0.1,0.1,0l0,0H11.3C11.3-57,11.3-57,11.3-57z"/>
				<path fill="#774A25" d="M11.5-56.5L11.5-56.5L11.5-56.5C11.5-56.6,11.5-56.6,11.5-56.5C11.5-56.6,11.5-56.6,11.5-56.5
					C11.6-56.5,11.6-56.5,11.5-56.5z"/>
				<path fill="#774A25" d="M11.8-57.4L11.8-57.4C11.8-57.5,11.8-57.5,11.8-57.4C11.9-57.4,11.8-57.4,11.8-57.4z"/>
				<path fill="#774A25" d="M12-57.2C11.9-57.2,11.9-57.2,12-57.2C11.9-57.3,11.9-57.3,12-57.2L12-57.2L12-57.2z"/>
				<path fill="#774A25" d="M12.1-55.7L12.1-55.7C12.1-55.7,12.2-55.7,12.1-55.7C12.2-55.7,12.1-55.7,12.1-55.7z"/>
				<path fill="#774A25" d="M12.5-57.8C12.5-57.8,12.5-57.8,12.5-57.8C12.5-57.7,12.5-57.7,12.5-57.8C12.4-57.8,12.4-57.8,12.5-57.8
					z"/>
				<path fill="#774A25" d="M12.4-57L12.4-57C12.4-57,12.4-57,12.4-57C12.4-57,12.4-57,12.4-57z"/>
				<path fill="#774A25" d="M12.5-56.8L12.5-56.8h-0.1l-0.1-0.1h0.1C12.4-56.8,12.5-56.8,12.5-56.8C12.5-56.8,12.5-56.8,12.5-56.8z"
					/>
				<path fill="#774A25" d="M12.8-56.5c-0.1,0-0.1,0-0.1-0.1C12.6-56.6,12.8-56.5,12.8-56.5C12.9-56.5,12.9-56.5,12.8-56.5z"/>
				<path fill="#774A25" d="M12.9-56.8C12.8-56.8,12.8-56.8,12.9-56.8C12.9-56.8,12.9-56.8,12.9-56.8C13-56.8,13-56.8,12.9-56.8z"/>
				<path fill="#774A25" d="M13.1-56.5L13.1-56.5L13.1-56.5C13.2-56.7,13.2-56.7,13.1-56.5C13.3-56.5,13.3-56.5,13.1-56.5z"/>
				<path fill="#774A25" d="M13.2-57.2c-0.1,0-0.1,0-0.1-0.1l0,0L13.2-57.2C13.3-57.2,13.3-57.2,13.2-57.2z"/>
				<path fill="#774A25" d="M13.4-56.6L13.4-56.6L13.4-56.6L13.4-56.6z"/>
				<path fill="#774A25" d="M13.6-56.7C13.6-56.7,13.6-56.7,13.6-56.7L13.6-56.7C13.7-56.7,13.7-56.7,13.6-56.7z"/>
				<path fill="#774A25" d="M13.8-57L13.8-57C13.8-57,13.8-57.1,13.8-57C13.8-57.1,13.8-57.1,13.8-57C13.9-57,13.9-57,13.8-57z"/>
				<path fill="#774A25" d="M14.1-56.9C14.1-56.9,14-56.9,14.1-56.9C14.1-56.9,14.1-56.9,14.1-56.9L14.1-56.9L14.1-56.9z"/>
				<path fill="#774A25" d="M13.9-56c-0.1,0-0.2-0.1-0.3-0.1c-0.1-0.1-0.4-0.1-0.4-0.1c-0.1,0.1,0,0.1,0.1,0.1c0,0,0.2,0,0.3,0.1
					c0.2,0.1,0.4,0.1,0.4,0.1l0,0C14.1-55.9,14.1-55.9,13.9-56z"/>
				<path fill="#774A25" d="M13.1-57.7C13.1-57.7,13.1-57.6,13.1-57.7c0.1,0.1,0.1,0.1,0.2,0.1c0.1,0,0.2,0,0.2-0.1
					c0.1,0,0.2-0.1,0.2-0.1c0.1,0,0.2-0.1,0.2-0.1c0-0.1,0-0.1-0.2,0C13.6-57.8,13.1-57.7,13.1-57.7z"/>
				<path fill="#774A25" d="M13-55.8c0-0.1-0.1-0.1-0.1-0.1c-0.1,0-0.1,0,0,0.2c0.1,0.1,0.2,0.6,0.3,0.6c0.1,0.1,0.1,0.1,0.1,0.1
					s0,0,0-0.1c0-0.1,0-0.1-0.1-0.2C13.1-55.5,13.1-55.7,13-55.8z"/>
				<path fill="#774A25" d="M14-55.5c-0.1-0.1-0.2-0.1-0.2-0.2c-0.1-0.1-0.2-0.1-0.2-0.1c0,0.1,0.2,0.2,0.3,0.2
					C13.9-55.4,14-55.4,14-55.5C14.1-55.4,14.1-55.4,14-55.5z"/>
				<path fill="#774A25" d="M13.4-58c0.1,0,0.1,0,0.1-0.1c0.1-0.1,0.2-0.2,0.2-0.3c0,0,0,0,0-0.1l0.1-0.1c0-0.1,0-0.1,0-0.1
					s-0.1,0.1-0.2,0.2c-0.1,0.1-0.2,0.2-0.2,0.2C13.2-58.1,13.3-58,13.4-58z"/>
				<path fill="#774A25" d="M13-57.7c0,0,0-0.1,0-0.2c0-0.1,0-0.2,0-0.3c0-0.1,0-0.1,0-0.1v-0.3c0,0-0.1,0.1-0.1,0.4
					c0,0.1-0.1,0.2-0.1,0.3c0,0.1-0.1,0.2-0.1,0.2s0.1,0.1,0.1,0.1C13-57.7,13-57.7,13-57.7z"/>
				<path fill="#774A25" d="M11.3-56.1c0,0,0-0.1-0.1-0.1c-0.1,0-0.1,0-0.2,0.1c-0.1,0-0.2,0.1-0.3,0.2c-0.3,0.2-0.6,0.3-0.6,0.3
					s0.1,0,0.2-0.1C10.7-55.8,11.1-56,11.3-56.1z"/>
				<path fill="#774A25" d="M10.2-57.9L10.2-57.9C10.1-58,10-58,10-58H10c-0.1,0-0.1,0-0.1,0c0,0.1,0.6,0.4,0.9,0.5
					c0.2,0.1,0.4,0.1,0.4,0c0.1-0.1,0-0.1-0.1-0.1c-0.2,0-0.3-0.1-0.7-0.2C10.3-57.9,10.2-57.9,10.2-57.9z"/>
				<path fill="#774A25" d="M10.8-55.7L10.8-55.7c-0.1,0.1-0.1,0.2-0.2,0.4c0,0.1-0.1,0.1-0.1,0.2c0,0,0.1,0,0.1-0.1c0-0.1,0,0,0,0
					l0,0c0.2-0.3,0.3-0.4,0.3-0.5c0,0,0,0,0-0.1C11-55.8,11-55.8,10.8-55.7z"/>
				<path fill="#774A25" d="M11.3-55.2c0.1,0,0.1-0.1,0.1-0.2c0,0,0-0.1,0-0.1s0-0.1,0-0.1s0-0.1,0.1-0.2c0-0.1,0-0.1,0-0.2
					c0-0.1-0.1-0.1-0.1-0.1c-0.1,0-0.1,0.2-0.1,0.4C11.3-55.2,11.3-55.2,11.3-55.2z"/>
				<path fill="#774A25" d="M11-58c0,0-0.1-0.1-0.1-0.1c-0.1-0.1-0.1-0.1-0.1-0.1c0,0-0.1-0.1-0.1-0.1c-0.1-0.1-0.1-0.1-0.1-0.1
					s0,0-0.1,0c-0.1-0.1-0.1-0.1-0.1-0.1s0,0,0.1,0.2c0,0.1,0.1,0.1,0.1,0.1l0.2,0.4c0.1,0.1,0.2,0.1,0.2,0.1C11-58,11-58,11-58z"/>
			</g>
			<g>
				<path fill="#774A25" d="M184.1-154.4c-0.1-0.1-0.2-0.1-0.2-0.1c0,0.1,0.5,0.6,0.7,0.6h0.1c0,0,0-0.1-0.1-0.1
					C184.3-154.1,184.2-154.2,184.1-154.4z"/>
				<path fill="#774A25" d="M184-156.4c-0.1,0.1,0,0.1,0.1,0.1c0.1,0,0.5-0.3,0.6-0.4c0,0,0.1-0.1,0.1-0.1c0.1-0.1,0.1-0.2,0.1-0.2
					l0,0v-0.1c0,0-0.1,0.1-0.3,0.2C184.5-156.7,184.1-156.5,184-156.4z"/>
				<path fill="#774A25" d="M182.1-156.9c0,0,0,0.1,0,0.2c0.1,0.1,0.1,0.2,0.2,0.2l0,0c0.1,0,0.1-0.1,0-0.1c0-0.1-0.1-0.3-0.1-0.4
					v-0.1v-0.1c0-0.1,0-0.1-0.1-0.2c0-0.1-0.1-0.1-0.1-0.1c0-0.1,0,0-0.1,0c0,0.1,0,0.4,0,0.5C182.1-157,182.1-156.9,182.1-156.9z"
					/>
				<path fill="#774A25" d="M183.6-153.1L183.6-153.1c0,0,0-0.1,0-0.2s0-0.2,0-0.2s0-0.2,0-0.4c0-0.2,0-0.3,0-0.4s0-0.1,0-0.2
					s0-0.1,0-0.1c0,0,0.1,0,0.6-0.2c0.4-0.1,0.6-0.2,0.7-0.3c0,0,0.1,0,0.1-0.1c0.1,0,0.1-0.1,0.2-0.1c0.1-0.1,0.1-0.1,0.1-0.1
					s0-0.1-0.1-0.1c-0.1,0-0.1,0-0.1,0c0,0-0.2-0.1-0.4-0.1c-0.4-0.1-0.4-0.1-0.9-0.2c-0.1,0-0.2-0.1-0.3-0.1h-0.1v-0.1
					c0-0.1,0-0.5-0.1-0.5c0,0,0,0,0-0.1c0,0,0-0.6-0.1-0.6v-0.1c0,0-0.1-0.1-0.1,0c-0.1,0.1-0.2,0.3-0.6,0.9
					c-0.1,0.1-0.1,0.2-0.1,0.2l-0.4-0.1c0,0-0.1-0.1-0.3-0.1c-0.3-0.1-0.7-0.2-0.7-0.2c0,0,0,0-0.1,0s0,0.1,0,0.1
					c0,0.1,0.6,0.7,0.7,1.1c0.1,0.2,0.1,0.1,0.1,0.2c-0.1,0.1-0.1,0.2-0.2,0.2c-0.2,0.2-0.3,0.4-0.4,0.6c-0.2,0.2-0.4,0.6-0.4,0.6
					c0,0.1,0.1,0.1,0.2,0.1c0.1,0,0.1,0,0.1,0h0.1c0.1-0.1,0.2-0.1,0.3-0.1c0.1,0,0.2-0.1,0.2-0.1c0.1,0,0.2-0.1,0.4-0.1
					c0.1,0,0.2-0.1,0.2-0.1h0.1c0,0,0.1,0.2,0.2,0.4c0.2,0.3,0.4,0.6,0.6,0.7C183.4-153.1,183.4-153.1,183.6-153.1
					C183.6-153.1,183.6-153.1,183.6-153.1z"/>
				<path fill="#774A25" d="M182.8-156.2c0,0,0.1-0.1,0.1-0.1s0.1-0.2,0.1-0.2c0.1-0.1,0.1-0.2,0.2-0.3v-0.1v0.2c0,0.1,0,0.2,0,0.3
					s0,0.2,0,0.2c0,0.1,0,0.1,0,0.1S182.8-156.1,182.8-156.2C182.8-156.1,182.8-156.2,182.8-156.2z"/>
				<path fill="#774A25" d="M181.9-155.6c-0.2-0.3-0.5-0.7-0.5-0.7s0.2,0.1,0.5,0.2l0,0c0.2,0.1,0.5,0.2,0.5,0.2s-0.3,0.6-0.4,0.6
					C182-155.4,181.9-155.5,181.9-155.6z"/>
				<path fill="#774A25" d="M182.3-154.4c-0.1,0-0.2,0.1-0.2,0.1c-0.1,0-0.2,0.1-0.3,0.1c-0.1,0.1-0.3,0.1-0.3,0.2
					c-0.1,0.1-0.1,0.1-0.1,0c0.1-0.1,0.1-0.2,0.1-0.2s0.1-0.1,0.2-0.2c0.1-0.1,0.2-0.2,0.2-0.3c0.1-0.2,0.2-0.2,0.2-0.2
					s0.1,0.1,0.2,0.3c0.1,0.1,0.1,0.2,0.1,0.2C182.4-154.4,182.4-154.4,182.3-154.4z"/>
				<path fill="#774A25" d="M182.6-154.6c-0.1-0.1-0.1-0.2-0.3-0.5c-0.1-0.1-0.1-0.1-0.1-0.1l0.2-0.3c0,0,0.1-0.2,0.2-0.4
					c0.1-0.1,0.1-0.1,0.1-0.1c0.1,0,0.1,0,0.2,0.1c0.2,0,0.3,0.1,0.3,0.1c0,0,0,0.2,0,0.5l0,0c0,0.2,0,0.4,0,0.4s-0.4,0.2-0.6,0.2
					L182.6-154.6L182.6-154.6z"/>
				<path fill="#774A25" d="M183.3-153.4c0,0-0.1-0.1-0.2-0.4c-0.1-0.1-0.2-0.2-0.2-0.3c-0.1-0.1-0.1-0.1-0.1-0.2v-0.1h0.1
					c0,0,0.1,0,0.1-0.1h0.1c0,0,0.1,0,0.1-0.1c0.1,0,0.1-0.1,0.2-0.1h0.1v0.1c0,0.1,0,0.2,0,0.3s0,0.2,0,0.3s0,0.2,0,0.2
					C183.3-153.4,183.3-153.4,183.3-153.4z"/>
				<path fill="#774A25" d="M183.6-155.7c0.1,0,0.2,0.1,0.2,0.1s0.3,0.1,0.5,0.1l0,0c0.2,0.1,0.4,0.1,0.4,0.1s-0.2,0.1-0.3,0.1
					c-0.1,0-0.2,0.1-0.4,0.2c0,0-0.1,0.1-0.2,0.1c-0.1,0-0.2,0.1-0.2,0.1c-0.1,0-0.1,0.1-0.1,0c0,0,0-0.1,0-0.2c0-0.2,0-0.5,0-0.6
					C183.5-155.7,183.5-155.7,183.6-155.7z"/>
				<path fill="#774A25" d="M182.3-153.9c0,0,0,0.1-0.1,0.2c-0.1,0.4-0.1,0.6-0.1,0.7c0,0,0.1,0,0.1-0.1v-0.1c0,0,0-0.1,0.1-0.3
					C182.4-153.8,182.4-153.9,182.3-153.9C182.4-153.9,182.3-153.9,182.3-153.9z"/>
				<path fill="#774A25" d="M181-155.1c0.1,0,0.6,0,0.6,0s0.1,0,0-0.1c0,0-0.1,0-0.1,0c-0.2,0-0.7,0.1-0.7,0.1l0,0l0,0
					c0,0,0,0,0.1,0C180.8-155.1,180.9-155.1,181-155.1z"/>
			</g>
			<g>
				<path fill="#774A25" d="M99.1-203.6h-0.2v-0.2c0-0.2,0.1-0.4,0.1-0.5c0-0.1,0-0.1-0.1-0.1c-0.1,0-0.1,0-0.1,0.1
					c0,0.1-0.1,0.2-0.1,0.4c-0.1,0.2-0.1,0.3-0.1,0.3s-0.1,0-0.2,0c-0.1,0-0.2-0.1-0.3-0.1c-0.1,0-0.1-0.1-0.2-0.1
					c-0.1,0-0.1,0-0.2,0l-0.1,0.1c0,0,0.1,0.1,0.1,0.1s0.1,0.1,0.2,0.2c0.1,0.1,0.1,0.1,0.1,0.2c0.1,0.2,0.1,0.2,0.1,0.2
					c0,0-0.1,0.2-0.2,0.4c-0.1,0.1-0.1,0.2-0.1,0.2c0.1,0.1,0.1,0.1,0.2-0.1c0.1-0.1,0.3-0.2,0.3-0.2s0,0,0.1,0
					c0.1,0.2,0.2,0.3,0.3,0.3c0.1,0,0.1,0,0.1-0.4v-0.2l0.1-0.1c0.1-0.1,0.2-0.1,0.3-0.2l0,0C99.5-203.6,99.4-203.6,99.1-203.6z"/>
				<path fill="#774A25" d="M98.4-203.4c-0.1,0.1-0.1,0.1-0.1,0.1c-0.1-0.1-0.1-0.2-0.2-0.2c-0.1,0-0.1-0.1-0.1-0.1s0.1,0,0.2,0
					c0.1,0,0.2,0.1,0.2,0.1C98.4-203.6,98.4-203.6,98.4-203.4z"/>
				<path fill="#774A25" d="M98.5-203.1c0,0,0-0.1,0-0.1c0.1-0.2,0.2-0.3,0.1-0.2c0,0,0,0.1,0,0.2v0.1H98.5
					C98.5-203.1,98.5-203.1,98.5-203.1z"/>
				<path fill="#774A25" d="M98.7-202.9C98.7-202.9,98.7-202.9,98.7-202.9C98.6-202.9,98.6-202.9,98.7-202.9L98.7-202.9
					C98.7-203,98.7-203,98.7-202.9z"/>
				<path fill="#774A25" d="M98.9-203.3C98.9-203.3,98.9-203.3,98.9-203.3v-0.1h0.1l0,0c0.1,0,0.1,0,0.1,0S98.9-203.4,98.9-203.3z"
					/>
			</g>
			<g>
				<path fill="#774A25" d="M288.9-60.9c0,0,0.1,0,0.1,0c0.1,0,0.3,0,0.4,0s0.2,0,0.7,0c0.1,0,0.2,0,0.2,0s-0.1,0.3-0.1,0.4
					c-0.1,0.2-0.1,0.5-0.2,0.7c0,0.1,0,0.2,0,0.2c0.1,0,0.1,0,0.1,0c0,0,0.1-0.1,0.2-0.1c0.2-0.1,0.3-0.2,0.4-0.3
					c0,0,0.1-0.1,0.1-0.1c0.1-0.1,0.1-0.1,0.1-0.1c0,0,0.1-0.1,0.2-0.1c0.1-0.1,0.2-0.1,0.2-0.1s0-0.1,0.1-0.1l0,0
					c0.1-0.1,0.1-0.1,0-0.1c0-0.1-0.1-0.1-0.2,0.1c-0.1,0.1-0.2,0.1-0.2,0.2c-0.1,0.1-0.2,0.1-0.2,0.2c-0.1,0.1-0.1,0.1-0.2,0.2
					c-0.1,0.1-0.3,0.2-0.3,0.2c0,0,0,0,0-0.1c0.1-0.2,0.1-0.6,0.2-0.9c0-0.1,0-0.2,0.1-0.2c0-0.1,0-0.2-0.1-0.2c0,0,0,0-0.1,0.1
					c-0.1,0.1,0,0.1-0.1,0.1c-0.1,0-0.2,0-0.2,0c-0.1,0-0.1,0-0.2,0c-0.1,0-0.6,0-0.7,0c0,0,0,0,0-0.1c0,0,0.1-0.1,0.1-0.1
					c0,0,0.1-0.1,0.1-0.1c0-0.1,0.1-0.1,0.2-0.1c0.1-0.1,0.2-0.1,0.3-0.2c0.2-0.1,0.5-0.3,0.6-0.4v-0.1c0,0,0,0-0.1,0
					c0,0-0.1,0.1-0.2,0.1c-0.1,0.1-0.2,0.1-0.2,0.2c-0.1,0.1-0.2,0.1-0.2,0.2c-0.1,0-0.1,0.1-0.2,0.1c-0.1,0.1-0.2,0.2-0.5,0.4
					l-0.2,0.1V-60.9C288.9-60.9,288.9-60.9,288.9-60.9z"/>
				<path fill="#774A25" d="M290.4-62.2c0,0.1,0,0.2,0.1,0.1l0,0c0,0,0.1-0.1,0.1-0.2v-0.1c0,0,0-0.1,0-0.2c0-0.2-0.1-0.4,0-0.5
					c0,0,0-0.1,0-0.1c0-0.1,0-0.6,0-0.6s0.1,0.1,0.1,0.2c0.1,0.1,0.1,0.2,0.1,0.2c0.1,0.3,0.2,0.6,0.3,0.7c0.1,0.1,0.1,0.1,0.1,0.2
					c0,0,0.1,0,0.1,0.1c0.1,0,0.4-0.3,0.7-0.5c0.1-0.1,0.2-0.1,0.2-0.2c0.1-0.1,0.2-0.1,0.2-0.2c0.1-0.1,0.1-0.1,0.1-0.1
					c0.1,0,0,0.1,0,0.1l0,0c0,0,0,0.1,0,0.1c0,0.1-0.1,0.1-0.1,0.2c0,0.1,0,0.1-0.1,0.1c0,0-0.1,0.1-0.1,0.2c0,0.1-0.1,0.2-0.1,0.2
					c-0.1,0.1-0.1,0.4-0.1,0.4c0,0.1,0.1,0.1,0.1,0h0.1c0,0,0.2,0.1,0.4,0.1c0.1,0,0.2,0,0.2,0.1c0.1,0.1,0.5,0.2,0.5,0.2
					s-0.1,0-0.1,0s-0.1,0.1-0.2,0.1c-0.5,0.2-0.6,0.2-0.7,0.2c-0.2,0-0.2,0-0.2,0.1c0,0,0,0-0.1,0c-0.1,0-0.1,0-0.1,0s0,0.1,0.1,0.4
					c0,0.1,0.1,0.2,0.1,0.4c0.1,0.2,0.2,0.6,0.2,0.7c0,0,0,0.1,0.1,0.1v0.1h-0.1c0,0-0.1-0.1-0.1-0.1c-0.1-0.1-0.2-0.2-0.2-0.3
					c-0.1-0.1-0.3-0.4-0.6-0.6c0,0-0.1,0-0.1,0c0,0.1,0,0.1,0,0.1c0,0,0.1,0.1,0.1,0.1c0.1,0.1,0.2,0.2,0.2,0.2l0,0c0,0,0,0,0.1,0.1
					c0.1,0.1,0.1,0.2,0.2,0.2c0.1,0.1,0.2,0.3,0.4,0.4c0,0,0.1,0.1,0.1,0.1c0.1,0,0.1,0.1,0.1,0.1c0,0,0,0,0.1,0l0,0
					c0.1-0.1,0.1-0.2-0.1-0.6c-0.1-0.2-0.1-0.5-0.2-0.7c0-0.1-0.1-0.3-0.1-0.3l-0.1-0.1l0.2-0.1c0.1,0,0.2-0.1,0.4-0.1
					c0.1,0,0.2-0.1,0.3-0.1c0.1,0,0.2-0.1,0.4-0.1c0.1,0,0.2-0.1,0.2-0.1c0.1,0,0.1-0.1,0-0.1c0-0.1-0.2-0.2-0.2-0.2
					c0,0-0.2-0.1-0.4-0.1c-0.1,0-0.2-0.1-0.6-0.1c-0.1,0-0.2,0-0.2,0s0-0.1,0.1-0.3c0-0.1,0.1-0.3,0.2-0.5c0.1-0.2,0.1-0.4,0.1-0.5
					c0-0.1,0.1-0.1,0.1-0.1s-0.1-0.1-0.1-0.1l-0.1,0.1c0,0-0.1,0.1-0.1,0.1s-0.1,0.1-0.1,0.1c-0.1,0-0.1,0.1-0.2,0.2
					c-0.1,0.1-0.2,0.1-0.2,0.2c-0.1,0.1-0.4,0.3-0.5,0.4l-0.1-0.1v0c0-0.1-0.1-0.2-0.1-0.3c-0.1-0.1-0.1-0.2-0.2-0.4
					c-0.1-0.1-0.1-0.2-0.1-0.3c-0.1-0.2-0.1-0.3-0.1-0.3c-0.1-0.1-0.1,0.1-0.2,0.2c-0.1,0.4-0.1,1.1,0,1.4
					C290.4-62.4,290.4-62.3,290.4-62.2z"/>
			</g>
			<g>
				<path fill="#774A25" d="M221.1-299.4c0,0,0.1,0,0.1,0c0.1,0,0.2,0,0.3,0c0.1,0,0.1,0,0.4,0c0.1,0,0.2,0,0.2,0s-0.1,0.2-0.1,0.3
					c0,0.2-0.1,0.4-0.1,0.5s0,0.1,0,0.2c0,0,0.1,0,0.1,0c0,0,0.1-0.1,0.1-0.1c0.1-0.1,0.2-0.2,0.3-0.2c0,0,0.1-0.1,0.1-0.1l0.1-0.1
					c0,0,0.1-0.1,0.1-0.1s0.1-0.1,0.1-0.1s0,0,0.1-0.1l0,0c0.1,0,0.1,0,0-0.1c0-0.1-0.1,0-0.1,0s-0.1,0.1-0.2,0.1
					c-0.1,0-0.1,0.1-0.2,0.1c-0.1,0-0.1,0.1-0.1,0.1c-0.1,0.1-0.2,0.2-0.2,0.2s0,0,0-0.1c0.1-0.2,0.1-0.4,0.1-0.7c0-0.1,0-0.2,0-0.2
					s0-0.1-0.1-0.1c-0.1,0,0,0,0,0s0,0-0.1,0c-0.1,0-0.1,0-0.1,0h-0.1c-0.1,0-0.4,0-0.5,0l0,0l0.1-0.1c0,0,0.1-0.1,0.1-0.1l0.1-0.1
					c0.1,0,0.1-0.1,0.2-0.1c0.1-0.1,0.4-0.2,0.4-0.3c0,0,0,0,0-0.1c0,0,0,0-0.1,0c0,0-0.1,0-0.1,0.1s-0.1,0.1-0.2,0.1
					s-0.1,0.1-0.2,0.1l-0.1,0.1c-0.1,0.1-0.2,0.1-0.4,0.2l-0.2,0.2H221.1C221.1-299.4,221.1-299.4,221.1-299.4z"/>
				<path fill="#774A25" d="M222.2-300.3c0,0.1,0,0.1,0,0.1l0,0C222.2-300.2,222.3-300.2,222.2-300.3
					C222.3-300.3,222.3-300.3,222.2-300.3c0.1-0.1,0.1-0.1,0.1-0.2c0-0.1,0-0.3,0-0.4v-0.1c0-0.1,0-0.4,0-0.4s0,0.1,0.1,0.1
					c0,0.1,0.1,0.2,0.1,0.2c0.1,0.2,0.2,0.4,0.2,0.5c0,0.1,0.1,0.1,0.1,0.1h0.1c0,0,0.3-0.2,0.4-0.3c0.1,0,0.1-0.1,0.2-0.1
					c0.1,0,0.1-0.1,0.1-0.1l0.1-0.1c0,0,0,0,0,0.1l0,0v0.1c0,0,0,0.1-0.1,0.1v0.1c0,0,0,0.1-0.1,0.2c0,0.1-0.1,0.1-0.1,0.2
					c-0.1,0.1-0.1,0.3-0.1,0.3s0,0.1,0.1,0h0.1c0,0,0.1,0,0.3,0.1c0.1,0,0.1,0,0.1,0c0.1,0,0.4,0.1,0.4,0.1s0,0-0.1,0
					s-0.1,0-0.1,0.1c-0.3,0.1-0.4,0.2-0.6,0.2c-0.1,0-0.1,0-0.2,0l0,0c0,0,0,0-0.1,0c0,0,0,0.1,0.1,0.2c0,0.1,0.1,0.2,0.1,0.3
					c0.1,0.2,0.1,0.4,0.1,0.5c0,0,0,0.1,0,0.1v0.1l0,0l-0.1-0.1c-0.1-0.1-0.1-0.2-0.2-0.2c-0.1-0.1-0.2-0.3-0.4-0.4h-0.1v0.1
					l0.1,0.1c0.1,0.1,0.1,0.2,0.2,0.2l0,0c0,0,0,0,0,0.1c0.1,0.1,0.1,0.1,0.1,0.2c0.1,0.1,0.2,0.2,0.2,0.3l0.1,0.1l0.1,0.1
					c0,0,0,0,0.1,0l0,0c0.1-0.1,0.1-0.2-0.1-0.4c-0.1-0.2-0.1-0.3-0.2-0.5c0-0.1-0.1-0.2-0.1-0.2v-0.1h0.1c0.1,0,0.2-0.1,0.2-0.1
					s0.2-0.1,0.2-0.1c0.1,0,0.2-0.1,0.2-0.1c0.1,0,0.1-0.1,0.2-0.1c0,0,0.1-0.1,0-0.1c0,0-0.1-0.1-0.2-0.1c-0.1,0-0.2-0.1-0.2-0.1
					c-0.1,0-0.2-0.1-0.4-0.1c-0.1,0-0.2,0-0.2,0s0-0.1,0.1-0.2c0-0.1,0.1-0.2,0.1-0.4c0.1-0.1,0.1-0.3,0.1-0.3c0-0.1,0-0.1,0-0.1
					l-0.1-0.1l-0.1,0.1c0,0,0,0-0.1,0.1c0,0-0.1,0.1-0.1,0.1c0,0-0.1,0.1-0.1,0.1c-0.1,0-0.1,0.1-0.2,0.1c-0.1,0.1-0.2,0.2-0.4,0.3
					l0,0l-0.1-0.1c0-0.1-0.1-0.1-0.1-0.2c0-0.1-0.1-0.2-0.1-0.2c0-0.1-0.1-0.2-0.1-0.2c-0.1-0.1-0.1-0.2-0.1-0.2
					c-0.1-0.1-0.1,0-0.1,0.2c0,0.3,0,0.8,0,0.9C222.2-300.4,222.2-300.4,222.2-300.3z"/>
			</g>
		</g>
	</g>
</pattern>
<pattern  id="SVGID_1_" xlink:href="#SVGID_1" patternTransform="matrix(0.2126 0 0 0.2126 -13489.1973 2686.375)">
</pattern>
<pattern  id="SVGID_2_" xlink:href="#SVGID_1" patternTransform="matrix(1 0 0 1 -612 64)">
</pattern>
<rect x="-388" y="-304.3" fill="url(#SVGID_1_)" stroke="url(#SVGID_2_)" stroke-miterlimit="10" width="269" height="266"/>
</svg>
