<?xml version="1.0" encoding="utf-8"?>
<!-- Generator: Adobe Illustrator 18.1.1, SVG Export Plug-In . SVG Version: 6.00 Build 0)  -->
<svg version="1.1" id="Layer_1" xmlns="http://www.w3.org/2000/svg" xmlns:xlink="http://www.w3.org/1999/xlink" x="0px" y="0px"
	 viewBox="0 0 85 85" enable-background="new 0 0 85 85" xml:space="preserve">
<g>
	<g>
		<path fill="#7D4816" d="M60.6,55.8c0,0,0.1,0,0.3,0c0.2,0,0.4-0.3,0.4-0.6l-0.1,0c-0.1,1.5-0.2,4.9,0.5,9.7
			c0.3,2.4,0.9,5.2,1.5,8.3c0.6,3,1.3,6.9,1.4,9.7c-1.2-1.2-2.1-2.1-3.6-3.8c-1.4-1.5-2.9-3.1-4.4-4.7l-1.2-1.2
			c-0.5-0.4-0.9-0.7-1.4-1C53,71.4,52,70.7,51.1,70c-0.5-0.4-0.9-0.7-1.4-1.1c-0.4-0.4-0.9-0.8-1.2-1.2c-0.7-0.9-1.2-2.1-2-3.1
			c-0.4-0.5-0.8-1-1.4-1.5c-0.1,0-0.1-0.1-0.2-0.1c-0.1-0.1-0.1-0.1-0.2-0.1c-0.1-0.1-0.3-0.2-0.4-0.3c-0.3-0.2-0.7-0.3-1-0.4
			c-1.4-0.4-2.8-0.1-4.1,0.3c-2.6,0.8-5,2.2-7.4,3.5c-0.6,0.3-1.2,0.7-1.9,1c-0.3,0.2-0.6,0.3-0.9,0.4c-0.2,0.1-0.3,0.1-0.5,0.2
			c-0.2,0.1-0.4,0.2-0.5,0.2c-1.3,0.6-2.7,1-4,1.5l-4.2,1.3l-1.1,0.3l-0.8,0.3c-0.4,0.2-0.9,0.3-1.3,0.5l-0.2,0.1l-0.1,0
			c0,0,0-0.1,0-0.1c0-0.2,0.1-0.3,0.2-0.5c0.2-0.3,0.4-0.6,0.6-0.9c0.3-0.4,1.1-1.6,1.7-2.6c0.2-0.3,0.3-0.5,0.4-0.9
			c0.1-0.2,0.1-0.3,0.1-0.3c0-0.1,0.2-0.3,0.2-0.4c0.3-0.5,0.6-1.1,0.8-1.7c0.5-1.1,0.9-2.3,1.3-3.4c0.2-0.6,0.5-1.1,0.7-1.6
			c0.3-0.6,0.5-1.1,0.8-1.7l1.5-3.4c0.5-1.1,1-2.3,1.5-3.4c0.3-0.6,0.6-1.1,0.9-1.7c0.1-0.2,0.4-0.7,0.6-1.1
			c0.2-0.4,0.5-0.8,0.7-1.2c-0.6-0.2-1.2-0.4-1.8-0.7l-0.4-0.2L25.9,46l-0.6-0.3c-0.7-0.4-1.5-0.9-2.2-1.4c-1.4-1-2.7-2.2-3.9-3.5
			c-1.2-1.3-2.4-2.7-3.5-4.1L14,34.5l-0.6-0.8l-0.5-0.6c0,0,0,0,0,0l0.1,0l0.2,0l0.4-0.1l0.5-0.1l0.8-0.1c1.1-0.1,2.2-0.2,3.3-0.2
			s2.2-0.1,3.3-0.1l0.4,0c0,0,0.1,0,0.1,0l0.2,0l0.8,0.1l1.7,0.3c2.2,0.3,4.5,0.7,6.8,0.8c1.2,0.1,2.3,0,3.5-0.1
			c1.2-0.1,2.4-0.4,3.5-1.1c1.1-0.6,2-1.5,2.7-2.5c0.7-1,1.3-2.1,1.8-3.1c0.9-2.2,1.5-4.5,2.1-6.8c0.5-2.3,0.9-4.6,1.4-6.9
			c0.3-1.1,0.5-2.3,0.8-3.4l0.3-0.8l0.2-0.5c0.1-0.3,0.3-0.7,0.4-1c0.2,0.3,0.4,0.6,0.6,0.9l0.3,0.4c0.1,0.2,0.3,0.5,0.4,0.7
			c0.5,1,0.9,2,1.3,3.1c0.7,2.1,1.1,4.3,1.4,6.6l0.2,1.7c0,0.1,0,0.3,0.1,0.5l0.1,0.4l0.1,0.8c0.2,1.1,0.3,2.3,0.5,3.4
			c0.2,1.1,0.4,2.3,0.7,3.4c0.3,1.1,0.6,2.3,1.3,3.3l0.1,0.2c0,0,0.1,0.1,0.1,0.2c0.1,0.1,0.2,0.3,0.3,0.4c0.2,0.2,0.4,0.5,0.7,0.6
			c0.5,0.4,1,0.7,1.6,0.9c1.1,0.5,2.3,0.7,3.4,1c1.2,0.2,2.3,0.3,3.5,0.4c0.6,0.1,1.1,0.1,1.7,0.2c0.3,0,0.6,0.1,0.9,0.1l0.9,0.1
			c2.3,0.2,4.7,0.3,7.1,0.3c1.2,0,2.3,0,3.5,0l3.2-0.1l0.2,0c0,0,0.1,0,0,0l0,0.1c0,0.1,0,0.2,0,0.3c-0.1,0.2-0.1,0.4-0.2,0.6
			c-0.1,0.2-0.2,0.4-0.4,0.6c-0.1,0.2-0.3,0.4-0.5,0.6c-0.7,0.8-1.5,1.6-2.4,2.3c-1.7,1.4-3.5,2.7-5.3,4l-0.7,0.5l-0.3,0.3
			c-0.1,0.1-0.2,0.2-0.3,0.3c-0.4,0.4-0.8,0.8-1.2,1.2c-0.8,0.8-1.6,1.5-2.5,2.3c-1.7,1.4-3.6,2.8-5.6,3.7c0,0,2.4-0.9,5.9-3.8
			c1.9-1.4,3.6-3.6,6.5-5.4c1.4-1,2.8-2,4.3-3.2c0.7-0.6,1.4-1.3,2.1-2.1c0.3-0.4,0.7-0.9,0.9-1.4c0.1-0.3,0.2-0.5,0.2-0.8
			c0-0.1,0-0.3,0-0.4l0-0.1c0,0,0,0-0.1,0l-0.2,0c-2.1,0-3.8,0-5.8,0c-1.9,0-3.9-0.1-6-0.2c-1-0.1-2.1-0.1-3.1-0.3l-0.4,0
			c0,0-0.1,0-0.2,0l-0.2,0c-0.3,0-0.5-0.1-0.8-0.1l-1.6-0.2c-2.2-0.3-4.5-0.5-6.5-1.4c-0.5-0.2-1-0.5-1.4-0.9
			c-0.2-0.2-0.4-0.4-0.6-0.6c-0.1-0.1-0.2-0.2-0.2-0.3c-0.1-0.2-0.2-0.2-0.3-0.4c-0.6-1-1-2.1-1.2-3.3c-0.5-2.4-0.7-4.9-1.1-7.4
			c-0.4-2.5-0.6-5.2-1.4-7.8c-0.3-1.3-0.8-2.6-1.4-3.9c-0.1-0.3-0.3-0.6-0.5-0.9l-0.3-0.5c-0.1-0.2-0.2-0.4-0.4-0.6
			c-0.5-0.8-1-1.5-1.5-2.3c0,0,0,0,0,0.1l-0.1,0.1l-0.1,0.2l-0.2,0.5c-0.1,0.3-0.3,0.6-0.4,0.9c-0.1,0.3-0.3,0.6-0.4,1l-0.2,0.5
			L46.5,9c-0.3,1-0.6,2.1-0.8,3.1c-0.5,2.1-0.9,4.3-1.4,6.4c-0.5,2.1-1,4.3-1.7,6.4c-0.8,2.1-1.7,4.1-3.3,5.6
			c-0.8,0.7-1.7,1.3-2.7,1.6c-1,0.3-2.2,0.4-3.3,0.4c-2.3,0.1-4.6-0.3-7-0.7c-1.2-0.2-2.4-0.4-3.6-0.6l-0.4-0.1c-0.3,0-0.4,0-0.5,0
			l-0.9,0l-1.8,0.1c-1.2,0-2.5,0.1-3.7,0.2l-0.9,0.1l-0.2,0l-0.3,0l-0.7,0.1c-0.4,0.1-0.8,0.2-1.3,0.2l-0.7,0.1l-0.3,0.1
			c-0.1,0-0.3,0-0.3,0.1l1.3,1.5l0.6,0.7l0.5,0.6l1.7,2.1c1.1,1.4,2.3,2.8,3.5,4.2c1.3,1.4,2.6,2.6,4.1,3.8c0.7,0.6,1.5,1.1,2.4,1.5
			c0.2,0.1,0.4,0.2,0.6,0.3l0.3,0.2l0.3,0.1c0.2,0.1,0.5,0.2,0.7,0.3L26,48.5c-0.3,0.5-0.6,1.1-0.8,1.6c-0.5,1.1-1,2.2-1.5,3.3
			l-1.4,3.3c-0.5,1.1-1,2.2-1.5,3.3c-0.5,1.1-0.9,2.3-1.3,3.4c-0.2,0.6-0.5,1.1-0.7,1.6l-0.2,0.4l-0.2,0.4c-0.1,0.1-0.1,0.2-0.1,0.3
			l-0.1,0.2c0,0.1-0.1,0.3-0.2,0.4c-0.2,0.5-0.6,1-0.9,1.5l-1.2,1.8c-0.5,0.7-0.8,1.4-1.1,2c-0.1,0.3-0.3,0.6-0.4,1l-0.1,0.3
			c0,0.1,0,0,0,0.1l0,0c0.1,0,0.1,0.1,0.2,0.1c0.8-0.4,1.7-0.8,2.6-1.1c0.4-0.2,0.8-0.3,1.2-0.5l1-0.3c1.1-0.4,2.3-0.7,3.5-1.1
			c1.2-0.4,2.4-0.8,3.6-1.2c0.6-0.2,1.2-0.5,1.8-0.7l0.4-0.2l0.1,0l0.1,0l0.2-0.1c0.3-0.1,0.6-0.3,0.9-0.4c2.3-1.1,4.4-2.5,6.6-3.5
			c1.1-0.5,2.3-1,3.4-1.3c1.2-0.3,2.4-0.4,3.4-0.1c0.3,0.1,0.5,0.2,0.8,0.4c0,0,0.1,0.1,0.2,0.1c0.1,0.1,0.2,0.1,0.2,0.1
			c0.1,0.1,0.2,0.2,0.3,0.3c0.4,0.4,0.8,0.8,1.2,1.3c0.7,1,1.2,2.2,2.1,3.2c1.8,1.8,4,3.2,6,4.7l0.7,0.5l0.7,0.6l1.3,1.3l2.6,2.7
			l2.6,2.8c1.1,1.1,2.1,2.1,3.1,3.1c-0.1-1.4-0.3-2.8-0.5-4.2L64.6,79l-0.1-0.9l-0.3-1.8c-0.5-2.4-1-4.7-1.4-7
			c-0.9-4.7-1.7-9.4-1.5-14.2l0,0c0,0.2,0,0.4-0.2,0.5C61,55.7,60.8,55.8,60.6,55.8z"/>
	</g>
	<g>
		<path fill="#7D4816" d="M61.2,54.5l0.6,0l0,0c0,0.6,0.1,1.7,0.3,3.1c0.1,0.7,0.2,1.5,0.3,2.5c0,0.5,0.1,1,0.1,1.5
			c0,0.5,0.1,1,0.2,1.6c0.3,2.2,0.5,4.9,0.9,7.8c0.2,1.5,0.4,3,0.7,4.7l0.4,2.4c0.1,0.7,0.3,1.4,0.4,2.2l0,0.1l0,0l0,0l-0.1-0.1
			l-0.2-0.2l-0.5-0.3c-0.3-0.2-0.6-0.4-0.9-0.7L63,78.7l-0.5-0.4c-0.4-0.3-0.8-0.6-1.1-0.9c-1.5-1.3-3-2.7-4.5-4.2
			c-3.1-3-6.3-6.3-10.4-9.1c-1-0.7-2.1-1.3-3.2-1.9c-1.2-0.6-2.6-0.8-3.9-0.8c-2.7-0.1-5.3,0.6-7.9,1.5c-2.6,0.9-5.1,2.1-7.6,3.5
			c-1.3,0.7-2.5,1.4-3.8,2.2l-1.2,0.8l-1.2,0.7l-0.2,0.1c0-0.1,0-0.1,0.1-0.2l0.2-0.4c0.1-0.3,0.2-0.6,0.4-0.8
			c0.1-0.3,0.3-0.5,0.4-0.8l0.6-1.1c1-1.7,2.1-3.4,3.1-5.2c0.5-0.9,1.1-1.8,1.6-2.7c0.3-0.4,0.5-1,0.8-1.4c0.2-0.4,0.5-0.9,0.8-1.3
			c0.6-0.9,1.2-1.7,1.7-2.7c0.5-0.9,1.1-1.9,1.2-3.2c0.1-0.6,0-1.3-0.3-1.9c0-0.1-0.1-0.2-0.1-0.2L27.8,48c-0.1-0.1-0.2-0.2-0.3-0.3
			c-0.2-0.2-0.4-0.4-0.6-0.6c-0.8-0.8-1.8-1.5-2.8-2c-0.3-0.1-0.5-0.3-0.8-0.4c-0.3-0.1-0.6-0.2-0.7-0.3c-0.1,0-0.1-0.1-0.2-0.2
			l-0.2-0.3l-0.5-0.7c-0.7-0.9-1.4-1.7-2.1-2.6c-0.3-0.4-0.7-0.9-1-1.3c-0.3-0.5-0.6-1-1-1.4c-0.7-0.9-1.5-1.8-2.2-2.6
			c-0.7-0.8-1.5-1.7-2.2-2.6l-0.5-0.7l-0.4-0.5c-0.2-0.3-0.3-0.5-0.5-0.8c0,0,0,0,0,0l0.1,0c0,0,0.1,0,0.1,0c0.1,0,0.2,0,0.3,0
			c0.2,0,0.4,0,0.5,0l0.3,0l0.4,0c0.3,0,0.6,0.1,0.9,0.1c1.2,0.1,2.4,0.4,3.7,0.6l1.8,0.4l0.5,0.1c0.1,0,0.2,0.1,0.4,0l0.2,0
			c0.3,0,0.6,0,0.9,0c1.2,0.1,2.5,0.2,3.8,0.4c0.7,0.1,1.3,0.1,2,0.1c0.3,0,0.7,0,1,0c0.3,0,0.6,0,0.9,0.1c1.2,0.1,2.4,0.6,3.6,1
			c0.6,0.2,1.2,0.4,1.9,0.6l0.2,0.1c0.1,0,0.2,0.1,0.4,0.1l0.5,0l1,0l3.9-0.1l0.6,0l0.7,0c0.3-0.3,0.5-0.8,0.7-1.2
			c0.3-0.7,0.4-1.3,0.6-2c0.3-1.3,0.4-2.7,0.6-4c0-0.3,0.1-0.6,0.2-1c0-0.1,0-0.2,0-0.4l0-0.2c0-0.2,0-0.3,0-0.5
			c0-0.6,0.1-1.3,0.2-1.9c0.2-1.3,0.5-2.6,1-3.8c0.9-2.6,1.6-5.2,2.3-7.8l0.5-2L49,7.9c0.1-0.4,0.3-0.8,0.4-1.2l0.2-0.6l0.1-0.3
			c0,0,0-0.1,0-0.1l0,0.2l0.5,2.9l0.9,4.5c0.6,3.1,1.3,6.2,2,9.3c0.4,1.5,0.8,3.1,1.2,4.6c0.4,1.5,0.8,3.1,1.5,4.6
			c0.3,0.7,0.7,1.5,1.3,2.1c0.1,0.2,0.3,0.3,0.4,0.5c0.1,0.2,0.3,0.3,0.5,0.5c0.5,0.3,0.8,0.3,1.3,0.4c1.7,0.3,3.3,0.1,4.9-0.2
			c0.8-0.1,1.6-0.2,2.4-0.3c0.8-0.1,1.6-0.1,2.4-0.1l4.8-0.1l2.4-0.1l0.6,0c0.1,0,0.2,0,0.3,0l0.3,0c0.4,0.1,0.8,0.1,1.2,0.2
			c0.2,0,0.4,0.1,0.6,0.1c0.2,0,0.3,0.1,0.5,0.2c0.2,0.1,0.3,0.2,0.4,0.3c0.1,0.2,0.1,0.3,0,0.5c-0.2,0.6-0.7,1.3-1.1,2
			c-2,2.5-4.3,4.9-6.7,7.1C71,46,69.8,47,68.6,48.1c-0.2,0.1-0.3,0.3-0.5,0.4c-0.2,0.1-0.4,0.2-0.5,0.3c-0.4,0.2-0.7,0.5-1,0.7
			c-0.7,0.5-1.4,0.9-2.2,1c0,0,0.5,0,1.3-0.4c0.4-0.2,0.9-0.5,1.5-0.9c0.3-0.2,0.6-0.4,0.9-0.6c0.3-0.2,0.6-0.5,1-0.8
			c1.4-1.2,3.1-2.6,5-4.4c1-0.9,2-1.9,3-3c0.5-0.6,1-1.1,1.5-1.7c0.5-0.6,1-1.2,1.5-2c0.2-0.4,0.4-0.9,0.3-1.3
			c-0.2-0.5-0.7-0.7-1.1-0.8c-0.5-0.1-0.9-0.2-1.3-0.3L77.3,34C77.2,34,77.1,34,77,34l-0.4,0l-5.9,0.1l-3.1,0
			c-1.1,0-2.2,0.2-3.2,0.3c-1.1,0.1-2.2,0.3-3.3,0.3c-0.5,0-1.1,0-1.6-0.2c-0.3-0.1-0.5-0.1-0.8-0.2c-0.3-0.1-0.4-0.2-0.6-0.4
			c-1.5-1.7-2.2-4-2.8-6.4c-0.6-2.4-1.2-4.9-1.8-7.5c-0.6-2.6-1.1-5.2-1.6-7.9l-0.8-4.3l-1-5.6l-0.1,0c0,0,0,0,0,0.1l0,0.1l-0.2,0.5
			l-0.4,1c-0.3,0.7-0.5,1.4-0.8,2.1c-0.2,0.7-0.5,1.5-0.7,2.3L47.3,10c-0.7,2.3-1.3,4.7-2.1,7.1c-0.2,0.6-0.4,1.2-0.6,1.8
			c-0.2,0.6-0.4,1.2-0.5,1.9c-0.3,1.2-0.6,2.5-0.7,3.8c0,0.3-0.1,0.7-0.1,1c0,0,0,0.1,0,0.1l0,0.2l-0.1,0.5
			c-0.1,0.7-0.2,1.3-0.3,1.9c-0.2,1.3-0.4,2.6-0.8,3.7c0,0.1-0.1,0.3-0.2,0.4c0,0.1-0.1,0.2-0.1,0.3c-0.1,0.2-0.3,0.1-0.5,0.2
			l-1.9,0l-2,0l-1,0l-0.5,0c-0.2,0-0.2,0-0.4,0c-1.2-0.3-2.5-0.8-3.8-1.3c-0.7-0.2-1.4-0.4-2.1-0.5c-0.4,0-0.7-0.1-1.1-0.1
			c-0.4,0-0.7,0-1,0c-1.3-0.1-2.7-0.2-4.1-0.4c-0.7-0.1-1.4-0.1-2.1-0.1l-0.5,0c-0.1,0-0.1,0-0.2,0l-0.3-0.1l-1-0.2
			c-1.4-0.3-2.8-0.6-4.2-0.8c-0.4-0.1-0.7-0.1-1.1-0.1l-0.5,0l-0.3,0l-0.4,0c-0.5,0-1,0-1.5,0.1l-0.7,0.1l-0.4,0.1
			c-0.1,0-0.3,0-0.3,0.1c0.4,0.6,0.7,1.3,1,1.9l0.3,0.5l0.3,0.4l0.5,0.6c0.6,0.8,1.3,1.6,2,2.4c0.7,0.8,1.4,1.6,2,2.4
			c0.3,0.4,0.7,0.8,0.9,1.2c0.3,0.4,0.6,0.8,0.9,1.3c0.6,0.9,1.3,1.7,2,2.5c0.3,0.4,0.7,0.8,1,1.2l0.5,0.6c0.1,0.1,0.2,0.3,0.4,0.4
			l0.5,0.2c0.9,0.3,1.8,0.8,2.6,1.4c0.4,0.3,0.8,0.6,1.1,1c0.2,0.2,0.4,0.4,0.5,0.6c0.1,0.1,0.2,0.2,0.2,0.3
			c0.1,0.1,0.1,0.1,0.1,0.2c0.3,0.8,0.1,1.7-0.3,2.6c-0.4,0.9-1,1.8-1.6,2.7c-0.6,0.9-1.2,1.8-1.7,2.8c-0.5,0.9-1,1.9-1.6,2.8
			c-1.1,1.8-2.3,3.7-3.4,5.6L18,66.3l-0.4,0.8c-0.3,0.7-0.7,1.4-1,2c-0.3,0.7-0.5,1.3-0.8,2l-0.4,1l-0.2,0.5c0,0.1,0,0,0,0.1l0,0
			c0,0,0,0,0,0c1.5-1,2.9-2,4.3-2.9l1.7-1.1l1.5-0.9c2.1-1.2,4.2-2.3,6.4-3.3c2.2-0.9,4.5-1.8,6.8-2.2c2.3-0.4,4.8-0.5,6.9,0.5
			c4.3,2.2,7.9,5.5,11.4,8.8c1.8,1.7,3.5,3.4,5.3,5c0.9,0.8,1.8,1.6,2.8,2.3c0.6,0.4,1.1,0.9,1.7,1.3l0.9,0.6l0.4,0.3l0.2,0.1
			c0,0,0.1,0.1,0.1,0l0-0.1c-0.3-1.3-0.6-2.6-0.8-3.8c-0.2-1.1-0.4-2.2-0.6-3.3c-0.4-2.2-0.7-4.4-1-6.6L63,64.3l-0.2-1.6
			c-0.1-0.6-0.2-1.1-0.2-1.6c-0.1-2.2-0.8-4.4-0.8-6.6l0,0L61.2,54.5z"/>
	</g>
	<g>
		<path fill="#7D4816" d="M22.6,64.9c0,0,1.1-0.5,2.6-1.8c0.8-0.6,1.6-1.4,2.5-2.4c0.8-1,1.7-2.1,2.3-3.6l0.3-0.7l-0.7,0.1
			c-0.7,0-1.3,0.5-1.6,0.9c-0.4,0.5-0.6,1-0.9,1.5c0,0,0.3-0.2,0.7-0.6c0.4-0.4,1.1-1,1.9-0.9l-0.4-0.6c-0.7,1.1-1.8,2.4-2.9,3.8
			C25.1,62,23.9,63.4,22.6,64.9z"/>
	</g>
	<g>
		<path fill="#7D4816" d="M22.6,64.9c0,0,0.4,0,0.9-0.3c0.6-0.3,1.3-0.8,2.1-1.7c0.8-0.8,1.6-1.9,2.3-3.2c0.4-0.7,0.7-1.4,1-2.1
			c0.3-0.8,0.5-1.6,0.5-2.6l0-1.3l-0.8,0.9c-1.2,1.3-1.8,2.9-2.8,4.3c0,0,0.4-0.3,1-0.9c0.7-0.6,1.4-1.7,2.5-2.6l-0.8-0.3
			c0,0.7-0.4,1.5-0.7,2.4c-0.4,0.8-0.8,1.7-1.3,2.6c-0.5,0.9-1,1.8-1.6,2.6c-0.3,0.4-0.6,0.8-1,1.2C23.5,64.3,23.1,64.7,22.6,64.9z"
			/>
	</g>
	<g>
		<path fill="#7D4816" d="M21.9,64.2c0,0-0.4,0.4-1.2,1.3c-0.4,0.4-0.9,1-1.5,1.6c-0.6,0.6-1.4,1.3-2.4,1.7l-0.3,0.1l0.3,0
			c0.7,0,1.5-0.3,2.1-0.8s1.1-1.2,1.6-2c0.5-0.8,0.9-1.6,1.4-2.4l1.6-2.7L31.5,48l-0.2-0.1c-1.5,2.6-3.1,5.3-4.6,8.3
			c-0.4,0.8-0.7,1.5-1.2,2.2c-0.4,0.7-0.9,1.4-1.4,2.2c-0.9,1.5-1.9,3.1-2.2,5l0,0.3l0.3-0.1c0.8-0.3,1.3-0.9,1.8-1.5
			c0.5-0.6,1-1.2,1.4-1.9c0.4-0.7,0.8-1.3,1.2-2l0.6-1c0.2-0.3,0.5-0.7,0.7-1c1-1.3,2-2.7,2.8-4.1c0.8-1.5,1.6-3.1,1.6-5l0-0.4
			L31.9,49c-1.2,0.8-2.2,1.9-3,3.1c-0.8,1.2-1.5,2.5-2.1,3.8c-0.6,1.3-1.2,2.7-1.8,4.1l-1,2.5c-0.2,0.4-0.4,0.9-0.6,1.4l-0.9,1.7
			c-0.1,0.6-0.4,1.4-0.8,2.2l-0.1,0.2c0,0,0,0,0,0l0,0l0.1-0.1c0.1-0.1,0.3-0.2,0.4-0.2c0.3-0.2,0.5-0.3,0.7-0.5
			c0.5-0.3,0.9-0.7,1.3-1.1c0.8-0.8,1.6-1.7,2.4-2.8c0.4-0.6,0.8-1.1,1.2-1.7l1-1.6c0.6-1,1.3-2,1.9-3l0.3-0.4
			c0.1-0.1,0.2-0.3,0.3-0.4c0.1-0.3,0.3-0.5,0.4-0.8c0.3-0.5,0.6-1,0.9-1.6c1.2-2.1,2.6-4.2,3.6-6.6l1-2.6L35.6,47
			c-1.7,2.6-3.3,5.3-4.8,8.1c-1.5,2.8-2.9,5.8-4,8.9l-0.3,0.8l0.8-0.3c1.1-0.5,1.9-1.4,2.7-2.2c0.7-0.9,1.4-1.8,2-2.8
			c1.2-1.9,2.3-4,3.5-5.9c2.5-3.9,5.1-7.8,7.2-12.2l1.2-2.4L42,40.9c-1.4,1.5-2.6,3.3-3.6,5c-1,1.8-2,3.6-2.9,5.5
			c-0.5,0.9-1,1.9-1.5,2.8c-0.1,0.2-0.2,0.4-0.4,0.7l-0.4,0.7L32.4,57c-1.1,1.8-2.1,3.7-3.1,5.7l-0.5,1.1l1.2-0.5
			c1.4-0.7,2.7-1.6,3.7-2.8c1.1-1.1,2-2.4,2.8-3.7c1.6-2.6,2.9-5.4,4.6-8l1.3-2c0.4-0.6,0.9-1.3,1.3-1.9c0.9-1.2,1.9-2.5,2.9-3.7
			c2-2.4,4.1-4.9,5.8-7.7l1.5-2.6l-2.3,1.9c-0.9,0.8-1.6,1.6-2.3,2.6c-0.6,0.9-1.2,1.9-1.8,2.9c-1.1,2-2,4-3,6L44,45.2l-0.1,0.2
			c0,0.1-0.1,0.1-0.1,0.2l-0.2,0.4c-0.3,0.5-0.5,1-0.8,1.5c-0.5,1-1.1,2-1.7,2.9c-1.2,2-2.3,4-3,6.3l-0.4,1.2l1.2-0.6
			c1.1-0.6,1.9-1.4,2.7-2.2c0.8-0.9,1.5-1.8,2.1-2.7c1.2-1.9,2.3-3.9,3.5-5.9l0.4-0.7l0.2-0.4c0-0.1,0.1-0.2,0.2-0.3l1.1-1.4
			l2.1-2.7l4.2-5.5l-0.8-0.7c-2,1.9-3.8,4.1-5.3,6.5c-1.5,2.4-2.8,4.9-4,7.4c-2.4,5-4.6,10.3-7.8,14.9L36.7,65l1.6-0.5
			c0.8-0.3,1.5-0.7,2.1-1.2c0.6-0.5,1.1-1.1,1.6-1.7c1-1.2,1.8-2.5,2.5-3.8c1.5-2.6,2.8-5.4,4.1-8.1c0.2-0.3,0.4-0.7,0.5-1
			c0.1-0.3,0.4-0.6,0.6-0.9l1.3-1.8c0.9-1.2,1.8-2.5,2.6-3.7c1.7-2.5,3.3-5.2,4.4-8.2l0.6-1.7l-1.5,1.1c-1.1,0.8-2,1.8-2.7,2.8
			c-0.8,1-1.4,2.1-2,3.2c-1.2,2.2-2.2,4.5-3.3,6.7c-0.3,0.6-0.6,1.1-0.8,1.7c-0.3,0.6-0.6,1.1-0.9,1.7c-0.5,1.1-1.1,2.3-1.6,3.5
			c-0.5,1.2-0.9,2.4-1.2,3.7c-0.1,0.6-0.3,1.3-0.3,1.9c0,0.3-0.1,0.6,0,1.1c0,0.5,0.1,0.9,0.1,1.3c0.1,0.1,0.2,0.1,0.3,0.1l0.3,0.1
			c0.2,0,0.4,0.1,0.7,0.1c0.2,0,0.4,0,0.7-0.1c0.2,0,0.4-0.1,0.6-0.2c0.7-0.2,1.3-0.6,1.9-1c1.1-0.8,2-1.8,2.9-2.7
			c1.8-2,3.3-4.1,4.8-6.3l0.6-0.8l0.3-0.4c0-0.1,0.1-0.2,0.2-0.3l0.1-0.2c0.3-0.6,0.7-1.1,1-1.7c0.7-1.1,1.4-2.2,2.1-3.4l0.5-0.9
			l0.5-1c0.5-0.8,0.9-1.7,1.2-2.5c0.3-0.8,0.5-1.5,0.6-2.1c0-0.3,0.1-0.6,0.1-1c0-0.2,0-0.4,0-0.6c0-0.2,0-0.4-0.1-0.4
			c-1.1,0.6-2,1.2-2.9,2c-0.5,0.4-0.9,0.9-1.4,1.4c-0.2,0.3-0.4,0.6-0.7,0.9l-0.3,0.5l-0.3,0.3c-0.6,0.9-1.1,1.8-1.6,2.8l-1.5,2.8
			c-0.9,1.9-1.9,3.7-2.9,5.7c-0.2,0.5-0.4,1-0.6,1.5l-0.3,0.8L51.4,55l-0.2,0.5c-0.2,0.7-0.4,1.5-0.6,2.1c-0.1,0.7-0.2,1.3-0.3,2
			c0,0.1,0.1,0.1,0.2,0.2c0,0,0,0,0,0l0.1,0l0.2-0.1c0.3-0.1,0.6-0.2,0.9-0.3c0.5-0.2,1.1-0.6,1.6-1.1c0.3-0.3,0.6-0.5,0.8-0.8
			c0.3-0.3,0.6-0.7,0.7-0.9c0.4-0.5,0.7-0.9,1-1.4c1.3-1.9,2.4-4,3.4-6l0.4-0.8c0-0.1,0.1-0.1,0.2-0.3l0.3-0.3l1-1.4
			c0.7-0.9,1.3-1.9,2-2.8c0.6-1,1.2-2,1.7-3.1c0.4-1.1,0.9-2.3,0.6-3.7L65.2,36l-0.7,0.5c-1.6,1-2.8,2.5-3.8,4.1
			c-0.9,1.6-1.7,3.3-2.3,4.9l-0.3,0.6L58,46.5c0,0.1,0,0.1,0,0.1l-0.1,0.1l-0.6,1.2c-0.4,0.8-0.8,1.6-1.2,2.4
			c-0.4,0.8-0.8,1.7-1,2.6c-0.1,0.2-0.1,0.5-0.2,0.7c0,0.2-0.1,0.6-0.1,0.9c0,0.6,0.1,1.2,0.2,1.8c0,0.1,0.2,0.1,0.4,0.1
			c0.1,0,0.3,0,0.4,0c0.3,0,0.5-0.1,0.8-0.1c0.3-0.1,0.5-0.2,0.8-0.3c0.1-0.1,0.3-0.2,0.4-0.2c0.1-0.1,0.2-0.1,0.3-0.2
			c0.8-0.5,1.4-1.2,2-1.8c1.2-1.3,2.2-2.7,3.2-4.1c1-1.4,1.9-2.9,2.7-4.5c0.4-0.8,0.8-1.6,1.2-2.4c0.4-0.8,0.7-1.6,0.9-2.6l0.2-1.1
			l-1,0.4c-1.3,0.6-2.1,1.6-2.8,2.5c-0.7,1-1.3,2-1.8,3.1c-0.3,0.5-0.5,1.1-0.8,1.6c-0.3,0.7-0.6,1.5-0.9,2.3
			c-0.5,1.5-0.8,2.8-1.1,4.2c0,0.3,0.6-0.1,0.9-0.3c0.4-0.2,0.7-0.5,1.1-0.7c0.7-0.5,1.4-1.2,2.1-2c0.4-0.4,0.7-0.9,1-1.3l0.4-0.6
			l0.4-0.5c0.4-0.7,0.8-1.4,1.2-2.2c0.4-0.8,0.7-1.5,1.1-2.1c0.4-0.7,0.9-1.3,1.3-2c0.9-1.4,1.9-2.8,2.3-4.5l0.2-0.9l-0.9,0.3
			c-1.1,0.3-1.7,1.1-2.3,1.8c-0.6,0.7-1.1,1.5-1.5,2.3c-0.4,0.8-0.8,1.6-1.2,2.4l-0.3,0.8c-0.1,0.3-0.2,0.6-0.3,0.9
			c-0.2,0.6-0.3,1.1-0.5,1.7c0,0.1,0.1,0.1,0.1,0.2c0,0,0,0.1,0.1,0.1c0.2,0,0.4,0,0.7,0.1c0.4,0,0.8-0.1,1.2-0.2
			c0.4-0.2,0.9-0.4,1.3-0.7c0.2-0.2,0.4-0.3,0.6-0.5c0.1-0.1,0.3-0.3,0.4-0.4c0.3-0.3,0.5-0.6,0.8-0.8l0.4-0.4l0.2-0.3
			c0.3-0.4,0.6-0.7,0.8-1.1l0.8-1.2c0.1-0.2,0.3-0.4,0.4-0.6l0.2-0.3l0.1-0.1c0,0,0,0,0,0l0,0.1c-0.4,0.9-1,1.6-1.2,2.5
			c-0.1,0.2-0.1,0.5-0.1,0.7c0,0.1,0,0.2,0.1,0.4l0,0.1l0.1,0.1c0,0.1,0.1,0.2,0.2,0.3l0.3,0.5l0.4-0.5c0.7-0.8,1.4-1.6,2-2.5
			c0.4-0.5,0.8-1.1,1.2-1.7c0.3-0.6,0.6-1.1,0.9-1.7l0-0.1c0,0,0-0.1-0.1-0.1l-0.4,0c-0.2,0-0.4,0-0.7,0c-0.4,0-0.9,0-1.4,0.1
			c-0.9,0.2-2,0.7-2.6,1.1c-1.4,0.8-2.6,1.8-3.7,2.9c-2.2,2.2-4.1,4.7-5.8,7.2l-0.3,0.5c-0.1,0.2-0.1,0.2-0.3,0.4l-0.8,0.8L59.5,53
			c-1,1.2-2.1,2.3-3,3.5c-1,1.2-1.9,2.5-2.7,3.8c-0.4,0.7-0.8,1.4-1,2.2s-0.5,1.7-0.1,2.6l0.2,0.6l0.4-0.5c1.1-1.2,2.1-2.5,2.9-3.9
			l0.3-0.5c0.1-0.2,0.2-0.4,0.3-0.6c0.3-0.5,0.5-0.9,0.6-1.4c0-0.2,0.1-0.4,0.1-0.7c0-0.2-0.1-0.4-0.2-0.6c-0.2-0.2-0.4-0.2-0.6-0.2
			c-0.2,0-0.4,0-0.7,0c-0.5,0.1-0.9,0.2-1.4,0.5c-0.2,0.1-0.4,0.3-0.6,0.5c-0.2,0.2-0.3,0.3-0.5,0.5c-0.5,0.6-1,1.3-1.4,2.1
			c-0.4,0.7-0.7,1.5-1,2.3c-0.1,0.5-0.3,1-0.4,1.5c-0.1,0.5-0.1,0.9-0.1,1.4c0.8,0,1.7-0.1,2.5-0.5c0.2-0.1,0.4-0.2,0.6-0.3
			c0.2-0.1,0.3-0.2,0.5-0.3c0.3-0.2,0.6-0.5,0.8-0.8c0.5-0.6,0.9-1.2,1.2-1.8c0.2-0.3,0.3-0.6,0.5-0.9l0.4-0.9
			c0.1-0.1,0.2-0.3,0.4-0.4c0.1-0.2,0.2-0.3,0.4-0.5c0.2-0.3,0.4-0.6,0.7-0.9c0.4-0.7,0.8-1.4,1-2.1c0.1-0.4,0.2-0.8,0.3-1.2
			c0-0.2,0-0.4,0-0.6c0-0.3-0.1-0.4-0.1-0.5c0-0.2,0-0.4-0.2-0.7c-0.1-0.2-0.4-0.3-0.6-0.3c-0.2,0-0.3,0.1-0.4,0.2
			c-0.4,0.3-0.6,0.6-0.8,0.9c-0.9,1.3-1.6,2.7-2.2,4c-0.3,0.7-0.6,1.4-0.9,2.1c-0.3,0.7-0.5,1.4-0.6,2.3l0,0.1c0,0,0,0.1,0,0.1
			c-0.1,0.4-0.3,0.8-0.4,1.3c-0.1,0.4-0.2,0.8-0.3,1.4c-0.1,0.5-0.2,1.1-0.1,1.6c0,0.2,0.1,0.5,0.2,0.7c0.2,0.2,0.4,0.3,0.7,0.2
			c0.4-0.1,0.9-0.3,1.3-0.7c0.2-0.2,0.4-0.3,0.6-0.5c0.2-0.2,0.4-0.3,0.5-0.5l0.5-0.5l0.1-0.1c0,0,0.1-0.1,0.1-0.2l0.2-0.3l0.8-1.1
			c1.1-1.4,2.1-2.9,3-4.5c0.1-0.2,0.2-0.4,0.4-0.7c0.1-0.2,0.2-0.5,0.3-0.7c0.2-0.5,0.4-1,0.5-1.4c0.3-0.9,0.4-1.8,0.4-2.8l0-0.2
			c0,0-0.1,0-0.2,0c-0.1,0.1-0.3,0.1-0.4,0.2c-0.3,0.1-0.5,0.3-0.8,0.4c-0.5,0.3-1,0.7-1.4,1.1c-0.4,0.5-0.8,1-1.2,1.6
			c-0.2,0.3-0.4,0.6-0.5,0.9c-0.1,0.3-0.3,0.5-0.4,0.8c-0.5,1.1-0.9,2.1-1.3,3.2L56,64.2c-0.2,0.6-0.5,1.3-0.8,2.1
			c0,0.4-0.1,0.8-0.3,1.2l-0.1,0.3c0,0,0,0,0,0l0.1,0c0.1,0,0.1,0,0.2,0c0.3-0.1,0.5-0.1,0.8-0.3c1-0.5,1.7-1.3,2.5-2.3
			c0.4-0.5,0.8-1.1,1.1-1.6c0.3-0.5,0.5-1,0.8-1.4c0.5-1,0.9-2,1.2-3.1l0.1-0.4l-0.4,0.1c-0.9,0.2-1.7,0.8-2.3,1.6
			c-0.6,0.7-0.9,1.6-1.3,2.4c-0.3,0.9-0.5,1.7-0.7,2.6c-0.1,0.4-0.1,0.9-0.2,1.3c0,0.5-0.1,1-0.1,1.5l0,0.1c0,0,0.1,0,0.1,0
			c0.1,0,0.2,0,0.2,0c0.2,0,0.3,0,0.5,0c0.3,0,0.7,0,1-0.1c0.7-0.2,1.2-0.6,1.6-1.1c0.8-0.9,1.4-2,2-2.9l0.3-0.4L62,64
			c-0.8,0.2-1.4,0.8-1.9,1.5c-0.4,0.6-0.8,1.4-1,2.1c-0.3,0.7-0.5,1.5-0.6,2.3c-0.2,0.8-0.3,1.7-0.3,2.5l0.1,0.5
			c0.2,0,0.4,0.1,0.5,0.1c0.4,0,0.7-0.1,1-0.3c0.6-0.4,1.1-1,1.5-1.7c0.6-1.3,1-2.7,1-4.1l0-0.2L62,66.6c-1,0.4-1.7,1.2-2.2,2.1
			c-0.5,0.9-0.9,1.8-1.3,2.7l-0.2,0.7c-0.1,0.2-0.2,0.5-0.1,0.8c0,0.5,0,1,0.1,1.5c0,0.2,0.1,0.5,0.2,0.8c0.1,0.2,0.2,0.5,0.5,0.7
			c0.3,0.2,0.6,0.1,0.8-0.1c0.2-0.1,0.4-0.3,0.6-0.5l0.2-0.2l-0.3,0c-0.6,0-1.1,0.4-1.3,0.9c-0.2,0.5-0.3,1-0.2,1.5
			c0.1,0.5,0.3,1,0.7,1.4c0.4,0.4,1,0.4,1.5,0.2c0.5-0.2,0.8-0.6,1.2-1c0.3-0.4,0.5-0.8,0.8-1.3c0.4-0.9,0.7-1.9,0.7-2.9l0-0.1
			l-0.1,0c-0.5,0.2-1,0.6-1.3,1.1c-0.3,0.5-0.6,1-0.7,1.5c-0.1,0.5-0.1,1.1,0.1,1.7c0.2,0.5,0.7,0.9,1.3,1c0.5,0.2,1.2,0.1,1.6-0.2
			c0.5-0.3,0.7-0.9,0.9-1.4c0.2-1.1-0.2-2.3-1.2-3c0,0,0.3,0.1,0.6,0.6c0.4,0.4,0.7,1.3,0.5,2.4c-0.1,0.5-0.4,1.2-1.1,1.5
			c-0.6,0.3-1.5,0.2-2.1-0.3c-0.7-0.6-0.7-1.6-0.5-2.5c0.1-0.5,0.4-0.9,0.7-1.3c0.3-0.4,0.7-0.8,1.2-1l0,0c0,0.8-0.3,1.7-0.6,2.6
			c-0.4,0.8-0.8,1.7-1.6,2.3c-0.4,0.3-0.9,0.4-1.4,0.2c-0.5-0.2-0.8-0.7-0.9-1.2c-0.1-0.5-0.1-1.1,0.1-1.6c0.2-0.5,0.7-0.9,1.2-0.9
			l0-0.1c-0.1,0.2-0.3,0.3-0.5,0.4c-0.2,0.1-0.4,0.2-0.6,0.1c-0.2-0.1-0.4-0.3-0.4-0.5c-0.1-0.2-0.2-0.4-0.2-0.7
			c-0.1-0.5-0.1-0.9-0.1-1.4l0-0.4c0-0.1,0-0.1,0-0.2l0.1-0.2l0.2-0.7c0.3-0.9,0.7-1.9,1.3-2.8c0.5-0.9,1.2-1.8,2.2-2.2L62,66.7
			c0,1.3-0.3,2.7-0.9,3.9c-0.3,0.6-0.7,1.2-1.2,1.5c-0.3,0.2-0.6,0.3-0.9,0.3c-0.2,0-0.4,0-0.5,0c0-0.1,0-0.3,0-0.5
			c0-0.7,0.1-1.4,0.3-2c0.1-0.7,0.3-1.5,0.6-2.2c0.3-0.7,0.6-1.4,1-2c0.4-0.6,1-1.2,1.8-1.4l-0.1-0.2c-0.6,1-1.2,2-2,2.9
			c-0.4,0.4-0.9,0.8-1.4,1c-0.2,0.1-0.5,0.1-0.8,0.1c-0.1,0-0.3,0-0.4,0c0,0-0.1,0-0.2,0c0,0-0.1,0-0.1,0l0-0.1c0-0.4,0-0.8,0.1-1.1
			c0-0.4,0.1-0.8,0.2-1.3c0.2-0.8,0.4-1.7,0.7-2.5c0.3-0.8,0.7-1.6,1.2-2.3c0.5-0.7,1.2-1.3,2.1-1.5L61.1,59c-0.2,1-0.7,2-1.1,3
			c-0.2,0.5-0.5,0.9-0.8,1.4c-0.3,0.4-0.5,0.8-0.8,1.2c-0.6,0.8-1.2,1.5-2,2c-0.2,0.1-0.4,0.2-0.6,0.3c-0.1,0-0.2,0.1-0.4,0.1
			c0,0,0,0,0-0.1l0-0.1l0.1-0.2c0.2-0.4,0.4-0.9,0.5-1.3l0.9-2.7c0.4-1.1,0.8-2.1,1.2-3.2c0.5-1.1,0.9-1.9,1.6-2.6
			c0.3-0.4,0.7-0.7,1.1-1c0.2-0.1,0.4-0.3,0.6-0.4c0.1,0,0.2-0.1,0.4-0.1c0,0,0.1-0.1,0.1,0l0,0.2c-0.1,1.4-0.6,2.8-1.3,4
			c-0.8,1.5-1.8,2.9-2.9,4.4l-0.8,1.1c-0.1,0.2-0.3,0.4-0.4,0.5l-0.5,0.5l-0.5,0.5c-0.2,0.1-0.3,0.2-0.4,0.4
			c-0.3,0.2-0.6,0.5-0.9,0.6c-0.1,0.1-0.4,0.1-0.5,0c-0.2-0.1-0.2-0.3-0.2-0.5c0-0.4,0.1-0.7,0.1-1.1c0-0.3,0.2-0.8,0.3-1.2
			c0.1-0.4,0.3-0.9,0.4-1.3c0,0,0-0.1,0-0.1l0-0.1c0.1-0.7,0.3-1.4,0.6-2c0.3-0.7,0.5-1.4,0.9-2c0.6-1.3,1.3-2.7,2.1-3.9
			c0.2-0.3,0.4-0.6,0.7-0.8c0-0.1,0.1-0.1,0.2-0.1c0,0,0,0,0,0c0-0.1,0-0.1,0-0.1c0,0-0.1,0.1,0,0.1c0,0,0,0,0,0.1c0,0,0,0.1,0,0.2
			c0,0.1,0,0.2,0,0.3c0,0.1,0.1,0.2,0.1,0.3c0,0.2,0,0.3,0,0.5c0,0.3-0.1,0.7-0.2,1c-0.2,0.7-0.6,1.4-1,2c-0.2,0.3-0.4,0.6-0.6,0.9
			l-0.4,0.5c-0.1,0.2-0.2,0.3-0.4,0.5l-0.4,1c-0.2,0.3-0.3,0.6-0.5,0.9c-0.4,0.6-0.7,1.2-1.1,1.6c-0.2,0.2-0.4,0.5-0.7,0.7
			c-0.1,0.1-0.3,0.2-0.4,0.3c-0.1,0.1-0.2,0.1-0.3,0.2c-0.5,0.2-1,0.3-1.5,0.3c0-0.6,0.2-1.2,0.4-1.7c0.3-0.7,0.6-1.4,0.9-2.1
			c0.4-0.7,0.8-1.3,1.3-1.9c0.1-0.1,0.3-0.3,0.4-0.4c0.1-0.1,0.2-0.2,0.3-0.3c0.2-0.2,0.5-0.3,0.8-0.4c0.3,0,0.6-0.1,0.9,0
			c0.1,0.1,0.2,0.2,0.2,0.4c0,0.2,0,0.3-0.1,0.4c-0.2,0.6-0.5,1-0.9,1.8c-0.8,1.3-1.8,2.6-2.9,3.8l0.6,0.1c-0.2-0.5-0.1-1.3,0.1-1.9
			c0.2-0.7,0.6-1.3,0.9-2c0.7-1.3,1.6-2.5,2.5-3.6c0.9-1.2,1.9-2.3,3-3.4c0.5-0.6,1-1.1,1.6-1.7l0.8-0.8l0.4-0.4
			c0.1-0.1,0.2-0.2,0.2-0.3l0.2-0.2c1.7-2.6,3.6-5,5.8-7.2c1.1-1.1,2.3-2.1,3.6-2.9c0.1-0.1,0.3-0.2,0.5-0.3l0.2-0.1l0.2-0.1
			c0.2-0.1,0.5-0.2,0.8-0.3c0.3-0.1,0.5-0.1,0.8-0.1c0.1,0,0.3,0,0.4,0c0.1,0,0.1,0,0.2,0c0,0,0,0,0,0.1l0,0.1
			c-0.3,0.6-0.7,1.2-1.2,1.8c-0.6,0.8-1.2,1.6-2,2.4l0.7,0c0-0.1-0.1-0.1-0.1-0.2c0,0,0-0.1,0-0.1l0-0.2c0,0,0-0.1,0-0.2
			c0-0.1,0-0.1,0-0.2l0-0.3c0-0.1,0.1-0.3,0.1-0.4l0.1-0.2l0.1-0.3c0.1-0.2,0.1-0.4,0.2-0.5l0.3-0.9c0.2-0.6,0.4-1.2,0.5-1.7
			c-0.3,0.1-0.2-0.1-0.1-0.3c0.1-0.2,0.3-0.5,0.4-0.7c0.3-0.5,0.6-1,0.7-1.4c0,0,0-0.1,0-0.1c0,0-0.1,0.2-0.2,0.2l-0.4,0.5l-0.8,0.9
			c-0.5,0.6-1,1.2-1.6,2c-0.6,0.8-1.2,1.7-1.8,2.5c-0.7,0.9-1.1,1.3-1.6,1.9c-0.1,0.1-0.3,0.3-0.4,0.4c-0.1,0.1-0.2,0.2-0.3,0.3
			c-0.2,0.2-0.4,0.3-0.6,0.4c-0.2,0.1-0.5,0.2-0.7,0.2c-0.1,0-0.3,0-0.4,0c-0.1,0,0-0.1,0-0.1l0-0.2c0.1-0.3,0.2-0.6,0.3-0.8
			l0.1-0.4l0.2-0.4c0.3-0.8,0.7-1.6,1.1-2.3c0.4-0.8,0.9-1.5,1.4-2.2c0.5-0.6,1.2-1.2,1.9-1.4l-0.6-0.6c-0.4,1.4-1.3,2.8-2.1,4.1
			c-0.4,0.7-0.9,1.3-1.3,2c-0.4,0.7-0.8,1.5-1.2,2.2c-0.4,0.7-0.8,1.4-1.2,2.1c-0.2,0.3-0.4,0.7-0.7,1c-0.1,0.2-0.3,0.4-0.5,0.6
			c-0.3,0.4-0.7,0.8-1,1.1c-0.2,0.2-0.4,0.3-0.6,0.5c-0.1,0.1-0.2,0.2-0.3,0.2l-0.1,0c0,0,0,0,0,0l0,0l0-0.2
			c0.1-0.7,0.4-1.4,0.6-2.1c0.1-0.3,0.3-0.7,0.4-1c0.2-0.5,0.5-1.1,0.7-1.6c0.5-1,1.1-2,1.8-3c0.7-0.9,1.4-1.8,2.4-2.2L66.9,40
			c-0.1,0.7-0.5,1.5-0.8,2.3c-0.3,0.8-0.7,1.5-1.1,2.2c-0.8,1.5-1.7,2.9-2.6,4.4c-0.9,1.4-2,2.8-3.1,4c-0.6,0.6-1.2,1.2-1.8,1.7
			l-0.3,0.2c0,0-0.1,0.1-0.2,0.1c-0.1,0.1-0.2,0.1-0.3,0.2c-0.1,0-0.3,0.1-0.4,0.1c-0.1,0-0.1,0-0.2,0c-0.1,0-0.2,0-0.2-0.1
			c-0.1-0.3-0.1-0.5,0-0.8c0-0.1,0-0.2,0.1-0.4c0-0.2,0.1-0.4,0.1-0.6c0.2-0.8,0.6-1.6,0.9-2.4c0.4-0.8,0.8-1.6,1.2-2.4l0.6-1.2
			L59,47l0.1-0.3l0.2-0.6c0.7-1.7,1.4-3.3,2.3-4.8c0.9-1.5,2-2.9,3.4-3.8l-0.8-0.4c0.2,0.9-0.1,2-0.5,3c-0.4,1-1,2-1.6,2.9
			c-0.6,0.9-1.3,1.8-1.9,2.7l-1,1.4L59,47.4c-0.1,0.1-0.2,0.2-0.3,0.4l-0.4,0.8c-1,2-2,4-3.3,5.9c-0.3,0.5-0.6,0.9-0.9,1.4l-0.3,0.3
			l-0.1,0.2c-0.1,0.1-0.2,0.2-0.4,0.4c-0.2,0.2-0.5,0.5-0.7,0.6c-0.1,0.1-0.3,0.2-0.4,0.2l-0.1,0c0,0-0.1,0-0.1,0l0-0.2
			c0.1-0.6,0.2-1.2,0.4-1.7l0.2-0.6l0.3-0.7c0.2-0.5,0.4-0.9,0.6-1.4c0.8-1.9,1.9-3.7,2.8-5.6l1.5-2.7c0.5-0.9,1-1.8,1.6-2.7
			l0.4-0.5L60,41c0.2-0.2,0.4-0.5,0.6-0.7c0.4-0.4,0.9-0.8,1.4-1.1c0.1-0.1,0.1,0,0.1,0.1c0,0.1,0,0.2,0,0.3c0,0.2-0.1,0.4-0.1,0.5
			c-0.1,0.4-0.2,0.7-0.4,1c-0.1,0.3-0.3,0.7-0.5,1l-0.4,0.7l-0.5,0.8c-0.7,1.1-1.4,2.2-2.1,3.3c-0.4,0.5-0.7,1.1-1.1,1.7L56.8,49
			l-0.3,0.4l-0.6,0.8c-1.5,2.1-3,4.2-4.8,6.2c-0.9,1-1.8,1.9-2.8,2.6c-0.5,0.4-1,0.7-1.6,0.9C46.7,60,46.6,60,46.5,60
			c-0.1,0-0.2,0-0.3,0c-0.1,0-0.2,0-0.3,0c0,0-0.1,0-0.1,0c0,0-0.1,0-0.1-0.1c0-0.4-0.1-0.6,0-1.3c0-0.6,0.1-1.2,0.3-1.7
			c0.3-1.2,0.7-2.3,1.1-3.5c0.5-1.1,0.9-2.3,1.5-3.4l0.8-1.7c0.3-0.5,0.6-1.1,0.9-1.7c1.1-2.2,2.1-4.5,3.3-6.7
			c0.6-1.1,1.2-2.2,1.9-3.1c0.7-1,1.5-1.9,2.5-2.6l-0.9-0.7c-1,2.8-2.5,5.3-4.2,7.8c-0.8,1.2-1.7,2.5-2.6,3.7L49,47l-0.7,1
			c-0.2,0.4-0.4,0.7-0.6,1c-1.4,2.7-2.6,5.5-4.1,8.1c-0.8,1.3-1.6,2.6-2.5,3.7c-0.9,1.1-2,2.2-3.2,2.6l0.7,0.9
			c3.2-4.7,5.4-9.9,7.7-14.9c2.4-5,5.1-10,9.1-13.8l-0.8-0.8l-4.1,5.4l-2.1,2.7l-1,1.3l-0.3,0.3c-0.1,0.2-0.2,0.3-0.3,0.4l-0.4,0.7
			c-1.2,2-2.2,4-3.5,5.9c-1.2,1.8-2.6,3.7-4.5,4.7l0.8,0.6c0.7-2.1,1.7-4,2.8-6c0.6-1,1.1-1.9,1.7-2.9c0.3-0.5,0.5-1,0.8-1.5
			c0.1-0.3,0.2-0.5,0.4-0.7l0.4-0.8c1-2,2-4.1,3-6c1.1-1.9,2.2-3.9,3.8-5.3L51.4,33c-1.6,2.6-3.5,5-5.5,7.4c-1,1.2-2,2.4-2.9,3.6
			c-0.5,0.6-0.9,1.3-1.4,1.9c-0.2,0.3-0.4,0.7-0.6,1c-0.2,0.3-0.4,0.6-0.6,1c-1.7,2.7-3,5.5-4.6,8.1c-1.6,2.6-3.5,5.1-6.3,6.3
			l0.6,0.6c0.9-1.9,1.9-3.7,2.9-5.5l0.8-1.3l0.4-0.7c0.1-0.2,0.3-0.5,0.4-0.7c0.5-0.9,1-1.8,1.4-2.8c1-1.9,1.9-3.7,2.9-5.5
			c1-1.8,2.1-3.5,3.5-5l-0.7-0.5c-2,4.1-4.5,8-6.9,11.9c-1.3,2-2.3,4-3.5,6c-0.6,1-1.2,1.9-2,2.8c-0.7,0.9-1.5,1.7-2.4,2.1l0.5,0.5
			c1.1-3,2.4-5.9,3.9-8.7c1.5-2.8,3-5.6,4.8-8.2l-0.6-0.3c-0.8,2.2-2.1,4.2-3.3,6.2c-0.3,0.5-0.6,1-0.9,1.5
			c-0.1,0.3-0.3,0.5-0.4,0.8L30.7,56c-0.1,0.2-0.1,0.2-0.2,0.3c-0.7,1-1.3,2-2,3l-0.9,1.5c-0.3,0.4-0.5,0.8-0.8,1.2
			c-0.5,0.8-1.1,1.5-1.7,2.3c-0.3,0.3-0.7,0.7-1,1c-0.2,0.2-0.4,0.3-0.6,0.4l-0.3,0.2L23.1,66L23,66l0,0l0,0
			c0.5-0.8,0.9-1.6,1.2-2.5c0.5-1.1,0.9-2.2,1.3-3.3l0.8-2c0.3-0.7,0.5-1.3,0.8-2c0.6-1.3,1.3-2.6,2.1-3.8s1.8-2.3,2.9-3.1l-0.3-0.2
			c0,1.6-0.7,3.1-1.4,4.5c-0.8,1.4-1.7,2.7-2.7,4.1l-0.7,1c-0.2,0.3-0.4,0.7-0.6,1c-0.4,0.7-0.8,1.4-1.2,2.1c-0.4,0.7-0.9,1.4-1.4,2
			c-0.5,0.6-1.1,1.2-1.8,1.5l0.2,0.2c0.3-1.6,1.1-3.1,1.9-4.5c0.9-1.4,1.9-2.8,2.6-4.3c1.5-3,3.1-5.9,4.8-8.8l-0.1-0.1L24.7,59
			l-3.3,5.6c-0.5,0.9-1,1.9-1.7,2.7c-0.4,0.4-0.7,0.8-1.2,1.1c-0.4,0.3-1,0.4-1.5,0.5l0,0l0,0c1.1-0.4,1.9-1.2,2.8-2.1
			C20.4,65.9,21.1,65,21.9,64.2z"/>
	</g>
	<g>
		<path fill="#7D4816" d="M48,37.9c0,0,0.7-0.3,1.8-1.3c0.5-0.5,1.1-1.2,1.7-2.1c0.6-0.9,1.1-2,1.7-3.2l0.1-0.2l-0.3,0
			c-0.3,0-0.6,0.1-0.8,0.2c-0.2,0.1-0.4,0.2-0.7,0.3c-0.4,0.3-0.8,0.6-1.1,1c-0.7,0.8-1.3,1.7-2.1,2.6c-0.2,0.2-0.4,0.4-0.6,0.6
			c-0.1,0.1-0.2,0.2-0.3,0.3l-0.2,0.1c0,0,0.1-0.1,0.1-0.2c0.5-0.5,0.9-1.1,1.2-1.7c0.4-0.7,0.8-1.5,1.2-2.3
			c0.2-0.5,0.4-0.9,0.6-1.4c0.2-0.5,0.4-0.9,0.7-1.6c0.5-1.3,1-2.7,1.5-4.2l0.4-1.1l-1,0.6c-1.7,1-2.8,2.8-3.8,4.5
			c-0.9,1.8-1.7,3.7-2.7,5.4l-0.9,1.6l1.6-0.9c1.1-0.6,1.8-1.6,2.4-2.5c0.6-0.9,1.2-1.9,1.7-3c0.5-1,1-2.1,1.4-3.2
			c0.4-1.1,0.8-2.2,1-3.5l0.2-1l-0.9,0.4c-0.6,0.2-0.9,0.6-1.3,1c-0.3,0.4-0.6,0.7-0.8,1.1c-0.5,0.8-0.9,1.6-1.4,2.4
			c-0.4,0.8-0.8,1.6-1.2,2.5c-0.4,0.8-0.8,1.7-1.2,2.4l0.9,0.7c0.9-1,1.5-2,2.1-3c0.6-1,1.2-2.1,1.7-3.2c0.5-1.1,1-2.2,1.4-3.4
			c0.2-0.6,0.4-1.2,0.5-1.8c0.1-0.6,0.2-1.3,0.1-2.1l-0.3-1.1l-0.8,0.8c-1.2,1.3-2.3,2.8-3.1,4.4c-0.9,1.6-1.6,3.2-2,5.1l-0.9,3.7
			l1.9-3.3c1.1-1.9,2.4-3.8,3.5-5.9c0.5-1,1-2.1,1.4-3.2c0.4-1.1,0.7-2.3,0.7-3.6l0-0.6l-0.6,0.2c-0.6,0.2-1.1,0.5-1.4,0.9
			c-0.4,0.4-0.7,0.8-1,1.2c-0.6,0.8-1.1,1.7-1.6,2.6c-0.9,1.8-1.7,3.7-2.5,5.4l0.7,0.4c1-1.8,2.1-3.6,2.9-5.6c0.8-2,1.4-4.1,1.3-6.3
			l0-0.5l-0.4,0.3c-1,0.7-1.8,1.7-2.4,2.7c-0.6,1-1.1,2.2-1.4,3.3l0.4,0.1c0.2-1.4,0.8-2.8,1.4-4.2c0.6-1.4,1-2.8,0.9-4.3
			c0,0,0.1,0.8-0.3,2.3c-0.2,0.7-0.6,1.6-1,2.6c-0.4,1-0.9,2.2-1.2,3.6l0.2,0c0.3-1,0.7-2,1.3-3c0.6-1,1.4-2,2.4-2.7l-0.3-0.2
			c0,1.8-0.4,3.8-1.2,5.7c-0.8,1.9-2,3.8-3.2,5.9l0.6,0.3c0.8-1.7,1.6-3.4,2.5-5.2c0.4-0.9,0.9-1.7,1.5-2.5c0.3-0.4,0.6-0.8,1-1.1
			c0.3-0.3,0.7-0.6,1.1-0.7l-0.6-0.4c0,1-0.3,2-0.6,3.1c-0.4,1-0.9,2-1.4,3c-1.1,2-2.4,3.9-3.6,6l1,0.4c0.4-1.6,1.1-3.2,1.9-4.7
			c0.8-1.5,1.8-2.9,3-4.2l-1-0.2c0.1,0.4,0,1-0.1,1.5c-0.1,0.5-0.3,1.1-0.4,1.6c-0.4,1.1-0.8,2.2-1.3,3.3c-0.5,1.1-1.1,2.1-1.7,3.2
			c-0.6,1-1.2,2.1-2,2.9l0.9,0.7c0.5-0.8,0.9-1.6,1.3-2.4c0.4-0.8,0.8-1.6,1.2-2.4c0.4-0.8,0.9-1.6,1.3-2.3c0.2-0.4,0.5-0.7,0.8-1
			c0.3-0.3,0.6-0.6,0.8-0.7l-0.8-0.6c-0.4,2.1-1.3,4.2-2.2,6.2c-0.5,1-1,2-1.6,2.9c-0.6,0.9-1.3,1.8-2.1,2.3l0.7,0.7
			c1-1.7,1.7-3.6,2.6-5.3c0.9-1.7,1.9-3.4,3.5-4.4l-0.7-0.5c-0.4,1.3-0.9,2.7-1.4,4l-0.4,1.1l-0.5,1.3c-0.2,0.4-0.4,0.8-0.6,1.3
			L48.7,33l-0.2,0.4l-0.1,0.2l0,0.1l0,0.1l-0.1,0.1c-0.1,0.9-0.4,1.6-0.8,2.3c-0.3,0.5-0.6,1-1,1.4c0,0.1-0.1,0.1-0.2,0.2l-0.1,0.1
			c0,0,0,0,0,0l0,0c0.1-0.1,0.3-0.2,0.4-0.3c0.2-0.2,0.5-0.4,0.7-0.7c0.8-0.9,1.6-2.1,2.6-3.1l0.8-0.8c0.3-0.3,0.6-0.6,0.9-0.9
			c0.3-0.3,0.6-0.4,0.9-0.6c0.3-0.1,0.5-0.2,0.8-0.2l-0.1-0.2c-0.6,1.3-1.2,2.6-1.9,3.7C50.2,36.2,49.3,37.3,48,37.9z"/>
	</g>
	<g>
		<path fill="#7D4816" d="M36.6,54.9l0,0.6l0,0.1l0.1-0.1c0.5-0.4,1.4-1.2,2.2-2.5c0.9-1.3,1.7-3.3,2.7-5.5l0.2-0.4l0.3-0.4
			c0.2-0.3,0.4-0.5,0.5-0.8c0.4-0.6,0.7-1.2,1-1.8c0.7-1.3,1.3-2.7,1.9-4.2l0.4-1.2l0.2-0.6c0.1-0.2,0.2-0.4,0.3-0.6l1.3-2.4
			c0.4-0.8,0.8-1.7,1.2-2.6c0.2-0.6,0.3-1.1,0.4-1.7c0.1-0.6,0.1-1.1,0.1-1.7c-0.9,0.2-1.9,0.7-2.9,1.4c-0.2,0.2-0.4,0.3-0.6,0.5
			c-0.2,0.2-0.4,0.4-0.5,0.5c-0.4,0.4-0.7,0.8-1,1.2c-1.2,1.6-2.3,3.5-3.3,5.4c-0.9,1.9-2.1,3.8-3.2,5.8c-1.1,2-2.2,4.1-3.1,6.4
			l0.9,0.3c0.9-2.8,2.4-5.4,3.9-8.2c0.7-1.4,1.5-2.8,2.1-4.3c0.3-0.8,0.6-1.5,0.9-2.3l0.1-0.4l0.1-0.4c0.1-0.3,0.1-0.5,0.2-0.8
			c0.1-0.5,0.2-1.1,0.2-1.6c0-0.1-0.1-0.1-0.1-0.2c-0.1,0-0.3,0-0.4,0c-0.3,0-0.5,0-0.8,0.1c-0.5,0.1-1.1,0.3-1.6,0.7
			c-0.3,0.2-0.5,0.4-0.7,0.6c-0.2,0.2-0.4,0.4-0.5,0.6c-0.3,0.4-0.6,0.8-0.9,1.2c-1.1,1.6-1.9,3.4-2.7,5.2c-0.8,1.8-1.5,3.7-2.3,5.5
			c-0.4,0.9-0.8,1.8-1.3,2.7c-0.4,0.9-0.9,1.8-1.5,2.4l-2,2.1l2.7-1.2c0.8-0.4,1.4-1,1.9-1.6c0.5-0.6,0.9-1.2,1.3-1.9
			c0.8-1.3,1.4-2.7,2.1-4c0.6-1.4,1.1-2.8,1.6-4.3c0.2-0.7,0.4-1.5,0.6-2.2l0-0.3l0.1-0.4c0-0.3,0.1-0.5,0.1-0.8
			c0.1-0.5,0.1-1,0.1-1.5l-0.1-0.2c-0.1,0,0-0.1-0.2-0.2c-0.2-0.1-0.4-0.1-0.6-0.1c-0.4,0-0.8,0-1.2,0.2c-0.4,0.2-0.8,0.4-1.1,0.8
			c-0.2,0.2-0.4,0.3-0.5,0.5c-0.1,0.2-0.3,0.3-0.4,0.4c-0.9,1.1-1.6,2.3-2.2,3.5c-0.6,1.2-1.2,2.5-1.8,3.7c-0.6,1.2-1.2,2.5-1.9,3.6
			L27.3,50l2.4-1.6c1.2-0.8,2-1.9,2.6-3c0.7-1.1,1.2-2.3,1.6-3.5c0.5-1.2,0.9-2.4,1.2-3.7l0.3-0.9l0.3-1.1c0.2-0.9,0.4-1.7,0.5-2.6
			c-0.1-0.1-0.1-0.2-0.1-0.3L36,33.1c0,0-0.2,0-0.2,0c-0.3,0-0.7,0-1,0.1c-0.6,0.2-1.2,0.5-1.8,1.1c-0.3,0.3-0.6,0.6-0.8,0.9
			c-0.2,0.3-0.4,0.5-0.5,0.8c-0.3,0.5-0.6,1-0.9,1.6c-0.6,1.1-1.1,2.1-1.6,3.2c-0.5,1.1-1,2.2-1.5,3.1l-2.2,3.9l3-3.2
			c1.4-1.5,2.1-3.3,2.5-5.2c0.2-0.9,0.4-1.9,0.5-2.8c0-0.4,0.1-1.1,0.1-1.7c0-0.6,0-1.2,0-1.8c0-0.1-0.1-0.1-0.1-0.2l0-0.1l0,0
			c0,0-0.1,0-0.1,0c-0.3,0-0.5,0.1-0.7,0.1c-0.4,0.1-0.9,0.4-1.3,0.7c-0.4,0.3-0.7,0.8-1,1.3c-0.3,0.4-0.5,0.8-0.7,1.2
			c-0.8,1.6-1.4,3.2-1.9,4.9l0.8,0.2c0.3-1.5,0.8-3,1.3-4.6c0.2-0.8,0.5-1.5,0.7-2.3c0-0.2,0.1-0.5,0.2-0.7c0-0.2,0.1-0.5,0.1-0.7
			c0.1-0.5,0.1-1,0.1-1.4c0-0.1-0.1-0.3-0.1-0.4c-0.2,0-0.4-0.1-0.5-0.1c-0.4,0-0.7,0.1-1,0.2c-0.7,0.3-1.2,0.9-1.6,1.6
			c-0.2,0.3-0.3,0.6-0.5,0.9l-0.2,0.5l-0.1,0.4c-0.2,0.5-0.3,1-0.4,1.5c0,0.2-0.1,0.4-0.1,0.6c0,0.1,0,0.2,0,0.3l0,0.2l0,0.1
			c0,0,0,0,0,0c-0.2-0.4-0.3-0.7-0.4-1.1c-0.1-0.4-0.2-0.8-0.4-1.1c-0.1-0.2-0.2-0.3-0.4-0.5c-0.2-0.2-0.4-0.4-0.7-0.5L22,33.6
			l-0.1,0.2c-0.6,1-0.9,2.1-1.3,3.2c-0.4,1-0.9,2.1-1.8,2.7l0.2,0.3c0.5-0.3,0.7-0.7,0.9-1.1c0.2-0.4,0.3-0.9,0.3-1.4
			c0-0.5-0.1-0.9-0.3-1.4c-0.2-0.4-0.6-0.8-1.1-0.9l0,0C18.7,35,18.5,35,18.4,35c-0.2,0-0.4,0.2-0.5,0.3c-0.2,0.3-0.4,0.6-0.5,0.9
			c-0.3,0.6-0.5,1.2-1.1,1.6l0.1,0c-0.3-0.3-0.5-0.7-0.6-1.2c-0.1-0.4-0.1-0.9-0.1-1.3c0,0,0,0.2,0,0.7c0,0.2,0,0.5,0.1,0.8
			c0.1,0.3,0.2,0.7,0.5,1l0,0c0.5-0.2,0.8-0.8,1.1-1.4c0.2-0.3,0.3-0.6,0.5-0.9c0.1-0.2,0.2-0.3,0.4-0.4c0.2-0.1,0.4,0,0.6,0.1l0,0
			l0,0c0.4,0.1,0.7,0.4,0.9,0.7c0.2,0.4,0.3,0.8,0.3,1.2c0,0.4-0.1,0.9-0.3,1.3c-0.2,0.4-0.4,0.9-0.9,1.1l0.1,0.2
			c0.9-0.6,1.4-1.6,1.8-2.6c0.4-1.1,0.7-2.2,1.4-3.2L22,34c0.2,0.1,0.4,0.2,0.5,0.4c0.1,0.1,0.3,0.4,0.4,0.6c0.2,0.5,0.4,1,0.6,1.5
			c0.2,0.5,0.3,1,0.6,1.5l0,0.1c0,0,0,0.1,0,0c0,0,0-0.1,0-0.1c0-0.1,0-0.2,0-0.3c0-0.2,0.1-0.3,0.3-0.4c0.1-0.6,0.1-1.1,0.2-1.5
			c0.1-0.4,0.2-0.8,0.3-1.1c0.1-0.2,0.1-0.3,0.2-0.5c0.1-0.2,0.1-0.3,0.2-0.4c0.1-0.3,0.3-0.5,0.5-0.8c0.3-0.5,0.6-0.9,1.1-1.2
			c0.2-0.1,0.5-0.2,0.8-0.3c0.1,0,0.3,0,0.4,0c0,0,0,0,0,0.1l0,0.1l0,0.2c-0.1,0.6-0.1,1.2-0.3,1.8c-0.2,0.8-0.4,1.5-0.7,2.2
			c-0.5,1.5-1.1,3.1-1.4,4.8l0.6,0.2c0.5-1.6,1.1-3.1,1.8-4.6c0.2-0.4,0.4-0.8,0.6-1.1c0.2-0.3,0.4-0.5,0.6-0.7
			c0.2-0.2,0.5-0.4,0.8-0.6c0.1-0.1,0.3-0.1,0.4-0.1c0.1,0,0.1,0.1,0.1,0.2l0,0.2c0,0.3,0,0.6,0,1l0,0.5l0,0.6
			c-0.1,0.9-0.2,1.8-0.5,2.7c-0.4,1.8-1.1,3.5-2.4,4.8l0.7,0.6c0.6-1.1,1-2.1,1.6-3.1c0.5-1,1-2.1,1.6-3.1c0.3-0.5,0.6-1,0.9-1.5
			c0.1-0.2,0.3-0.5,0.5-0.7l0.2-0.3l0.2-0.2c0.3-0.3,0.5-0.5,0.9-0.7c0.2-0.1,0.4-0.1,0.5-0.1c0,0,0.1,0,0.2,0c0,0,0,0.1,0,0.2
			l0,0.3c-0.1,0.4-0.2,0.8-0.2,1.1l-0.2,0.7l-0.2,0.9c-0.3,1.2-0.7,2.4-1.2,3.5c-0.4,1.2-0.9,2.3-1.6,3.4c-0.6,1.1-1.4,2.1-2.3,2.8
			l0.8,0.8c0.8-1.2,1.3-2.4,1.9-3.6c0.6-1.2,1.2-2.4,1.8-3.6c0.6-1.2,1.3-2.4,2.1-3.4c0.1-0.1,0.2-0.3,0.3-0.4
			c0.1-0.1,0.1-0.2,0.2-0.2c0.1-0.1,0.3-0.3,0.4-0.4c0.2-0.1,0.4-0.2,0.5-0.2c0.1,0,0.2,0,0.3,0c0.1,0,0,0.1,0.1,0.1l0,0.1
			c0,0.2,0,0.4-0.1,0.6l0,0.3L37.3,38c-0.2,0.7-0.4,1.4-0.6,2.1c-0.4,1.4-0.9,2.8-1.5,4.1c-0.6,1.4-1.2,2.7-2,4
			c-0.4,0.6-0.8,1.2-1.3,1.8c-0.4,0.6-1,1.1-1.5,1.3l0.7,1c0.8-0.8,1.2-1.7,1.6-2.6c0.4-0.9,0.9-1.8,1.2-2.7
			c0.8-1.8,1.5-3.6,2.3-5.4c0.8-1.8,1.6-3.6,2.6-5.2c1.1-1.7,2.2-3,3-2.4c-0.1,0.5-0.1,0.9-0.3,1.4c-0.2,0.7-0.5,1.5-0.8,2.2
			c-0.6,1.4-1.3,2.8-2,4.2c-1.5,2.8-3.1,5.5-4.1,8.6l0.9,0.3c0.7-2,1.7-3.9,2.7-5.7c0.5-0.9,1-1.9,1.5-2.8c0.5-0.9,1.1-1.9,1.6-2.8
			c0.9-1.9,1.9-3.8,3.1-5.5c0.6-0.9,1.3-1.7,2-2.4c0.3-0.3,0.6-0.5,1-0.7c0.2-0.1,0.4-0.2,0.6-0.3c0.1-0.1,0.2-0.1,0.3-0.1l0.1,0
			l0.1,0c0,0,0,0,0,0l0,0c0,0.5,0,1-0.1,1.4c0,0.2-0.1,0.5-0.2,0.7c-0.1,0.2-0.2,0.6-0.3,0.8c-0.4,1.1-1,2.2-1.5,3.3
			c-0.3,0.6-0.6,1.1-0.8,1.7l-0.6,1.7c-0.4,1.1-0.9,2.3-1.4,3.4c-0.5,1.1-1.1,2.2-1.7,3.2c-0.2,0.3-0.3,0.5-0.5,0.8l-0.4,0.8
			l-0.7,1.7c-0.5,1.1-1,2.2-1.6,3.3c-0.6,1-1.3,2-2.3,2.8l0,0l0-0.1L36.6,54.9z"/>
	</g>
	<g>
		<path fill="#7D4816" d="M23.6,42.9c0,0,0.1,0,0.2,0c0.1,0,0.2-0.2,0.2-0.3c0-0.4-0.2-0.8-0.4-1.4c-0.6-1.1-1.5-2.4-2.8-3.8
			l-1.1-1.1l0,1.5c0,0.4,0,0.9,0.1,1.3l1.1,0c-0.1-1.3-0.8-2.5-1.8-3.2c0,0,0.2,0.3,0.4,0.9c0.2,0.6,0.5,1.4,0.4,2.4l1,0
			c0-0.4,0.1-0.8,0.1-1.3l-1,0.4c0.6,0.7,1.3,1.5,2.1,2.3l1.1,1.2c0.2,0.2,0.4,0.4,0.5,0.6c0.1,0.1,0.2,0.2,0.2,0.3
			C23.8,42.8,23.7,42.9,23.6,42.9z"/>
	</g>
</g>
</svg>
