<?xml version="1.0" encoding="utf-8"?>
<!-- Generator: Adobe Illustrator 18.1.1, SVG Export Plug-In . SVG Version: 6.00 Build 0)  -->
<svg version="1.1" id="Layer_1" xmlns="http://www.w3.org/2000/svg" xmlns:xlink="http://www.w3.org/1999/xlink" x="0px" y="0px"
	 viewBox="0 0 85 85" enable-background="new 0 0 85 85" xml:space="preserve">
<g>
	<g>
		<path fill="#7D4816" d="M52.5,47c0,0,0.2,0,0.4-0.1c0.1-0.1,0.3-0.2,0.4-0.3c0.2-0.2,0.3-0.3,0.6-0.3l-0.1-0.1
			c-0.2,1.2-0.4,2.9-0.8,5.3c-0.4,2.3-0.9,5.3-1.5,8.7c-0.1,0.9-0.2,1.8-0.3,2.7l-0.4,2.9c-0.2,1-0.3,2-0.4,3.1l-0.2,1.7L50,72.1
			c-0.1,0.9-0.1,1.8,0,2.7c0,0.9,0.1,1.8,0.2,2.7c0,0.9-0.1,1.9-0.5,2.7l-0.1,0.3c-0.1,0.1-0.1,0-0.1-0.1l-0.1-0.2l-0.2-0.8
			l-0.4-1.5c-0.4-1.6-0.8-3.2-1.3-4.7l-0.3-1.2l-0.5-1.6c-0.3-1.1-0.7-2.2-1.1-3.3l-0.3-0.8c-0.1-0.2-0.2-0.5-0.3-0.8L44.5,64
			l-1-3.5c-0.7-2.4-1.4-4.8-2.6-7.3c-0.6-1.2-1.2-2.4-2.2-3.5c-1-1.2-2.4-1.9-3.9-2.2c-2.9-0.7-5.7-0.2-8.5-0.1
			c-1.3,0.1-2.8,0.1-4.2,0.1c-1.4,0-2.9,0-4.3,0c-1.4,0-3,0-4.3-0.1c-0.8-0.1-1.7-0.1-2.5-0.2l-0.2,0l0.1-0.1l0.2-0.2l0.3-0.4
			c0.2-0.3,0.4-0.6,0.7-0.8l0.4-0.4l0.5-0.4c0.4-0.4,0.9-0.7,1.4-1.1c1.9-1.4,4.1-2.5,6.4-3.5c1.2-0.6,2.3-1.1,3.5-1.6
			c1.2-0.5,2.4-1,3.6-1.5c2.4-1.1,4.9-2.6,6.7-4.9c0.4-0.6,0.8-1.2,1.1-1.8c0.3-0.6,0.7-1.2,0.9-1.9c0.5-1.3,1-2.6,1.4-3.9
			c0.7-2.7,1.1-5.4,1.5-8.1l0.7-5.7c0.1-0.8,0.2-1.6,0.4-2.4l0.1-0.3c0,0,0,0,0,0l0.1,0.1l0,0.1L40.8,9c0.1,0.4,0.2,0.8,0.3,1.2
			c0.3,1.2,0.8,2.4,1.3,3.6l1.2,2.9c0.4,1,0.8,2,1.2,3l0.6,1.5l0.5,1.6c0.3,1.1,0.7,2.1,1.3,3.2c0.6,1,1.5,2,2.7,2.6
			c1.1,0.6,2.3,0.9,3.4,1.1c1.2,0.2,2.3,0.2,3.4,0.3c1.2,0.1,2.3,0.2,3.4,0.2l6.7,0.7c2.2,0.2,4.5,0.5,6.8,0.6l1.5,0.1l1.3,0.1
			c0.9,0,1.8,0,2.7,0l1,0c0.3-0.1,0.1,0.1-0.1,0.2c-0.1,0.1-0.2,0.2-0.3,0.3c-0.4,0.4-0.9,0.8-1.4,1.2c-0.5,0.4-1,0.7-1.6,1
			l-0.8,0.5l-0.9,0.4c-1.4,0.7-2.9,1.3-4.4,1.9l-2.3,0.9l-1.1,0.5L66,38.8c-0.3,0.2-0.4,0.3-0.7,0.4c-0.2,0.1-0.5,0.2-0.8,0.4
			c-0.5,0.2-1,0.4-1.5,0.7c-1,0.4-2.1,0.9-3.1,1.3c-1,0.4-2,0.9-3,1.5c-0.5,0.3-1,0.6-1.4,1c-0.4,0.4-0.8,0.9-0.9,1.4
			c0,0,0.1-0.3,0.4-0.8c0.4-0.5,1-1,2.1-1.6c1-0.5,2.3-1.1,3.9-1.7l2.5-1l1.4-0.6c0.4-0.2,1-0.4,1.4-0.7c0.6-0.2,1.2-0.5,1.8-0.7
			l2-0.7c1.4-0.5,2.8-1,4.3-1.6l1.2-0.5c0.4-0.2,0.8-0.4,1.3-0.6c0.9-0.4,1.7-0.9,2.5-1.4c0.8-0.5,1.5-1.1,2.3-1.8
			c0.4-0.3,0.8-0.7,1.1-1.1c-0.3,0-0.6-0.1-0.9-0.2c-2.1,0-4.5-0.1-6.7-0.2l-1.5-0.2L72,30.1l-2.9-0.3c-4-0.5-8.2-1.1-12.8-1.5
			c-1.1-0.1-2.2-0.1-3.2-0.3c-1.1-0.2-2.1-0.6-2.9-1.2c-0.8-0.6-1.4-1.5-1.9-2.5c-0.4-1-0.8-2.2-1.2-3.3c-0.4-1.2-0.8-2.4-1.3-3.5
			L44.5,14l-0.8-2.1c-0.3-0.8-0.7-1.6-0.9-2.6c-0.6-1.8-1.1-4.8-1.7-8.7c-0.5,0.7-0.7,0.2-0.9-0.3c-0.3,1.5-0.7,3-0.9,4.5
			c-0.3,1.5-0.5,3-0.8,4.7l-0.6,5c-0.3,2.5-0.7,5-1.2,7.5c-0.5,2.5-1.3,4.9-2.5,7.1c-0.5,1.1-1.3,2.1-2.1,2.9
			c-0.9,0.9-1.9,1.6-3,2.2c-2.2,1.3-4.8,2.2-7.3,3.3c-2.5,1.2-5.1,2.3-7.5,3.9c-0.6,0.4-1.2,0.8-1.8,1.3c-0.3,0.2-0.6,0.5-0.8,0.7
			c-0.4,0.3-0.8,0.7-1.1,1.1c-0.7,0.7-1.3,1.4-1.9,2.1l-0.8,1.1l-0.4,0.6l-0.2,0.3l0.1,0.1c1.8,0.2,3.6,0.3,5.4,0.4l2.2,0.1l1.9,0
			c2.5,0,5.1,0,7.7-0.1c1.2,0,2.6-0.1,3.9-0.2c1.3-0.1,2.5-0.2,3.7-0.2c1.3,0,2.5,0.2,3.5,0.5c1.1,0.4,2,1,2.6,2
			c1.4,2,2.3,4.4,3.2,6.8c0.8,2.4,1.6,4.9,2.3,7.5l0.3,0.9c0.1,0.4,0.2,0.6,0.3,0.9c0.3,0.6,0.5,1.2,0.7,1.8l0.7,1.8l0.7,2.1
			c1,3.2,1.9,6.5,2.8,9.6c0.2,0.4,0.4,0.8,0.7,1.3l0.2,0.4l0.1,0.1c0,0.1,0.1-0.1,0.1-0.1l0.2-0.3c0.2-0.4,0.3-0.9,0.4-1.3
			c0.4-1.7,0.4-3.2,0.3-4.9l-0.1-3.1c-0.1-1.1-0.1-2.2,0-3.1c0.1-0.9,0.1-1.7,0.2-2.6l0.3-2.6l0.3-2.6c0.2-0.9,0.2-1.7,0.3-2.6
			c0.2-1.7,0.4-3.4,0.7-5.1c0.5-3.4,1-6.8,1.3-10.1l0.1,0c-0.3,0-0.5,0.2-0.7,0.4C53,46.8,52.7,47,52.5,47z"/>
	</g>
	<g>
		<path fill="#7D4816" d="M53.7,43.5c0,0,0.3,0,0.6,0.5c0.2,0.4,0.3,1.1,0.2,2c-0.1,0.9-0.2,2.1-0.4,3.4c-0.3,1.3-0.7,2.8-0.9,4.6
			c-0.1,0.9-0.2,1.8-0.3,2.7c-0.1,1-0.2,2-0.3,3.1c-0.2,2.1-0.3,4.4-0.5,6.9C52,67.3,52,68,51.9,68.6c-0.1,0.3-0.1,0.6-0.2,1
			L51.7,70l-0.1,0.4c0,1,0,2-0.1,2.9c-0.1,1-0.1,1.9-0.3,2.9c-0.1,0.2-0.2,0.4-0.3,0.7c0,0,0,0.2-0.1,0.1l0-0.2l-0.1-0.4
			c-0.1-0.5-0.2-1.1-0.4-1.6c-0.3-1.5-0.8-2.9-1.2-4.3l-0.6-1.5L48,67.3c-0.4-1.1-0.8-2.2-1.3-3.3l-1.4-3.4l-0.7-1.7
			c-0.2-0.5-0.4-1.1-0.6-1.7c-0.4-1.2-0.9-2.4-1.5-3.7c-0.6-1.2-1.4-2.4-2.5-3.4c-1.2-1-2.8-1.6-4.2-1.6c-1.5,0-2.7,0-4.2,0.1
			c-2.8,0.2-5.5,0.5-8.2,0.7l-2.1,0.1l-1,0.1c-0.1,0-0.5-0.1-0.9-0.1c-0.7-0.1-1.5-0.2-2.2-0.2l-1.4-0.1L13.2,49l-1.3-0.1l-0.7,0
			L11,48.8l-0.2,0l-0.1,0c-0.1,0,0,0,0,0c1.3-0.6,2.6-1.1,4-1.7l1-0.4l1.5-0.6c1.2-0.4,2.4-0.9,3.6-1.3c1.3-0.4,2.5-0.8,3.7-1.1
			c0.7-0.2,1.3-0.3,1.9-0.5l0.9-0.2c0.3-0.1,0.4-0.1,0.6-0.2l0.5-0.2c1.3-0.5,2.6-1,3.8-1.7c1.3-0.7,2.4-1.8,3.1-3.1
			c0.8-1.3,1.2-2.6,1.5-4c0.2-0.7,0.3-1.4,0.4-2c0.1-0.4,0.1-0.6,0.2-1.1l0.1-1c0.2-2.7,0.7-5.4,1.2-8.1l0.8-4l0.4-2l0.1-0.5l0-0.3
			l0-0.3c0-0.4,0-0.7,0-1c0-1.3,0.2-2.7,0.5-4.1c0.3-1.3,0.8-2.6,1.8-3.6c0,0-0.3,0.3-0.8,0.9c-0.4,0.7-1,1.8-1.4,3.3
			c-0.2,0.7-0.4,1.6-0.5,2.6c-0.1,0.5-0.1,1-0.1,1.5c0,0.3,0,0.5-0.1,0.8l-0.2,0.8c-0.5,2.2-1.2,4.6-1.8,7.5
			c-0.3,1.4-0.7,2.9-0.9,4.4c-0.2,0.8-0.3,1.6-0.4,2.4l-0.1,0.6c0,0.1,0,0.2,0,0.3L36.2,31L36,32.2c-0.4,1.7-0.9,3.3-1.7,4.8
			c-0.9,1.5-2.4,2.4-4.1,3.2c-0.8,0.4-1.8,0.7-2.7,1c-0.3,0.1-0.3,0.1-0.7,0.2l-0.7,0.1l-1.5,0.4c-2,0.5-4.1,1.1-6.1,1.8l-1.6,0.5
			l-1.6,0.6c-1.4,0.5-2.8,1.1-4.2,1.7L2.3,50l0,0.1l0.1,0l0.3,0.1l0.6,0.1l1.2,0.1l2.3,0.2c1.5,0.2,3.1,0.3,4.8,0.4l5.2,0.3l1.8,0.2
			l0.9,0.1c0.2,0,0.4,0.1,0.6,0l0.5,0c2.6-0.1,5.1-0.3,7.7-0.6l3.8-0.3l1.9-0.1c0.7,0,1.3-0.1,1.8,0c1.2,0.1,2.2,0.5,3,1.2
			c0.9,0.7,1.5,1.8,2.1,2.9c0.6,1.1,1.1,2.4,1.5,3.6c0.4,1.3,1.1,2.5,1.6,3.8c1.1,2.5,2.2,4.9,3.1,7.5l0.4,1l0.2,0.5l0.3,0.7
			c0.3,0.9,0.6,1.8,0.9,2.7c0.6,1.9,1.1,4,1.6,6c0.2,0.1,0.3,0.2,0.4,0.4c0.1,0.1,0.2,0.3,0.3,0.5l0.1,0.3c0.1,0,0.1-0.2,0.1-0.3
			l0.2-0.3c0.2-0.4,0.3-0.9,0.4-1.3c0.2-0.8,0.3-1.6,0.4-2.4c0.1-0.8,0.2-1.8,0.2-2.8l0-3.4c0-1.2,0.2-1.8,0.2-2.8
			c0.2-1.7,0.3-3.4,0.3-5.1l0.1-5.1c0.1-0.8,0.1-1.7,0.2-2.5c0-0.4,0-0.8,0.1-1.3c0-0.4,0.1-0.8,0.1-1.2c0.2-1.7,0.5-3.3,0.8-5
			c0.1-0.8,0.2-1.7,0.2-2.5c0-0.4-0.1-0.8-0.2-1.2C54.4,44.1,54.2,43.6,53.7,43.5z"/>
	</g>
	<g>
		<path fill="#7D4816" d="M83.9,31l0.7,0l0-0.2c-2.8-0.1-14.1-0.8-29.1-0.6l1.4,1.4c0-0.5-0.1-1-0.3-1.5c-0.2-0.4-0.5-0.8-0.7-1
			c-0.6-0.6-1-0.9-1.4-1.3L54,27.5c-0.2-0.1-0.2-0.3-0.3-0.4l-0.9-1.6c-1.2-2.1-2.5-4.2-3.6-6.3c-0.5-1.1-1.1-2.3-1.7-3.4l-1.8-3.4
			c-0.5-1.2-1.1-2.3-1.5-3.5c-0.4-1.2-0.9-2.4-0.8-3.7c0,0-0.3,0.8-0.2,2.3c0.1,1.5,0.6,3.7,1.5,6.3c0.4,1.3,1,2.7,1.5,4.2l0.9,2.3
			c0.3,0.8,0.7,1.6,1.1,2.5c0.8,1.6,1.7,3.4,2.7,5.1l0.8,1.5c0.2,0.3,0.5,0.5,0.7,0.7l0.6,0.5c0.4,0.3,0.8,0.7,1,0.9
			c0.2,0.3,0.2,0.3,0.3,0.5l0.7,1.4l0.8,0c4.6-0.1,9.4-0.4,14.3-0.7c4.9-0.3,9.9-0.9,14.7-1.4l0,0C84.4,31,84.1,31,83.9,31z"/>
	</g>
	<g>
		<path fill="#7D4816" d="M42.3,2.2c0,0,0.2,0.5,0.2,1.3c0,0.9-0.2,2.1-0.7,3.7c-0.2,0.8-0.5,1.7-0.8,2.6c-0.2,0.5-0.3,1-0.5,1.4
			l-0.7,1.5c-0.9,2.1-2.1,4.5-2.8,7.5c-0.2,0.7-0.3,1.5-0.4,2.3c-0.1,0.8-0.1,1.6-0.2,2.3c0,1.5-0.1,3.1-0.4,4.6
			c-0.1,0.4-0.2,0.7-0.3,1.1c-0.1,0.3-0.2,0.4-0.4,0.8c-0.4,0.6-1,1.1-1.6,1.6c-1.2,1-2.7,1.8-4.3,2.6c-0.8,0.4-1.6,0.8-2.4,1.2
			l-1.3,0.6c-0.6,0.2-0.9,0.5-1.4,0.7c-1.6,0.9-3.3,2-4.9,3c-3.2,2.1-6.5,4.3-10,6.2c0,0,2-0.5,5.3-1.9c1.6-0.7,3.6-1.6,5.8-2.7
			l3.5-1.7l1.8-0.9l0.5-0.2c0.1-0.1,0.2-0.1,0.4-0.2l1-0.4c1.4-0.6,2.9-1.2,4.3-2c1.4-0.8,2.9-1.7,4.2-3.1c0.3-0.3,0.7-0.7,0.9-1.1
			c0.2-0.2,0.3-0.4,0.4-0.6c0.2-0.2,0.3-0.5,0.4-0.9c0.3-0.9,0.5-1.8,0.6-2.8c0.2-1.9,0.1-3.7,0.1-5.4c0.1-0.9,0.1-1.6,0.3-2.5
			c0.1-0.9,0.3-1.7,0.5-2.6c0.5-1.7,1.1-3.4,1.6-5.2l0.4-1.3c0.1-0.2,0.2-0.5,0.2-0.7l0.1-0.7c0.2-0.9,0.3-1.8,0.4-2.7
			C42.7,5.8,42.9,4,42.3,2.2z"/>
	</g>
	<g>
		<path fill="#7D4816" d="M51.1,78.2l-0.1,1.4l0.2,0c0.1-2,0.1-5.9,0.1-11.2l0-2l0-1.1c0-0.2,0-0.2,0.1-0.4l0.1-0.6
			c0.3-1.5,0.4-3.1,0.6-4.7c0.1-0.8,0.2-1.7,0.4-2.4c0-0.2,0.1-0.4,0.1-0.6c0-0.1,0.1-0.6,0.1-0.8c0-0.4,0-0.8,0.1-1.2
			c0.1-0.8,0.4-1.6,0.6-2.5c0.3-0.9,0.5-1.9,0.5-3l-0.4,0.8c0.4-0.2,0.8-0.6,1-0.9s0.3-0.8,0.3-1.1c0.1-0.7,0.2-1.4,0.2-1.6
			c0.1-0.2,0-0.3,0.1-0.5c0-0.1,0.2-0.1,0.2-0.1l0.2-0.1c0.1,0,0.5-0.1,0.8-0.2c0.3-0.1,0.6-0.2,0.9-0.4c1.2-0.5,2.3-1.1,3.4-1.8
			c1.1-0.7,2.1-1.3,3.2-2c0.6-0.4,1-0.7,1.6-1c0.6-0.3,1.1-0.6,1.7-0.9c1.2-0.6,2.4-1.1,3.5-1.6c1.2-0.5,2.5-1.1,3.6-1.7
			c1.2-0.6,2.4-1.3,3.5-2c0,0-0.7,0.4-2.1,1c-1.4,0.6-3.5,1.3-6.1,2.1c-1.3,0.4-2.7,0.9-4.2,1.6c-0.8,0.3-1.5,0.7-2.3,1.1
			c-0.8,0.4-1.5,0.8-2.4,1.3c-1.5,0.9-3.2,1.8-4.9,2.5l-0.3,0.1L55,43.8l-1,0.3c-0.1,0-0.2,0-0.2,0.1l-0.1,0.2
			c-0.1,0.2-0.2,0.3-0.2,0.5c-0.2,0.3-0.2,0.7-0.2,1.1c-0.1,1.3-0.1,2.1-0.5,2.3l-0.4,0.2l0,0.6c0.1,1-0.3,2.1-0.7,3.4
			c-0.2,0.6-0.3,1.2-0.4,1.9c0,0.4-0.1,0.7-0.1,1c-0.1,0.2,0,0.4,0,0.5c0,0.1,0,0.1-0.1,0.3c-0.5,2.6-0.4,5.2-0.7,7.7
			c-0.1,0.3-0.1,0.6-0.2,0.9c-0.1,0.5,0,0.8,0,1.1l0.1,2l0.2,3.9l0.5,7.8l0.1,0C51.2,79.1,51.1,78.6,51.1,78.2z"/>
	</g>
</g>
</svg>
