<?xml version="1.0" encoding="utf-8"?>
<!-- Generator: Adobe Illustrator 18.1.1, SVG Export Plug-In . SVG Version: 6.00 Build 0)  -->
<svg version="1.1" id="Layer_1" xmlns:svgjs="http://svgjs.com/svgjs"
	 xmlns="http://www.w3.org/2000/svg" xmlns:xlink="http://www.w3.org/1999/xlink" x="0px" y="0px" viewBox="0 0 425.2 425.2"
	 enable-background="new 0 0 425.2 425.2" xml:space="preserve">
<g>
	<g>
		<g>
			<g>
				<path fill="#FFFFFF" d="M212.7,418.6c-60.9,0-115.5-26.6-153-68.8C27.6,313.8,8.2,266.2,8.2,214C8.2,101.1,99.8,9.5,212.7,9.5
					c51.1,0,97.7,18.7,133.6,49.7c43.4,37.5,70.9,93,70.9,154.9C417.3,327,325.7,418.6,212.7,418.6L212.7,418.6z"/>
				<path fill="#FFFFFF" d="M212.7,418.6c-60.9,0-115.5-26.6-153-68.8c80.5,67.6,200.7,63.6,276.4-12.1
					c76.4-76.4,79.8-198.1,10.2-278.6c43.4,37.5,70.9,93,70.9,154.9C417.3,327,325.7,418.6,212.7,418.6L212.7,418.6z"/>
			</g>
			<path fill="#98A589" d="M212.7,385.7c-53.5,0-101.2-24.3-132.9-62.5c-24.7-29.8-39.6-68.2-39.6-110
				c0-95.3,77.2-172.6,172.5-172.6c41.9,0,80.1,14.9,110,39.6c38.1,31.6,62.5,79.4,62.5,132.8C385.2,308.4,308,385.7,212.7,385.7z"
				/>
			<path fill="#98A589" d="M211.2,385.7c-53.5,0-101.2-24.3-132.9-62.5c67.8,56.2,168.4,52.7,231.9-10.9
				c63.4-63.4,67.1-164.2,10.9-231.9c38.1,31.6,62.5,79.4,62.5,132.8C383.6,308.4,306.4,385.7,211.2,385.7z"/>
		</g>
		<g>
			<path fill="#FFFFFF" d="M145.4,214.4c0.1,56.4,2.3,96.7,2.3,96.7s31.1,2.3,65,2.3s65-2.3,65-2.3s2.2-40.3,2.3-96.7
				c-0.1-56.4-2.3-96.7-2.3-96.7s-31.1-2.3-65-2.3s-65,2.3-65,2.3S145.5,158,145.4,214.4L145.4,214.4z"/>
			<path fill="#FFFFFF" d="M212.7,204.4c0-19.8-36.5-23.3-36.5,3.2c0,29.6,36.5,39.4,36.5,39.4s36.5-9.9,36.5-39.4
				C249.2,181,212.7,184.4,212.7,204.4z"/>
		</g>
	</g>
	<g>
		<path fill="#4C241D" d="M10.3,182.2c0.5,0.1,0.9,0.2,1.4,0.2c3.5,0,6.6-2.5,7.3-6.1C36.3,83,117.8,15.4,212.7,15.4
			c44.6,0,86.7,14.5,121.7,42c3.2,2.6,7.9,2,10.5-1.2s2-7.9-1.2-10.5c-37.7-29.6-83-45.2-131-45.2C110.7,0.6,23,73.3,4.3,173.5
			C3.5,177.6,6.2,181.5,10.3,182.2L10.3,182.2z"/>
		<path fill="#4C241D" d="M117.1,401.8c28.7,14.6,61.3,22.8,95.7,22.8c116.9,0,212-95.1,212-212c0-51.8-18.9-101.7-53.2-140.4l0,0
			c-2.7-3.1-7.5-3.4-10.5-0.7s-3.4,7.5-0.7,10.5c31.9,36,49.4,82.4,49.4,130.5c0,108.7-88.4,197.2-197.2,197.2
			S15.4,321.3,15.4,212.6c0-4.2-3.3-7.5-7.5-7.5s-7.5,3.3-7.5,7.5c0,34.4,8.2,66.9,22.8,95.7c12.7,28.8,35.5,49.2,35.5,49.2
			C59,357.4,93.7,391.6,117.1,401.8z"/>
		<path fill="#4C241D" d="M257,385.6c78.5-20.3,133.3-91.3,133.3-172.4c0-98.2-79.9-178.1-178.1-178.1S34,114.9,34,213.2
			s79.9,178.1,178.1,178.1c4.4,0,8-3.6,8-8s-3.6-8-8-8C122.7,375.4,50,302.6,50,213.2S122.7,51,212.1,51s162.2,72.7,162.2,162.2
			c0,73.9-49.9,138.4-121.3,157c-4.2,1.1-6.8,5.5-5.7,9.7C248.4,384.2,252.8,386.7,257,385.6z"/>
		<path fill="#4C241D" d="M285.2,311.5c0-0.4,2.2-41.1,2.3-97.1c-0.1-56-2.3-96.7-2.3-97.1c-0.2-3.7-3.2-6.7-6.9-7
			c-0.3,0-31.7-2.3-65.6-2.3s-65.3,2.3-65.6,2.3c-3.7,0.2-6.6,3.2-6.9,7c0,0.4-2.2,41.1-2.3,97.1l0,0c0.1,56,2.3,96.7,2.3,97.1
			c0.2,3.7,3.2,6.7,6.9,7c0.3,0,31.7,2.3,65.6,2.3s65.3-2.3,65.6-2.3C282.1,318.2,285,315.2,285.2,311.5L285.2,311.5z M270.6,304.1
			c-10.9,0.7-33.7,1.8-58,1.8c-24.2,0-47.1-1.2-58-1.8c-0.7-13.6-1.9-47.2-2-89.7c0-42.4,1.3-76.1,2-89.7c10.9-0.7,33.7-1.8,58-1.8
			c24.2,0,47.1,1.2,58,1.8c0.7,13.6,1.9,47.2,2,89.7C272.6,256.9,271.3,290.5,270.6,304.1z"/>
	</g>
</g>
</svg>
