<?xml version="1.0" encoding="utf-8"?>
<!-- Generator: Adobe Illustrator 18.1.1, SVG Export Plug-In . SVG Version: 6.00 Build 0)  -->
<svg version="1.1" id="Layer_1" xmlns="http://www.w3.org/2000/svg" xmlns:xlink="http://www.w3.org/1999/xlink" x="0px" y="0px"
	 viewBox="0 0 28.3 28.3" enable-background="new 0 0 28.3 28.3" xml:space="preserve">
<g>
	<rect x="0.2" y="5.9" fill="#809778" width="22.3" height="22.3"/>
	<path d="M22.3,6.1V28H0.4V6.1H22.3 M22.7,5.7H0v22.7h22.7V5.7L22.7,5.7z"/>
</g>
<g>
	<g>
		<path fill="#FFFFFF" d="M20.8,24c0-0.1-0.1-0.2-0.2-0.2c-0.3,0-0.6,0-0.9,0c-0.2,0.1-0.4,0.2-0.6,0.4c-0.4,0.3-0.3,0.9,0.1,1.1
			c0.3,0.2,0.9,0.2,1.2,0.1c0.5-0.2,0.6-0.8,0.6-1.2C21,24.1,20.9,24.1,20.8,24z"/>
		<path fill="#FFFFFF" d="M23.9,14.9c0.1-0.8,0.4-1.6,0.6-2.4c0.3-1.5,0.7-2.9,0.4-4.4c-0.1-0.5-0.2-1-0.2-1.5c0-0.3-0.2-0.7-0.2-1
			c0-0.7-0.5-1.5-0.7-2.2c-0.3-0.9-1.1-2.4-2.2-2c-0.5,0.2-0.6,0.8-0.9,1.2c-0.4,0.5-0.6,1-0.9,1.6c-0.1-0.1-0.2-0.1-0.3-0.2
			c-0.4-0.3-0.9-0.5-1.4-0.6c-1.2-0.5-2.3-0.8-3.5-0.9c-2.4-0.3-4.9,0.2-7,1.4c-1,0.5-1.7,1.2-2.4,2.1C4.4,6.7,3.7,7.5,3.2,8.5
			c-0.4,0.8-0.5,1.6-0.8,2.4c-0.2,0.3-0.1,0.9-0.2,1.3c-0.1,0.6,0,1.4,0,2c0,0.4,0.1,0.8,0.2,1.2c0.1,0.3,0.1,0.9,0.2,1.3
			c0.5,0.9,1.2,1.5,2,2.2c0.7,0.6,1.6,0.8,2.5,1c1.2,0.2,2.4-0.3,3.4,0.5c0.7,0.6,0.9,1.6,1.6,2.3c0.6,0.6,1.5,0.7,2.3,0.7
			c0.9,0.1,1.9-0.1,2.7-0.4c0.4-0.2,0.9-0.3,1.2-0.6c0.1-0.1,0.6-0.5,0.8-0.6c0.1,0,0.1-0.1,0.1-0.2v0c0,0,0.1,0,0.1-0.1
			c0,0,0.1-0.1,0.1-0.1c0.3,0.2,0.6,0.4,0.9,0.6c0.7,0.4,0.8,0.8,0.7,1.5c0,0.1,0.1,0.3,0.3,0.3c1.4,0,2.7-1.4,2.9-2.8
			c0.3-1.7,0-3.2-0.9-4.5c0.1,0,0.1-0.1,0.2-0.1C23.7,16,23.8,15.3,23.9,14.9z M13.1,16.4c-0.2,0.4-0.2,0.7-0.6,1
			c-0.4,0.3-0.9,0.5-1.4,0.6c-0.5,0-1,0.1-1.4-0.2c-0.5-0.3-0.8-0.9-1-1.4c-0.4-1.5,1.6-2.5,2.8-2.6C13.1,13.8,13.7,15.2,13.1,16.4z
			 M19.7,4.3C19.7,4.3,19.7,4.3,19.7,4.3C19.7,4.3,19.7,4.3,19.7,4.3L19.7,4.3z"/>
	</g>
	<g>
		<path fill="#74471D" d="M24.8,8.1c-0.1-0.5-0.2-1-0.2-1.5c0-0.3-0.2-0.7-0.2-1c0-0.7-0.5-1.5-0.7-2.2c-0.3-0.9-1.1-2.4-2.2-2
			c-0.5,0.2-0.6,0.8-0.9,1.2c-0.5,0.7-0.8,1.5-1.2,2.3c-0.7,1.6-0.7,3.4-0.7,5.1c0,0.9-0.1,1.8,0.1,2.6c0.1,0.5,0.1,1,0.4,1.4
			c0,0.3,0.1,0.6,0.1,0.8c0,0.4,0.1,0.9,0.2,1.3c0,0.1,0.2,0.2,0.3,0.2c1.1,0,2.6,0.4,3.6-0.1c0.4-0.2,0.5-0.9,0.5-1.3
			c0.1-0.8,0.4-1.6,0.6-2.4C24.8,11.1,25.1,9.7,24.8,8.1z M23.9,12.6c-0.2,0.6-0.3,1.2-0.5,1.8c-0.2,0.5,0.1,1.4-0.7,1.4
			c-0.9,0-1.8-0.1-2.6-0.1c-0.1-0.5-0.1-0.9-0.2-1.4c0-0.1,0-0.3-0.1-0.4c0-0.1,0-0.2,0-0.2c0-0.2-0.1-0.4-0.2-0.6
			c0,0-0.1-0.1-0.1-0.1c-0.1-0.5-0.2-1.1-0.1-1.4c0-0.7,0-1.3,0-2c0-1.5,0-3.1,0.7-4.5c0.3-0.6,0.5-1.2,0.8-1.8c0.2-0.3,1-2.2,1.7-1
			c0.3,0.6,0.6,1.1,0.8,1.7c0.2,0.6,0.5,1.2,0.5,1.8c0,1.1,0.4,2.3,0.5,3.4C24.4,10.4,24.1,11.6,23.9,12.6z"/>
		<path fill="#74471D" d="M23.4,15.4h-3.8c-0.4,0-0.4-0.6,0-0.6h3.8C23.8,14.8,23.8,15.4,23.4,15.4z"/>
		<path fill="#74471D" d="M23.8,12.6c-0.8,0-1.7-0.1-2.5-0.1c-0.7,0-1.3,0.1-2,0.1c0,0,0,0,0,0h-0.1c-0.4,0-0.4-0.6,0-0.6
			c0.6,0,1.2-0.1,1.8-0.1c0.9,0,1.9,0.1,2.8,0.1C24.2,12,24.2,12.6,23.8,12.6z"/>
		<path fill="#74471D" d="M24.2,11.8c-0.8,0-1.6-0.1-2.5-0.1c-0.8,0-1.6,0.1-2.5,0.1c-0.4,0-0.4-0.6,0-0.6c0.8,0,1.6-0.1,2.5-0.1
			c0.8,0,1.6,0.1,2.5,0.1C24.5,11.3,24.5,11.8,24.2,11.8z"/>
		<path fill="#74471D" d="M24.1,20.8c-0.2,1.3-1.5,2.7-2.9,2.8c-0.1,0-0.3-0.1-0.3-0.3c0.1-0.7,0-1.1-0.7-1.5
			c-0.4-0.3-0.8-0.6-1.2-0.9c-0.6-0.5-0.9-1.2-0.8-2c0-1.1,0.9-2.8,2-3.1c0.1,0,0.2,0,0.3,0.1c0,0,0,0,0,0c0.2,0.3-0.2,0.7-0.4,0.4
			c0.1,0.2,0,0.2-0.2,0.3c-0.3,0.2-0.6,0.7-0.8,0.9c-0.7,1-0.7,2.3,0.3,3c1,0.7,2,1.1,1.9,2.3c1.3-0.2,2.1-1.8,2.1-3
			c0.1-1.3-0.3-2.4-1-3.5c-0.2-0.3,0.3-0.6,0.5-0.3C24.1,17.6,24.3,19.1,24.1,20.8z"/>
		<path fill="#74471D" d="M24,20.2c-0.5-0.4-0.8-0.6-1.5-0.4c-0.5,0.2-0.8,0.5-1.2-0.1c-0.2-0.2-0.5-0.5-0.7-0.6
			c-0.5-0.2-1.3-0.2-1.7,0.3c-0.3,0.4-0.2,0.6-0.2,1c0,0.4,0.6,0.4,0.6,0v-0.1c0,0,0-0.1,0-0.1c0-0.2-0.1-0.2,0.2-0.5
			c0.9-0.7,1.2,0.4,1.9,0.8c0.2,0.1,0.6,0.3,0.8,0.2c0.6-0.2,0.9-0.6,1.6-0.1C23.8,20.8,24.2,20.4,24,20.2z"/>
		<path fill="#74471D" d="M20.8,24c0-0.1-0.1-0.2-0.2-0.2c-0.3,0-0.6,0-0.9,0c-0.2,0.1-0.4,0.2-0.6,0.4c-0.4,0.3-0.3,0.9,0.1,1.1
			c0.3,0.2,0.9,0.2,1.2,0.1c0.5-0.2,0.6-0.8,0.6-1.2C21,24.1,20.9,24.1,20.8,24z M20.2,25c-0.1,0.2-0.5,0.1-0.7,0
			c-0.3-0.1-0.1-0.3,0.1-0.4c0.1-0.1,0.2-0.2,0.4-0.2h0.4C20.4,24.6,20.3,24.8,20.2,25z"/>
		<path fill="#74471D" d="M19.7,4.3c0.2,0-0.1-0.2-0.3-0.3c-0.4-0.3-0.9-0.5-1.4-0.6c-1.2-0.5-2.3-0.8-3.5-0.9
			c-2.4-0.3-4.9,0.2-7,1.4c-1,0.5-1.7,1.2-2.4,2.1C4.4,6.7,3.7,7.5,3.2,8.5c-0.4,0.8-0.5,1.6-0.8,2.4c-0.2,0.3-0.1,0.9-0.2,1.3
			c-0.1,0.6,0,1.4,0,2c0,0.4,0.1,0.8,0.2,1.2c0.1,0.3,0.1,0.9,0.2,1.3c0.5,0.9,1.2,1.5,2,2.2c0.7,0.6,1.6,0.8,2.5,1
			c1.2,0.2,2.4-0.3,3.4,0.5c0.7,0.6,0.9,1.6,1.6,2.3c0.6,0.6,1.5,0.7,2.3,0.7c0.9,0.1,1.9-0.1,2.7-0.4c0.4-0.2,0.9-0.3,1.2-0.6
			c0.1-0.1,0.6-0.5,0.8-0.6c0.1,0,0.1-0.1,0.1-0.2v0c0,0,0.1,0,0.1-0.1c0,0,0.1-0.1,0.1-0.1c0,0,0,0,0,0l0,0c0,0,0,0,0,0
			c0,0,0,0,0,0c0.1,0,0.2-0.1,0.2-0.3c0-0.1-0.1-0.3-0.3-0.3c-0.2,0-0.3,0.1-0.4,0.2c-0.1,0-0.2,0.1-0.2,0.2v0
			c-0.1,0-0.1,0.1-0.1,0.2c0-0.2,0-0.1-0.1,0c-0.4,0.3-0.7,0.6-1.2,0.7c-0.9,0.3-1.7,0.6-2.8,0.6c-1.1,0-2.1-0.3-2.6-1.4
			c-0.3-0.6-0.7-1.3-1.3-1.7c-0.7-0.4-1.3-0.5-2.1-0.4c-1,0.1-2-0.1-2.9-0.5c-0.9-0.4-1.8-1.3-2.3-2.1c-0.4-0.7-0.6-2-0.6-2.8
			c0-1.6,0.1-3.4,0.8-4.9C4,8,4.7,7.3,5.3,6.6c0.8-0.9,1.5-1.6,2.5-2.2c2-1.2,4.4-1.5,6.7-1.3c1.3,0.1,2.5,0.5,3.6,1
			c0.4,0.2,1,0.4,1.2,0.7c0.1,0.1,0.2,0.1,0.3,0.1C20.1,4.9,20.1,4.3,19.7,4.3z"/>
		<path fill="#74471D" d="M11.3,13.3c-1.2,0.1-3.2,1.3-3.2,2.7c0,0.8,0.3,1.5,0.8,2c0.6,0.7,1.5,0.5,2.3,0.5c0.1,0,0.1,0,0.2-0.1
			c1.3-0.4,2.3-1.3,2.5-2.7C14.1,14.1,12.9,13.3,11.3,13.3z M13.1,16.4c-0.2,0.4-0.2,0.7-0.6,1c-0.4,0.3-0.9,0.5-1.4,0.6
			c-0.5,0-1,0.1-1.4-0.2c-0.5-0.3-0.8-0.9-1-1.4c-0.4-1.5,1.6-2.5,2.8-2.6C13.1,13.8,13.7,15.2,13.1,16.4z"/>
		<path fill="#74471D" d="M7.4,10.8c-0.8-0.7-1.6-1-2.6-0.7c0,0,0,0-0.1,0c0,0,0,0,0,0c0,0,0,0,0,0c0,0,0,0,0,0c0,0,0,0,0,0
			c0,0,0,0,0,0c0,0.1-0.3,0.2-0.4,0.2C4.1,10.6,4,10.8,3.8,11c-0.2,0.4-0.2,1.1-0.1,1.5c0.4,0.9,1.7,1.1,2.6,0.7
			c0.5-0.2,0.9-0.6,1.2-1.1C7.7,11.8,7.8,11.1,7.4,10.8z M6.9,12c-0.2,0.4-0.6,0.7-1,0.8c-0.8,0.2-1.7-0.1-1.7-1
			c0-0.4,0.1-0.8,0.5-1c0.1-0.1,0.2-0.1,0.3-0.2c0,0,0.1,0,0.1,0c0.5-0.1,1.2-0.1,1.6,0.3C7,11.3,7.2,11.5,6.9,12z"/>
		<path fill="#74471D" d="M9.3,7.7C9.2,6.7,8.1,6.1,7.2,6.1c-0.1,0-0.1,0-0.2,0.1c-0.4,0-0.8,0.2-1.2,0.4C5.5,7,5.4,7.3,5.4,7.8
			c0,1,1.4,1.5,2.3,1.6C8.8,9.6,9.4,8.6,9.3,7.7z M8.7,8.2c-0.1,0.5-0.5,0.7-1,0.7c-0.6,0-1.1-0.4-1.6-0.7C5.8,8,6,7.3,6.1,7.1
			c0.2-0.3,0.7-0.4,1-0.4c0.1,0,0.1,0,0.2-0.1c0.4,0,0.9,0.3,1.2,0.6C8.8,7.5,8.8,7.9,8.7,8.2z"/>
		<path fill="#74471D" d="M13.1,4.7c-0.2-0.5-0.6-0.7-1.1-0.9c0,0-0.1,0-0.1,0C11,3.5,10,3.9,9.7,4.9C9.5,5.8,10,7.1,11,7.2
			c0.5,0.1,1.2,0,1.7-0.2c0.5-0.2,0.7-0.5,0.7-1.1C13.5,5.4,13.3,5.1,13.1,4.7z M12.6,6.4c-0.3,0.2-0.8,0.2-1.1,0.2
			c-0.9,0-1.2-0.7-1.2-1.5c0-0.8,0.9-1,1.6-0.9c0,0,0.1,0,0.1,0c0.5,0.2,0.9,0.7,0.9,1.3C12.9,5.9,12.8,6.3,12.6,6.4z"/>
		<path fill="#74471D" d="M18.3,5.1C18.3,5.1,18.3,5.1,18.3,5.1c-0.5-0.8-1.7-1-2.4-0.6c-0.6,0.4-2,1.6-1.2,2.4
			c0.7,0.6,1.8,1.2,2.7,0.7c0.7-0.4,1-1.4,0.9-2.2C18.4,5.3,18.4,5.2,18.3,5.1z M17.5,6.8c-0.3,0.7-1.2,0.4-1.7,0.1
			c-0.4-0.2-0.9-0.4-0.6-1c0.1-0.3,0.3-0.5,0.6-0.7c0.4-0.4,1.8-0.6,2,0.1c0,0,0,0,0,0C17.9,5.9,17.7,6.5,17.5,6.8z"/>
		<path fill="#74471D" d="M18.8,11.2c-0.6-0.1-1.4-0.3-1.3-1.1c0.1-0.5,0.6-0.8,1.1-0.8c0.4,0,0.4-0.6,0-0.6
			c-0.8,0.1-1.5,0.5-1.7,1.4c-0.2,1,0.8,1.5,1.7,1.6C19,11.8,19.1,11.2,18.8,11.2z"/>
		<path fill="#74471D" d="M19.3,13.5c-0.5-0.2-1.4-0.2-1.9,0.1c-0.5,0.3-1,1.1-1.1,1.7c-0.1,0.6,0.1,1.1,0.6,1.5
			c0.5,0.5,1.1,0.6,1.8,0.6c0.4,0,0.4-0.6,0-0.6c-0.7,0-1.9-0.3-1.8-1.3c0.1-1.2,1.2-1.8,2.3-1.5C19.5,14.1,19.7,13.6,19.3,13.5z"/>
		<path fill="#74471D" d="M15.1,18.2c-0.9,0.1-2,0.9-1.9,1.9c0.2,1.3,1.4,1.6,2.5,1.5c0,0,0,0,0,0c0.6,0,1-0.2,1.5-0.6
			c0.4-0.4,0.4-0.9,0.4-1.4C17.6,18.4,16,18,15.1,18.2z M15.7,21C15.7,21,15.6,21,15.7,21L15.7,21c-0.9,0.1-1.5,0-1.9-0.8
			c-0.4-0.6,0.7-1.4,1.3-1.4c0.6-0.1,1.8-0.1,1.9,0.8C17,20.5,16.5,21,15.7,21z"/>
		<path fill="#74471D" d="M9.3,13.5c-0.4,0.3-0.7,0.7-0.8,1.2c0,0.1,0,0.1,0.1,0.1c0.1,0,0.1-0.1,0.1-0.1c0,0,0-0.1,0-0.1
			c0.1-0.4,0.4-0.7,0.7-1C9.5,13.5,9.4,13.4,9.3,13.5z"/>
		<path fill="#74471D" d="M10.2,13.1c-0.2,0.1-0.3,0.2-0.4,0.4c-0.1,0.1-0.1,0.2-0.2,0.3c-0.1,0.1-0.2,0.2-0.2,0.3c0,0,0,0.1,0,0.1
			c0,0,0,0,0,0c0.1,0,0.2,0,0.1-0.1c0,0,0.1-0.1,0.1-0.1c0.1-0.1,0.2-0.2,0.2-0.3c0.1-0.2,0.1-0.4,0.4-0.5
			C10.4,13.3,10.3,13.1,10.2,13.1z"/>
		<path fill="#74471D" d="M11.1,12.7c-0.3,0.3-0.4,0.7-0.7,1c-0.1,0.1,0,0.2,0.1,0.1c0.3-0.3,0.5-0.7,0.7-1
			C11.3,12.8,11.2,12.6,11.1,12.7z"/>
		<path fill="#74471D" d="M11.9,12.8c-0.1,0-0.1,0.1-0.2,0.1c0,0,0,0.1-0.1,0.2c-0.1,0.2-0.2,0.3-0.4,0.4c-0.1,0.1,0,0.2,0.1,0.1
			c0.1-0.1,0.3-0.2,0.3-0.4c0-0.1,0.1-0.1,0.1-0.2c0-0.1,0.1-0.1,0.2-0.1C12.1,12.8,11.9,12.7,11.9,12.8z"/>
		<path fill="#74471D" d="M12.5,12.9c0,0.1-0.1,0.1-0.1,0.2c0,0.1-0.1,0.1-0.1,0.2c-0.1,0.1-0.2,0.2-0.2,0.4c0,0.1,0.2,0.1,0.2,0
			c0-0.1,0.1-0.2,0.2-0.3c0.1-0.1,0.1-0.2,0.2-0.3C12.7,13,12.6,12.8,12.5,12.9z"/>
		<path fill="#74471D" d="M13.1,13.1c-0.1,0.1-0.2,0.2-0.2,0.3c-0.1,0.1-0.1,0.3-0.2,0.4c-0.1,0.1,0.1,0.2,0.2,0.1
			c0.1-0.1,0.1-0.3,0.2-0.4c0.1-0.1,0.2-0.2,0.2-0.3C13.3,13.1,13.1,13,13.1,13.1z"/>
		<path fill="#74471D" d="M13.8,13.3c-0.1,0.1-0.2,0.2-0.3,0.4c-0.1,0.2-0.2,0.4-0.3,0.5c-0.1,0.1,0,0.2,0.1,0.1
			c0.2-0.2,0.3-0.6,0.6-0.9C14,13.3,13.9,13.2,13.8,13.3z"/>
		<path fill="#74471D" d="M14.2,13.8c-0.3,0.3-0.7,0.6-0.8,1c0,0.1,0.2,0.2,0.2,0c0.1-0.4,0.5-0.7,0.8-0.9
			C14.4,13.9,14.3,13.8,14.2,13.8z"/>
		<path fill="#74471D" d="M14.1,14.7c-0.2,0.3-0.3,0.6-0.4,0.9c0,0.1,0.1,0.2,0.2,0c0.1-0.3,0.2-0.6,0.4-0.8
			C14.4,14.7,14.2,14.6,14.1,14.7z"/>
		<path fill="#74471D" d="M2.9,13.1c0-0.1-0.2-0.1-0.2,0c0,0.2-0.1,0.3-0.2,0.4c-0.1,0.1-0.1,0.2-0.2,0.4c0,0.1,0.2,0.1,0.2,0
			c0-0.2,0.2-0.3,0.3-0.4C2.9,13.4,3,13.2,2.9,13.1z"/>
		<path fill="#74471D" d="M2.9,13.7c-0.1,0.2-0.1,0.4-0.2,0.5c-0.1,0.2-0.2,0.3-0.2,0.5c0,0.1,0.2,0.1,0.2,0c0-0.2,0.1-0.3,0.2-0.4
			C3,14.1,3,13.9,3.1,13.8C3.1,13.7,2.9,13.6,2.9,13.7z"/>
		<path fill="#74471D" d="M3.1,14.5c-0.1,0.2-0.2,0.4-0.3,0.6c-0.1,0.2-0.2,0.4-0.3,0.6c0,0.1,0.1,0.2,0.2,0
			c0.1-0.5,0.4-0.8,0.6-1.2C3.4,14.4,3.2,14.4,3.1,14.5z"/>
		<path fill="#74471D" d="M3.3,15.3C3,15.6,2.8,16,2.8,16.4c0,0.1,0.2,0.1,0.2,0c0-0.4,0.2-0.7,0.5-0.9C3.5,15.4,3.4,15.2,3.3,15.3z
			"/>
		<path fill="#74471D" d="M3.7,15.8c-0.3,0.3-0.4,0.7-0.5,1.1c0,0.1,0.2,0.1,0.2,0c0-0.4,0.2-0.7,0.4-1C3.9,15.8,3.7,15.7,3.7,15.8z
			"/>
		<path fill="#74471D" d="M3.9,16.4c-0.1,0.2-0.2,0.4-0.3,0.6c-0.1,0.1-0.2,0.3-0.2,0.5c0,0.1,0.2,0.1,0.2,0c0-0.1,0.1-0.3,0.2-0.4
			c0,0,0.1-0.1,0.1-0.2c0-0.1,0.1-0.2,0.2-0.4C4.1,16.4,3.9,16.3,3.9,16.4z"/>
		<path fill="#74471D" d="M4.4,17c-0.1,0.1-0.2,0.2-0.3,0.4c-0.1,0.2-0.2,0.4-0.3,0.6c0,0.1,0.1,0.2,0.2,0c0.1-0.2,0.2-0.3,0.2-0.4
			c0.1-0.2,0.1-0.3,0.2-0.4C4.6,17.1,4.5,16.9,4.4,17z"/>
		<path fill="#74471D" d="M4.9,17.4c0,0.1-0.1,0.1-0.1,0.2c0,0.1-0.1,0.1-0.2,0.2c-0.1,0.2-0.1,0.3-0.1,0.5c0,0.1,0.2,0.1,0.2,0
			c0-0.1,0-0.4,0.1-0.5C4.9,17.8,5,17.6,5,17.5C5.1,17.4,4.9,17.3,4.9,17.4z"/>
		<path fill="#74471D" d="M5.4,17.7c-0.1,0.1-0.2,0.3-0.2,0.5c0,0.1-0.1,0.2-0.1,0.3c0,0.1,0,0.1-0.1,0.2c0,0.1,0.2,0.1,0.2,0
			c0-0.1,0.1-0.2,0.1-0.2c0-0.1,0-0.1,0-0.2c0.1-0.2,0.1-0.3,0.2-0.4C5.6,17.7,5.4,17.6,5.4,17.7z"/>
		<path fill="#74471D" d="M6.1,18c-0.3,0.3-0.4,0.6-0.5,1c0,0.1,0.2,0.2,0.2,0c0.1-0.3,0.2-0.6,0.5-0.9C6.3,18,6.1,17.9,6.1,18z"/>
		<path fill="#74471D" d="M6.8,18.2c-0.1,0.1-0.2,0.2-0.3,0.4c-0.1,0.1-0.1,0.2-0.1,0.3c0,0.1-0.1,0.2-0.1,0.2c0,0,0,0,0,0v0
			c0,0.1,0.2,0.1,0.2,0c0,0,0-0.1,0.1-0.2c0-0.1,0.1-0.2,0.1-0.3c0-0.1,0.2-0.3,0.3-0.4C6.9,18.3,6.9,18.1,6.8,18.2z"/>
		<path fill="#74471D" d="M7.5,18.3c-0.1,0.2-0.3,0.3-0.4,0.5C7,19,6.9,19.1,6.9,19.3c0,0,0,0.1,0,0.1c0,0,0,0,0,0c0,0,0.1,0,0.1,0
			c0,0,0,0,0,0c0,0,0-0.1,0-0.1c0,0,0.1-0.1,0.1-0.1c0.1-0.1,0.1-0.2,0.1-0.3c0.1-0.2,0.3-0.3,0.3-0.5C7.7,18.3,7.5,18.2,7.5,18.3z"
			/>
		<path fill="#74471D" d="M7.9,18.6c-0.1,0.3-0.3,0.5-0.3,0.8c0,0.1,0.2,0.1,0.2,0c0-0.2,0.1-0.3,0.2-0.5c0-0.1,0.1-0.2,0.1-0.3
			C8.2,18.5,8,18.5,7.9,18.6z"/>
		<path fill="#74471D" d="M8.6,18.7c0,0.1-0.1,0.2-0.1,0.3c0,0.1-0.1,0.3-0.1,0.4c0,0.1,0.2,0.1,0.2,0c0-0.1,0-0.3,0.1-0.4
			c0-0.1,0.1-0.1,0.1-0.2c0-0.1,0-0.1,0-0.2C8.8,18.5,8.6,18.5,8.6,18.7z"/>
		<path fill="#74471D" d="M9.3,18.8c0,0.2-0.1,0.3-0.2,0.4c-0.1,0.2-0.1,0.4-0.2,0.5c0,0.1,0.1,0.2,0.2,0.1c0.1-0.2,0.1-0.3,0.2-0.5
			c0.1-0.2,0.2-0.3,0.2-0.5C9.5,18.7,9.3,18.7,9.3,18.8z"/>
		<path fill="#74471D" d="M10.5,18.7c-0.2,0-0.2,0.1-0.3,0.2c0,0.1,0,0.2-0.1,0.3c0,0.1-0.1,0.2-0.1,0.4c0,0-0.1,0-0.1,0.1v0.1
			c0,0.1,0.1,0.1,0.2,0c0.1-0.2,0.1-0.3,0.2-0.5c0,0,0.1-0.4,0.1-0.4C10.5,18.9,10.6,18.7,10.5,18.7z"/>
		<path fill="#74471D" d="M10.9,19c-0.1,0.2-0.2,0.3-0.3,0.4c0,0.1-0.1,0.1-0.1,0.2c0,0.1-0.1,0.1-0.1,0.2c-0.1,0.1,0,0.2,0.1,0.2
			c0.1-0.1,0.2-0.2,0.3-0.4c0.1-0.2,0.3-0.4,0.4-0.5C11.1,19,11,18.9,10.9,19z"/>
		<path fill="#74471D" d="M11.5,19.4c0-0.1-0.2-0.1-0.2,0c0,0.1-0.1,0.1-0.1,0.2c-0.1,0.1-0.1,0.1-0.1,0.2c-0.1,0.1-0.1,0.3-0.2,0.5
			c0,0.1,0.1,0.2,0.2,0c0.1-0.2,0.1-0.5,0.3-0.6C11.4,19.6,11.5,19.6,11.5,19.4z"/>
		<path fill="#74471D" d="M11.7,19.8c-0.3,0.3-0.6,0.6-0.6,1.1c0,0.1,0.2,0.1,0.2,0c0-0.4,0.3-0.7,0.6-0.9
			C11.9,19.9,11.8,19.7,11.7,19.8z"/>
		<path fill="#74471D" d="M12,20.6c-0.1,0.1-0.3,0.3-0.4,0.5c0,0.1-0.1,0.2-0.1,0.2c0,0.1-0.1,0.2-0.1,0.4c0,0.1,0.1,0.2,0.2,0.1
			c0.1-0.2,0.1-0.3,0.2-0.5c0.1-0.2,0.2-0.4,0.4-0.6C12.2,20.6,12.1,20.5,12,20.6z"/>
		<path fill="#74471D" d="M12.3,21.2c-0.2,0.2-0.3,0.5-0.4,0.8c0,0.1,0.1,0.2,0.2,0c0.1-0.2,0.2-0.5,0.3-0.7
			C12.5,21.2,12.4,21.1,12.3,21.2z"/>
		<path fill="#74471D" d="M12.7,21.6c-0.1,0.2-0.2,0.4-0.3,0.7c0,0.1,0.2,0.1,0.2,0c0-0.2,0.2-0.4,0.2-0.7
			C12.9,21.5,12.7,21.5,12.7,21.6z"/>
		<path fill="#74471D" d="M13.3,21.7c-0.1,0.1-0.2,0.2-0.3,0.3c0,0.2,0,0.3-0.1,0.5c0,0.1,0.1,0.2,0.2,0c0-0.1,0.1-0.2,0.1-0.3
			c0-0.2,0-0.3,0.2-0.4C13.5,21.8,13.4,21.7,13.3,21.7z"/>
		<path fill="#74471D" d="M13.8,22.1c-0.1,0.2-0.3,0.4-0.3,0.7c0,0.1,0.2,0.1,0.2,0c0-0.2,0.2-0.4,0.3-0.6
			C14,22.1,13.8,22,13.8,22.1z"/>
		<path fill="#74471D" d="M14.5,22.2c-0.2,0.2-0.3,0.5-0.3,0.8c0,0.1,0.2,0.1,0.2,0c0-0.2,0-0.5,0.2-0.6
			C14.7,22.3,14.6,22.1,14.5,22.2z"/>
		<path fill="#74471D" d="M15.5,22.1c-0.1,0.3-0.2,0.5-0.3,0.8c0,0.1,0.2,0.1,0.2,0c0-0.3,0.1-0.5,0.2-0.7
			C15.7,22.1,15.5,22,15.5,22.1z"/>
		<path fill="#74471D" d="M16.3,22c0-0.1-0.2-0.1-0.2,0c0,0.2-0.1,0.4-0.2,0.6c0,0,0,0,0,0.1v0.1c0,0.1,0.2,0.1,0.2,0
			C16.1,22.5,16.3,22.3,16.3,22z"/>
		<path fill="#74471D" d="M17,21.8c-0.1,0.3-0.3,0.4-0.3,0.7c0,0.1,0.2,0.1,0.2,0c0-0.2,0.2-0.4,0.3-0.7C17.2,21.8,17,21.7,17,21.8z
			"/>
		<path fill="#74471D" d="M17.5,21.8C17.5,21.7,17.5,21.7,17.5,21.8l-0.2-0.1c-0.1,0-0.1,0.2,0,0.2c0,0.2-0.1,0.3-0.2,0.4
			c-0.1,0.1,0,0.2,0.1,0.2C17.4,22.3,17.6,22,17.5,21.8z"/>
		<path fill="#74471D" d="M20.2,16.6c-0.6,0.8-0.9,1.6-0.7,2.6c0,0.1,0.2,0.1,0.2,0c-0.2-0.9,0.1-1.7,0.7-2.5
			C20.5,16.6,20.3,16.5,20.2,16.6z"/>
		<path fill="#74471D" d="M21,16.5c-0.8,0.7-0.8,1.5-0.7,2.5c0,0.1,0.2,0.1,0.2,0c-0.1-0.9-0.1-1.7,0.7-2.3
			C21.3,16.5,21.1,16.4,21,16.5z"/>
		<path fill="#74471D" d="M21.7,16.3c-0.4,0.6-0.5,1.2-0.7,1.9c-0.1,0.3-0.3,1,0,1.3c0.1,0.1,0.2,0,0.1-0.1c-0.1-0.1,0-0.4,0-0.5
			c0-0.3,0.1-0.5,0.1-0.8c0.1-0.6,0.2-1.2,0.6-1.7C21.9,16.3,21.7,16.2,21.7,16.3z"/>
		<path fill="#74471D" d="M21.9,16.5c-0.1,0.6-0.1,1.2-0.2,1.7c-0.1,0.5-0.1,1.1-0.1,1.6c0,0.1,0.2,0.1,0.2,0c0-0.6,0-1.2,0.1-1.7
			c0.1-0.5,0.1-1.1,0.2-1.6C22.1,16.4,21.9,16.3,21.9,16.5z"/>
		<path fill="#74471D" d="M22.6,17.3c0-0.3-0.2-0.6-0.3-0.8c0-0.1-0.2-0.1-0.2,0c0.1,0.2,0.2,0.4,0.2,0.7c0.1,0.3,0.1,0.7,0.1,1
			c0,0.7-0.2,1.3-0.2,1.9c0,0.1,0.2,0.1,0.2,0c0-0.6,0.2-1.3,0.2-1.9C22.6,17.9,22.6,17.6,22.6,17.3z"/>
		<path fill="#74471D" d="M23.3,18.4c-0.1-0.6-0.4-1.1-0.5-1.7c0-0.1-0.2-0.1-0.2,0c0,0.5,0.2,0.8,0.4,1.3c0.2,0.6,0.1,1.2-0.1,1.8
			c0,0.1,0.2,0.2,0.2,0C23.2,19.4,23.4,18.9,23.3,18.4z"/>
		<path fill="#74471D" d="M21.8,2.7c-0.4,0.1-0.8,0.2-1.1,0.4c-0.1,0.1,0,0.2,0.1,0.2c0.3-0.2,0.7-0.4,1-0.4
			C21.9,2.9,21.9,2.7,21.8,2.7z"/>
		<path fill="#74471D" d="M21.3,3.4c-0.5,0.1-0.9,0.4-1.4,0.7c-0.1,0.1,0,0.2,0.1,0.2c0.4-0.3,0.8-0.6,1.3-0.7
			C21.4,3.5,21.4,3.4,21.3,3.4z"/>
		<path fill="#74471D" d="M21.2,4.1c-0.4,0.1-0.7,0.3-1,0.4c-0.3,0.1-0.5,0.3-0.7,0.5c-0.1,0.1,0.1,0.2,0.2,0.1
			c0.2-0.3,0.5-0.4,0.8-0.5c0.3-0.1,0.6-0.2,0.8-0.3C21.3,4.2,21.3,4,21.2,4.1z"/>
		<path fill="#74471D" d="M21.4,4.8c-0.8,0.1-1.6,0.6-2.3,0.9c-0.1,0.1,0,0.2,0.1,0.2c0.7-0.3,1.5-0.8,2.2-0.9
			C21.5,5,21.5,4.8,21.4,4.8z"/>
		<path fill="#74471D" d="M21.1,5.5c-0.7,0-1.5,0.5-2.1,0.8c-0.1,0.1,0,0.2,0.1,0.2c0.6-0.3,1.3-0.8,2.1-0.8
			C21.2,5.7,21.2,5.5,21.1,5.5z"/>
		<path fill="#74471D" d="M20.7,6.3C20.1,6.4,19.5,6.6,19,7c-0.1,0.1,0,0.2,0.1,0.2c0.5-0.3,1.1-0.5,1.6-0.7
			C20.8,6.4,20.8,6.3,20.7,6.3z"/>
		<path fill="#74471D" d="M20.7,7c-0.3,0-0.5,0.2-0.8,0.3c-0.3,0.1-0.7,0.3-0.9,0.4c-0.1,0.1,0,0.2,0.1,0.2c0.3-0.1,0.5-0.2,0.8-0.4
			c0.3-0.1,0.6-0.3,0.9-0.3C20.8,7.1,20.8,7,20.7,7z"/>
		<path fill="#74471D" d="M20.4,8c-0.6,0-1.1,0.2-1.5,0.5c-0.1,0.1,0,0.2,0.1,0.2c0.4-0.3,0.9-0.5,1.4-0.5C20.6,8.2,20.6,8,20.4,8z"
			/>
		<path fill="#74471D" d="M20.8,8.8c-0.4,0-0.7,0.1-1,0.2c-0.1,0-0.7,0.3-0.7,0.2c-0.1-0.1-0.2,0-0.1,0.1c0.1,0.1,0.5,0,0.6-0.1
			C20,9.2,20.4,9,20.8,9C20.9,9,20.9,8.8,20.8,8.8z"/>
		<path fill="#74471D" d="M20.3,9.7c-0.5,0.1-1,0.2-1.5,0.3c-0.1,0-0.1,0.2,0,0.2c0.5-0.1,1-0.2,1.5-0.3C20.4,9.9,20.4,9.7,20.3,9.7
			z"/>
		<path fill="#74471D" d="M20.5,10.4c-0.3,0-0.5,0.1-0.8,0.2c-0.1,0-0.3,0-0.4,0.1c-0.1,0-0.2,0.2-0.3,0.1c-0.1-0.1-0.2,0-0.1,0.1
			c0.1,0.1,0.3,0.1,0.4,0c0.1-0.1,0.3-0.1,0.5-0.1c0.3-0.1,0.5-0.1,0.8-0.2C20.6,10.5,20.6,10.3,20.5,10.4z"/>
		<path fill="#74471D" d="M20.1,10.8c-0.2,0.1-0.4,0.1-0.6,0.2c-0.2,0.1-0.4,0.1-0.6,0.2c-0.1,0.1,0,0.2,0.1,0.2
			c0.2-0.1,0.3-0.1,0.5-0.2c0.2,0,0.4-0.1,0.6-0.2C20.3,10.9,20.2,10.7,20.1,10.8z"/>
		<path fill="#74471D" d="M20.7,12.9H20c-0.2,0-0.4,0.2-0.6,0.1c-0.1-0.1-0.2,0.1-0.1,0.2c0.2,0.1,0.3,0.1,0.5,0
			c0.2,0,0.3-0.1,0.4-0.1h0.5C20.8,13.1,20.8,12.9,20.7,12.9z"/>
		<path fill="#74471D" d="M20.8,13.6c-0.5,0-0.9,0.1-1.4,0.1c-0.1,0-0.1,0.2,0,0.2c0.5,0,0.9-0.1,1.4-0.1
			C20.9,13.7,20.9,13.6,20.8,13.6z"/>
		<path fill="#74471D" d="M20.8,13.9c-0.3,0.1-0.7,0.1-1,0.1c-0.1,0-0.1,0.2,0,0.2c0.4,0,0.7-0.1,1.1-0.1
			C20.9,14.1,20.9,13.9,20.8,13.9z"/>
		<path fill="#74471D" d="M20.7,14.4c-0.2,0-0.4,0-0.6,0.1c-0.2,0-0.3,0-0.4,0.1c-0.1,0,0,0.2,0.1,0.2c0.1-0.1,0.3,0,0.5-0.1
			c0.2,0,0.3,0,0.5,0C20.8,14.5,20.8,14.4,20.7,14.4z"/>
		<path fill="#74471D" d="M5.2,10.4c-0.3,0.2-0.5,0.5-0.6,0.8C4.4,11.7,4.1,12,4,12.5c0,0,0,0,0,0.1v0.1c0,0.1,0.2,0.1,0.2,0
			c0.1-0.4,0.3-0.8,0.5-1.2c0.2-0.3,0.2-0.7,0.6-0.9C5.4,10.5,5.3,10.4,5.2,10.4z"/>
		<path fill="#74471D" d="M5.7,10.4c-0.3,0.3-0.5,0.6-0.7,1c-0.1,0.2-0.3,0.4-0.4,0.6c-0.1,0.1-0.2,0.3-0.3,0.5c0,0,0,0,0,0
			c0,0-0.1,0.1-0.1,0.1c-0.1,0.1,0,0.2,0.1,0.1c0.1,0,0.1,0,0.1-0.1c0.2-0.3,0.4-0.6,0.6-0.9c0.3-0.4,0.5-0.8,0.8-1.2
			C6,10.5,5.8,10.4,5.7,10.4z"/>
		<path fill="#74471D" d="M6.2,10.6c-0.3,0.3-0.5,0.6-0.7,0.9C5.3,12,5,12.3,4.8,12.8C4.8,12.9,4.9,13,5,12.9
			c0.2-0.4,0.4-0.8,0.7-1.1c0.3-0.3,0.4-0.7,0.7-1C6.5,10.7,6.3,10.5,6.2,10.6z"/>
		<path fill="#74471D" d="M6.4,11.2C6.2,11.5,6.1,11.7,6,12c-0.1,0.3-0.3,0.6-0.4,0.9c0,0.1,0.1,0.2,0.2,0c0.1-0.3,0.3-0.6,0.4-0.8
			c0.1-0.3,0.3-0.6,0.5-0.8C6.6,11.2,6.5,11.1,6.4,11.2z"/>
		<path fill="#74471D" d="M6.9,11.2c-0.3,0.5-0.5,1-0.7,1.5c0,0.1,0.1,0.2,0.2,0.1c0.2-0.5,0.4-1.1,0.7-1.5
			C7.1,11.2,7,11.1,6.9,11.2z"/>
		<path fill="#74471D" d="M6.9,6.7C6.7,6.6,6.5,7,6.4,7.2C6.2,7.6,5.9,8,5.8,8.4c0,0.1,0.1,0.2,0.2,0c0.1-0.4,0.3-0.7,0.5-1
			c0.1-0.1,0.3-0.6,0.4-0.6C7,6.8,7,6.7,6.9,6.7z"/>
		<path fill="#74471D" d="M7.3,6.8C7.1,6.9,7,7.1,6.9,7.3C6.7,7.6,6.5,8,6.4,8.3C6.3,8.4,6.5,8.5,6.5,8.4c0.1-0.3,0.2-0.5,0.4-0.8
			C7,7.4,7.1,7.1,7.4,7C7.5,7,7.4,6.8,7.3,6.8z"/>
		<path fill="#74471D" d="M8,6.7C7.7,7,7.7,7.3,7.5,7.6C7.3,8,7.1,8.4,6.8,8.7c0,0.1,0,0.2,0.1,0.1c0.1,0,0.1,0,0.1-0.1c0,0,0,0,0,0
			c0.2-0.3,0.3-0.5,0.5-0.8c0.2-0.3,0.3-0.8,0.5-1.1C8.2,6.7,8,6.6,8,6.7z"/>
		<path fill="#74471D" d="M8.3,7.1C8.1,7.4,8,7.7,7.8,8.1C7.6,8.4,7.4,8.6,7.2,8.9c0,0.1,0,0.1,0.1,0.1h0.1c0.1,0,0.1-0.1,0.1-0.2
			c0.1-0.2,0.3-0.5,0.4-0.7c0.2-0.3,0.4-0.7,0.6-1C8.5,7.1,8.4,7,8.3,7.1z"/>
		<path fill="#74471D" d="M8.8,7.2c-0.3,0.3-0.5,0.7-0.7,1C7.9,8.6,7.6,8.8,7.7,9.2c0,0.1,0.2,0.1,0.2,0C7.8,8.9,8.2,8.5,8.3,8.3
			c0.2-0.3,0.3-0.6,0.6-0.9C9,7.3,8.9,7.1,8.8,7.2z"/>
		<path fill="#74471D" d="M11.6,3.9c-0.4,0.2-0.6,0.6-0.9,0.9c-0.3,0.3-0.6,0.5-0.7,0.8c0,0.1,0,0.1,0.1,0.1h0.1
			c0.1,0,0.1-0.2,0-0.2c0.2-0.3,0.4-0.5,0.7-0.7c0.3-0.3,0.5-0.6,0.8-0.8C11.8,4,11.7,3.8,11.6,3.9z"/>
		<path fill="#74471D" d="M11.9,4.4C11.3,5,10.7,5.5,10.1,6c-0.1,0.1,0,0.2,0.1,0.1c0,0,0.1,0,0.1-0.1c0,0,0.1-0.1,0-0.1
			C11,5.5,11.5,5,12,4.5C12.1,4.4,11.9,4.3,11.9,4.4z"/>
		<path fill="#74471D" d="M12.2,4.5C12,4.6,12,4.7,11.9,4.8c-0.2,0.2-0.3,0.4-0.5,0.6C11.2,5.7,11,6,10.8,6.1
			c-0.2,0.1-0.3,0.2-0.3,0.4c0,0.1,0.1,0.2,0.1,0.1l0.1-0.1c0,0,0,0,0-0.1c0.1-0.1,0.2-0.1,0.3-0.2l0.6-0.6c0.1-0.1,0.2-0.2,0.3-0.4
			c0.1-0.1,0.3-0.5,0.4-0.6C12.4,4.6,12.3,4.4,12.2,4.5z"/>
		<path fill="#74471D" d="M12.6,4.9c-0.3,0.2-0.6,0.4-0.8,0.7c-0.2,0.3-0.6,0.5-0.8,0.9c-0.1,0.1,0.1,0.2,0.2,0.1
			c0.1-0.3,0.4-0.5,0.7-0.7c0.1-0.1,0.2-0.3,0.4-0.5c0.2-0.2,0.3-0.3,0.5-0.4C12.8,5,12.7,4.8,12.6,4.9z"/>
		<path fill="#74471D" d="M12.8,5.3c-0.3,0.1-0.5,0.3-0.7,0.5c-0.3,0.3-0.4,0.6-0.7,0.9c-0.1,0.1,0,0.2,0.1,0.1
			c0.2-0.2,0.4-0.6,0.6-0.8c0.2-0.2,0.4-0.5,0.7-0.6C13,5.4,12.9,5.3,12.8,5.3z"/>
		<path fill="#74471D" d="M13.2,5.5c-0.4,0.2-0.7,0.6-1,0.9c-0.1,0.1,0.1,0.2,0.1,0.1c0.3-0.3,0.6-0.7,1-0.9
			C13.4,5.6,13.3,5.4,13.2,5.5z"/>
		<path fill="#74471D" d="M16.8,4.6c-0.3,0.3-0.6,0.7-0.9,1c-0.3,0.3-0.7,0.6-0.9,1c0,0,0,0.1,0,0.1c0,0,0,0,0,0
			c0,0.1,0.1,0.1,0.2,0c0,0,0,0,0,0c0,0,0-0.1,0-0.1C15.3,6.4,16,5.9,16,5.8c0.3-0.3,0.6-0.7,0.9-1C17,4.7,16.9,4.6,16.8,4.6z"/>
		<path fill="#74471D" d="M17.1,4.8c-0.3,0.4-0.7,0.7-1,1.1c-0.3,0.3-0.7,0.6-0.9,1c0,0.1,0.1,0.2,0.2,0c0.1-0.2,0.4-0.4,0.5-0.6
			C16,6.2,16.2,6,16.4,5.8c0.3-0.3,0.7-0.6,0.9-1C17.3,4.8,17.1,4.7,17.1,4.8z"/>
		<path fill="#74471D" d="M17.5,4.9c-0.3,0.2-0.6,0.6-0.9,0.9c-0.3,0.4-0.8,0.7-1.1,1.1l0,0l0,0c0,0,0,0,0,0
			c-0.1,0.1,0.1,0.2,0.1,0.1c0,0,0,0,0.1-0.1c0,0,0,0,0,0c0.3-0.3,0.6-0.5,0.9-0.8c0.3-0.3,0.6-0.8,1-1C17.7,5,17.6,4.9,17.5,4.9z"
			/>
		<path fill="#74471D" d="M17.6,5.5c-0.7,0.4-1.1,1.1-1.6,1.6c-0.1,0.1,0,0.2,0.1,0.1C16.7,6.7,17,6,17.7,5.7
			C17.8,5.6,17.7,5.4,17.6,5.5z"/>
		<path fill="#74471D" d="M17.6,5.9c-0.2,0.2-0.4,0.3-0.6,0.5c-0.2,0.3-0.4,0.6-0.6,0.9c-0.1,0.1,0.1,0.2,0.2,0.1
			c0.2-0.3,0.4-0.6,0.6-0.8c0.2-0.2,0.4-0.4,0.6-0.6C17.9,5.9,17.7,5.8,17.6,5.9z"/>
		<path fill="#74471D" d="M18.2,9.1c0,0.1-0.2,0.2-0.3,0.3c-0.1,0.1-0.1,0.2-0.2,0.3c-0.2,0.3-0.3,0.5-0.5,0.7c0,0,0,0.1,0,0.1
			c0,0,0,0,0,0c0,0,0.1,0.1,0.1,0c0,0,0,0,0.1,0c0,0,0-0.1,0-0.1c0.2-0.2,0.3-0.4,0.5-0.6c0.1-0.1,0.2-0.3,0.3-0.4
			c0.1-0.1,0.1-0.1,0.2-0.3C18.4,9,18.2,8.9,18.2,9.1z"/>
		<path fill="#74471D" d="M18.6,9.3c-0.2,0.2-0.3,0.5-0.5,0.7c-0.2,0.2-0.4,0.5-0.5,0.7c-0.1,0.1,0.1,0.2,0.2,0.1
			c0.1-0.3,0.3-0.5,0.6-0.7c0.2-0.2,0.3-0.4,0.5-0.6C18.8,9.3,18.7,9.2,18.6,9.3z"/>
		<path fill="#74471D" d="M18.9,9.7c-0.5,0.2-0.6,0.7-0.9,1.1c-0.1,0.1,0.1,0.2,0.2,0.1c0.1-0.2,0.2-0.3,0.3-0.5
			c0.1-0.2,0.2-0.4,0.5-0.5C19,9.9,19,9.7,18.9,9.7z"/>
		<path fill="#74471D" d="M18,13.8C18,13.8,18,13.8,18,13.8c-0.1,0.1-0.1,0.1-0.1,0.2c-0.1,0.1-0.2,0.3-0.3,0.4
			c-0.1,0.2-0.2,0.3-0.3,0.5c-0.2,0.3-0.4,0.7-0.5,1c0,0.1,0.2,0.2,0.2,0c0.1-0.5,0.4-0.8,0.6-1.2c0.2-0.3,0.5-0.5,0.6-0.9
			C18.2,13.8,18.1,13.7,18,13.8z"/>
		<path fill="#74471D" d="M18.7,14c-0.4,0.3-0.6,0.7-0.8,1.1c-0.2,0.4-0.5,0.8-0.6,1.3c0,0.1,0,0.1,0.1,0.1h0.1c0.1,0,0.1-0.1,0-0.2
			c0.1-0.4,0.3-0.8,0.5-1c0.3-0.4,0.4-0.8,0.8-1.1C18.9,14.1,18.8,13.9,18.7,14z"/>
		<path fill="#74471D" d="M19.1,14.5c-0.6,0.7-1.1,1.5-1.6,2.3c-0.1,0.1,0.1,0.2,0.1,0.1c0.1-0.1,0.2-0.2,0.3-0.3c0,0,0-0.1,0-0.1
			c0.4-0.7,0.8-1.4,1.3-1.9C19.3,14.5,19.2,14.4,19.1,14.5z"/>
		<path fill="#74471D" d="M19.2,15.3c-0.3,0.4-0.6,0.9-0.9,1.4c-0.1,0.1-0.1,0.1-0.1,0.2c0,0.1,0.1,0.1,0.2,0c0,0,0.1-0.1,0.1-0.1
			c0,0,0,0,0,0c0,0,0,0,0-0.1c0.3-0.4,0.5-0.9,0.9-1.3C19.5,15.3,19.3,15.2,19.2,15.3z"/>
		<path fill="#74471D" d="M19.4,15.7c-0.2,0.2-0.3,0.5-0.4,0.7c-0.1,0.1,0.1,0.2,0.2,0.1c0.1-0.3,0.3-0.5,0.4-0.7
			C19.7,15.7,19.5,15.6,19.4,15.7z"/>
		<path fill="#74471D" d="M14.6,18.8c-0.2,0.2-0.3,0.5-0.4,0.7c-0.1,0.3-0.3,0.6-0.4,0.9c0,0,0,0,0,0.1v0.1c0,0.1,0.2,0.1,0.2,0
			c0.1-0.3,0.2-0.6,0.4-0.8c0.1-0.3,0.2-0.6,0.4-0.8C14.8,18.8,14.7,18.7,14.6,18.8z"/>
		<path fill="#74471D" d="M15.2,18.6c-0.1,0.1-0.1,0.1-0.2,0.3c-0.1,0.3-0.3,0.5-0.4,0.7c-0.1,0.1-0.1,0.3-0.2,0.5
			c-0.1,0.1-0.1,0.5-0.2,0.6c-0.1,0.1,0,0.2,0.1,0.1c0.2-0.2,0.2-0.6,0.3-0.9c0.1-0.2,0.2-0.4,0.3-0.6c0.1-0.2,0.2-0.5,0.4-0.6
			C15.4,18.7,15.3,18.6,15.2,18.6z"/>
		<path fill="#74471D" d="M15.8,18.7c-0.3,0.2-0.4,0.6-0.6,0.9c-0.3,0.5-0.5,1-0.7,1.5c-0.1,0.1,0.1,0.2,0.1,0.1
			c0.1-0.1,0.2-0.2,0.3-0.4c0,0,0-0.1,0-0.1c0.1-0.2,0.2-0.5,0.3-0.7c0.2-0.3,0.4-0.9,0.7-1.1C16,18.8,15.9,18.6,15.8,18.7z"/>
		<path fill="#74471D" d="M16.4,18.7C16.3,18.7,16.3,18.7,16.4,18.7c-0.1,0.1-0.1,0.1-0.1,0.2c-0.1,0.4-0.4,0.7-0.6,1.1
			c-0.2,0.3-0.4,0.7-0.5,1c0,0.1,0.1,0.2,0.2,0.1c0,0,0.1-0.1,0.1-0.1c0,0,0-0.1,0-0.1c0.1-0.3,0.4-0.7,0.5-1c0.2-0.3,0.4-0.6,0.6-1
			C16.5,18.7,16.4,18.6,16.4,18.7z"/>
		<path fill="#74471D" d="M16.7,19c-0.2,0.3-0.3,0.5-0.5,0.8c-0.2,0.5-0.4,0.9-0.7,1.3c-0.1,0.1,0.1,0.2,0.2,0.1
			c0.2-0.3,0.4-0.7,0.6-1c0.2-0.4,0.3-0.7,0.5-1C16.9,19.1,16.8,18.9,16.7,19z"/>
		<path fill="#74471D" d="M16.6,19.8c-0.2,0.3-0.3,0.7-0.5,1c-0.1,0.1,0.1,0.2,0.2,0.1c0.2-0.3,0.3-0.7,0.5-1
			C16.8,19.8,16.7,19.7,16.6,19.8z"/>
	</g>
</g>
<g>
	<g>
		<polygon fill="#841618" points="3.7,27.4 3.7,24.5 1,24.5 1,23.3 3.7,23.3 3.7,20.5 5,20.5 5,23.3 7.7,23.3 7.7,24.5 5,24.5 
			5,27.4 		"/>
		<path fill="#FFFFFF" d="M4.7,20.8v2.8h2.7v0.7H4.7v2.8H3.9v-2.8H1.2v-0.7h2.7v-2.8H4.7 M5.2,20.3H4.7H3.9H3.4v0.5v2.3H1.2H0.7v0.5
			v0.7v0.5h0.5h2.2v2.3v0.5h0.5h0.8h0.5v-0.5v-2.3h2.2h0.5v-0.5v-0.7v-0.5H7.4H5.2v-2.3V20.3L5.2,20.3z"/>
	</g>
	<g>
		<path fill="#841618" d="M10.4,27.5c-1,0-1.8-0.3-2.2-0.6l-0.2-0.1l0.5-1.3l0.3,0.2c0.2,0.2,0.9,0.5,1.6,0.5c0.5,0,0.9-0.1,1.2-0.4
			c0.2-0.2,0.3-0.5,0.3-0.8c0-1-0.9-1.3-1.8-1.3H9.3v-1.3h0.8c0.6,0,1.5-0.3,1.5-1.1c0-0.6-0.4-0.9-1.1-0.9c-0.6,0-1.1,0.3-1.4,0.5
			L8.9,21l-0.4-1.3l0.1-0.1C9,19.3,9.8,19,10.7,19c1.7,0,2.5,1.1,2.5,2.1c0,0.8-0.4,1.4-1,1.8c0.8,0.4,1.3,1.1,1.3,2.1
			C13.5,26.2,12.6,27.5,10.4,27.5z"/>
		<path fill="#FFFFFF" d="M10.7,19.2c1.5,0,2.2,0.9,2.2,1.9c0,0.8-0.5,1.5-1.4,1.8v0c1,0.2,1.7,0.9,1.7,2c0,1.2-1,2.3-2.8,2.3
			c-0.9,0-1.6-0.3-2-0.5l0.3-0.8c0.3,0.2,1,0.5,1.7,0.5c1.4,0,1.8-0.9,1.8-1.5c0-1.1-1-1.6-2-1.6H9.6v-0.8h0.6
			c0.8,0,1.7-0.4,1.7-1.3c0-0.6-0.4-1.2-1.4-1.2c-0.6,0-1.2,0.3-1.6,0.5l-0.3-0.8C9.1,19.5,9.9,19.2,10.7,19.2 M10.7,18.7
			c-1,0-1.9,0.4-2.3,0.7l-0.3,0.2L8.2,20l0.3,0.8l0.2,0.6L9.3,21c0.3-0.2,0.8-0.4,1.3-0.4c0.6,0,0.9,0.2,0.9,0.7
			c0,0.6-0.8,0.8-1.2,0.8H9.6H9.1v0.5v0.8v0.5h0.5h0.6c0.4,0,1.5,0.1,1.5,1.1c0,0.1,0,0.4-0.3,0.7c-0.2,0.2-0.6,0.3-1,0.3
			c-0.6,0-1.2-0.2-1.5-0.4l-0.5-0.3l-0.2,0.6l-0.3,0.8l-0.1,0.4l0.3,0.2c0.4,0.3,1.3,0.6,2.3,0.6c2.3,0,3.3-1.5,3.3-2.8
			c0-0.9-0.4-1.6-1.1-2.1c0.5-0.4,0.8-1.1,0.8-1.8C13.5,19.9,12.6,18.7,10.7,18.7L10.7,18.7z"/>
	</g>
</g>
</svg>
