<?xml version="1.0" encoding="utf-8"?>
<!-- Generator: Adobe Illustrator 18.1.1, SVG Export Plug-In . SVG Version: 6.00 Build 0)  -->
<svg version="1.1" id="Layer_1" xmlns:svgjs="http://svgjs.com/svgjs"
	 xmlns="http://www.w3.org/2000/svg" xmlns:xlink="http://www.w3.org/1999/xlink" x="0px" y="0px" viewBox="43 -43.8 512 512"
	 enable-background="new 43 -43.8 512 512" xml:space="preserve">
<g>
	<path fill="#FFDED5" d="M248.5,256.6V48.4c0-13.2,10.7-23.9,23.9-23.9c13.2,0,23.9,10.7,23.9,23.9v133.1h143.4V331
		c0,38.1-30.8,68.9-68.9,68.9h-72.3c-14.4,0-27.9-7.2-35.9-19.2l-99.9-149.7c-7.2-10.7-5.1-25.1,4.8-33.3
		c10.8-8.9,26.7-7.4,35.6,3.4L248.5,256.6z"/>
	<path fill="#4C241D" d="M370.7,406.8h-72.3c-16.7,0-32.3-8.3-41.6-22.2L157,234.8c-9.1-13.7-6.5-31.9,6.2-42.4
		c6.6-5.5,15-8.1,23.5-7.2c8.6,0.8,16.3,4.9,21.7,11.6l33.3,40.6V48.4c0-16.9,13.8-30.7,30.7-30.7c16.9,0,30.7,13.8,30.7,30.7v126.3
		h136.5c3.8,0,6.8,3.1,6.8,6.8V331C446.4,372.8,412.5,406.8,370.7,406.8z M183.6,198.7c-4.3,0-8.4,1.5-11.7,4.2
		c-7.2,6-8.8,16.5-3.5,24.3l99.9,149.7c6.8,10.1,18,16.2,30.2,16.2h72.3c34.2,0,62.1-27.8,62.1-62.1V188.3H296.2
		c-3.8,0-6.8-3.1-6.8-6.8V48.4c0-9.4-7.7-17.1-17.1-17.1s-17.1,7.7-17.1,17.1v208.2c0,2.9-1.8,5.5-4.5,6.4c-2.7,1-5.8,0.1-7.6-2.1
		l-45.4-55.4c-3.1-3.8-7.5-6.2-12.5-6.6C184.8,198.7,184.2,198.7,183.6,198.7L183.6,198.7z"/>
	<path fill="#FFDED5" d="M296.2,222.4v-71.7c0-13.2,10.7-23.9,23.9-23.9c13.2,0,23.9,10.7,23.9,23.9v71.7"/>
	<path fill="#4C241D" d="M344,229.3c-3.8,0-6.8-3.1-6.8-6.8v-71.7c0-9.4-7.7-17.1-17.1-17.1c-9.4,0-17.1,7.7-17.1,17.1v71.7
		c0,3.8-3.1,6.8-6.8,6.8s-6.8-3.1-6.8-6.8v-71.7c0-16.9,13.8-30.7,30.7-30.7c16.9,0,30.7,13.8,30.7,30.7v71.7
		C350.9,226.2,347.8,229.3,344,229.3z"/>
	<path fill="#FFDED5" d="M344,222.4v-71.7c0-13.2,10.7-23.9,23.9-23.9c13.2,0,23.9,10.7,23.9,23.9v71.7"/>
	<path fill="#4C241D" d="M391.8,229.3c-3.8,0-6.8-3.1-6.8-6.8v-71.7c0-9.4-7.7-17.1-17.1-17.1c-9.4,0-17.1,7.7-17.1,17.1v71.7
		c0,3.8-3.1,6.8-6.8,6.8c-3.8,0-6.8-3.1-6.8-6.8v-71.7c0-16.9,13.8-30.7,30.7-30.7c16.9,0,30.7,13.8,30.7,30.7v71.7
		C398.6,226.2,395.6,229.3,391.8,229.3z"/>
	<path fill="#FFDED5" d="M391.8,229.3v-51.2c0-13.2,10.7-23.9,23.9-23.9c13.2,0,23.9,10.7,23.9,23.9v64.9"/>
	<path fill="#4C241D" d="M439.6,249.7c-3.8,0-6.8-3.1-6.8-6.8v-64.9c0-9.4-7.7-17.1-17.1-17.1s-17.1,7.7-17.1,17.1v51.2
		c0,3.8-3.1,6.8-6.8,6.8s-6.8-3.1-6.8-6.8v-51.2c0-16.9,13.8-30.7,30.7-30.7c16.9,0,30.7,13.8,30.7,30.7v64.9
		C446.4,246.7,443.4,249.7,439.6,249.7z"/>
</g>
</svg>
