<?xml version="1.0" encoding="utf-8"?>
<!-- Generator: Adobe Illustrator 18.1.1, SVG Export Plug-In . SVG Version: 6.00 Build 0)  -->
<svg version="1.1" id="Layer_1" xmlns:svgjs="http://svgjs.com/svgjs"
	 xmlns="http://www.w3.org/2000/svg" xmlns:xlink="http://www.w3.org/1999/xlink" x="0px" y="0px" viewBox="0 0 425.2 425.2"
	 enable-background="new 0 0 425.2 425.2" xml:space="preserve">
<g>
	<line fill="none" x1="306" y1="332.5" x2="332.7" y2="306"/>
	<line fill="none" x1="319.4" y1="319.2" x2="332.6" y2="306"/>
	<circle fill="#FFFFFF" cx="212.7" cy="212.5" r="205.1"/>
	<path fill="#FFFFFF" d="M357.7,67.6C310.9,20.8,247.1,1.2,186.2,9.1c43.4,5.7,85.3,25,118.5,58.3c80.1,80.1,80.1,210,0,290.1
		c-33.3,33.3-75.2,52.8-118.5,58.3c60.9,7.9,124.7-11.6,171.5-58.3C437.8,277.4,437.8,147.5,357.7,67.6z"/>
	<circle fill="#B74444" cx="212.7" cy="212.5" r="168.2"/>
	<path fill="#B74444" d="M331.6,93.5C292,54,237.6,38.2,186.2,46.3c33.9,5.3,66.4,21.1,92.5,47.2c65.7,65.7,65.7,172.2,0,238
		c-26.1,26.1-58.6,41.8-92.5,47.2c51.4,8.2,105.8-7.6,145.5-47.2C397.3,265.7,397.3,159.2,331.6,93.5z"/>
	<path fill="#FFFFFF" d="M216.4,99.4l-89.9,84.5v128.5c0,3.4,2.7,6.1,6.1,6.1h167.6c3.4,0,6.1-2.7,6.1-6.1V183.8L216.4,99.4z"/>
	<path fill="#FFFFFF" d="M216.4,99.4l-16.3,15.4l54.3,51v152.7H300c3.4,0,6.1-2.7,6.1-6.1V183.8L216.4,99.4z"/>
	<path fill="#FFFFFF" d="M338,214c-3,0-6.1-1.1-8.4-3.4l-113-106.2l-113,106.2c-5,4.6-12.8,4.4-17.4-0.5c-4.6-5-4.4-12.8,0.5-17.4
		L208.1,78.6c4.8-4.5,12.2-4.5,17,0l121.6,114.2c5,4.6,5.2,12.5,0.5,17.4C344.5,212.8,341.3,214,338,214z"/>
	<path fill="#B74444" d="M239.4,205.5h-46.2c-2.2,0-3.9,1.8-3.9,3.9V327l54-8.4V209.4C243.5,207.2,241.6,205.5,239.4,205.5z"/>
	<path fill="#4C241D" d="M8.1,196.2c4.6,0.5,8.8-2.7,9.4-7.3c5.3-44.1,24.8-83.9,56.2-115.3c76.7-76.7,201.4-76.7,278.1,0
		c31.4,31.4,50.9,71.3,56.2,115.3c0.5,4.4,4.2,7.5,8.3,7.5c0.3,0,0.7,0,1-0.1c4.6-0.5,7.9-4.8,7.3-9.4
		c-5.7-47.7-26.9-91.1-60.9-125.3c-83.4-83.2-218.8-83.2-302.1,0c-33.9,34-55.1,77.2-60.8,125.3C0.2,191.5,3.4,195.5,8.1,196.2z"/>
	<path fill="#4C241D" d="M87.6,87.5c-68.8,68.8-68.8,181,0,249.8C122,371.7,167.3,389,212.4,389s90.4-17.3,124.8-51.7
		c69-69,69-181,0-250C268.8,18.6,156.6,18.6,87.6,87.5z M325.6,325.4c-62.3,62.3-163.6,62.3-226,0c-30.2-30.2-46.8-70.3-46.8-113
		s16.7-82.8,46.8-113c31.1-31.1,72.1-46.8,113-46.8s81.9,15.6,113,46.8c30.2,30.2,46.8,70.3,46.8,113
		C372.5,255.2,355.9,295.4,325.6,325.4z"/>
	<path fill="#4C241D" d="M381.8,343c22.8-29.4,37.4-63.9,42.4-101.2c0.7-4.6-2.6-9-7.2-9.5c-4.6-0.7-9,2.6-9.5,7.2
		c-5,36.6-20,70.3-43.4,98.5c-0.1,0.1-0.1,0.1-0.3,0.3c-3,3.5-6,6.9-9,10.2l0,0c-1,1.1-2,2.2-3.1,3.1c-1.1,1.1-2.3,2.2-3.4,3.3
		c-0.7,0.7-1.5,1.4-2.3,2c-0.3,0.3-0.7,0.7-1.1,1c-1,1-1.9,1.6-2.9,2.6c-0.3,0.1-0.3,0.3-0.5,0.4c-1,1-2,1.6-3,2.6
		C261.4,428,145.9,424,73.4,351.7C42.9,320.9,23.6,282,17.7,239.3c-0.7-4.6-4.9-7.9-9.5-7.2S0.3,237,1,241.6
		c6.4,46.5,27.3,88.7,60.5,122c41.6,41.6,96.3,62.4,151,62.4c46.1,0,94.7-15.6,130.4-44.3C343.2,381.6,370.1,359.7,381.8,343z"/>
	<path fill="#4C241D" d="M202.1,72.3L80.5,186.6c-8.3,7.9-8.8,20.9-1,29.4c3.8,4.1,9,6.4,14.4,6.5c0.3,0,0.4,0,0.7,0
		c5.3,0,10.3-2,14.3-5.7l9.1-8.3v103.9c0,8,6.5,14.6,14.6,14.6h65h37h65.6c8,0,14.6-6.5,14.6-14.6V208.5l9,8.3
		c3.8,3.7,9,5.7,14.3,5.7c5.7,0,11.3-2.3,15.1-6.5c7.9-8.3,7.5-21.6-1-29.4L230.6,72.3C222.7,65,210.2,65,202.1,72.3z M197.9,326.9
		v-113h37l-0.3,113 M297.9,310h-46V209.3c0-6.8-5.6-12.4-12.4-12.4h-46.2c-6.8,0-12.4,5.6-12.4,12.4V310h-46V192.4l81.5-76.4
		l81.5,76.4L297.9,310L297.9,310z M341.8,201.5c0,0.5-0.1,1.8-1,2.9c-1,1-2.3,1.2-2.9,1.2c-0.7,0-1.6-0.3-2.7-1l-23.1-21.8l0,0
		l-90-84.6c-3.3-3-8.3-3-11.6,0l-89.9,84.3l0,0l-23.1,21.8c-1,1-2.2,1-2.9,1c-0.5,0-1.8-0.3-2.7-1.2c-1-1-1-2.2-1-2.9
		s0.3-1.8,1.2-2.7L213.7,84.7c0.8-0.7,1.6-1,2.7-1c1,0,1.9,0.3,2.7,1l121.6,114.2C341.7,199.7,341.8,201,341.8,201.5z"/>
</g>
</svg>
