<?xml version="1.0" encoding="utf-8"?>
<!-- Generator: Adobe Illustrator 18.1.1, SVG Export Plug-In . SVG Version: 6.00 Build 0)  -->
<svg version="1.1" id="Layer_1" xmlns="http://www.w3.org/2000/svg" xmlns:xlink="http://www.w3.org/1999/xlink" x="0px" y="0px"
	 viewBox="43 -43.8 512 512" enable-background="new 43 -43.8 512 512" xml:space="preserve">
<g>
	<linearGradient id="SVGID_1_" gradientUnits="userSpaceOnUse" x1="150.0075" y1="472.7215" x2="449.7925" y2="-46.5214">
		<stop  offset="2.150538e-002" style="stop-color:#FDC663"/>
		<stop  offset="0.1146" style="stop-color:#FCC064"/>
		<stop  offset="0.2379" style="stop-color:#FBAF65"/>
		<stop  offset="0.3777" style="stop-color:#F89468"/>
		<stop  offset="0.4731" style="stop-color:#F67D6A"/>
		<stop  offset="0.5412" style="stop-color:#F46C6F"/>
		<stop  offset="0.6761" style="stop-color:#F03E7D"/>
		<stop  offset="0.7312" style="stop-color:#EE2A83"/>
		<stop  offset="0.7685" style="stop-color:#E92B86"/>
		<stop  offset="0.8131" style="stop-color:#DA308F"/>
		<stop  offset="0.8615" style="stop-color:#C2379D"/>
		<stop  offset="0.9125" style="stop-color:#A141B1"/>
		<stop  offset="0.965" style="stop-color:#764DCA"/>
		<stop  offset="1" style="stop-color:#5557DE"/>
	</linearGradient>
	<path fill="url(#SVGID_1_)" d="M449.8-31.9H150c-52.3,0-95.1,42.8-95.1,95.1V363c0,52.3,42.8,95.1,95.1,95.1h299.7
		c52.3,0,95.1-42.8,95.1-95.1V63.2C544.9,10.9,502.1-31.9,449.8-31.9z M449.8,27.6c19.7,0,35.7,16,35.7,35.7
		c0,19.7-16,35.7-35.7,35.7c-19.7,0-35.7-16-35.7-35.7C414.1,43.5,430.1,27.6,449.8,27.6z M299.9,94.2
		c65.7,0,118.9,53.2,118.9,118.9c0,65.7-53.3,118.9-118.9,118.9S181,278.8,181,213.1S234.2,94.2,299.9,94.2z"/>
	<path fill="#FFFFFF" d="M485.4,63.2c0,19.7-16,35.7-35.7,35.7c-19.7,0-35.7-16-35.7-35.7c0-19.7,16-35.7,35.7-35.7
		C469.5,27.6,485.4,43.5,485.4,63.2z"/>
	<path fill="#FFFFFF" d="M418.8,213.1c0-65.7-53.3-118.9-118.9-118.9S181,147.4,181,213.1c0,65.7,53.3,118.9,118.9,118.9
		C365.6,332,418.8,278.8,418.8,213.1z M299.9,141.7c39.4,0,71.4,31.9,71.4,71.4s-31.9,71.4-71.4,71.4s-71.4-31.9-71.4-71.4
		S260.5,141.7,299.9,141.7z"/>
</g>
<path d="M418.8,470h30.9c59,0,107-48,107-107V63.2c0-59-48-107-107-107H150c-59,0-107,48-107,107V363c0,59,48,107,107,107h173.6
	c6.6,0,11.9-5.3,11.9-11.9c0-6.6-5.3-11.9-11.9-11.9H150c-45.9,0-83.3-37.3-83.3-83.3V63.2C66.8,17.3,104.1-20,150-20h299.7
	c45.9,0,83.3,37.3,83.3,83.3V363c0,45.9-37.3,83.3-83.3,83.3h-30.9c-6.6,0-11.9,5.3-11.9,11.9C406.9,464.7,412.3,470,418.8,470z"/>
<path d="M430.7,213.1c0-72.1-58.7-130.8-130.8-130.8S169.1,141,169.1,213.1s58.7,130.8,130.8,130.8S430.7,285.2,430.7,213.1z
	 M299.9,320.1c-59,0-107-48-107-107s48-107,107-107s107,48,107,107S358.9,320.1,299.9,320.1z"/>
<path d="M299.9,129.8c-45.9,0-83.3,37.3-83.3,83.3s37.3,83.3,83.3,83.3s83.3-37.3,83.3-83.3S345.8,129.8,299.9,129.8z M299.9,272.6
	c-32.8,0-59.5-26.7-59.5-59.5s26.7-59.5,59.5-59.5s59.5,26.7,59.5,59.5S332.7,272.6,299.9,272.6z"/>
<path d="M497.3,63.2c0-26.2-21.3-47.6-47.6-47.6c-26.2,0-47.6,21.3-47.6,47.6c0,26.2,21.3,47.6,47.6,47.6
	C476,110.8,497.3,89.5,497.3,63.2z M426,63.2c0-13.1,10.7-23.8,23.8-23.8s23.8,10.7,23.8,23.8c0,13.1-10.7,23.8-23.8,23.8
	S426,76.4,426,63.2z"/>
<path d="M371.3,446.2c-6.6,0-11.9,5.3-11.9,11.9c0,6.6,5.3,11.9,11.9,11.9s11.9-5.3,11.9-11.9C383.2,451.5,377.8,446.2,371.3,446.2
	L371.3,446.2z"/>
</svg>
