<?xml version="1.0"?>
<svg xmlns="http://www.w3.org/2000/svg" xmlns:xlink="http://www.w3.org/1999/xlink" xmlns:svgjs="http://svgjs.com/svgjs" version="1.1" width="512" height="512" x="0" y="0" viewBox="0 0 416 416.42325" style="enable-background:new 0 0 512 512" xml:space="preserve" class=""><g><path xmlns="http://www.w3.org/2000/svg" d="m262.441406 116.054688c-11.308594 0-20.480468 9.164062-20.480468 20.480468v-6.828125h-95.574219v-98.988281c0-13.191406-10.695313-23.890625-23.890625-23.890625-13.199219 0-23.894532 10.699219-23.894532 23.890625v167.253906l-43.253906-9.53125c-20.351562-6.113281-41.804687 5.433594-47.914062 25.777344-1.480469 4.921875 1.316406 10.121094 6.238281 11.601562l25.539063 7.664063c36.390624 10.925781 46.121093 17.460937 57.570312 49.316406l15.472656 44.878907h150.183594v-34.460938c12.3125-7.957031 20.480469-21.773438 20.480469-37.523438v-119.160156c.003906-11.316406-9.167969-20.480468-20.476563-20.480468zm0 0" fill="#ffded5" data-original="#ffd578" style="" class=""/><path xmlns="http://www.w3.org/2000/svg" d="m262.441406 116.054688v-6.828126c-15.082031.003907-27.304687 12.21875-27.308594 27.308594 0 1.796875.730469 3.554688 2 4.824219 1.273438 1.273437 3.03125 2 4.828126 2 1.796874 0 3.558593-.726563 4.828124-2 1.269532-1.269531 2-3.027344 2-4.824219v-6.828125c0-1.800781-.730468-3.558593-2-4.828125-1.273437-1.273437-3.03125-2-4.828124-2h-88.746094v-92.160156c-.003906-16.964844-13.75-30.71484375-30.71875-30.71875-16.972656.00390625-30.714844 13.753906-30.722656 30.71875v158.761719l-34.957032-7.707031-1.46875 6.664062 1.964844-6.539062c-4.332031-1.300782-8.726562-1.925782-13.046875-1.925782-19.496094-.003906-37.46875 12.667969-43.371094 32.28125-.460937 1.53125-.683593 3.097656-.683593 4.640625 0 6.957031 4.507812 13.339844 11.492187 15.460938l.007813.003906 25.535156 7.664063c18.066406 5.390624 28.722656 9.636718 35.746094 15.523437 3.550781 2.960937 6.417968 6.386719 9.195312 11.101563 2.769531 4.707031 5.386719 10.710937 8.171875 18.457031l6.421875-2.308594-6.453125 2.226563 15.472656 44.878906c.945313 2.746094 3.546875 4.601562 6.453125 4.601562h150.1875c1.824219 0 3.535156-.707031 4.824219-2 1.292969-1.289062 2.003906-3.003906 2.003906-4.824218v-34.460938h-6.828125l3.707032 5.734375c14.164062-9.144531 23.597656-25.105469 23.597656-43.261719v-119.15625c0-15.089844-12.222656-27.304687-27.304688-27.308594v13.652344c7.539063.015625 13.640625 6.113282 13.652344 13.65625v119.15625c0 13.351563-6.90625 25.019532-17.359375 31.792969-1.9375 1.253906-3.121094 3.429687-3.121094 5.734375v27.632812h-138.492187l-13.886719-40.277343-.027344-.085938c-2.945312-8.175781-5.832031-14.9375-9.246093-20.753906-5.074219-8.730469-11.601563-15.257813-20.140626-20.152344-8.535156-4.925781-18.863281-8.484375-32.648437-12.632812l-25.535156-7.667969h.007812c-1.078125-.308594-1.777343-1.335938-1.78125-2.382812l.105469-.710938c4.101562-13.710938 16.703125-22.554688 30.296875-22.5625 3.007813.003906 6.066406.433594 9.113281 1.351562l.496094.128907 43.253906 9.53125c2.023438.445312 4.128906-.042969 5.746094-1.34375 1.617188-1.296875 2.550781-3.246094 2.550781-5.320313v-167.253906c.015625-9.421875 7.644531-17.046875 17.066407-17.066406 9.421874.019531 17.050781 7.644531 17.066406 17.066406v98.988281c0 1.824219.710937 3.535157 2 4.824219 1.292968 1.292969 3.003906 2 4.828125 2h88.746093v.003906c0 1.796875.730469 3.554688 2 4.824219 1.269532 1.273437 3.03125 2 4.828126 2 1.796874 0 3.554687-.726563 4.824218-2 1.269532-1.269531 2-3.027344 2-4.824219.015625-7.542968 6.117188-13.640625 13.652344-13.65625v-6.824218zm0 0" fill="#4c241d" data-original="#54596e" style="" class=""/><path xmlns="http://www.w3.org/2000/svg" d="m170.28125 95.574219c-13.195312 0-23.894531 10.699219-23.894531 23.890625v61.441406c0 13.191406 10.699219 23.894531 23.894531 23.894531s23.894531-10.703125 23.894531-23.894531v-61.441406c0-13.191406-10.699219-23.890625-23.894531-23.890625zm0 0" fill="#ffded5" data-original="#ffd578" style="" class=""/><path xmlns="http://www.w3.org/2000/svg" d="m170.28125 95.574219v-6.828125c-16.972656.003906-30.714844 13.753906-30.71875 30.71875v61.441406c.003906 16.964844 13.746094 30.714844 30.71875 30.71875 16.972656-.003906 30.714844-13.753906 30.71875-30.71875v-61.441406c-.003906-16.964844-13.746094-30.714844-30.71875-30.71875v13.652344c9.421875.019531 17.050781 7.644531 17.066406 17.066406v61.441406c-.015625 9.421875-7.644531 17.046875-17.066406 17.066406-9.421875-.019531-17.050781-7.644531-17.066406-17.066406v-61.441406c.015625-9.421875 7.644531-17.046875 17.066406-17.066406zm0 0" fill="#4c241d" data-original="#54596e" style="" class=""/><path xmlns="http://www.w3.org/2000/svg" d="m218.066406 102.398438c-13.195312 0-23.890625 10.703124-23.890625 23.894531v47.785156c0 13.195313 10.695313 23.894531 23.890625 23.894531 13.195313 0 23.894532-10.699218 23.894532-23.894531v-47.785156c0-13.191407-10.699219-23.894531-23.894532-23.894531zm0 0" fill="#ffded5" data-original="#ffd578" style="" class=""/><path xmlns="http://www.w3.org/2000/svg" d="m218.066406 102.398438v-6.824219c-16.96875.003906-30.714844 13.753906-30.71875 30.71875v47.785156c.003906 16.964844 13.75 30.714844 30.71875 30.71875 16.972656-.003906 30.714844-13.753906 30.722656-30.71875v-47.785156c-.007812-16.964844-13.75-30.714844-30.722656-30.71875v13.652343c9.421875.015626 17.050782 7.644532 17.066406 17.066407v47.785156c-.015624 9.421875-7.644531 17.050781-17.066406 17.070313-9.421875-.019532-17.046875-7.648438-17.066406-17.070313v-47.785156c.019531-9.421875 7.644531-17.050781 17.066406-17.066407zm0 0" fill="#4c241d" data-original="#54596e" style="" class=""/><path xmlns="http://www.w3.org/2000/svg" d="m262.441406 116.054688c-11.308594 0-20.480468 9.164062-20.480468 20.480468v40.957032c0 11.316406 9.171874 20.480468 20.480468 20.480468s20.480469-9.164062 20.480469-20.480468v-40.957032c0-11.316406-9.171875-20.480468-20.480469-20.480468zm0 0" fill="#ffded5" data-original="#ffd578" style="" class=""/><path xmlns="http://www.w3.org/2000/svg" d="m262.441406 116.054688v-6.828126c-15.082031.003907-27.304687 12.21875-27.308594 27.308594v40.957032c.003907 15.085937 12.226563 27.300781 27.308594 27.304687 15.082032-.003906 27.304688-12.21875 27.304688-27.304687v-40.957032c0-15.089844-12.222656-27.304687-27.304688-27.308594v13.652344c7.539063.015625 13.640625 6.113282 13.652344 13.65625v40.957032c-.011719 7.542968-6.113281 13.640624-13.652344 13.65625-7.539062-.015626-13.640625-6.113282-13.652344-13.65625v-40.957032c.011719-7.542968 6.113282-13.640625 13.652344-13.65625zm0 0" fill="#4c241d" data-original="#54596e" style="" class=""/><path xmlns="http://www.w3.org/2000/svg" d="m96.441406 204.449219 20.480469 6.824219c3.578125 1.195312 7.441406-.738282 8.636719-4.316407 1.191406-3.574219-.742188-7.441406-4.320313-8.632812l-20.476562-6.828125c-3.578125-1.191406-7.445313.742187-8.636719 4.316406-1.195312 3.574219.738281 7.445312 4.316406 8.636719" fill="#4c241d" data-original="#54596e" style="" class=""/><path xmlns="http://www.w3.org/2000/svg" d="m269.265625 327.679688v81.921874h-170.664063v-81.921874z" fill="#ffffff" data-original="#ffffff" style="" class=""/><path xmlns="http://www.w3.org/2000/svg" d="m269.265625 327.679688h-6.824219v75.09375h-157.011718v-68.269532h163.839843v-6.824218h-6.828125 6.824219v-6.828126h-170.664063c-1.796874 0-3.554687.730469-4.828124 2.003907-1.273438 1.269531-2.003907 3.027343-2.003907 4.824219v81.921874c0 1.820313.714844 3.535157 2.003907 4.824219 1.289062 1.289063 3 1.996094 4.828124 1.996094h170.664063c1.824219 0 3.539063-.707031 4.832031-1.996094 1.289063-1.289062 1.996094-3.003906 1.996094-4.824219v-81.921874c0-1.796876-.726562-3.554688-1.996094-4.824219-1.273437-1.273438-3.03125-2.003907-4.832031-2.003907z" fill="#4c241d" data-original="#54596e" style="" class=""/><path xmlns="http://www.w3.org/2000/svg" d="m153.214844 368.640625c0 7.539063-6.113282 13.652344-13.652344 13.652344-7.542969 0-13.65625-6.113281-13.65625-13.652344 0-7.542969 6.113281-13.652344 13.65625-13.652344 7.539062 0 13.652344 6.109375 13.652344 13.652344zm0 0" fill="#4c241d" data-original="#54596e" style="" class=""/><path xmlns="http://www.w3.org/2000/svg" d="m262.441406 334.507812h-47.785156v68.265626h47.785156z" fill="#e6e6e9" data-original="#e6e6e9" style="" class=""/></g></svg>
