<?xml version="1.0" encoding="utf-8"?>
<!-- Generator: Adobe Illustrator 18.1.1, SVG Export Plug-In . SVG Version: 6.00 Build 0)  -->
<svg version="1.1" id="Layer_1" xmlns:svgjs="http://svgjs.com/svgjs"
	 xmlns="http://www.w3.org/2000/svg" xmlns:xlink="http://www.w3.org/1999/xlink" x="0px" y="0px" viewBox="0 0 425.2 425.2"
	 enable-background="new 0 0 425.2 425.2" xml:space="preserve">
<g>
	<g>
		<g>
			<circle fill="#FFFFFF" cx="212.6" cy="212.6" r="206.4"/>
			<path fill="#FFFEFA" d="M212.6,6.2c-4.2,0-8.3,0.2-12.5,0.4c108.2,6.5,193.9,96.2,193.9,206s-85.7,199.6-193.9,206
				c4.2,0.2,8.3,0.4,12.5,0.4C326.5,419,419,326.5,419,212.6S326.5,6.2,212.6,6.2z"/>
			<circle fill="#E5CF73" cx="212.6" cy="212.6" r="173.2"/>
			<path fill="#E5CF73" d="M212.6,39.4c-4.2,0-8.3,0.2-12.5,0.4c89.7,6.4,160.7,81.4,160.7,172.7s-71,166.3-160.7,172.7
				c4.2,0.3,8.3,0.4,12.5,0.4c95.5,0,173.2-77.6,173.2-173.2S308.1,39.4,212.6,39.4z"/>
			<path fill="#FFFFFF" d="M244.6,200.1h-19.5v-62.9h19.5c9.2,0,16.8,9.1,16.8,20.4c0,6.9,5.6,12.5,12.5,12.5s12.5-5.6,12.5-12.5
				c0-25-18.7-45.3-41.7-45.3h-19.5V87.4c0-6.9-5.6-12.5-12.5-12.5s-12.5,5.6-12.5,12.5v24.9h-19.5c-23,0-41.7,20.3-41.7,45.3v21.9
				c0,11.9,4.2,23.1,11.7,31.6c7.9,8.9,18.6,13.8,30,13.8h19.5v62.9h-19.5c-9.2,0-16.8-9.1-16.8-20.4c0-6.9-5.6-12.5-12.5-12.5
				c-6.9,0-12.5,5.6-12.5,12.5c0,25,18.7,45.3,41.7,45.3h19.5v24.9c0,6.9,5.6,12.5,12.5,12.5s12.5-5.6,12.5-12.5v-24.9h19.5
				c23,0,41.7-20.3,41.7-45.3v-21.9c0-11.9-4.2-23.1-11.7-31.6C266.7,205,256,200.1,244.6,200.1L244.6,200.1z M180.6,200.1
				c-4.2,0-8.2-1.9-11.4-5.5c-3.5-3.9-5.4-9.2-5.4-15v-21.9c0-11.3,7.6-20.4,16.8-20.4h19.5v62.9H180.6L180.6,200.1z M261.3,267.4
				c0,11.3-7.6,20.4-16.8,20.4h-19.5V225h19.5c4.2,0,8.2,1.9,11.4,5.5c3.5,3.9,5.4,9.2,5.4,15V267.4z"/>
		</g>
		<path fill="#4C241D" d="M180.6,281.7c-5.7,0-10.5-6.5-10.5-14.2c0-10.3-8.4-18.7-18.7-18.7s-18.7,8.4-18.7,18.7
			c0,28.5,21.5,51.6,47.9,51.6h13.3v18.7c0,10.3,8.4,18.7,18.7,18.7s18.7-8.4,18.7-18.7v-18.7h13.3c7.2,0,14.2-1.7,20.7-5.1
			c3.1-1.6,4.2-5.3,2.7-8.4s-5.3-4.2-8.4-2.7c-4.7,2.4-9.7,3.7-14.9,3.7h-19.5c-3.4,0-6.2,2.8-6.2,6.2v24.9c0,3.4-2.8,6.2-6.2,6.2
			s-6.2-2.8-6.2-6.2v-24.9c0-3.4-2.8-6.2-6.2-6.2h-19.5c-19.6,0-35.5-17.5-35.5-39.1c0-3.4,2.8-6.2,6.2-6.2c3.4,0,6.2,2.8,6.2,6.2
			c0,14.7,10.3,26.7,23,26.7h19.5c3.4,0,6.2-2.8,6.2-6.2v-62.9c0-3.4-2.8-6.2-6.2-6.2h-19.5c-9.6,0-18.6-4.2-25.3-11.7
			c-6.6-7.4-10.1-17.1-10.1-27.4v-21.9c0-21.6,15.9-39.1,35.5-39.1h19.5c3.4,0,6.2-2.8,6.2-6.2V87.5c0-3.4,2.8-6.2,6.2-6.2
			s6.2,2.8,6.2,6.2v24.9c0,3.4,2.8,6.2,6.2,6.2h19.5c19.6,0,35.5,17.5,35.5,39.1c0,3.4-2.8,6.2-6.2,6.2c-3.4,0-6.2-2.8-6.2-6.2
			c0-14.7-10.3-26.7-23-26.7h-19.5c-3.4,0-6.2,2.8-6.2,6.2v62.9c0,1.7,0.7,3.2,1.8,4.4c1.2,1.2,2.7,1.8,4.4,1.8h19.5
			c9.6,0,18.6,4.2,25.3,11.7c6.6,7.4,10.1,17.1,10.1,27.4v21.9c0,6.1-1.2,11.9-3.7,17.4c-1.4,3.2,0,6.8,3.2,8.2s6.8,0,8.2-3.2
			c3.2-7.1,4.7-14.6,4.7-22.4v-21.9c0-13.4-4.7-26.1-13.3-35.7c-9.1-10.3-21.4-15.9-34.6-15.9h-13.3v-50.4h13.3
			c5.7,0,10.5,6.5,10.5,14.2c0,10.3,8.4,18.7,18.7,18.7c10.3,0,18.7-8.4,18.7-18.7c0-28.5-21.5-51.6-47.9-51.6h-13.3V87.4
			c0-10.3-8.4-18.7-18.7-18.7s-18.7,8.4-18.7,18.7v18.7h-13.3c-26.4,0-47.9,23.2-47.9,51.6v21.9c0,13.4,4.7,26.1,13.3,35.7
			c9.1,10.3,21.4,15.9,34.6,15.9h13.3v50.4H180.6z M212.6,33.2c-38.6,0-75.5,12.1-106.5,35.1c-2.7,2.1-3.3,6-1.3,8.7
			c2.1,2.7,6,3.3,8.7,1.3c28.9-21.3,63.1-32.7,99.1-32.7c92,0,166.9,74.9,166.9,166.9s-74.9,166.9-166.9,166.9
			S45.7,304.6,45.7,212.6c0-43.2,16.5-84.2,46.5-115.5c2.4-2.5,2.3-6.4-0.2-8.8c-2.5-2.4-6.4-2.3-8.8,0.2
			c-32.2,33.6-50,77.7-50,124.2c0,98.9,80.5,179.4,179.4,179.4S392,311.5,392,212.6S311.5,33.2,212.6,33.2z M362.9,62.3
			C322.7,22.1,269.4,0,212.6,0S102.4,22.1,62.3,62.3C22.1,102.5,0,155.8,0,212.6s22.1,110.2,62.3,150.3
			c40.2,40.2,93.5,62.3,150.3,62.3s110.2-22.1,150.3-62.3c40.2-40.2,62.3-93.5,62.3-150.3S403.1,102.4,362.9,62.3L362.9,62.3z
			 M354.1,354.1c-37.8,37.8-88,58.6-141.5,58.6s-103.7-20.8-141.5-58.6s-58.6-88-58.6-141.5S33.3,108.9,71.1,71.1
			s88-58.6,141.5-58.6s103.7,20.8,141.5,58.6s58.6,88,58.6,141.5S391.9,316.3,354.1,354.1z M244.6,218.8h-19.5
			c-3.4,0-6.2,2.8-6.2,6.2v62.9c0,3.4,2.8,6.2,6.2,6.2h19.5c12.7,0,23-12,23-26.7v-21.9c0-7.2-2.5-14-7-19.1
			C256.3,221.5,250.6,218.8,244.6,218.8z M255.1,267.4c0,7.7-4.8,14.2-10.5,14.2h-13.3v-50.4h13.3c2.4,0,4.8,1.2,6.7,3.4
			c2.5,2.8,3.8,6.6,3.8,10.9V267.4L255.1,267.4z M200.1,131h-19.5c-12.7,0-23,12-23,26.7v21.9c0,7.2,2.5,14,7,19.1
			c4.3,4.9,10,7.6,16,7.6h19.5c3.4,0,6.2-2.8,6.2-6.2v-62.9C206.4,133.9,203.5,131,200.1,131L200.1,131z M193.9,193.9h-13.3
			c-2.4,0-4.8-1.2-6.7-3.4c-2.5-2.8-3.8-6.6-3.8-10.9v-21.9c0-7.7,4.8-14.2,10.5-14.2h13.3V193.9z"/>
	</g>
</g>
</svg>
