<?xml version="1.0" encoding="utf-8"?>
<!-- Generator: Adobe Illustrator 18.1.1, SVG Export Plug-In . SVG Version: 6.00 Build 0)  -->
<svg version="1.1" id="Layer_1" xmlns="http://www.w3.org/2000/svg" xmlns:xlink="http://www.w3.org/1999/xlink" x="0px" y="0px"
	 viewBox="0 0 28.3 28.3" enable-background="new 0 0 28.3 28.3" xml:space="preserve">
<g>
	<rect x="0.2" y="5.9" fill="#8EB1C4" width="22.3" height="22.3"/>
	<path d="M22.3,6.1v21.9H0.4V6.1H22.3 M22.7,5.7H0v22.7h22.7V5.7L22.7,5.7z"/>
</g>
<g>
	<g>
		<path fill="#FFFFFF" d="M24.6,14.9c-0.2-0.4-0.4-0.8-0.7-1.2c0.1,0,0.1-0.1,0.1-0.2c0.1-0.6,0.3-1.2,0-1.8
			c-0.3-0.6-0.9-1.1-1.5-1.4c-0.7-0.3-1.5-0.3-2.2,0c-0.4,0.2-0.9,0.4-1.2,0.8c-0.4-0.1-0.8-0.3-1.3-0.5c-0.8-0.3-1.7-0.6-2.6-0.8
			c-0.4-0.1-0.9-0.2-1.2-0.2c-0.3,0-0.8,0-1.1-0.1c-0.8-0.3-1.7,0-2.5,0.2c-1.5,0.3-3,0.9-4.4,1.5c-0.4,0.2-0.8,0.5-1.2,0.7
			c-0.4,0.2-0.9,0.4-1.3,0.7c-0.4,0.2-0.7,0.6-1.1,0.8c-0.3,0.2-0.6,0.3-0.8,0.6c0,0,0,0,0,0c-0.1,0-0.1,0.1-0.1,0.2
			c0,0.8,0.2,1.5,0.2,2.3c0,0.8,0.8,1.1,1.4,1.4c0.9,0.4,1.9,0.6,2.8,1c0.2,0.1,0.3,0.1,0.5,0.2c0,0,0,0,0,0
			c-0.1,0.8-0.4,1.8,0.2,2.5c0.6,0.8,1.8,1.3,2.7,1.8c1,0.5,2.1,0.7,3.1,1.1c0.4,0.2,0.9,0.4,1.3,0.4c0.6,0,1.4,0.2,1.9,0.5
			c0.1,0.1,0.2,0,0.2,0c0.3,0.1,0.6,0.2,1,0.3c0.5,0.1,1,0,1.4,0c0.8,0,1.6-0.1,2.3-0.4c0.8-0.3,1.4-0.9,1.9-1.6
			c0.5-0.6,0.8-1.2,1.1-1.9c0.1-0.4,0.4-0.6,0.6-1c0.2-0.5,0.3-0.9,0.4-1.4c0.2-0.7,0.3-1.5,0.3-2.2C24.9,16.6,24.9,15.7,24.6,14.9z
			"/>
		<g>
			<g>
				<path fill="#74471D" d="M14.5,16.7c-0.3,0-0.4,0.3-0.6,0.4c-0.3,0.3-0.5,0.6-0.6,0.9c-0.3,0.7-0.3,1.4-0.6,2.1
					c0,0.1,0.1,0.1,0.1,0c0.1-0.3,0.1-0.6,0.2-0.9c0.1-0.3,0.1-0.6,0.2-0.9c0.1-0.3,0.3-0.6,0.4-0.9c0.2-0.2,0.5-0.7,0.8-0.8
					C14.6,16.8,14.6,16.7,14.5,16.7z"/>
				<path fill="#74471D" d="M12.4,17.5c-0.6,0.7-0.9,1.5-0.9,2.4c0,0.1,0.1,0.1,0.1,0C11.6,19.1,11.9,18.3,12.4,17.5
					C12.6,17.5,12.5,17.5,12.4,17.5z"/>
				<path fill="#74471D" d="M10.9,18.3c-0.1,0.2-0.2,0.4-0.3,0.6c-0.1,0.3-0.2,0.6-0.2,0.9c0,0.1,0.1,0.1,0.1,0
					c0.1-0.3,0.1-0.5,0.2-0.8c0.1-0.2,0.2-0.4,0.3-0.7C11,18.3,10.9,18.2,10.9,18.3z"/>
				<path fill="#74471D" d="M8,22.5c-0.1-0.1,0-0.1-0.1-0.2c0-0.1-0.1-0.2-0.1-0.4c0-0.2,0-0.4,0-0.5c0-0.1-0.1-0.1-0.1-0.1
					c-0.1,0.2-0.1,0.4,0,0.6c0,0.1,0.1,0.3,0.1,0.4C7.8,22.4,7.9,22.5,8,22.5C8,22.6,8.1,22.5,8,22.5z"/>
				<path fill="#74471D" d="M9.1,22.8C9,22.5,8.9,22.3,8.9,22c0-0.1-0.1-0.1-0.1,0c0,0.3,0.1,0.6,0.3,0.9C9,22.9,9.1,22.9,9.1,22.8z
					"/>
				<path fill="#74471D" d="M10.2,23.1c0-0.2-0.1-0.4-0.1-0.6c0-0.1-0.1-0.1-0.1,0c0,0.2,0,0.3,0.1,0.5c0,0.1,0.1,0.2,0.1,0.3
					c0,0.1,0.1,0.1,0.1,0.2c0,0.1,0.1,0.1,0.1,0C10.3,23.3,10.2,23.2,10.2,23.1z"/>
				<path fill="#74471D" d="M11.7,24.1c-0.1-0.5-0.5-0.8-0.5-1.3c0-0.1-0.1-0.1-0.1,0c0,0.5,0.4,0.8,0.5,1.3
					C11.6,24.3,11.7,24.2,11.7,24.1z"/>
				<path fill="#74471D" d="M12.7,24.4c-0.2-0.3-0.4-0.8-0.4-1.1c0-0.1-0.1-0.1-0.1,0c0,0.2,0,0.3,0.1,0.6c0.1,0.2,0.2,0.4,0.3,0.6
					C12.6,24.5,12.7,24.4,12.7,24.4z"/>
				<path fill="#74471D" d="M13.7,24.6c-0.2-0.4-0.4-0.7-0.4-1.2c0-0.1-0.1-0.1-0.1,0c0,0.5,0.1,0.8,0.4,1.2
					C13.6,24.8,13.8,24.7,13.7,24.6z"/>
				<path fill="#74471D" d="M2.8,14.9c0,0.1-0.1,0.2-0.2,0.3c0,0.1-0.1,0.2-0.1,0.3c-0.1,0.2-0.2,0.4-0.2,0.6c0,0.1,0.1,0.1,0.1,0
					c0-0.2,0.1-0.5,0.2-0.7c0.1-0.2,0.2-0.4,0.2-0.6C2.9,14.8,2.8,14.8,2.8,14.9z"/>
				<path fill="#74471D" d="M3.5,15.1c-0.1,0.1-0.2,0.3-0.3,0.4C3.1,15.6,3,15.9,3,16.1c-0.1,0.4-0.3,0.8-0.4,1.2
					c0,0.1,0.1,0.1,0.1,0c0.1-0.4,0.2-0.7,0.4-1.1c0.1-0.2,0.1-0.4,0.2-0.6c0.1-0.2,0.3-0.3,0.3-0.5C3.6,15,3.5,15,3.5,15.1z"/>
				<path fill="#74471D" d="M4.1,15.2c0,0.2-0.2,0.5-0.2,0.6c-0.1,0.2-0.2,0.4-0.3,0.6c-0.1,0.3-0.4,0.7-0.5,1c0,0.1,0.1,0.1,0.1,0
					c0-0.2,0.2-0.4,0.3-0.6c0.1-0.2,0.2-0.4,0.3-0.6c0.1-0.3,0.4-0.7,0.5-1.1C4.2,15.2,4.1,15.1,4.1,15.2z"/>
				<path fill="#74471D" d="M4.9,15.4c-0.1,0.1-0.2,0.2-0.2,0.3c-0.1,0.3-0.2,0.5-0.3,0.7c-0.2,0.5-0.5,0.9-0.7,1.3
					c0,0.1,0.1,0.1,0.1,0.1c0.2-0.4,0.4-0.8,0.6-1.1c0.1-0.2,0.2-0.4,0.3-0.6C4.8,15.9,4.9,15.7,4.9,15.4C5.1,15.4,5,15.3,4.9,15.4z
					"/>
				<path fill="#74471D" d="M5.3,15.7c0,0.4-0.2,0.8-0.4,1.2c-0.1,0.2-0.2,0.4-0.3,0.5c-0.1,0.1-0.3,0.4-0.4,0.5
					c-0.1,0,0,0.2,0.1,0.1c0.1-0.1,0.2-0.3,0.3-0.4c0.2-0.2,0.3-0.4,0.4-0.6c0.2-0.4,0.4-0.9,0.5-1.4C5.4,15.7,5.3,15.7,5.3,15.7z"
					/>
				<path fill="#74471D" d="M6.3,15.8c-0.1,0-0.2,0.1-0.2,0.3c-0.1,0.3-0.2,0.5-0.3,0.8c-0.1,0.3-0.3,0.6-0.4,0.9
					c-0.1,0.2-0.2,0.4-0.3,0.6c0,0.1,0.1,0.1,0.1,0c0-0.2,0.1-0.3,0.2-0.5c0.1-0.3,0.2-0.5,0.3-0.8C5.9,17,5.9,16.8,6,16.6
					C6.1,16.5,6.2,16,6.4,16C6.5,15.9,6.4,15.8,6.3,15.8z"/>
				<path fill="#74471D" d="M7.1,16.2c-0.1,0.2-0.2,0.4-0.2,0.5c-0.1,0.2-0.2,0.5-0.3,0.7c-0.1,0.2-0.2,0.4-0.3,0.6
					c-0.1,0.2-0.2,0.3-0.3,0.5c0,0.1,0.1,0.1,0.1,0c0.1-0.2,0.3-0.4,0.4-0.6c0.1-0.2,0.2-0.4,0.3-0.6c0.1-0.2,0.1-0.3,0.2-0.5
					c0.1-0.2,0.2-0.4,0.3-0.6C7.2,16.1,7.1,16.1,7.1,16.2z"/>
				<path fill="#74471D" d="M7.6,16.6c-0.1,0.4-0.3,0.7-0.4,1.1c-0.1,0.2-0.2,0.4-0.3,0.6c-0.1,0.2-0.2,0.4-0.3,0.6
					c0,0.1,0.1,0.1,0.1,0.1c0.1-0.2,0.2-0.4,0.3-0.6c0.1-0.2,0.2-0.3,0.3-0.5c0.2-0.4,0.3-0.8,0.5-1.2C7.8,16.6,7.7,16.6,7.6,16.6z"
					/>
				<path fill="#74471D" d="M7.8,18c-0.2,0.3-0.3,0.7-0.4,1.1c0,0.1,0.1,0.1,0.1,0c0.1-0.3,0.2-0.7,0.4-1C7.9,18,7.8,18,7.8,18z"/>
				<path fill="#74471D" d="M10.2,10.8c-0.1,0.3-0.2,0.7-0.3,1c0,0.1,0.1,0.1,0.1,0c0-0.3,0.1-0.7,0.2-1
					C10.3,10.8,10.2,10.7,10.2,10.8z"/>
				<path fill="#74471D" d="M11,11c0,0.2-0.1,0.4-0.2,0.5c0,0.2-0.1,0.3-0.1,0.5c0,0.1,0.1,0.1,0.1,0c0-0.4,0.3-0.7,0.3-1
					C11.1,10.9,11,10.9,11,11z"/>
				<path fill="#74471D" d="M11.6,11c-0.1,0.2-0.1,0.4-0.1,0.6c-0.1,0.2-0.1,0.4-0.2,0.7c0,0.1,0.1,0.1,0.1,0c0-0.2,0.1-0.3,0.1-0.5
					c0-0.1,0.1-0.2,0.1-0.3c0-0.1,0-0.2,0.1-0.4C11.8,11,11.7,10.9,11.6,11z"/>
				<path fill="#74471D" d="M12.1,11.2c-0.1,0.2-0.1,0.4-0.1,0.6c0,0.2-0.2,0.4-0.2,0.6c0,0.1,0.1,0.1,0.1,0c0-0.2,0.1-0.3,0.2-0.5
					c0.1-0.2,0.1-0.4,0.1-0.6C12.3,11.2,12.2,11.2,12.1,11.2z"/>
				<path fill="#74471D" d="M12.6,11.5c-0.1,0.1-0.1,0.2-0.1,0.3c0,0.2-0.1,0.4-0.2,0.6c0,0.1,0.1,0.1,0.1,0c0-0.1,0.1-0.3,0.1-0.4
					C12.6,11.8,12.6,11.7,12.6,11.5C12.8,11.5,12.7,11.4,12.6,11.5z"/>
				<path fill="#74471D" d="M13.1,11.5c-0.1,0.2-0.2,0.4-0.2,0.6c0,0.1,0.1,0.1,0.1,0c0-0.2,0.1-0.4,0.2-0.5
					C13.2,11.5,13.1,11.4,13.1,11.5z"/>
				<path fill="#74471D" d="M21.1,11.2c-0.2,0.1-0.2,0.2-0.4,0.4c-0.1,0.1-0.1,0.1-0.1,0.2c0,0.1-0.1,0.1-0.1,0.2
					c0,0.1,0.1,0.1,0.1,0c0-0.1,0.1-0.1,0.1-0.2c0,0,0.1-0.1,0.1-0.2c0.1-0.1,0.2-0.3,0.3-0.3C21.2,11.3,21.1,11.2,21.1,11.2z"/>
				<path fill="#74471D" d="M21.7,11.5c0,0.1-0.1,0.3-0.2,0.4c-0.1,0.1-0.1,0.3-0.2,0.4c0,0.1,0.1,0.1,0.1,0.1
					c0.1-0.2,0.2-0.3,0.3-0.5c0.1-0.1,0.1-0.2,0.2-0.4C21.8,11.4,21.7,11.4,21.7,11.5z"/>
				<path fill="#74471D" d="M22.4,11.8c-0.1,0.2-0.3,0.4-0.4,0.7c0,0.1,0.1,0.1,0.1,0c0.1-0.3,0.2-0.5,0.4-0.7
					C22.6,11.8,22.5,11.7,22.4,11.8z"/>
				<path fill="#74471D" d="M22.9,12.2c-0.1,0.2-0.2,0.4-0.2,0.6c0,0.1,0.1,0.1,0.1,0c0.1-0.2,0.2-0.4,0.2-0.6
					C23.1,12.2,23,12.1,22.9,12.2z"/>
				<path fill="#74471D" d="M23.5,13.9c-0.4,0.4-0.8,0.8-1.1,1.3c-0.4,0.5-0.7,1-1,1.5c-0.3,0.5-0.6,0.9-0.9,1.4
					c-0.4,0.5-0.6,1.1-0.9,1.7c-0.3,0.5-0.7,0.9-1.1,1.3c-0.4,0.4-0.7,0.9-1,1.4c-0.2,0.3-0.3,0.5-0.5,0.8c-0.1,0.2-0.2,0.4-0.3,0.6
					c0,0.1-0.1,0.1-0.1,0.2c0,0.1-0.1,0.2-0.2,0.3c-0.2,0.2-0.3,0.5-0.4,0.7c0,0.1,0.1,0.1,0.1,0.1c0.1-0.2,0.3-0.5,0.4-0.7
					c0.1-0.2,0.2-0.4,0.3-0.5c0.2-0.2,0.2-0.4,0.4-0.6c0.2-0.2,0.3-0.4,0.4-0.7c0.3-0.5,0.6-1,1-1.5c0.4-0.4,0.7-0.8,1-1.2
					c0.3-0.5,0.5-1.1,0.8-1.6c0.3-0.5,0.7-0.9,1-1.4c0.3-0.5,0.6-1,0.9-1.5C22.7,14.9,23.1,14.4,23.5,13.9
					C23.6,13.9,23.5,13.8,23.5,13.9z"/>
				<path fill="#74471D" d="M23.9,14.7c-0.3,0.3-0.5,0.7-0.8,1.1c-0.3,0.5-0.6,1-0.9,1.5c-0.3,0.4-0.6,0.9-0.8,1.4
					c-0.2,0.5-0.5,1-0.7,1.5c-0.2,0.5-0.4,0.9-0.7,1.4c-0.2,0.4-0.4,0.9-0.6,1.4c-0.2,0.4-0.6,0.8-0.7,1.3c-0.1,0.2-0.2,0.5-0.3,0.7
					c-0.1,0.1-0.1,0.2-0.2,0.3c-0.1,0.1,0,0.2-0.1,0.2c0,0.1,0,0.1,0.1,0.1l0,0c0,0,0,0,0,0c0.1-0.1,0.1-0.2,0.2-0.3
					c0.1-0.2,0.2-0.4,0.3-0.5c0.1-0.2,0.1-0.4,0.3-0.6c0.1-0.2,0.3-0.5,0.4-0.7c0.3-0.4,0.4-0.9,0.6-1.3c0.2-0.5,0.5-0.9,0.7-1.4
					c0.4-1,0.9-2.1,1.5-3c0.3-0.5,0.6-0.9,0.9-1.4C23.4,15.7,23.6,15.2,23.9,14.7C24.1,14.7,24,14.6,23.9,14.7z"/>
				<path fill="#74471D" d="M24.5,18.1c-0.4,0.5-0.6,1-0.8,1.5c-0.1,0.3-0.3,0.6-0.5,0.9c-0.2,0.3-0.3,0.6-0.5,0.9
					c-0.2,0.3-0.4,0.6-0.5,0.9c-0.1,0.3-0.3,0.6-0.4,0.9c-0.2,0.5-0.4,1-0.6,1.5c0,0.1,0.1,0.1,0.1,0c0.1-0.2,0.1-0.5,0.2-0.7
					c0.1-0.2,0.2-0.5,0.3-0.8c0.3-0.6,0.5-1.2,0.9-1.7c0.4-0.5,0.6-1.1,0.9-1.7c0.1-0.2,0.2-0.5,0.3-0.7
					C24.2,18.9,24.4,18.5,24.5,18.1C24.7,18.2,24.6,18.1,24.5,18.1z"/>
				<path fill="#74471D" d="M20.2,11.7c-0.3,0.4-0.6,0.7-0.8,1.1c-0.3,0.4-0.6,0.9-0.9,1.3c-0.6,0.8-1.3,1.5-1.9,2.3
					c-0.2,0.4-0.5,0.8-0.7,1.1c-0.2,0.4-0.5,0.8-0.8,1.2c-0.3,0.4-0.5,0.8-0.7,1.2c-0.1,0.2-0.3,0.4-0.5,0.6
					c-0.1,0.1-0.2,0.3-0.3,0.5c0,0.1,0.1,0.1,0.1,0c0-0.2,0.3-0.4,0.4-0.6c0.1-0.2,0.3-0.3,0.4-0.5c0.2-0.4,0.4-0.7,0.6-1.1
					c0.3-0.4,0.5-0.7,0.7-1.1c0.2-0.4,0.4-0.8,0.7-1.2c0.3-0.4,0.6-0.8,1-1.2c0.3-0.4,0.6-0.7,0.9-1.1c0.3-0.4,0.6-0.8,0.8-1.2
					c0.3-0.4,0.6-0.8,0.9-1.2C20.4,11.7,20.2,11.6,20.2,11.7z"/>
				<path fill="#74471D" d="M14.6,13.2c0,0.2-0.2,0.3-0.3,0.5c-0.1,0.2-0.2,0.4-0.3,0.6c-0.2,0.4-0.5,0.7-0.7,1.1
					c-0.2,0.4-0.4,0.8-0.6,1.1c-0.1,0.2-0.3,0.3-0.4,0.5c-0.1,0.2-0.2,0.4-0.4,0.5c-0.1,0.1,0,0.1,0.1,0.1c0.1-0.1,0.2-0.2,0.3-0.3
					c0.1-0.2,0.2-0.4,0.4-0.6c0.3-0.4,0.5-0.8,0.7-1.2c0.2-0.4,0.5-0.8,0.7-1.2c0.1-0.2,0.3-0.4,0.4-0.7c0.1-0.2,0.2-0.2,0.3-0.4
					C14.7,13.2,14.6,13.2,14.6,13.2z"/>
				<path fill="#74471D" d="M13.3,13.6c-0.1,0-0.2,0.2-0.3,0.3c-0.2,0.2-0.4,0.4-0.6,0.7c-0.3,0.4-0.5,0.8-0.7,1.3
					c-0.2,0.5-0.4,1-0.7,1.5c-0.1,0.2-0.2,0.4-0.4,0.6c-0.1,0.2-0.3,0.3-0.4,0.5c0,0.1,0.1,0.1,0.1,0.1c0.1-0.2,0.3-0.3,0.4-0.5
					c0.1-0.1,0.2-0.3,0.3-0.5c0.1-0.2,0.2-0.4,0.4-0.6c0.1-0.2,0.2-0.4,0.3-0.6c0.2-0.4,0.3-0.9,0.6-1.3c0.1-0.2,0.3-0.5,0.5-0.7
					c0.1-0.1,0.3-0.4,0.5-0.5c0,0,0.1,0,0.1,0L13.3,13.6C13.4,13.6,13.4,13.6,13.3,13.6z"/>
			</g>
			<g>
				<path fill="#74471D" d="M8.5,19.4c-0.1-0.5-0.2-1-0.4-1.5C8,17.4,8,16.8,7.9,16.2c0-0.1-0.1-0.2-0.2-0.2c-1-0.3-2-0.8-3-1.1
					c-0.9-0.2-1.9-0.4-2.7-0.8c-0.1,0-0.1,0-0.2,0c-0.1,0-0.3,0.1-0.3,0.2c0,0.8,0.2,1.5,0.2,2.3c0,0.8,0.8,1.1,1.4,1.4
					c0.9,0.4,1.9,0.6,2.8,1c0.7,0.3,1.4,0.7,2.1,0.8c0,0,0.1,0,0.1,0c0.1,0,0.2-0.1,0.2-0.2v-0.1C8.5,19.5,8.5,19.4,8.5,19.4z
					 M6.4,18.7c-0.3-0.1-0.6-0.3-0.9-0.4c-0.5-0.1-0.9-0.3-1.4-0.5c-0.4-0.1-0.7-0.2-1.1-0.4c-0.2-0.1-0.3-0.2-0.5-0.3
					c-0.3-0.2-0.3-0.4-0.3-0.8c0-0.6-0.2-1.1-0.2-1.7c0.7,0.3,1.5,0.6,2.3,0.7c1.1,0.2,2.1,0.7,3.1,1.1c0.1,0.5,0.1,0.9,0.1,1.4
					c0.1,0.5,0.2,0.9,0.3,1.4c-0.1,0-0.2,0-0.4-0.1C7.2,18.9,6.8,18.9,6.4,18.7z"/>
				<path fill="#74471D" d="M24.6,14.9c-0.5-1.3-1.8-2.3-3-2.8c-1.4-0.7-3-0.5-4.5-0.1c-0.9,0.2-1.6,0.5-2.5,0.8
					c-0.8,0.3-1.5,0.6-2.3,1c-0.8,0.4-1.7,0.7-2.5,1.1c-0.4,0.2-0.7,0.4-1,0.6c-0.4,0.2-0.8,0.4-1.2,0.6c-0.3,0.1,0,0.6,0.3,0.4
					c0.7-0.4,1.4-0.7,2-1.1c0.7-0.5,1.8-0.7,2.5-1.1c0.7-0.4,1.5-0.7,2.3-1c0.9-0.3,1.8-0.7,2.7-0.9c0.9-0.2,1.8-0.3,2.6-0.2
					c0.9,0,1.7,0.6,2.4,1c0.3,0.2,0.6,0.5,0.9,0.7c0.3,0.3,0.6,0.7,0.8,1c0.4,0.9,0.4,1.9,0.4,2.9c0,0.9-0.2,1.7-0.5,2.5
					c-0.1,0.4-0.3,0.8-0.6,1.2c-0.3,0.3-0.4,0.8-0.6,1.2c-0.5,0.8-1.2,1.6-2,2.1c-0.8,0.5-2,0.5-2.9,0.5c-1,0-2.1-0.1-2.8-0.8
					c-0.3-0.3-0.5-0.8-0.6-1.1c-0.3-0.5-0.5-1-0.6-1.6c-0.1-0.9,0.1-1.7,0.5-2.5c0.3-0.7,0.6-1.5,0.9-2.2c0.1-0.3,0.4-0.5,0.6-0.7
					c0.1-0.1,0.1-0.2,0.1-0.2c0-0.2-0.2-0.4-0.4-0.3c-0.5,0.3-1.2,0.3-1.7,0.6c-0.6,0.4-1.3,0.5-1.9,0.8c-0.6,0.4-1.3,0.6-1.9,1
					c-0.3,0.2-0.7,0.3-1,0.5C9,19,8.6,19.2,8.3,19.3c-0.3,0-0.2,0.5,0.1,0.5c0.2,0,0.3-0.1,0.5-0.2c0.3-0.2,0.7-0.3,1-0.5
					c0.6-0.4,1.3-0.7,2-1c0.6-0.3,1.3-0.6,2-0.9c0.3-0.2,0.7-0.3,1-0.4c-0.2,0.3-0.3,0.6-0.4,0.9c-0.2,0.7-0.6,1.4-0.9,2.1
					c-0.3,0.7-0.4,1.5-0.3,2.3c0.1,0.8,0.5,1.5,0.9,2.1c0.4,0.6,0.7,1.1,1.4,1.3c0.4,0.1,0.8,0.3,1.2,0.3c0.5,0.1,1,0,1.4,0
					c0.8,0,1.6-0.1,2.3-0.4c0.8-0.3,1.4-0.9,1.9-1.6c0.5-0.6,0.8-1.2,1.1-1.9c0.1-0.4,0.4-0.6,0.6-1c0.2-0.5,0.3-0.9,0.4-1.4
					c0.2-0.7,0.3-1.5,0.3-2.2C24.9,16.6,24.9,15.7,24.6,14.9z"/>
				<path fill="#74471D" d="M15.9,25.1c-0.9-0.5-1.9-0.4-2.7-0.8c-0.9-0.4-1.9-0.6-2.8-0.9c-1-0.4-2.1-0.8-2.8-1.6
					c-0.2-0.2-0.4-0.3-0.5-0.6c-0.1-0.3-0.1-0.6,0-0.9c0-0.3,0.1-0.6,0.1-0.8c0.1-0.1,0.1-0.4-0.2-0.4H6.8c-0.1,0-0.2,0.1-0.2,0.2
					c-0.1,0.8-0.4,1.8,0.2,2.5c0.6,0.8,1.8,1.3,2.7,1.8c1,0.5,2.1,0.7,3.1,1.1c0.4,0.2,0.9,0.4,1.3,0.4c0.6,0,1.4,0.2,1.9,0.5
					C16,25.7,16.2,25.3,15.9,25.1z"/>
				<path fill="#74471D" d="M20.5,11.8c-0.4-0.1-0.8-0.4-1.2-0.5c-0.5-0.2-1-0.3-1.5-0.5c-0.8-0.3-1.7-0.6-2.6-0.8
					c-0.4-0.1-0.9-0.2-1.2-0.2c-0.3,0-0.8,0-1.1-0.1c-0.8-0.3-1.7,0-2.5,0.2c-1.5,0.3-3,0.9-4.4,1.5c-0.4,0.2-0.8,0.5-1.2,0.7
					c-0.4,0.2-0.9,0.4-1.3,0.7c-0.4,0.2-0.7,0.6-1.1,0.8c-0.3,0.2-0.6,0.3-0.8,0.6c-0.1,0.2,0,0.4,0.2,0.4H2c0.2,0,0.2-0.1,0.2-0.2
					c0.2-0.2,0.6-0.4,0.8-0.5c0.4-0.3,0.7-0.6,1.1-0.8c0.4-0.2,0.8-0.4,1.1-0.5c0.5-0.3,0.9-0.6,1.4-0.8c1.3-0.5,2.6-1.1,4-1.3
					c0.4-0.1,0.8-0.2,1.2-0.2c0.2,0,0.4,0,0.7,0c0.2,0,0.3,0.1,0.5,0.1c0.3,0,0.7,0,1.1,0.1c0.4,0.1,0.9,0.1,1.4,0.3
					c0.4,0.1,0.8,0.2,1.2,0.3c0.4,0.2,0.8,0.3,1.2,0.4c0.4,0.2,0.8,0.3,1.3,0.4c0.4,0.1,0.8,0.4,1.2,0.5
					C20.7,12.4,20.8,11.9,20.5,11.8z"/>
				<path fill="#74471D" d="M24,11.8c-0.3-0.6-0.9-1.1-1.5-1.4c-0.7-0.3-1.5-0.3-2.2,0c-0.5,0.2-1.1,0.4-1.2,0.9
					c-0.1,0.3,0.4,0.4,0.5,0.1c0.1-0.3,0.6-0.5,0.9-0.6c0.6-0.2,1.1-0.2,1.7-0.1c0.6,0.2,1.2,0.7,1.4,1.3c0.1,0.4,0,0.8-0.1,1.2
					c0,0,0,0.1,0,0.1v0.1c0,0.3,0.4,0.3,0.5,0.1C24.2,13,24.3,12.4,24,11.8z"/>
				<path fill="#74471D" d="M14.4,11.7c0-0.1,0-0.2-0.1-0.2c-0.4-0.2-1-0.3-1.4-0.5c-0.3-0.1-0.6-0.2-1-0.2c-0.1,0-0.9-0.1-0.9-0.2
					c-0.1-0.1-0.1-0.1-0.2-0.1c0,0,0,0-0.1,0c-0.5,0.1-0.9,0.3-1.3,0.4c-0.4,0.1-0.6,0.3-0.9,0.5c-0.1,0.1-0.1,0.3,0.1,0.4
					c0.4,0.2,0.9,0.3,1.4,0.4c0.6,0.1,1.2,0.4,1.8,0.6c0.4,0.1,0.7,0.3,1.1,0.1c0.3-0.2,0.7-0.3,1-0.4c0.2-0.1,0.3-0.3,0.6-0.3
					c0.1,0,0.2-0.1,0.2-0.2L14.4,11.7C14.4,11.8,14.4,11.8,14.4,11.7z M13,12.1c-0.3,0.1-0.6,0.4-1,0.3c-0.2-0.1-0.3-0.1-0.5-0.1
					c-0.5-0.1-0.9-0.4-1.4-0.5c-0.3-0.1-0.7-0.1-1-0.2c0.2-0.1,0.3-0.1,0.5-0.2c0.3-0.1,0.7-0.3,1-0.3c0.1,0.1,0.2,0.1,0.3,0.1
					c0.5,0,1,0.1,1.5,0.2c0.4,0.1,0.9,0.2,1.3,0.4C13.4,11.9,13.2,12,13,12.1z"/>
			</g>
		</g>
	</g>
	<g>
		<g>
			<path fill="#75471C" d="M19.8,4.3c-1.6,1.5-3.7,2.9-5.5,4.5c-0.1,0.1,0.2,0.1,0.3,0.1c1.8-1.5,4-2.9,5.7-4.5c0,0,0,0,0,0"/>
		</g>
		<g>
			<path fill="#75471C" d="M16.9,3.6c-0.8,1.7-2.2,3.4-3.2,5c-0.1,0.1,0.3,0.1,0.3,0c1-1.7,2.4-3.4,3.3-5.1c0,0,0,0,0,0"/>
		</g>
		<g>
			<path fill="#75471C" d="M14.9,3.5c-0.5,1.8-1.5,3.5-2.2,5.2c0,0.1,0.3,0.1,0.3,0c0.7-1.8,1.8-3.5,2.3-5.3c0,0,0,0,0,0"/>
		</g>
	</g>
</g>
</svg>
