<?xml version="1.0"?>
<svg xmlns="http://www.w3.org/2000/svg" xmlns:xlink="http://www.w3.org/1999/xlink" xmlns:svgjs="http://svgjs.com/svgjs" version="1.1" width="512" height="512" x="0" y="0" viewBox="0 0 300 300" style="enable-background:new 0 0 512 512" xml:space="preserve" class=""><g><g xmlns="http://www.w3.org/2000/svg"><circle cx="128" cy="154" fill="#9bb3c4" r="86" data-original="#e5efef" style="" class=""/><g><path d="m148 80h-82v-13.109c0-10.433 8.458-18.891 18.891-18.891h63.109z" fill="#efefd2" data-original="#efefd2" style="" class=""/><path d="m148 84h-82c-2.211 0-4-1.791-4-4v-13.109c0-12.621 10.27-22.891 22.891-22.891h63.109c2.211 0 4 1.791 4 4v32c0 2.209-1.789 4-4 4zm-78-8h74v-24h-59.109c-8.211 0-14.891 6.68-14.891 14.891z" fill="#54310c" data-original="#4c241d" style="" class=""/></g><g><path d="m84.894 48.019c10.659.451 17.106 9.004 17.106 19.981v157.217c0 14.792 9.208 26.783 24 26.783h96l16-11.944v-169.41c0-12.507-10.139-22.646-22.646-22.646h-129.354z" fill="#ffffff" data-original="#ffffff" style="" class=""/><path d="m222 256h-96c-16.223 0-28-12.945-28-30.783v-157.217c0-9.369-5.211-15.643-13.273-15.984-2.16-.092-3.859-1.883-3.832-4.045s1.766-3.912 3.93-3.951l1.105-.02h129.426c14.691 0 26.644 11.953 26.644 26.646v169.41c0 1.262-.598 2.451-1.605 3.205l-16 11.943c-.692.517-1.532.796-2.395.796zm-121.109-204c3.242 4.145 5.109 9.668 5.109 16v157.217c0 13.414 8.223 22.783 20 22.783h94.672l13.328-9.949v-167.405c0-10.281-8.363-18.646-18.645-18.646z" fill="#54310c" data-original="#4c241d" style="" class=""/></g><g><path d="m126 252h108.888c10.555 0 19.112-8.557 19.112-19.112v-8.888h-108v6c0 11.659-9.069 21.199-20.537 21.952z" fill="#efefd2" data-original="#efefd2" style="" class=""/><path d="m234.887 256h-108.887c-.117 0-.23-.006-.348-.016l-.539-.047c-2.082-.18-3.676-1.936-3.652-4.027.023-2.09 1.652-3.811 3.738-3.949 9.422-.619 16.801-8.508 16.801-17.961v-6c0-2.209 1.789-4 4-4h108c2.211 0 4 1.791 4 4v8.889c0 12.744-10.367 23.111-23.113 23.111zm-92.153-8h92.152c8.332 0 15.113-6.779 15.113-15.111v-4.889h-99.999v2c0 6.945-2.762 13.309-7.266 18z" fill="#54310c" data-original="#4c241d" style="" class=""/></g><path d="m59.656 201.656c-1.023 0-2.047-.391-2.828-1.172l-11.312-11.312c-1.562-1.562-1.562-4.094 0-5.656s4.094-1.562 5.656 0l11.312 11.312c1.562 1.562 1.562 4.094 0 5.656-.781.782-1.804 1.172-2.828 1.172z" fill="#54310c" data-original="#4c241d" style="" class=""/><path d="m48.344 201.656c-1.023 0-2.047-.391-2.828-1.172-1.562-1.562-1.562-4.094 0-5.656l11.312-11.312c1.562-1.562 4.094-1.562 5.656 0s1.562 4.094 0 5.656l-11.312 11.312c-.781.782-1.805 1.172-2.828 1.172z" fill="#54310c" data-original="#4c241d" style="" class=""/><circle cx="82" cy="180" fill="#54310c" r="4" data-original="#4c241d" style="" class=""/><circle cx="70" cy="136" fill="#54310c" r="4" data-original="#4c241d" style="" class=""/><g fill="#b5a19c"><path d="m170 188h-48c-2.211 0-4-1.791-4-4s1.789-4 4-4h48c2.211 0 4 1.791 4 4s-1.789 4-4 4z" fill="#d3cbbe" data-original="#b5a19c" style="" class=""/><path d="m194 200h-72c-2.211 0-4-1.791-4-4s1.789-4 4-4h72c2.211 0 4 1.791 4 4s-1.789 4-4 4z" fill="#d3cbbe" data-original="#b5a19c" style="" class=""/><path d="m198 152h-76c-2.211 0-4-1.791-4-4s1.789-4 4-4h76c2.211 0 4 1.791 4 4s-1.789 4-4 4z" fill="#d3cbbe" data-original="#b5a19c" style="" class=""/><path d="m218 140h-96c-2.211 0-4-1.791-4-4s1.789-4 4-4h96c2.211 0 4 1.791 4 4s-1.789 4-4 4z" fill="#d3cbbe" data-original="#b5a19c" style="" class=""/><path d="m166 128h-44c-2.211 0-4-1.791-4-4s1.789-4 4-4h44c2.211 0 4 1.791 4 4s-1.789 4-4 4z" fill="#d3cbbe" data-original="#b5a19c" style="" class=""/><path d="m166 88h-44c-2.211 0-4-1.791-4-4s1.789-4 4-4h44c2.211 0 4 1.791 4 4s-1.789 4-4 4z" fill="#d3cbbe" data-original="#b5a19c" style="" class=""/><path d="m218 128h-40c-2.211 0-4-1.791-4-4s1.789-4 4-4h40c2.211 0 4 1.791 4 4s-1.789 4-4 4z" fill="#d3cbbe" data-original="#b5a19c" style="" class=""/><path d="m206 100h-84c-2.211 0-4-1.791-4-4s1.789-4 4-4h84c2.211 0 4 1.791 4 4s-1.789 4-4 4z" fill="#d3cbbe" data-original="#b5a19c" style="" class=""/></g></g></g></svg>
